<svg width="236" height="78" viewBox="0 0 236 78" fill="none" xmlns="http://www.w3.org/2000/svg">
<path d="M41.1483 22.3672H45.093C45.3551 22.3672 45.5648 22.1584 45.5648 21.9104C45.5648 21.6494 45.3551 21.4405 45.093 21.4405H41.1483C40.8993 21.4405 40.6765 21.6494 40.6765 21.9104C40.6765 22.1584 40.8862 22.3672 41.1483 22.3672ZM43.1141 56.8366C41.9871 56.8366 41.0566 57.7633 41.0566 58.8857C41.0566 60.0082 41.9739 60.9348 43.1141 60.9348C44.2543 60.9348 45.1717 60.0212 45.1717 58.8857C45.1717 57.7502 44.2543 56.8366 43.1141 56.8366ZM33.0491 55.0877H53.2053V25.3952H33.0491V55.0877ZM97.6459 45.3381C96.6892 45.3381 95.8242 45.6513 95.051 46.2778C94.2778 46.9174 93.7666 47.7396 93.5307 48.7707C93.4128 49.2536 93.3604 49.6452 93.3604 49.9453V52.8298C93.3604 54.0958 93.7404 55.166 94.5268 56.0274C95.3 56.8888 96.3091 57.3326 97.5541 57.3326C99.0088 57.3326 100.149 56.7714 100.962 55.6489C101.774 54.5265 102.18 53.0516 102.18 51.2113C102.18 49.5277 101.8 48.1312 101.04 47.0348C100.188 45.9124 99.0612 45.3381 97.6459 45.3381ZM168.323 45.0901C166.777 45.0901 165.584 45.7819 164.785 47.1523C164.077 48.2878 163.737 49.6713 163.737 51.3158C163.737 52.9081 164.077 54.2785 164.785 55.414C165.611 56.7844 166.79 57.4761 168.297 57.4761C169.765 57.4761 170.931 56.7844 171.77 55.3748C172.491 54.2263 172.858 52.8428 172.858 51.2505C172.858 49.6582 172.517 48.2878 171.823 47.1523C170.984 45.7819 169.831 45.0901 168.323 45.0901ZM116.806 45.3381C115.849 45.3381 114.984 45.6513 114.211 46.2778C113.438 46.9174 112.927 47.7396 112.678 48.7707C112.56 49.2536 112.507 49.6452 112.507 49.9453V52.8298C112.507 54.0958 112.887 55.166 113.674 56.0274C114.447 56.8888 115.456 57.3326 116.701 57.3326C118.169 57.3326 119.296 56.7714 120.122 55.6489C120.934 54.5265 121.34 53.0516 121.34 51.2113C121.34 49.5277 120.96 48.1312 120.187 47.0348C119.348 45.9124 118.221 45.3381 116.806 45.3381ZM76.782 39.1255H76.7034C76.4544 40.1436 76.0874 41.6575 75.5501 43.6675L73.5449 49.9584H80.0321L78.0008 43.6675C77.778 43.0149 77.3717 41.5009 76.782 39.1255ZM197.706 44.9074C196.448 44.9074 195.412 45.4425 194.626 46.4867C193.984 47.322 193.591 48.3139 193.473 49.4755H201.546C201.572 48.34 201.323 47.3481 200.799 46.5128C200.117 45.4556 199.082 44.9074 197.706 44.9074ZM93.8584 27.7706C93.9108 27.6009 93.9108 27.4443 93.9108 27.2746V26.0478C92.3119 26.0347 90.7786 26.361 90.7786 27.7184C90.7786 28.6059 91.3552 29.0105 92.0629 29.0105C92.9934 28.9974 93.6356 28.4101 93.8584 27.7706ZM72.7193 22.1584C72.4834 21.4014 72.2737 20.5661 72.0903 19.8482H72.0509C71.8675 20.5661 71.6578 21.4275 71.4612 22.1584L70.5045 25.2125H73.6891L72.7193 22.1584ZM201.284 21.2709C204.193 21.2709 205.163 23.6593 205.163 25.6301C205.163 26.0478 205.124 26.3871 205.084 26.5829H199.069C199.121 28.2013 200.379 28.893 201.834 28.893C202.883 28.893 203.63 28.7234 204.324 28.4884L204.652 30.0285C203.879 30.3548 202.804 30.6028 201.52 30.6028C198.61 30.6028 196.893 28.8278 196.893 26.0869C196.893 23.6071 198.4 21.2709 201.284 21.2709ZM165.296 21.4797L165.401 22.824H165.453C165.86 22.1192 166.829 21.2839 168.323 21.2839C169.896 21.2839 171.508 22.2889 171.508 25.1211V30.4331H169.241V25.3821C169.241 24.1031 168.756 23.1242 167.524 23.1242C166.62 23.1242 165.991 23.7637 165.755 24.4424C165.676 24.6251 165.65 24.8992 165.65 25.1603V30.4331H163.383V24.1553C163.383 23.1242 163.343 22.2628 163.304 21.4927H165.296V21.4797ZM141.47 21.2709C144.38 21.2709 145.35 23.6593 145.35 25.6301C145.35 26.0478 145.31 26.3871 145.271 26.5829H139.256C139.308 28.2013 140.566 28.893 142.021 28.893C143.069 28.893 143.803 28.7234 144.511 28.4884L144.839 30.0285C144.065 30.3548 142.991 30.6028 141.706 30.6028C138.797 30.6028 137.08 28.8278 137.08 26.0869C137.08 23.6071 138.6 21.2709 141.47 21.2709ZM132.179 17.3815H134.446V30.4201H132.179V17.3815ZM114.198 22.8632C113.307 22.8632 112.389 23.1372 111.787 23.5288L111.341 22.054C112.009 21.6494 113.163 21.2578 114.591 21.2578C117.474 21.2578 118.3 23.072 118.3 25.0428V28.2535C118.3 29.0627 118.339 29.8458 118.444 30.407H116.4L116.229 29.4151H116.177C115.64 30.1068 114.696 30.6028 113.517 30.6028C111.708 30.6028 110.699 29.2976 110.699 27.9403C110.699 25.6954 112.704 24.5468 116.033 24.5599V24.4163C116.02 23.842 115.771 22.8632 114.198 22.8632ZM100.778 17.7469C101.551 17.7469 102.036 18.282 102.049 18.9738C102.049 19.6394 101.551 20.1876 100.752 20.1876C99.9917 20.1876 99.4937 19.6394 99.4937 18.9738C99.5068 18.282 100.031 17.7469 100.778 17.7469ZM101.905 21.4797V30.4201H99.6379V21.4797H101.905ZM70.7142 18.0341H73.6105L77.647 30.407H75.1962L74.0692 26.8961H70.1375L69.0629 30.407H66.717L70.7142 18.0341ZM55.6036 59.0815C55.6036 61.2611 53.8213 63.0362 51.6327 63.0362H34.5956C32.407 63.0362 30.6246 61.2742 30.6246 59.0815V21.3883C30.6246 19.2087 32.407 17.4337 34.5956 17.4337H51.6327C53.8213 17.4337 55.6036 19.2087 55.6036 21.3883V59.0815ZM82.9809 59.9821L80.7267 52.9081H72.8635L70.7142 59.9821H66.7039L74.4754 35.9018H79.2851L87.1091 59.9821H82.9809ZM83.8589 30.4201H81.631L78.2891 21.4797H80.7398L82.1945 26.0217C82.4567 26.8048 82.6401 27.5226 82.7974 28.2665H82.8498C83.0202 27.5357 83.2168 26.8309 83.4527 26.0217L84.8943 21.4797H87.2794L83.8589 30.4201ZM88.5376 27.9533C88.5376 25.7084 90.5427 24.5599 93.8715 24.5729V24.4294C93.8715 23.842 93.6356 22.8632 92.0498 22.8632C91.1587 22.8632 90.2413 23.1372 89.6384 23.5288L89.1928 22.054C89.8612 21.6494 91.0145 21.2578 92.443 21.2578C95.3131 21.2578 96.1518 23.072 96.1518 25.0428V28.2535C96.1518 29.0627 96.1912 29.8458 96.296 30.407H94.2515L94.0812 29.4151H94.0288C93.4914 30.1068 92.5478 30.6028 91.3684 30.6028C89.5467 30.6158 88.5376 29.3107 88.5376 27.9533ZM103.701 58.1026C102.259 59.6166 100.464 60.3867 98.3273 60.3867C96.0077 60.3867 94.3564 59.5644 93.3473 57.9199V67.043H89.4812V48.3269C89.4812 46.4736 89.4287 44.5681 89.337 42.6234H92.7444L92.9541 45.3773H93.0196C94.3171 43.3151 96.2698 42.271 98.904 42.271C100.962 42.271 102.678 43.0802 104.054 44.6986C105.43 46.317 106.112 48.4575 106.112 51.0939C106.125 54.0566 105.313 56.3798 103.701 58.1026ZM107.737 30.4201H105.47V17.3815H107.737V30.4201ZM122.861 58.1026C121.419 59.6166 119.624 60.3867 117.487 60.3867C115.181 60.3867 113.517 59.5644 112.521 57.9199V67.043H108.641V48.3269C108.641 46.4736 108.589 44.5681 108.497 42.6234H111.891L112.114 45.3773H112.18C113.477 43.3151 115.43 42.271 118.064 42.271C120.122 42.271 121.838 43.0802 123.215 44.6986C124.591 46.317 125.285 48.4575 125.285 51.0939C125.272 54.0566 124.473 56.3798 122.861 58.1026ZM125.521 30.6158C124.355 30.6158 123.333 30.1721 122.677 29.0758H122.638L122.533 30.4201H120.593C120.633 29.8197 120.672 28.8278 120.672 27.9011V17.3815H122.939V22.7065H122.979C123.529 21.8451 124.512 21.2709 125.862 21.2709C128.05 21.2709 129.623 23.085 129.61 25.8128C129.597 29.0235 127.539 30.6158 125.521 30.6158ZM145.022 58.2331C143.436 59.6427 141.248 60.3345 138.43 60.3345C135.822 60.3345 133.738 59.8385 132.166 58.8335L133.07 55.6228C134.76 56.6147 136.635 57.1237 138.653 57.1237C140.121 57.1237 141.248 56.7975 142.06 56.1449C142.873 55.4923 143.279 54.6178 143.279 53.5084C143.279 52.5426 142.938 51.7204 142.283 51.0547C141.601 50.3891 140.501 49.7757 138.954 49.2014C134.721 47.6352 132.611 45.3381 132.611 42.3101C132.611 40.3263 133.345 38.7079 134.852 37.4419C136.346 36.1889 138.325 35.5494 140.789 35.5494C142.991 35.5494 144.812 35.9279 146.28 36.6849L145.297 39.8303C143.934 39.0994 142.388 38.7209 140.658 38.7209C139.295 38.7209 138.22 39.0603 137.447 39.7128C136.805 40.3132 136.477 41.0441 136.477 41.9055C136.477 42.8452 136.844 43.6414 137.591 44.2679C138.233 44.8421 139.413 45.4556 141.103 46.1212C143.187 46.9435 144.721 47.9354 145.703 49.0578C146.686 50.1803 147.171 51.5637 147.171 53.2344C147.158 55.2835 146.437 56.9541 145.022 58.2331ZM158.678 45.5078H154.406V53.9522C154.406 56.0927 155.166 57.1629 156.673 57.1629C157.367 57.1629 157.931 57.1107 158.39 56.9932L158.494 59.9168C157.734 60.2039 156.725 60.3475 155.48 60.3475C153.96 60.3475 152.754 59.8907 151.889 58.951C151.024 58.0243 150.592 56.4581 150.592 54.2785V45.5078H148.049V42.6234H150.592V39.4388L154.392 38.2902V42.6103H158.665V45.5078H158.678ZM156.489 30.6158C153.96 30.6158 151.994 28.893 151.994 26.0086C151.994 23.072 153.934 21.2709 156.647 21.2709C159.32 21.2709 161.115 23.1503 161.115 25.865C161.102 29.1541 158.77 30.6158 156.489 30.6158ZM174.575 57.7372C172.963 59.4991 170.84 60.3736 168.192 60.3736C165.624 60.3736 163.579 59.5253 162.072 57.8416C160.552 56.1579 159.805 54.0175 159.805 51.4463C159.805 48.7576 160.591 46.5519 162.151 44.8421C163.723 43.1193 165.82 42.271 168.481 42.271C171.049 42.271 173.107 43.1063 174.653 44.803C176.134 46.4344 176.868 48.5619 176.868 51.1591C176.855 53.8347 176.095 56.0144 174.575 57.7372ZM178.572 21.4797H179.843V19.796L182.071 19.1695V21.4666H184.233V23.1503H182.071V27.105C182.071 28.2013 182.359 28.7625 183.237 28.7625C183.644 28.7625 183.867 28.7495 184.129 28.6711L184.168 30.3809C183.84 30.5114 183.224 30.6158 182.53 30.6158C181.678 30.6158 180.996 30.3418 180.577 29.885C180.079 29.3759 179.856 28.5406 179.856 27.366V23.1634H178.585V21.4797H178.572ZM188.519 46.0168C188.139 45.9515 187.733 45.9124 187.3 45.9124C185.937 45.9124 184.889 46.4214 184.142 47.4394C183.5 48.353 183.172 49.4755 183.172 50.872V59.9821H179.293V48.079C179.293 46.0951 179.253 44.2679 179.188 42.6234H182.556L182.7 45.9515H182.805C183.211 44.816 183.853 43.8894 184.745 43.2107C185.61 42.5842 186.54 42.284 187.549 42.284C187.903 42.284 188.231 42.2971 188.506 42.3493V46.0168H188.519ZM189.109 25.0558V30.4201H186.841V17.3815H189.109V22.6935H189.148C189.423 22.2758 189.816 21.9234 190.275 21.6885C190.734 21.4275 191.271 21.2839 191.848 21.2839C193.381 21.2839 194.98 22.2889 194.98 25.1603V30.4331H192.713V25.4082C192.713 24.1292 192.228 23.1242 190.983 23.1242C190.092 23.1242 189.476 23.7115 189.214 24.3902C189.122 24.5729 189.109 24.8209 189.109 25.0558ZM205.097 52.2424H193.473C193.525 53.9522 194.076 55.2574 195.163 56.1579C196.146 56.9671 197.404 57.3717 198.964 57.3717C200.694 57.3717 202.253 57.0976 203.669 56.5495L204.285 59.2381C202.647 59.956 200.681 60.3083 198.44 60.3083C195.74 60.3083 193.617 59.5253 192.084 57.933C190.537 56.3537 189.764 54.2263 189.764 51.5637C189.764 48.9404 190.485 46.7607 191.913 45.0249C193.434 43.1715 195.465 42.2449 198.02 42.2449C200.537 42.2449 202.437 43.1715 203.721 45.0249C204.744 46.4997 205.268 48.3269 205.268 50.4935C205.228 51.1722 205.189 51.7595 205.097 52.2424ZM125.023 23.0328C124.106 23.0328 123.254 23.6985 123.018 24.6904C122.979 24.8601 122.939 25.0558 122.939 25.2777V26.7265C122.939 26.9092 122.952 27.0919 122.992 27.2616C123.228 28.1752 124.027 28.8408 124.997 28.8408C126.412 28.8408 127.29 27.7184 127.29 25.9042C127.29 24.3249 126.53 23.0328 125.023 23.0328ZM141.339 22.811C139.937 22.811 139.347 24.077 139.256 24.9906H143.2C143.227 24.1683 142.86 22.811 141.339 22.811ZM156.581 22.9023C154.982 22.9023 154.327 24.4685 154.327 25.9564C154.327 27.6792 155.192 28.9844 156.555 28.9844C157.839 28.9844 158.743 27.7314 158.743 25.9173C158.757 24.5207 158.127 22.9023 156.581 22.9023ZM112.94 27.7184C112.94 28.6059 113.517 29.0105 114.224 29.0105C115.142 29.0105 115.797 28.4232 116.02 27.7836C116.072 27.614 116.072 27.4573 116.072 27.2877V26.0608C114.473 26.0217 112.94 26.361 112.94 27.7184ZM201.153 22.811C199.75 22.811 199.161 24.077 199.069 24.9906H203.014C203.027 24.1683 202.66 22.811 201.153 22.811Z" fill="white"/>
<path d="M223.787 77.8031H11.263C5.04794 77.8031 0 73.105 0 67.3343V10.4824C0 4.69806 5.04794 0 11.263 0H223.787C230.002 0 235.05 4.69806 235.05 10.4824V67.3207C235.065 73.105 230.002 77.8031 223.787 77.8031ZM11.263 2.71564C6.66736 2.71564 2.91788 6.20524 2.91788 10.4824V67.3207C2.91788 71.5978 6.66736 75.0739 11.263 75.0739H223.787C228.397 75.0739 232.132 71.5978 232.132 67.3207V10.4824C232.132 6.19166 228.383 2.71564 223.787 2.71564H11.263Z" fill="white"/>
</svg>
