<svg width="118" height="119" viewBox="0 0 118 119" fill="none" xmlns="http://www.w3.org/2000/svg">
<g clip-path="url(#clip0)">
<path d="M1.3161 46.2708C1.3241 46.1624 1.3321 46.0579 1.34411 45.9494C1.40011 45.8289 1.48012 45.7164 1.51212 45.5878C2.38821 41.9716 3.59233 38.4639 5.13249 35.0848C8.38882 27.953 12.8693 21.697 18.5699 16.325C18.8459 16.0678 19.1859 15.8629 19.3539 15.4973L19.3859 15.4611C19.586 15.3205 19.802 15.204 19.986 15.0432C25.0585 10.5391 30.7631 7.0475 37.0397 4.52422C44.4925 1.52682 52.2613 0.160709 60.2941 0.341517C62.5383 0.389732 64.7666 0.642864 66.9988 0.819654C67.1588 0.82769 67.3228 0.835726 67.4828 0.843762C67.6028 0.984391 67.7709 0.984391 67.9309 1.0085C70.0071 1.3661 72.0673 1.77593 74.1075 2.31434C81.7603 4.33537 88.685 7.81493 94.9576 12.6325C96.1497 13.5486 97.3019 14.5169 98.474 15.4611L98.506 15.4973C98.606 15.6218 98.694 15.7625 98.81 15.8709C102.202 19.0773 105.287 22.5488 107.887 26.4422C111.967 32.5495 114.888 39.1631 116.5 46.3432C116.852 47.9142 117.164 49.4973 117.492 51.0723C117.508 51.2893 117.524 51.5062 117.54 51.7232C117.532 51.8598 117.504 52.0005 117.524 52.133C117.96 55.2068 118.048 58.2966 117.984 61.3945C117.94 63.4758 117.696 65.541 117.54 67.6102C117.524 67.8272 117.512 68.0442 117.496 68.2611C117.444 68.4138 117.364 68.5585 117.34 68.7152C116.456 74.5292 114.716 80.086 112.187 85.3817C109.143 91.7622 105.071 97.4034 100.002 102.321C99.4941 102.816 99.006 103.33 98.51 103.836L98.478 103.872C98.17 103.957 97.9819 104.202 97.7579 104.403C96.1697 105.837 94.4816 107.151 92.7214 108.364C87.1328 112.222 81.1002 115.127 74.5275 116.899C70.2311 118.056 65.8787 118.791 61.4422 118.96C53.4254 119.265 45.6366 118.072 38.1118 115.211C32.6193 113.122 27.5508 110.289 22.9023 106.701C21.7142 105.785 20.5581 104.821 19.3899 103.876L19.3579 103.84C19.2779 103.732 19.2099 103.611 19.1139 103.519C15.6576 100.28 12.5412 96.7525 9.90898 92.7988C6.75666 88.0617 4.31241 82.983 2.57223 77.5587C2.12819 76.1765 1.90816 74.7301 1.34411 73.3881C1.33611 73.2796 1.3281 73.1711 1.3161 73.0666C0.99207 71.4675 0.804051 69.8402 0.364006 68.2692C0.356006 68.1044 0.348005 67.9437 0.340004 67.779C0.227993 66.3888 0.111981 64.9945 -3.0607e-05 63.6043C-0.264057 60.3659 -0.144045 57.1354 0.127982 53.905C0.344004 51.3254 0.852056 48.8022 1.3161 46.2708ZM59.518 36.8045L59.506 36.8085C59.242 36.921 59.034 37.0898 58.93 37.363C58.1659 37.9255 57.7018 38.7412 57.1778 39.5006C54.9536 42.7069 53.9855 46.307 53.8734 50.1723C53.8494 50.996 54.0695 51.7433 54.7415 52.2897L54.7495 52.3179C55.0656 53.0572 55.6216 53.6277 56.1057 54.2505C56.1097 54.2987 56.1337 54.3349 56.1737 54.359C56.2057 54.4313 56.2337 54.5117 56.2777 54.58C56.4897 54.9255 56.6617 55.3153 56.2497 55.5925C55.8176 55.8858 55.5656 55.5162 55.3256 55.2068C55.2296 55.0822 55.1096 54.9697 55.0016 54.8532H55.0056C54.8736 54.4072 54.6095 54.0697 54.1095 53.7001C54.2055 55.0782 54.1575 56.3117 54.4975 57.5131C54.5095 57.6176 54.5215 57.726 54.5375 57.8305C54.4495 58.4051 54.5295 58.9596 54.7095 59.506C54.7135 59.6627 54.7215 59.8194 54.7255 59.9721C54.8335 60.615 54.8015 61.286 55.1176 61.9971C55.3696 61.6918 55.6176 61.5029 55.7056 61.1815C55.7496 61.1252 55.7896 61.069 55.8337 61.0127C56.0577 60.848 56.2617 60.6712 56.3657 60.406L56.3897 60.3819C56.8338 60.1328 57.1738 59.7672 57.4658 59.3533C57.5778 59.2971 57.6898 59.2448 57.8019 59.1886C59.558 58.0636 61.4862 57.4769 63.5504 57.3042C63.7625 57.3042 63.9745 57.3042 64.1865 57.3042C64.8786 57.4609 65.6106 57.5171 66.2547 57.7944C67.3948 58.2805 68.2829 58.2886 68.803 56.9667C68.851 56.8461 68.983 56.7617 69.075 56.6613C71.0872 54.5318 73.5515 53.7724 76.3917 54.355C77.1878 54.5197 77.4998 54.367 77.6679 53.5675C77.8879 52.5107 78.4039 51.5504 79.008 50.6665C81.7003 46.7209 86.4728 45.1659 91.0412 46.7128C91.2653 46.7892 91.5333 47.0101 91.7293 46.8414C91.9573 46.6405 91.7813 46.3271 91.7253 46.0659C91.1172 43.2815 89.9451 40.7622 88.1729 38.5363C84.2605 33.6303 79.212 30.9865 72.9074 31.0146C69.8591 31.0267 66.9468 31.8062 64.2385 33.2044C62.8664 33.9156 61.5022 34.6951 60.4501 35.8924L60.4381 35.9005C60.1301 36.025 59.9261 36.2581 59.774 36.5393L59.7701 36.5434C59.606 36.5675 59.534 36.6559 59.518 36.8045ZM55.9857 29.6124L55.9817 29.6164C55.5896 29.8936 55.4056 30.2994 55.3016 30.7535C55.2816 30.8338 55.2656 30.9142 55.2456 30.9986C54.8536 31.5169 54.6815 32.1035 54.7015 32.7544C54.6895 32.9151 54.6815 33.0799 54.6695 33.2406C54.4615 33.5701 54.4575 33.8955 54.6695 34.225C54.6775 34.3335 54.6815 34.442 54.6895 34.5504C54.6775 34.9924 54.6655 35.4384 54.6495 35.8804C54.4095 35.9889 54.1615 36.0572 53.8974 36.0049C53.3374 34.9241 53.4134 33.771 53.5974 32.6379C53.6894 32.0754 53.5574 31.7017 53.1334 31.3521C51.7052 30.1749 49.621 30.0142 48.1369 31.2035C46.9647 32.1437 45.7406 32.879 44.2925 33.2526C44.0765 33.2647 43.8604 33.2767 43.6444 33.2888C43.4724 33.2848 43.3004 33.2848 43.1284 33.2808C42.9683 33.2687 42.8083 33.2526 42.6483 33.2406C41.7802 32.9593 40.9201 32.6218 40.008 32.5214C38.8599 32.3888 37.7478 32.5053 36.8437 33.3531L36.8317 33.3571C36.5197 33.4576 36.2477 33.6102 36.0876 33.9156L36.0796 33.9236C36.0276 33.9759 35.9756 34.0241 35.9236 34.0763L35.9156 34.0844C35.1075 34.7112 34.8235 35.6674 34.4075 36.5353C34.3555 36.5916 34.3075 36.6438 34.2555 36.7001C33.1993 37.6965 31.9472 38.1626 30.5031 38.255C29.347 38.3313 28.2788 38.7171 27.4868 39.6533C27.1867 39.7497 27.0307 39.9787 26.9307 40.256C25.8546 41.3689 25.7306 42.7551 25.9026 44.1735C26.1986 46.5842 28.3669 48.2437 30.7431 47.9785C31.6672 47.874 32.5993 47.8338 33.5274 47.7776C33.8714 47.7575 34.2275 47.7816 34.2715 48.2236C34.3155 48.6575 34.0034 48.778 33.6434 48.8142C32.7193 48.9066 31.7952 49.0191 30.8711 49.0874C30.4151 49.1236 30.271 49.216 30.5591 49.662C31.0351 50.3973 31.4632 51.1687 31.9232 51.9161C32.1392 52.2656 32.3233 52.6514 31.9312 52.9447C31.4872 53.2782 31.2471 52.8844 31.0351 52.5509C30.4191 51.5786 29.795 50.6102 29.1989 49.6218C29.0069 49.3004 28.7789 49.0834 28.4309 48.9347C27.2427 48.4285 26.3226 47.6048 25.6106 46.5079C25.1345 45.7726 25.0265 44.9288 24.7145 44.1453C24.7065 43.6511 24.6945 43.1609 24.6865 42.6667C24.7225 42.5663 24.7705 42.4658 24.7985 42.3614C25.6266 39.0265 27.2107 37.6603 30.6591 37.1621C31.6632 37.0175 32.7353 36.8688 33.3554 35.8563C33.3874 35.8442 33.4074 35.8241 33.4154 35.792C34.3315 33.9277 35.5716 32.3888 37.5558 31.5892C37.6598 31.5691 37.7638 31.549 37.8718 31.5289C39.284 31.2718 40.6641 31.3763 42.0162 31.8624C42.1203 31.8785 42.2243 31.8946 42.3283 31.9106C43.9044 32.5013 46.0887 31.7138 46.9447 30.6128C47.0848 30.5365 47.2368 30.4762 47.3648 30.3838C49.173 29.0378 51.4412 28.9253 53.3414 30.0905C54.1575 30.5928 54.1575 30.5928 54.4975 29.6124C54.9216 29.2869 55.0696 28.7525 55.4376 28.3829C55.9297 27.8887 55.7776 27.5632 55.2096 27.2619C51.6892 25.3895 48.2489 25.498 44.8805 27.6476C43.8524 28.3025 43.0564 29.2106 42.2803 30.1347C42.0963 30.3517 41.8722 30.5405 41.5802 30.2994C41.3082 30.0744 41.2642 29.7932 41.4762 29.4999C41.6682 29.2347 41.8642 28.9695 42.0802 28.7204C42.4483 28.2945 42.4403 28.0655 41.8202 27.9128C40.076 27.4829 38.3439 27.519 36.6437 28.0614C35.0955 28.5556 33.6874 29.311 32.6193 30.5928C32.5233 30.6369 32.3993 30.6611 32.3353 30.7334C31.2471 31.983 30.3911 33.3611 29.995 34.9964C29.911 35.346 29.807 35.6835 29.503 35.9085C29.391 35.9085 29.2749 35.9125 29.1629 35.9125C29.0429 35.796 28.9229 35.6795 28.8029 35.563C28.7989 35.4545 28.7909 35.346 28.7869 35.2375C28.9109 34.8438 29.0229 34.45 29.1589 34.0603C29.2669 33.7469 29.2189 33.558 28.8429 33.6544C27.3267 34.0442 25.8546 34.5263 24.7545 35.7357L24.7465 35.7438C23.9104 36.0773 23.4664 36.8286 22.9463 37.4836C20.6301 40.3885 20.414 45.2342 22.4182 48.3361C23.0783 49.3607 23.8184 50.2928 24.7905 51.0402C25.0705 51.2531 25.3826 51.5665 25.0985 51.9402C24.7905 52.338 24.4305 52.1371 24.0984 51.8719C23.7584 51.5987 23.4424 51.3013 23.1223 51C22.1862 50.108 21.5462 49.0071 20.8861 47.8338C18.8699 50.3611 18.1338 53.1014 18.6899 56.1791C19.646 61.4708 25.1065 65.1151 30.3031 63.9418C32.6033 63.4235 34.4915 62.2503 35.9996 60.4342C36.2157 60.177 36.4637 59.8033 36.8717 60.169C37.2318 60.4944 37.0357 60.7998 36.7997 61.1052C36.2797 61.7842 35.6996 62.403 34.9995 62.8972C34.6075 63.1744 34.5635 63.4034 34.9915 63.6967C37.0917 65.1553 39.416 65.9508 41.9682 66.0714C42.3323 66.0874 42.6923 66.0673 42.9643 65.7861C43.4644 65.2718 44.0164 64.8258 44.6285 64.4602C44.9685 64.2552 45.0686 63.982 44.9205 63.6244C44.4205 62.411 43.9124 61.1976 43.4084 59.9841C43.4004 59.9199 43.3924 59.8556 43.3844 59.7953C43.3044 59.5341 43.3644 59.2288 43.1364 59.0158C43.1164 58.9114 43.0964 58.8069 43.0764 58.7024C42.9043 57.8747 42.7323 57.047 42.5603 56.2233C42.4963 55.922 42.3923 55.6608 42.1443 55.4479C41.3362 54.7568 40.6001 53.9813 39.704 53.3947C39.688 53.3585 39.66 53.3425 39.624 53.3384C39.58 53.2701 39.54 53.1938 39.488 53.1335C39.22 52.8362 38.7839 52.5469 39.196 52.1089C39.596 51.679 39.928 52.0527 40.2441 52.3179C40.8881 52.8643 41.5482 53.3987 42.1763 53.9652C42.5243 54.2786 42.6843 54.1702 42.7883 53.7844C43.0243 52.8844 43.2764 51.9884 43.4684 51.0803C43.5564 50.6625 43.7684 50.4576 44.1565 50.3893C44.2645 50.4576 44.3725 50.5218 44.4805 50.5901C44.5205 51.004 44.4845 51.4018 44.3805 51.8116C44.0765 53.0331 43.5044 54.2907 43.6044 55.488C43.7884 57.6859 44.4125 59.8395 45.4526 61.8284C45.4766 62.0052 45.4606 62.194 45.6086 62.3306C46.0527 63.5762 46.0487 63.5682 47.2568 63.1865C47.7768 63.0217 48.3049 62.8731 48.8409 62.7887C49.517 62.6802 49.729 62.4512 49.381 61.7641C48.3049 59.6225 47.6008 57.3524 47.1888 54.9858C47.0488 54.1862 47.0688 53.3545 46.7727 52.5831C46.7607 52.3098 46.7487 52.0406 46.7367 51.7674C46.7527 51.2451 46.7127 50.7187 46.7887 50.2084C46.9607 49.0593 46.3647 48.4124 45.4366 47.9463C45.2166 47.8338 45.0005 47.7173 44.7765 47.6128C42.7843 46.7209 40.1641 47.1267 38.8239 48.533L38.7959 48.5571C38.1439 48.9066 37.7438 49.5013 37.4158 50.12C36.5077 51.8357 36.2757 53.6036 37.2558 55.3876C37.3038 55.5001 37.3518 55.6126 37.3998 55.7211C37.9958 57.043 38.9799 57.931 40.3601 58.3649C40.4361 58.4854 40.5521 58.5256 40.6881 58.5256C40.8121 58.5738 40.9321 58.6341 41.0561 58.6703C41.4042 58.7707 41.6922 58.9314 41.5682 59.3573C41.4562 59.7431 41.1562 59.8395 40.7841 59.731C40.4961 59.6466 40.2001 59.5823 39.92 59.4739C38.2879 58.8511 37.1477 57.6618 36.2437 56.2113C36.1957 56.0988 36.1476 55.9863 36.0996 55.8738C36.0516 55.5885 35.9996 55.1746 35.7556 55.1425C35.4316 55.1023 35.2836 55.484 35.1916 55.7934L35.1755 55.8215C34.6675 56.2715 34.1794 56.7537 33.6474 57.1716C32.0872 58.385 30.255 58.7145 28.3429 58.7587C28.0748 58.7346 27.8068 58.7064 27.5388 58.6823C27.2547 58.4212 26.9107 58.5296 26.5987 58.5658C25.5146 58.6823 24.4305 58.8149 23.3503 58.9676C22.8943 59.0319 22.4823 59.0238 22.1302 58.6863C22.1222 58.5779 22.1182 58.4694 22.1102 58.3649C22.7223 57.5452 23.6664 57.9149 24.4505 57.718C24.9585 57.5894 25.7586 57.8104 25.9346 57.3564C26.1226 56.8702 25.4906 56.3961 25.1185 55.9782C25.1225 55.9381 25.1065 55.9099 25.0745 55.8858C25.0025 55.4559 24.6505 55.1947 24.4665 54.8331C24.2784 54.4755 23.9544 54.0737 24.4585 53.7643C24.9465 53.463 25.1745 53.8929 25.4146 54.2385C26.0626 55.1787 26.5707 56.2153 27.3628 57.055C27.3908 57.4609 27.6868 57.497 27.9988 57.5493C28.6549 57.6577 29.3029 57.6216 29.955 57.5372C32.7113 57.1876 35.3556 54.6081 35.5556 52.0808C35.5676 51.9723 35.5796 51.8679 35.5916 51.7594C36.0716 50.1361 36.7797 48.6495 38.1198 47.5445L38.1358 47.5244C38.1839 47.4722 38.2359 47.42 38.2839 47.3718L38.3159 47.3557C38.6159 47.2191 38.9599 46.978 38.4839 46.757C37.6558 46.3753 37.1157 45.6923 36.4797 45.1096L36.4757 45.0976C35.8876 44.0328 35.5996 42.8877 35.5636 41.6783C35.5716 41.5698 35.5836 41.4654 35.5916 41.3569C35.9276 40.6256 36.0516 39.81 36.4797 39.1148L36.4917 39.0988C37.9798 37.4273 39.752 36.5634 42.0282 37.126C42.3083 37.1943 42.5043 37.0416 42.7123 36.9251C43.6964 36.3867 44.6765 35.8362 45.6606 35.2897C46.0367 35.0808 46.4687 34.8638 46.7247 35.3701C46.9808 35.8764 46.5247 36.0933 46.1607 36.2942C45.4406 36.692 44.7205 37.0858 43.9924 37.4715C43.5684 37.6965 43.5524 37.9336 43.9484 38.1867C44.5965 38.5965 45.1686 39.1229 45.8806 39.4323L45.9046 39.4483C45.9566 39.5126 45.9926 39.589 46.0567 39.6372C46.3807 39.8863 46.8287 40.1033 46.4567 40.6095C46.1327 41.0515 45.7886 40.7743 45.4606 40.5573C44.5285 39.9305 43.5604 39.3559 42.6603 38.6849C41.4402 37.7769 40.1481 37.8894 38.9399 38.5081C37.6678 39.159 36.8157 40.256 36.7517 41.7747C36.6277 44.5793 38.5839 46.4235 41.4602 46.1061C43.2644 45.9052 44.8845 46.2588 46.3887 47.2311C46.7887 47.4883 46.9207 47.4802 46.9928 46.97C47.2408 45.1699 47.6128 43.39 48.2569 41.6944C48.7009 40.5252 48.6249 39.3881 48.4049 38.2148C48.3969 37.9456 48.3889 37.6764 48.3849 37.4072C48.3929 37.1059 48.4049 36.8045 48.4009 36.5032C48.3969 36.1255 48.4049 35.7438 48.9169 35.7518C49.345 35.7599 49.421 36.0733 49.441 36.4389C49.481 37.2063 49.553 37.9697 49.601 38.7372C49.657 39.6573 49.789 39.7376 50.5491 39.2796C51.2052 38.8858 51.8772 38.5122 52.5213 38.0983C52.8733 37.8733 53.2214 37.809 53.4614 38.1586C53.7374 38.5644 53.5014 38.8537 53.1094 39.0787C52.1333 39.6332 51.1852 40.2318 50.2051 40.7783C49.821 40.9912 49.577 41.2725 49.425 41.6783C48.6489 43.7435 48.1569 45.8811 47.9768 48.0749C47.5648 53.009 48.4809 57.6859 50.7451 62.0936C50.8891 62.3788 51.0532 62.628 51.4052 62.6159C52.0933 62.5998 52.7653 62.6963 53.4414 62.8168C53.9415 62.9052 54.0975 62.6561 53.9855 62.2061C53.8094 61.511 53.7414 60.8038 53.6574 60.0966C53.5374 59.0761 53.3454 58.0595 53.1854 57.043C53.1734 56.9345 53.1614 56.83 53.1494 56.7216C53.2814 55.7974 52.9814 54.9135 52.9934 53.9974C52.7013 54.0335 52.6373 54.2063 52.5653 54.3349C52.3333 54.7327 52.1413 55.1586 51.9092 55.5564C51.7252 55.8698 51.4812 56.1751 51.0612 55.93C50.6891 55.709 50.8011 55.3836 50.9492 55.0702C51.0532 54.8532 51.1372 54.6242 51.2292 54.3992C51.7532 53.5634 52.2173 52.6996 52.5653 51.7754H52.5613C52.7573 51.679 52.8293 51.5062 52.8373 51.3053C52.8853 49.9674 52.9333 48.6254 52.9774 47.2874C52.9934 47.1267 53.0094 46.9659 53.0254 46.8052C53.5534 44.9087 54.0855 43.0123 54.8576 41.1962C54.9136 41.0837 54.9656 40.9752 55.0216 40.8627C55.7296 39.7617 56.4377 38.6568 57.1458 37.5559C59.11 35.3862 61.3222 33.5339 63.8945 32.1316C63.9945 32.0955 64.0945 32.0633 64.1945 32.0272C65.4866 31.5209 66.7508 30.9182 68.1149 30.6209C68.5469 30.5285 68.3989 30.3075 68.2669 30.0945C67.6548 29.1061 66.9068 28.2543 65.9147 27.6195C62.8544 25.6627 58.6459 26.2574 56.5017 28.9775C56.4497 29.0418 56.3977 29.1061 56.3417 29.1704C56.0937 29.2186 55.9777 29.3713 55.9857 29.6124ZM44.7725 65.758C44.1165 66.1316 43.5204 66.5696 43.1644 67.2687C43.1284 67.2888 43.1084 67.3169 43.1004 67.3611C41.4042 68.8116 40.6201 70.68 40.5681 72.8898C40.5681 72.9903 40.5681 73.0907 40.5641 73.1912C40.4921 75.1278 40.9521 76.8355 42.6123 78.0288L42.6443 77.9967L42.6123 78.0248C42.6083 78.2136 42.7283 78.3261 42.8523 78.4346C43.9964 79.4552 45.3366 79.9373 46.8607 79.9454C49.373 79.9614 51.3532 78.9369 52.8013 76.8757C53.1654 76.3573 53.3134 75.9314 52.4973 75.6703C51.8492 75.4654 51.2212 75.1761 50.6651 74.7582C50.3611 74.5251 50.2491 74.2198 50.4571 73.8943C50.6651 73.5649 50.9652 73.6693 51.2532 73.826C51.6092 74.0229 51.9053 74.3363 52.3453 74.3604C52.4293 74.485 52.5533 74.493 52.6853 74.485C53.2934 74.9752 54.0455 75.0435 54.7615 75.0997C56.6297 75.2484 58.3859 74.8988 59.8941 73.6894L59.8981 73.6854C60.2501 73.6332 60.4701 73.4162 60.6181 73.1108L60.6341 73.0988C61.7583 72.3514 62.3943 71.2344 62.8184 70.013C63.4224 68.2732 63.3904 68.2451 61.8223 67.2245C61.2582 66.8589 61.0342 66.4812 61.5462 65.9187C61.6542 65.9106 61.7583 65.9066 61.8663 65.8986C62.1143 66.0633 62.3583 66.2321 62.6103 66.3968C64.3265 67.5058 66.1307 68.4098 68.1429 68.8478C68.2469 68.8598 68.3549 68.8759 68.4589 68.8879C68.5669 69.0406 68.735 69.0487 68.895 69.0808C72.7194 69.9005 76.4557 69.6393 80.0801 68.1205C81.4122 67.562 82.7524 67.0035 83.8285 65.991C83.8685 65.995 83.8965 65.9789 83.9125 65.9468C84.9446 65.3521 85.8727 64.6329 86.5528 63.6325C86.6048 63.5802 86.6608 63.532 86.7128 63.4798C86.8088 63.4356 86.9328 63.4155 87.0008 63.3391C90.6652 59.2368 92.4174 54.4514 92.1053 48.9227C92.0853 48.553 91.9533 48.2959 91.6173 48.1352C90.4212 47.5606 89.181 47.2151 87.8409 47.3075C87.5729 47.3115 87.3089 47.3155 87.0408 47.3235C86.9888 47.3115 86.9368 47.2834 86.8808 47.2834C82.9724 47.416 79.36 50.4616 78.496 54.5036C78.424 54.8291 78.512 55.1063 78.804 55.2871C79.6921 55.8416 80.4202 56.5729 81.1002 57.3564C81.2042 57.6778 81.3522 57.9872 81.2762 58.3408C81.1722 58.4131 81.0642 58.4854 80.9602 58.5578C80.5722 58.5417 80.3561 58.3087 80.1201 58.0153C79.4961 57.2399 78.872 56.4443 77.8559 56.1349C74.7236 54.4112 71.1472 55.5564 69.223 58.3488C68.923 58.7828 69.155 59.052 69.495 59.3051C70.3351 59.9279 71.0752 60.6471 71.6473 61.527C71.8993 61.9168 72.0993 62.3105 71.5833 62.6561C71.1672 62.6882 70.8792 62.5476 70.6672 62.1538C70.4551 61.7561 70.1831 61.3784 69.7471 61.1735L69.7351 61.1614C68.3229 59.5422 66.5027 58.7185 64.4065 58.5337C62.8224 58.393 61.2542 58.5096 59.8581 59.4216L59.8301 59.4297C59.094 59.5221 58.5619 59.948 58.0979 60.4864C57.7138 60.7596 57.3858 61.0891 57.1018 61.4628C56.7697 61.6878 56.5257 61.9811 56.3777 62.3588C56.3777 62.3588 56.3457 62.407 56.3497 62.407C55.2696 63.8012 54.8695 65.4164 54.8215 67.1441C54.8135 67.4776 54.8335 67.8272 54.4575 67.9799C54.0615 68.1406 53.8735 67.8111 53.6494 67.5861C53.6454 67.2526 53.6454 66.9232 53.6414 66.5897C53.8574 66.3647 53.7734 66.0673 53.8174 65.8062C54.0975 64.1267 54.1055 64.0503 52.3933 63.765C50.1771 63.3954 48.0409 63.7249 46.0967 64.9423C45.9646 64.9463 45.8366 64.9624 45.7646 65.099C45.3766 65.2276 45.0045 65.3843 44.7725 65.758ZM86.2367 73.5528C85.8887 73.5849 85.6447 73.8019 85.4007 74.0189C85.2886 74.0751 85.1806 74.1314 85.0686 74.1836C84.4046 74.272 83.8765 74.6859 83.2764 74.935C82.8444 75.1118 82.9324 75.3368 83.2284 75.5779C84.9646 77.0002 86.9088 77.856 89.197 77.7757C89.4611 77.7717 89.7291 77.7676 89.9931 77.7636C90.7092 77.8922 91.3693 77.7074 92.0613 77.5145C95.2737 76.6105 97.4739 74.5734 98.674 71.5036C100.038 68.0161 99.4021 64.7695 97.2379 61.7762C96.9058 61.3181 96.6818 61.4105 96.4298 61.8766C95.8617 62.9333 95.0216 63.7691 94.1135 64.5244C93.7375 64.8378 93.2254 65.5169 92.7334 64.9061C92.2533 64.3115 93.0534 64.0262 93.4015 63.7289C96.0657 61.4386 97.2139 58.5578 96.6938 55.0742C96.4178 53.2259 95.7097 51.5504 94.2696 50.2687C94.2176 50.2044 94.1695 50.1401 94.1175 50.0758C93.9735 49.7705 93.7495 49.433 93.4215 49.5254C93.1614 49.6017 93.3015 50.0075 93.2855 50.2687C93.1935 51.9964 93.0014 53.7041 92.5734 55.3876C91.7533 58.618 90.1491 61.4105 88.0329 63.9418C87.6289 64.2472 87.2569 64.5847 86.9928 65.0307L86.9728 65.0468C85.0966 66.5977 83.1924 68.1044 80.8842 68.9804C80.6722 69.0607 80.5442 69.2295 80.4682 69.4585C79.7521 71.588 78.672 73.5367 77.3798 75.5417C79.324 75.1118 81.1162 74.718 82.7764 73.8582C82.8324 73.8622 82.8844 73.8461 82.9284 73.814C83.6405 73.601 84.3245 73.3278 84.9086 72.8456C85.1406 72.8537 85.2887 72.7251 85.4167 72.5523C86.5088 72.0903 87.4569 71.4072 88.373 70.6679C88.629 70.459 88.673 70.1697 88.701 69.8563C88.797 68.7915 88.909 67.7268 89.025 66.666C89.117 65.8343 89.3731 65.6856 90.1411 65.991C90.1651 66.0754 90.1931 66.1638 90.2171 66.2481C90.0971 67.2486 89.9771 68.2531 89.8611 69.2536C89.8051 69.7237 89.9411 69.9246 90.4452 69.7357C91.2332 69.4384 92.0293 69.1612 92.8294 68.892C93.7135 68.5987 93.8615 68.7312 93.7855 69.7156L93.7895 69.7116C91.0532 70.5434 88.493 71.7166 86.2567 73.5367L86.2367 73.5528ZM52.6253 78.9369C52.0173 79.3467 51.4092 79.7565 50.8011 80.1704C50.6731 80.2588 50.4571 80.2909 50.4651 80.4838C50.4731 80.7168 50.6851 80.7329 50.8651 80.8092C52.2973 81.4039 53.7894 81.5566 55.3176 81.4401C55.6416 81.4401 55.9657 81.4401 56.2897 81.4441C57.5738 81.5807 58.83 81.3195 59.9941 80.8816C62.4423 79.9574 64.6225 78.5752 66.3147 76.514C67.2788 75.3408 68.0389 74.055 68.6189 72.6528C68.767 72.2952 68.995 72.0019 69.423 72.1586C69.8671 72.3233 69.8111 72.6688 69.6551 73.0425C69.391 73.6733 69.135 74.3122 68.747 74.8787C68.4389 75.3328 68.5269 75.5055 69.091 75.5779C70.0911 75.7024 71.0792 75.9314 72.0993 75.7988C72.5313 75.8029 72.9634 75.8069 73.3914 75.8109C73.6195 75.8792 73.8475 75.8792 74.0715 75.7988C74.2835 75.7948 74.4915 75.7908 74.7036 75.7908C75.3356 75.9194 75.7757 75.6944 76.1797 75.168C76.8038 74.3604 77.3798 73.5247 77.8559 72.6287C78.3279 71.7327 78.876 70.8527 79.124 69.7478C78.804 69.8121 78.62 69.8362 78.4399 69.8884C75.7957 70.6438 73.1034 70.7683 70.3871 70.4308C68.6109 70.2099 66.9028 69.7398 65.2506 69.0446C64.3185 68.6549 64.3145 68.6509 64.0905 69.5831C63.8505 70.5835 63.4384 71.4956 62.8784 72.3635C61.9703 73.7658 60.6341 74.6618 59.266 75.5176C59.15 75.5618 59.038 75.61 58.922 75.6542C57.6098 76.068 56.2697 76.2971 54.8896 76.1966C54.6335 76.1805 54.3975 76.2047 54.2775 76.4899C53.8934 77.4141 53.1934 78.1212 52.6373 78.9288L52.6253 78.9369ZM76.1917 94.0243C76.2317 92.614 75.7677 91.272 75.6797 89.8818C75.6637 89.6367 75.5397 89.4639 75.2836 89.4278C73.3834 89.1626 71.7593 88.3269 70.3631 87.017L70.3391 86.9929C70.0391 86.4103 69.591 85.9121 69.403 85.2652C69.291 84.8754 68.983 84.8995 68.671 84.9437C68.0749 85.0281 67.4868 85.1285 66.8748 85.0361C65.7827 84.8634 65.6546 85.004 65.9387 86.0848C66.4227 87.9411 67.3628 89.5322 68.831 90.7738C69.379 91.2358 69.607 91.7783 69.6751 92.4734C69.7991 93.7551 69.9951 95.0328 70.1671 96.3105C70.2111 96.648 70.2391 96.9373 70.7632 96.8168C72.5874 96.3909 74.3435 96.6762 76.0397 97.4356C76.2677 97.54 76.4998 97.7329 76.8038 97.5722C76.6158 96.7726 76.6718 95.9409 76.3397 95.1815C76.3237 94.852 76.3077 94.5185 76.2877 94.1891C76.3317 94.0846 76.2717 94.0484 76.1917 94.0243ZM74.7196 77.0123C74.1195 77.0324 73.5234 77.0484 72.9234 77.0685C72.4673 76.8957 72.1833 77.0484 71.8993 77.4542C71.1232 78.5712 70.5191 79.7565 70.1951 81.0865C69.419 84.2366 70.8472 86.8563 73.8915 87.9331C75.4957 88.4996 77.1118 88.5679 78.78 88.2947C81.8003 87.8005 84.4686 86.5429 86.8448 84.6424C88.577 83.2602 90.0011 81.6169 90.9252 79.5757C91.0972 79.194 91.0732 78.9168 90.5652 78.9288C90.1011 78.9409 89.6371 78.9851 89.177 79.0132C89.073 79.0132 88.969 79.0132 88.865 79.0092C86.2007 78.6717 83.7845 77.7757 81.8443 75.831C81.5843 75.5698 81.3042 75.6743 81.0042 75.7546C80.1601 75.9756 79.32 76.2207 78.4679 76.3814C77.2238 76.6346 75.9677 76.8114 74.7196 77.0123ZM67.4948 83.9352C67.9269 83.6821 68.931 84.2285 68.895 83.0593C68.831 81.0383 69.447 79.2262 70.4911 77.5386C70.7672 77.0926 70.7872 76.8757 70.1631 76.8475C69.567 76.8234 68.967 76.735 68.3829 76.6145C67.9829 76.5341 67.7109 76.6145 67.4548 76.9399C66.2187 78.507 64.7186 79.7686 62.9904 80.753C62.4463 81.0624 62.4863 81.3798 62.8464 81.7936C64.0545 83.1718 65.5946 83.8107 67.4948 83.9352ZM75.1796 99.9347C75.5076 99.9347 75.8357 99.9508 76.1597 99.9307C76.4678 99.9106 76.8278 99.8142 76.9238 99.537C77.0398 99.1994 76.6718 99.0146 76.4357 98.8619C74.8796 97.8655 73.1714 97.536 71.3552 97.761C71.0592 97.7972 70.6031 97.8092 70.5791 98.211C70.5591 98.5445 70.9152 98.7454 71.1992 98.9182C72.4273 99.6495 73.7635 99.9629 75.1796 99.9347Z" fill="white"/>
<path d="M47.2727 70.7442C48.5449 69.591 49.973 68.8879 51.7532 69.0607C52.5573 69.137 53.2374 69.5509 53.9934 69.7477C54.5575 70.3143 55.2096 70.5071 55.9736 70.2379C56.0776 70.2219 56.1817 70.2058 56.2897 70.1897C57.6338 69.8361 58.3859 68.8517 58.4619 67.2968C58.6939 62.644 63.4024 61.1212 66.3227 62.9895C67.2588 63.5882 68.3229 63.986 69.451 64.1387C69.531 64.2592 69.651 64.2592 69.775 64.2471C70.5351 64.4641 71.2952 64.6931 72.1033 64.5766C72.4793 64.5806 72.8553 64.5806 73.2314 64.5847C74.5395 64.7735 75.7996 64.4802 77.0238 64.1025C80.0921 63.1583 82.6643 61.4908 84.4885 58.7787L84.5125 58.7425C85.6006 57.6014 86.1607 56.4282 85.2606 54.825C84.8006 54.0053 84.3205 53.0933 84.3645 52.0606C84.4045 52.0285 84.4285 51.9883 84.4365 51.9361C84.7766 51.8115 85.0686 51.9281 85.3486 52.1209L85.3646 52.149C85.7126 53.041 86.0807 53.929 86.4047 54.833C86.6167 55.4237 86.8488 55.4197 87.2208 54.9737C87.7328 54.3629 88.2649 53.7723 88.797 53.1857C89.073 52.8803 89.401 52.4865 89.8291 52.8522C90.2691 53.2299 89.9291 53.5875 89.633 53.8969C89.501 54.0335 89.353 54.1661 89.337 54.375C89.053 54.5357 88.845 54.7647 88.7009 55.054L88.6969 55.058C88.3409 55.3152 88.0129 55.5965 87.8529 56.0264C86.8128 56.7617 86.4647 57.959 85.8767 58.9997H85.8807C85.5846 59.1644 85.4966 59.4818 85.3366 59.747L85.3086 59.7832C84.4445 60.6591 83.5804 61.535 82.7203 62.4109L82.6963 62.431C82.2243 62.7766 81.7482 63.1181 81.2762 63.4636V63.4596C80.6681 63.7569 80.0521 64.0422 79.452 64.3596C78.2079 65.0106 76.8277 65.2356 75.5196 65.6775C75.3636 65.6816 75.2116 65.6896 75.0556 65.6936C74.0595 65.7418 73.0634 65.79 72.0673 65.8383C71.9112 65.8342 71.7512 65.8302 71.5952 65.8262C69.183 65.4445 66.9707 64.4963 64.7345 63.544C62.5983 62.6319 59.942 64.2632 59.662 66.5655C59.482 68.0441 59.214 69.4062 58.2539 70.5714L58.2579 70.5674C56.3817 71.7929 54.5775 71.6362 52.6853 70.483C51.4052 69.7035 49.457 70.1978 48.3969 71.2947C48.0808 71.6241 47.9528 71.9697 48.1008 72.4076C48.1128 72.7291 48.1248 73.0545 48.1368 73.376C47.9888 74.067 48.2488 74.734 48.2368 75.4131C48.2288 75.8671 48.4809 76.522 47.8048 76.6627C47.0807 76.8153 47.3568 76.0037 47.0767 75.7024C47.0647 75.5979 47.0527 75.4894 47.0447 75.3849C47.0927 74.6497 47.0807 73.9184 46.9687 73.1871C46.9007 72.7451 46.7287 72.705 46.3767 72.9139C45.6326 73.3639 44.8765 73.7938 44.1284 74.2358C43.7444 74.4608 43.3724 74.5372 43.0083 74.2037C43.0043 74.0429 42.9963 73.8822 42.9923 73.7215C43.7124 73.1429 44.5645 72.7692 45.3126 72.2429C45.9886 71.7607 46.9087 71.6161 47.2727 70.7442Z" fill="white"/>
<path d="M64.3285 51.8738C63.4677 51.8865 62.6267 52.1544 61.7461 51.9918C59.2868 51.5357 57.9262 50.1549 57.8032 48.0692C57.6525 45.5402 58.3863 43.193 59.9056 40.9925C59.9691 40.9064 60.0286 40.8235 60.092 40.7374C60.9885 39.7265 62.0159 38.808 63.0869 37.9182C63.0869 37.9182 63.1107 37.9023 63.1067 37.9023C64.2412 37.3187 65.3082 36.6522 66.5419 36.1834C68.6363 35.3829 70.8696 35.1055 73.1425 34.9556C73.4122 34.9588 73.682 34.9651 73.9517 34.9683C74.4753 35.1916 75.0624 35.0863 75.6177 35.1629C78.6403 35.5838 81.2346 36.6936 83.5511 38.2722C83.7296 38.5178 83.9954 38.6836 84.2969 38.8208C84.3841 39.0408 84.638 39.0823 84.8522 39.1556C85.8835 39.5192 86.9149 39.8795 87.9462 40.2367C88.692 40.495 88.7594 40.6928 88.2953 41.2541C88.1882 41.2572 88.0811 41.2604 87.974 41.2604C87.0696 40.9256 86.1691 40.5843 85.2647 40.2527C84.8641 40.106 84.6459 40.2048 84.6697 40.5812C84.7094 41.2764 84.7332 41.9716 84.7848 42.6636C84.8086 43.0017 84.757 43.311 84.2612 43.3334C83.7931 43.3557 83.7336 43.0463 83.7018 42.7434C83.6661 42.3766 83.6027 42.0131 83.5511 41.6463C83.5432 41.5187 83.5352 41.3944 83.5273 41.2668C83.5789 40.3802 83.6899 39.5383 82.6626 38.8367C80.2508 37.1911 77.5297 36.0877 74.3801 35.9219C68.9655 35.6317 64.5744 37.2677 61.3891 40.8331C60.1595 42.2108 59.3106 43.7352 59.1361 45.4605C59.1242 45.5434 59.1083 45.6295 59.0964 45.7124C58.7711 46.9211 58.7037 48.1521 59.1995 49.3193C60.0365 51.2934 63.3765 51.7941 65.1377 50.2665C66.5459 49.045 66.4903 47.4792 64.9869 46.0983H64.9909C64.7648 45.4892 64.5387 44.8769 64.3086 44.2678C64.3126 44.0063 64.3166 43.7447 64.3245 43.4864C64.5982 42.7083 64.9631 41.9588 65.4788 41.2636C65.5819 41.1711 65.6811 41.0787 65.7842 40.9862C67.0734 40.157 68.4856 39.6691 70.1952 39.7807C71.2742 39.8508 72.1389 40.2686 73.0393 40.6609L73.0631 40.6768C73.7494 41.1743 74.0429 41.9333 74.8204 42.3671L74.8561 42.3894C75.5423 42.8837 76.3476 43.2217 77.1925 43.4992V43.496C77.2917 43.7065 77.5535 43.7479 77.7558 43.8468C78.1088 44.0254 78.5412 44.2104 78.2397 44.5994C77.9541 44.9694 77.5297 44.8067 77.1647 44.6281C76.4269 44.2678 75.6851 43.9074 74.9553 43.5343C74.507 43.3015 74.4317 43.4418 74.4039 43.8021C74.3404 44.5835 74.2214 45.3584 74.1223 46.1366C74.0866 46.4108 73.8486 46.5065 73.5511 46.4906C73.2734 46.4714 73.1306 46.3215 73.1266 46.0887C73.1226 45.8272 73.0988 45.5689 73.083 45.3074C73.0949 45.2245 73.1107 45.1416 73.1226 45.0587C73.3964 44.2869 73.3289 43.48 73.4519 42.6955C73.4678 42.5999 73.4043 42.4787 73.3368 42.3894C72.5197 41.3115 71.3218 40.6641 69.7589 40.6417C68.1881 40.6194 66.8751 41.1137 66.0937 42.2969C66.0461 42.3862 65.9985 42.4787 65.9508 42.568C65.2091 43.5598 65.3082 44.8195 66.1928 45.7635L66.2127 45.7922C67.1686 47.1443 67.6645 48.5348 66.7799 50.0464C66.7164 50.1325 66.6569 50.2186 66.5935 50.3016C66.0421 50.9713 65.1615 51.3412 64.4197 51.8387C64.38 51.8387 64.3523 51.8483 64.3285 51.8738Z" fill="white"/>
</g>
<defs>
<clipPath id="clip0">
<rect width="118" height="119" fill="white"/>
</clipPath>
</defs>
</svg>
