<svg width="48" height="48" viewBox="0 0 48 48" fill="none" xmlns="http://www.w3.org/2000/svg">
<g clip-path="url(#clip0)">
<path d="M45.3476 0.000976562H2.64919C1.18708 0.000976562 0 1.1857 0 2.65021V45.3494C0 46.8139 1.18708 48.0002 2.64919 48.0002H25.6368V29.4121H19.3821V22.167H25.6368V16.8243C25.6368 10.6256 29.4217 7.24844 34.9524 7.24844C37.604 7.24844 39.8778 7.44681 40.5409 7.53296V14.0122L36.7046 14.0138C33.6974 14.0138 33.1173 15.4435 33.1173 17.5403V22.1646H40.2919L39.3538 29.4089H33.1165V47.9978H45.3469C46.8106 47.9978 47.9984 46.8099 47.9984 45.3494V2.64863C47.9976 1.1857 46.8113 0.000976562 45.3476 0.000976562Z" fill="black"/>
</g>
<defs>
<clipPath id="clip0">
<rect width="48" height="48" fill="white"/>
</clipPath>
</defs>
</svg>
