<svg width="235" height="79" viewBox="0 0 235 79" fill="none" xmlns="http://www.w3.org/2000/svg">
<g clip-path="url(#clip0)">
<path d="M223.354 79H11.6462C5.22497 79 0 73.7563 0 67.3259V11.6879C0 5.24367 5.22497 0 11.6462 0H223.368C229.789 0 235.014 5.24367 235.014 11.6879V67.3259C235 73.7563 229.775 79 223.354 79ZM11.6462 2.75983C6.73746 2.75983 2.74999 6.76157 2.74999 11.6879V67.3259C2.74999 72.2522 6.73746 76.254 11.6462 76.254H223.368C228.276 76.254 232.264 72.2522 232.264 67.3259V11.6879C232.264 6.76157 228.276 2.75983 223.368 2.75983H11.6462Z" fill="white"/>
<path d="M78.0859 23.0583H76.5184C76.5184 22.8375 76.3671 22.2304 76.0784 21.2231H73.8371C73.5346 22.2166 73.3834 22.8237 73.3834 23.0583H71.9121C71.9121 22.9341 72.2971 21.8854 73.0534 19.9259C73.8096 17.9665 74.1946 16.8901 74.1946 16.6831H76.0371C76.0371 16.8625 76.3809 17.9389 77.0684 19.8707C77.7421 21.8302 78.0859 22.8789 78.0859 23.0583ZM75.8446 20.2985C75.2946 18.615 75.0059 17.7043 75.0059 17.5663H74.9234C74.9234 17.6905 74.6346 18.6012 74.0571 20.2985H75.8446Z" fill="white"/>
<path d="M84.3834 23.0583H83.1734C83.1734 22.9203 82.7196 22.2166 81.8259 20.9333C80.8909 19.581 80.3546 18.6702 80.2309 18.1734H80.1621C80.2446 18.891 80.2859 19.5396 80.2859 20.1053C80.2859 20.9057 80.3134 21.8992 80.3546 23.0583H79.1584C79.2134 22.051 79.2271 20.9333 79.2271 19.7189C79.2271 18.5322 79.1996 17.5111 79.1584 16.6831H80.6021C80.6021 16.8625 81.0009 17.5525 81.8121 18.753C82.6646 20.0363 83.1596 20.9057 83.2834 21.361H83.3521C83.2696 20.6297 83.2284 19.9811 83.2284 19.4016C83.2284 18.5184 83.2009 17.6077 83.1596 16.6831H84.3834C84.3421 17.4973 84.3146 18.5046 84.3146 19.7189C84.3146 20.9471 84.3421 22.0648 84.3834 23.0583Z" fill="white"/>
<path d="M91.4508 19.6499C91.4508 20.5745 91.1483 21.3886 90.557 22.0786C89.9658 22.7685 89.1408 23.1135 88.0683 23.1135C87.587 23.1135 86.927 23.0997 86.0745 23.0583C86.1158 22.0786 86.1433 20.9609 86.1433 19.7189C86.1433 18.5322 86.1158 17.5111 86.0745 16.6831H86.927C87.0645 16.6831 87.2708 16.6831 87.5458 16.6693C87.8208 16.6555 87.9995 16.6555 88.082 16.6555C89.2508 16.6555 90.1033 16.9453 90.6395 17.5387C91.1895 18.132 91.4508 18.8358 91.4508 19.6499ZM90.117 19.8569C90.117 19.236 89.9383 18.6978 89.567 18.27C89.2095 17.8423 88.6458 17.6215 87.9033 17.6215C87.7658 17.6215 87.5733 17.6353 87.3258 17.6629C87.3533 18.3114 87.3808 19.0014 87.3808 19.7051C87.3808 20.4917 87.3945 21.2644 87.4358 22.0234C87.642 22.0648 87.862 22.0924 88.0683 22.0924C88.7695 22.0924 89.292 21.8716 89.622 21.4438C89.952 21.0161 90.117 20.4917 90.117 19.8569Z" fill="white"/>
<path d="M97.9682 23.0583H96.5245C96.1532 21.8992 95.8645 21.1954 95.6582 20.9195C95.452 20.6435 95.1357 20.5193 94.682 20.5193C94.4895 20.5193 94.3107 20.5193 94.1457 20.5193C94.1457 21.361 94.1595 22.2028 94.187 23.0583H92.8257C92.867 22.0786 92.8945 20.9609 92.8945 19.7189C92.8945 18.5322 92.867 17.5111 92.8257 16.6831H93.6645C93.7607 16.6831 93.967 16.6831 94.2832 16.6693C94.5995 16.6555 94.8745 16.6555 95.1495 16.6555C96.6482 16.6555 97.3907 17.1661 97.3907 18.1872C97.3907 19.0014 96.9645 19.5671 96.112 19.8845V19.9535C96.442 20.0501 96.7307 20.2985 96.9782 20.7263C97.212 21.154 97.5557 21.9406 97.9682 23.0583ZM96.1395 18.5598C96.1395 17.9113 95.727 17.5801 94.8882 17.5801C94.5857 17.5801 94.3107 17.6077 94.077 17.6491C94.1182 18.1596 94.132 18.8082 94.132 19.6223C94.3107 19.6223 94.462 19.6361 94.5857 19.6361C95.6307 19.6361 96.1395 19.2774 96.1395 18.5598Z" fill="white"/>
<path d="M104.967 19.7603C104.967 20.7677 104.664 21.5956 104.046 22.258C103.441 22.9203 102.684 23.2515 101.777 23.2515C100.924 23.2515 100.196 22.9479 99.6182 22.3408C99.0407 21.7336 98.752 20.9609 98.752 20.0363C98.752 19.029 99.0545 18.201 99.6732 17.5387C100.278 16.8763 101.034 16.5451 101.942 16.5451C102.794 16.5451 103.523 16.8487 104.101 17.4559C104.678 18.0492 104.967 18.822 104.967 19.7603ZM103.619 19.8983C103.619 19.2222 103.441 18.6564 103.097 18.2424C102.753 17.8147 102.313 17.6077 101.804 17.6077C101.323 17.6077 100.924 17.8147 100.594 18.2424C100.264 18.6702 100.099 19.2084 100.099 19.8569C100.099 20.5331 100.278 21.0851 100.622 21.5128C100.966 21.9406 101.406 22.1476 101.901 22.1476C102.382 22.1476 102.781 21.9268 103.111 21.499C103.454 21.0851 103.619 20.5469 103.619 19.8983Z" fill="white"/>
<path d="M107.717 23.0583H106.342C106.383 22.051 106.411 20.9333 106.411 19.7189C106.411 18.5322 106.383 17.5111 106.342 16.6831H107.717C107.676 17.5111 107.648 18.5184 107.648 19.7189C107.662 20.9609 107.676 22.0648 107.717 23.0583Z" fill="white"/>
<path d="M114.784 19.6499C114.784 20.5745 114.482 21.3886 113.891 22.0786C113.299 22.7685 112.474 23.1135 111.402 23.1135C110.921 23.1135 110.261 23.0997 109.408 23.0583C109.449 22.0786 109.477 20.9609 109.477 19.7189C109.477 18.5322 109.449 17.5111 109.408 16.6831H110.261C110.398 16.6831 110.604 16.6831 110.879 16.6693C111.154 16.6555 111.333 16.6555 111.416 16.6555C112.584 16.6555 113.437 16.9453 113.973 17.5387C114.523 18.132 114.784 18.8358 114.784 19.6499ZM113.464 19.8569C113.464 19.236 113.286 18.6978 112.914 18.27C112.557 17.8423 111.993 17.6215 111.251 17.6215C111.113 17.6215 110.921 17.6353 110.673 17.6629C110.701 18.3114 110.728 19.0014 110.728 19.7051C110.728 20.4917 110.742 21.2644 110.783 22.0234C110.989 22.0648 111.209 22.0924 111.416 22.0924C112.117 22.0924 112.639 21.8716 112.969 21.4438C113.286 21.0161 113.464 20.4917 113.464 19.8569Z" fill="white"/>
<path d="M124.176 23.0583H122.608C122.608 22.8375 122.457 22.2304 122.168 21.2231H119.913C119.611 22.2166 119.459 22.8237 119.459 23.0583H117.988C117.988 22.9341 118.373 21.8854 119.129 19.9259C119.886 17.9665 120.271 16.8901 120.271 16.6831H122.113C122.113 16.8625 122.457 17.9389 123.144 19.8707C123.832 21.8302 124.176 22.8789 124.176 23.0583ZM121.921 20.2985C121.371 18.615 121.082 17.7043 121.082 17.5663H120.999C120.999 17.6905 120.711 18.6012 120.133 20.2985H121.921Z" fill="white"/>
<path d="M129.854 18.3528C129.854 19.1394 129.566 19.7052 128.988 20.0777C128.411 20.4503 127.709 20.6297 126.871 20.6297C126.719 20.6297 126.609 20.6297 126.541 20.6159C126.541 21.2231 126.554 22.0372 126.596 23.0445H125.221C125.262 22.1062 125.289 20.9885 125.289 19.7052C125.289 18.5322 125.262 17.5111 125.221 16.6693H126.073C126.197 16.6693 126.431 16.6693 126.761 16.6555C127.091 16.6417 127.393 16.6417 127.654 16.6417C128.273 16.6417 128.796 16.7797 129.222 17.0695C129.648 17.3593 129.854 17.7871 129.854 18.3528ZM128.603 18.6288C128.603 17.9251 128.136 17.5801 127.214 17.5801C126.981 17.5801 126.733 17.6077 126.486 17.6491C126.527 18.27 126.541 18.96 126.541 19.7466C126.623 19.7466 126.719 19.7603 126.829 19.7603C128.012 19.7603 128.603 19.374 128.603 18.6288Z" fill="white"/>
<path d="M135.712 18.3528C135.712 19.1394 135.423 19.7052 134.846 20.0777C134.268 20.4503 133.567 20.6297 132.714 20.6297C132.563 20.6297 132.453 20.6297 132.384 20.6159C132.384 21.2231 132.398 22.0372 132.439 23.0445H131.064C131.106 22.1062 131.133 20.9885 131.133 19.7052C131.133 18.5322 131.106 17.5111 131.064 16.6693H131.917C132.041 16.6693 132.274 16.6693 132.604 16.6555C132.934 16.6417 133.237 16.6417 133.498 16.6417C134.117 16.6417 134.639 16.7797 135.066 17.0695C135.492 17.3593 135.712 17.7871 135.712 18.3528ZM134.447 18.6288C134.447 17.9251 133.979 17.5801 133.058 17.5801C132.824 17.5801 132.577 17.6077 132.329 17.6491C132.371 18.27 132.384 18.96 132.384 19.7466C132.467 19.7466 132.563 19.7603 132.673 19.7603C133.856 19.7603 134.447 19.374 134.447 18.6288Z" fill="white"/>
<path d="M145.268 19.7603C145.268 20.7677 144.966 21.5956 144.347 22.258C143.742 22.9203 142.986 23.2515 142.078 23.2515C141.226 23.2515 140.497 22.9479 139.919 22.3408C139.342 21.7336 139.053 20.9609 139.053 20.0363C139.053 19.029 139.356 18.201 139.974 17.5387C140.579 16.8763 141.336 16.5451 142.243 16.5451C143.096 16.5451 143.824 16.8487 144.402 17.4559C144.979 18.0492 145.268 18.822 145.268 19.7603ZM143.934 19.8983C143.934 19.2222 143.756 18.6564 143.412 18.2424C143.068 17.8147 142.628 17.6077 142.119 17.6077C141.638 17.6077 141.239 17.8147 140.909 18.2424C140.579 18.6702 140.414 19.2084 140.414 19.8569C140.414 20.5331 140.593 21.0851 140.937 21.5128C141.281 21.9406 141.721 22.1476 142.216 22.1476C142.697 22.1476 143.096 21.9268 143.426 21.499C143.756 21.0851 143.934 20.5469 143.934 19.8983Z" fill="white"/>
<path d="M151.882 23.0583H150.672C150.672 22.9203 150.218 22.2166 149.324 20.9333C148.389 19.581 147.853 18.6702 147.729 18.1734H147.647C147.729 18.891 147.771 19.5396 147.771 20.1053C147.771 20.9057 147.798 21.8992 147.839 23.0583H146.643C146.698 22.051 146.712 20.9333 146.712 19.7189C146.712 18.5322 146.684 17.5111 146.643 16.6831H148.087C148.087 16.8625 148.485 17.5525 149.297 18.753C150.149 20.0363 150.644 20.9057 150.768 21.361H150.837C150.754 20.6297 150.713 19.9811 150.713 19.4016C150.713 18.5184 150.685 17.6077 150.644 16.6831H151.868C151.827 17.4973 151.799 18.5046 151.799 19.7189C151.813 20.9471 151.84 22.0648 151.882 23.0583Z" fill="white"/>
<path d="M94.3383 43.481C94.3383 46.641 93.4033 49.1663 91.5333 51.043C89.4158 53.2784 86.6521 54.3961 83.2421 54.3961C79.9834 54.3961 77.2196 53.2646 74.9371 51.0016C72.6546 48.7385 71.5134 45.9235 71.5134 42.5703C71.5134 39.2171 72.6546 36.4021 74.9371 34.139C77.2196 31.876 79.9834 30.7445 83.2421 30.7445C84.8646 30.7445 86.4046 31.0618 87.8758 31.6966C89.3471 32.3314 90.5296 33.1731 91.4095 34.2218L89.4296 36.2089C87.9308 34.415 85.8821 33.5181 83.2558 33.5181C80.8771 33.5181 78.8284 34.3598 77.0959 36.0295C75.3634 37.6992 74.4971 39.8795 74.4971 42.5565C74.4971 45.2335 75.3634 47.4138 77.0959 49.0835C78.8284 50.7532 80.8771 51.5949 83.2558 51.5949C85.7721 51.5949 87.8758 50.7532 89.5533 49.0697C90.6395 47.9796 91.272 46.4479 91.4508 44.4884H83.2558V41.7699H94.2008C94.297 42.3633 94.3383 42.9291 94.3383 43.481Z" fill="white"/>
<path d="M97.7758 40.2383C99.2608 38.6652 101.172 37.8786 103.482 37.8786C105.792 37.8786 107.689 38.6652 109.188 40.2383C110.673 41.8114 111.429 43.7708 111.429 46.1443C111.429 48.5039 110.687 50.4772 109.188 52.0503C107.689 53.6234 105.792 54.41 103.482 54.41C101.172 54.41 99.2745 53.6234 97.7758 52.0503C96.2908 50.4772 95.5345 48.5177 95.5345 46.1443C95.5345 43.7708 96.2908 41.8114 97.7758 40.2383ZM99.9345 50.2012C100.938 51.2224 102.107 51.7329 103.482 51.7329C104.843 51.7329 106.026 51.2224 107.029 50.2012C108.033 49.1801 108.528 47.8278 108.528 46.1305C108.528 44.447 108.033 43.0947 107.029 42.0597C106.026 41.0386 104.843 40.528 103.482 40.528C102.121 40.528 100.938 41.0386 99.9345 42.0597C98.9308 43.0809 98.4358 44.4332 98.4358 46.1305C98.4358 47.8278 98.9445 49.1801 99.9345 50.2012Z" fill="white"/>
<path d="M114.647 40.2383C116.132 38.6652 118.043 37.8786 120.353 37.8786C122.663 37.8786 124.561 38.6652 126.059 40.2383C127.544 41.8114 128.301 43.7708 128.301 46.1443C128.301 48.5039 127.558 50.4772 126.059 52.0503C124.561 53.6234 122.663 54.41 120.353 54.41C118.043 54.41 116.146 53.6234 114.647 52.0503C113.148 50.4772 112.406 48.5177 112.406 46.1443C112.406 43.7708 113.148 41.8114 114.647 40.2383ZM116.806 50.2012C117.809 51.2224 118.978 51.7329 120.353 51.7329C121.714 51.7329 122.897 51.2224 123.901 50.2012C124.904 49.1801 125.399 47.8278 125.399 46.1305C125.399 44.447 124.904 43.0947 123.901 42.0597C122.897 41.0386 121.714 40.528 120.353 40.528C118.992 40.528 117.809 41.0386 116.806 42.0597C115.802 43.0809 115.307 44.4332 115.307 46.1305C115.307 47.8278 115.802 49.1801 116.806 50.2012Z" fill="white"/>
<path d="M136.867 61.2267C135.038 61.2267 133.539 60.7713 132.384 59.8468C131.229 58.9223 130.404 57.8735 129.896 56.7006L132.549 55.5967C132.838 56.4384 133.388 57.1422 134.172 57.7217C134.956 58.2875 135.863 58.5773 136.867 58.5773C138.462 58.5773 139.713 58.0943 140.634 57.1422C141.556 56.1762 142.009 54.8791 142.009 53.237V51.7467H141.886C141.377 52.5057 140.662 53.1404 139.741 53.651C138.819 54.1616 137.774 54.41 136.619 54.41C134.626 54.41 132.893 53.6234 131.449 52.0365C130.006 50.4496 129.277 48.4901 129.277 46.1581C129.277 43.826 130.006 41.8527 131.449 40.2796C132.893 38.6927 134.626 37.9062 136.619 37.9062C137.774 37.9062 138.819 38.1546 139.741 38.6651C140.662 39.1757 141.377 39.8105 141.886 40.5694H142.009V38.4168H144.787V53.1266C144.787 55.7899 144.017 57.8045 142.491 59.1844C140.937 60.5368 139.067 61.2267 136.867 61.2267ZM137.087 51.7329C138.448 51.7329 139.617 51.2224 140.566 50.215C141.528 49.2077 141.996 47.8416 141.996 46.1305C141.996 44.4194 141.514 43.0671 140.566 42.0459C139.603 41.0386 138.448 40.528 137.087 40.528C135.739 40.528 134.584 41.0386 133.622 42.0597C132.659 43.0809 132.178 44.4332 132.178 46.1305C132.178 47.814 132.659 49.1663 133.622 50.2012C134.584 51.2224 135.739 51.7329 137.087 51.7329Z" fill="white"/>
<path d="M150.424 53.8856H147.523V31.2412H150.424V53.8856Z" fill="white"/>
<path d="M159.994 54.3962C157.657 54.3962 155.759 53.6096 154.302 52.0503C152.844 50.491 152.115 48.5177 152.115 46.1305C152.115 43.8674 152.83 41.9356 154.247 40.3073C155.663 38.679 157.478 37.8786 159.678 37.8786C161.974 37.8786 163.803 38.6238 165.178 40.1279C166.553 41.6182 167.24 43.6328 167.24 46.1443L167.213 46.6825H155.017C155.099 48.2418 155.622 49.4837 156.57 50.3806C157.533 51.2914 158.647 51.7467 159.925 51.7467C162.002 51.7467 163.418 50.8636 164.147 49.0835L166.732 50.1598C166.223 51.3604 165.398 52.3677 164.243 53.1818C163.102 53.9822 161.685 54.3962 159.994 54.3962ZM164.16 44.2676C164.092 43.3845 163.693 42.5427 162.95 41.7424C162.208 40.942 161.094 40.5418 159.623 40.5418C158.55 40.5418 157.615 40.873 156.832 41.5492C156.048 42.2253 155.498 43.1361 155.209 44.2676H164.16Z" fill="white"/>
<path d="M178.667 53.8856H175.765V31.2412H183.452C185.363 31.2412 187.013 31.876 188.415 33.1593C189.818 34.4426 190.505 36.0433 190.505 37.989C190.505 39.9347 189.804 41.5354 188.415 42.8187C187.013 44.0882 185.363 44.7368 183.452 44.7368H178.667V53.8856ZM178.667 41.9355H183.52C184.744 41.9355 185.72 41.5216 186.449 40.7074C187.192 39.8795 187.549 38.9825 187.549 37.989C187.549 36.9955 187.178 36.0847 186.449 35.2706C185.707 34.4426 184.73 34.0424 183.52 34.0424H178.667V41.9355Z" fill="white"/>
<path d="M195.304 53.8856H192.403V31.2412H195.304V53.8856Z" fill="white"/>
<path d="M202.77 54.3961C201.134 54.3961 199.759 53.927 198.659 52.9748C197.559 52.0227 197.009 50.767 197.009 49.2077C197.009 47.5242 197.655 46.1995 198.961 45.2335C200.268 44.2676 201.876 43.7984 203.788 43.7984C205.493 43.7984 206.881 44.1158 207.981 44.7506V44.2952C207.981 43.1499 207.596 42.2391 206.813 41.563C206.029 40.873 205.08 40.528 203.939 40.528C203.1 40.528 202.33 40.735 201.656 41.1352C200.969 41.5354 200.501 42.0873 200.254 42.7773L197.6 41.632C197.958 40.7074 198.659 39.8381 199.718 39.0515C200.763 38.265 202.151 37.8648 203.884 37.8648C205.864 37.8648 207.5 38.4444 208.806 39.6035C210.113 40.7626 210.759 42.4047 210.759 44.5022V53.8718H207.981V51.7191H207.858C206.689 53.513 204.998 54.3961 202.77 54.3961ZM203.251 51.7329C204.448 51.7329 205.534 51.2776 206.51 50.3944C207.486 49.4975 207.981 48.4349 207.981 47.2206C207.156 46.5445 205.933 46.2133 204.296 46.2133C202.894 46.2133 201.821 46.5169 201.106 47.124C200.391 47.7312 200.034 48.4487 200.034 49.2767C200.034 50.0356 200.364 50.6428 201.01 51.0844C201.656 51.5121 202.399 51.7329 203.251 51.7329Z" fill="white"/>
<path d="M217.056 60.7162H214.059L217.648 52.9059L211.281 38.3892H214.43L219.036 49.5251H219.105L223.574 38.3892H226.723L217.056 60.7162Z" fill="white"/>
<path d="M17.4349 42.1839C17.4349 34.9532 17.4349 27.7087 17.4349 20.4779C17.4349 19.5948 17.5999 18.7806 18.2324 18.1045C18.4799 17.8423 18.6449 17.7733 18.9474 18.0769C23.8011 23.0445 28.6548 27.9984 33.5223 32.9523C36.6711 36.1675 39.8198 39.3689 42.9823 42.5703C43.2848 42.8739 43.3123 43.0395 42.996 43.3707C35.2686 51.0844 27.5411 58.8119 19.8411 66.5532C19.3736 67.0224 19.0436 66.981 18.5899 66.6222C17.7649 65.9874 17.4487 65.1319 17.4487 64.1108C17.4487 59.8192 17.4487 55.5415 17.4349 51.25C17.4212 48.2418 17.4212 45.2059 17.4349 42.1839C17.4212 42.1839 17.4349 42.1839 17.4349 42.1839Z" fill="white"/>
<path d="M20.1986 17.2765C20.7899 17.2765 21.2024 17.4421 21.6011 17.6629C31.4736 23.2101 41.346 28.7712 51.2185 34.3046C51.6722 34.553 51.6585 34.7048 51.3147 35.0498C49.101 37.23 46.9148 39.4241 44.7285 41.632C44.4948 41.8666 44.3435 42.0045 44.0273 41.6872C36.1761 33.6423 28.3111 25.625 20.4461 17.5939C20.3911 17.5249 20.3361 17.4421 20.1986 17.2765Z" fill="white"/>
<path d="M22.4124 66.3738C29.5761 59.1017 36.7536 51.8433 43.9035 44.5574C44.3435 44.102 44.5498 44.171 44.9485 44.585C46.7635 46.4893 48.606 48.3521 50.4622 50.215C50.7922 50.5462 50.8197 50.6704 50.3797 50.9188C41.181 55.9693 31.9823 61.0473 22.7974 66.1116C22.6324 66.1806 22.4949 66.3186 22.4124 66.3738Z" fill="white"/>
<path d="M63.3459 42.3771C63.3184 43.1913 62.9334 43.7708 62.3559 44.1986C61.9297 44.516 61.4484 44.7782 60.9809 45.0403C58.2034 46.5858 55.4122 48.1176 52.6347 49.6631C52.2635 49.87 52.0435 49.87 51.7272 49.5389C49.7472 47.4966 47.7535 45.4543 45.7597 43.4396C45.471 43.1499 45.4572 42.9843 45.7597 42.6945C48.0972 40.39 50.421 38.058 52.731 35.7259C53.006 35.45 53.1985 35.4224 53.5422 35.6155C56.2922 37.1748 59.0559 38.7203 61.8059 40.2658C62.6447 40.7488 63.3184 41.3698 63.3459 42.3771Z" fill="white"/>
</g>
<defs>
<clipPath id="clip0">
<rect width="235" height="79" fill="white"/>
</clipPath>
</defs>
</svg>
