<svg width="48" height="48" viewBox="0 0 48 48" fill="none" xmlns="http://www.w3.org/2000/svg">
<path d="M33 0H15C6.717 0 0 6.717 0 15V33C0 41.283 6.717 48 15 48H33C41.283 48 48 41.283 48 33V15C48 6.717 41.283 0 33 0ZM43.5 33C43.5 38.79 38.79 43.5 33 43.5H15C9.21 43.5 4.5 38.79 4.5 33V15C4.5 9.21 9.21 4.5 15 4.5H33C38.79 4.5 43.5 9.21 43.5 15V33Z" fill="black"/>
<path d="M24 12C17.373 12 12 17.373 12 24C12 30.627 17.373 36 24 36C30.627 36 36 30.627 36 24C36 17.373 30.627 12 24 12ZM24 31.5C19.866 31.5 16.5 28.134 16.5 24C16.5 19.863 19.866 16.5 24 16.5C28.134 16.5 31.5 19.863 31.5 24C31.5 28.134 28.134 31.5 24 31.5Z" fill="black"/>
<path d="M36.9 12.699C37.7831 12.699 38.499 11.9831 38.499 11.1C38.499 10.2169 37.7831 9.50098 36.9 9.50098C36.0169 9.50098 35.301 10.2169 35.301 11.1C35.301 11.9831 36.0169 12.699 36.9 12.699Z" fill="black"/>
</svg>
