<svg width="400" height="560" viewBox="0 0 400 560" fill="none" xmlns="http://www.w3.org/2000/svg">
<g clip-path="url(#clip0)">
<path d="M284.82 187.118C278.393 172.047 275.518 165.443 275.518 149.017V148.848C275.518 147.155 275.518 145.292 275.518 143.429C275.18 82.8062 231.882 33.8676 178.436 33.8676C124.989 33.8676 81.5222 82.8062 81.1839 143.429C81.1839 145.292 81.1839 147.155 81.1839 148.848V149.017C81.1839 163.58 78.9852 170.354 74.0803 182.038C92.5158 194.738 125.835 209.471 181.987 209.471C230.698 209.471 263.848 198.295 284.82 187.118Z" fill="#37BFA7"/>
<path d="M237.801 560C232.896 560 228.837 555.936 228.837 551.025V416.571C228.837 411.66 232.896 407.596 237.801 407.596C242.706 407.596 246.765 411.66 246.765 416.571V551.025C246.765 555.936 242.706 560 237.801 560Z" fill="#C2CCC9"/>
<path d="M251.163 560H237.801C232.896 560 228.837 555.936 228.837 551.025C228.837 546.114 232.896 542.05 237.801 542.05H251.163C256.068 542.05 260.127 546.114 260.127 551.025C260.127 555.936 256.068 560 251.163 560Z" fill="#C2CCC9"/>
<path d="M122.452 560C117.548 560 113.488 555.936 113.488 551.025V416.571C113.488 411.66 117.548 407.596 122.452 407.596C127.357 407.596 131.416 411.66 131.416 416.571V551.025C131.416 555.936 127.526 560 122.452 560Z" fill="#C2CCC9"/>
<path d="M122.452 560H109.091C104.186 560 100.127 555.936 100.127 551.025C100.127 546.114 104.186 542.05 109.091 542.05H122.452C127.357 542.05 131.416 546.114 131.416 551.025C131.416 555.936 127.526 560 122.452 560Z" fill="#C2CCC9"/>
<path d="M292.093 230.638C291.416 230.638 290.909 230.638 290.74 230.638C285.835 230.469 281.945 226.235 282.114 221.324C282.283 216.414 286.512 212.519 291.416 212.688C294.123 212.688 354.841 213.874 382.918 151.727C384.947 147.154 390.359 145.122 394.757 147.324C399.323 149.356 401.353 154.775 399.154 159.177C368.203 227.759 302.579 230.638 292.093 230.638Z" fill="#C2CCC9"/>
<path d="M9.64057 337.998C5.07397 337.998 1.18391 334.611 0.676507 329.87C-7.27275 249.943 55.9831 214.89 58.6892 213.535C63.0867 211.164 68.4989 212.858 70.8668 217.26C73.2346 221.663 71.5433 227.082 67.1459 229.453C64.9471 230.807 11.8393 260.442 18.6046 328.177C19.112 333.087 15.5602 337.49 10.4862 337.998C10.3171 337.998 9.97883 337.998 9.64057 337.998Z" fill="#C2CCC9"/>
<path d="M304.947 240.46C304.947 240.29 304.778 240.121 304.778 239.952C295.983 213.196 289.387 197.956 284.651 186.949C263.679 198.125 230.529 209.132 181.987 209.132C125.835 209.132 92.5159 194.4 74.0803 181.699C69.5137 192.537 62.5793 207.608 52.7695 237.073C51.0782 242.153 49.2177 247.911 47.3573 254.007C43.4672 268.231 41.4376 283.302 41.4376 299.051C41.4376 384.735 102.664 426.223 178.266 426.223C253.869 426.223 315.095 384.735 315.095 299.051C315.095 282.455 312.896 266.707 308.668 251.805C307.484 247.911 306.3 244.185 304.947 240.46Z" fill="#D8E5E1"/>
<path d="M181.987 215.059C114.672 215.059 72.7273 187.965 71.0359 186.78C68.4989 185.086 67.6533 181.53 69.5137 178.99C71.2051 176.45 74.7569 175.603 77.2938 177.466C77.8012 177.805 118.393 203.883 182.156 203.883C246.258 203.883 281.607 182.715 281.945 182.546C284.651 180.853 288.034 181.699 289.725 184.409C291.416 187.118 290.571 190.505 287.865 192.198C286.173 192.876 249.302 215.059 181.987 215.059Z" fill="#C2CCC9"/>
<path d="M156.448 50.4627C154.419 50.4627 152.558 49.108 152.051 46.9066C152.051 46.7372 146.977 25.7393 136.829 17.6111C134.968 16.0871 134.63 13.2084 136.152 11.3456C137.674 9.48292 140.55 9.14425 142.41 10.6683C155.095 20.8286 160.507 44.0278 160.677 45.0438C161.184 47.4146 159.662 49.9546 157.294 50.4627C157.125 50.4627 156.786 50.4627 156.448 50.4627Z" fill="#F74442"/>
<path d="M168.626 40.133C166.258 40.133 164.228 38.2703 164.059 35.7302C164.059 34.8835 163.552 14.2243 165.581 3.55606C166.089 1.18533 168.457 -0.508048 170.825 -3.48613e-05C173.192 0.507978 174.884 2.87871 174.376 5.24944C172.516 14.9017 173.023 35.2222 173.023 35.3916C173.023 37.9316 171.163 40.133 168.626 40.133Z" fill="#F74442"/>
<path d="M180.803 50.4626C178.774 50.4626 176.913 49.1079 176.406 47.0759C175.899 45.2132 172.178 28.2794 179.112 18.6271C181.818 14.9017 185.708 12.7003 190.613 12.3616C193.15 12.1923 195.349 14.055 195.518 16.4258C195.687 18.9658 193.827 21.1672 191.459 21.3366C189.26 21.5059 187.738 22.3526 186.554 23.8766C182.664 29.1261 184.355 41.1491 185.37 44.8745C185.877 47.2452 184.524 49.7853 181.987 50.2933C181.48 50.4626 181.142 50.4626 180.803 50.4626Z" fill="#F74442"/>
<path d="M210.063 150.88C210.063 156.299 207.357 161.04 203.298 163.919C203.298 163.919 203.129 164.088 202.791 164.258C200.761 165.612 191.966 171.2 178.943 171.37H177.759C164.567 171.2 155.772 165.782 153.911 164.258C153.573 164.088 153.404 163.919 153.404 163.919C149.345 161.04 146.638 156.299 146.638 150.88C146.638 142.074 153.742 134.962 162.537 134.962C165.92 134.962 168.964 135.978 171.501 137.841C171.501 137.841 171.501 137.841 171.67 138.01C172.347 138.349 174.207 139.534 178.266 139.534C182.326 139.534 184.355 138.349 184.863 138.01C185.032 137.841 185.032 137.841 185.032 137.841C187.569 136.148 190.613 134.962 193.996 134.962C202.96 134.962 210.063 142.074 210.063 150.88Z" fill="black"/>
<path d="M214.461 130.051C197.209 130.051 183.171 115.996 183.171 98.7239C183.171 81.4514 197.209 67.3964 214.461 67.3964C231.712 67.3964 245.75 81.4514 245.75 98.7239C245.75 115.996 231.712 130.051 214.461 130.051ZM214.461 74.0005C200.93 74.0005 189.937 85.0075 189.937 98.5545C189.937 112.102 200.93 123.108 214.461 123.108C227.991 123.108 238.985 112.102 238.985 98.5545C238.985 85.0075 227.991 74.0005 214.461 74.0005Z" fill="#D8E5E1"/>
<path d="M147.991 114.811C152.288 114.811 155.772 110.035 155.772 104.143C155.772 98.2507 152.288 93.4744 147.991 93.4744C143.695 93.4744 140.211 98.2507 140.211 104.143C140.211 110.035 143.695 114.811 147.991 114.811Z" fill="black"/>
<path d="M144.609 130.051C127.357 130.051 113.319 115.996 113.319 98.7239C113.319 81.4514 127.357 67.3964 144.609 67.3964C161.86 67.3964 175.898 81.4514 175.898 98.7239C175.898 115.996 161.86 130.051 144.609 130.051ZM144.609 74.0005C131.078 74.0005 120.085 85.0075 120.085 98.5545C120.085 112.102 131.078 123.108 144.609 123.108C158.14 123.108 169.133 112.271 169.133 98.7239C169.133 85.1768 158.14 74.0005 144.609 74.0005Z" fill="#D8E5E1"/>
<path d="M214.461 114.811C218.758 114.811 222.241 110.035 222.241 104.143C222.241 98.2507 218.758 93.4744 214.461 93.4744C210.164 93.4744 206.681 98.2507 206.681 104.143C206.681 110.035 210.164 114.811 214.461 114.811Z" fill="black"/>
<g opacity="0.56">
<path opacity="0.56" d="M269.166 271.661C278.339 262.862 277.132 246.696 266.47 235.553C255.807 224.41 239.727 222.51 230.554 231.309C221.38 240.108 222.588 256.274 233.25 267.417C243.913 278.56 259.993 280.46 269.166 271.661Z" fill="#EBEDED"/>
<path opacity="0.56" d="M254.715 278.561C240.338 278.561 226.131 266.538 223.425 251.636C222.072 244.016 223.594 237.073 227.992 231.823C232.051 226.913 238.14 224.203 245.074 224.203C259.45 224.203 273.658 236.226 276.364 251.128C277.717 258.748 276.195 265.691 271.797 270.94C267.738 275.851 261.649 278.561 254.715 278.561ZM244.905 227.251C238.985 227.251 233.742 229.622 230.19 233.855C226.469 238.428 225.116 244.524 226.3 251.128C228.837 264.506 241.522 275.512 254.545 275.512C260.465 275.512 265.708 273.142 269.26 268.908C272.981 264.336 274.334 258.24 273.15 251.636C270.613 238.258 257.928 227.251 244.905 227.251Z" fill="#37BFA7"/>
</g>
<g opacity="0.56">
<g opacity="0.56">
<path opacity="0.56" d="M250.825 260.442C251.501 260.611 252.178 260.441 252.685 260.272C252.854 260.272 253.023 260.272 253.023 260.103C253.531 260.103 254.038 259.764 254.376 259.595C255.222 259.087 255.729 258.24 256.068 257.393C256.237 256.885 256.406 256.208 256.237 255.7C256.237 255.531 256.237 255.361 256.406 255.361C256.575 255.361 256.575 255.531 256.575 255.7C256.575 256.039 256.575 256.208 256.575 256.547C256.575 256.716 256.575 256.885 256.913 256.716C257.252 256.716 257.759 256.716 258.097 256.547C258.266 256.547 258.435 256.547 258.605 256.377C258.774 256.377 258.774 256.377 258.943 256.377H259.112C259.45 256.377 259.45 256.208 259.619 256.039C259.789 255.7 259.789 255.361 259.789 254.853C259.789 254.515 259.958 254.007 259.789 253.668C259.619 253.668 259.619 253.668 259.619 253.837C258.774 254.345 257.59 254.684 256.575 254.853C255.898 254.853 255.053 254.853 254.376 254.853C253.869 254.853 253.869 254.853 254.038 255.192C254.038 255.531 254.038 256.039 254.038 256.377C253.869 257.055 253.531 257.393 253.192 257.901C253.192 257.901 253.192 257.901 253.023 258.071C252.516 258.409 252.008 258.579 251.501 258.579C251.332 258.579 251.332 258.579 251.332 258.748C251.332 259.087 251.163 259.425 251.163 259.764C250.994 259.933 250.825 260.272 250.655 260.442C250.655 260.442 250.486 260.441 250.655 260.611C250.655 260.441 250.825 260.442 250.825 260.442Z" fill="#37BFA7"/>
</g>
<g opacity="0.56">
<path opacity="0.56" d="M257.928 260.103C258.097 259.933 258.605 260.103 258.266 259.595C257.928 258.748 257.759 258.071 257.928 257.393C257.928 257.224 257.928 257.055 257.759 257.224C257.59 257.224 257.252 257.224 257.082 257.224C256.913 257.224 256.744 257.224 256.744 257.393C256.575 258.071 256.237 258.748 255.56 259.256C255.391 259.425 255.391 259.595 255.729 259.595C256.406 260.103 257.082 260.103 257.928 260.103Z" fill="#37BFA7"/>
</g>
<g opacity="0.56">
<path opacity="0.56" d="M247.104 260.103C247.104 260.103 247.273 260.272 247.104 260.103C247.949 260.441 248.457 260.611 249.133 260.441C250.148 260.272 250.655 259.595 250.994 258.748C250.994 258.579 250.994 258.409 250.655 258.24C250.317 258.24 250.148 258.24 249.81 258.071C249.641 258.071 249.471 257.901 249.641 257.732C249.641 257.563 249.81 257.563 249.979 257.563C250.148 257.563 250.317 257.732 250.486 257.732H250.655C250.994 257.901 251.332 257.901 251.501 257.732C252.347 257.563 252.854 257.393 253.362 256.716C253.531 256.716 253.531 256.547 253.531 256.377C253.869 256.039 253.869 255.531 253.869 255.023C253.869 254.345 253.869 254.345 253.023 254.007C252.685 253.837 252.516 253.837 252.685 253.499C252.685 253.499 252.685 253.499 252.854 253.499C253.023 253.499 253.023 253.499 253.192 253.668C254.038 254.007 254.884 254.176 255.729 254.176H255.899H256.068C257.759 254.176 259.112 253.668 260.296 252.821C260.803 252.483 261.142 252.144 261.48 251.636C261.818 251.297 261.987 250.959 262.156 250.451C262.156 250.451 262.156 250.451 262.326 250.451C263.002 248.588 263.002 246.556 261.818 244.354C261.818 244.185 261.649 244.185 261.48 244.016C260.973 243.846 260.296 243.846 259.789 244.016C259.619 244.016 259.619 244.016 259.45 244.016C257.928 244.354 257.082 245.878 257.421 247.572C257.421 247.741 257.59 247.741 257.759 247.91C258.266 248.08 258.605 248.249 258.943 248.418C259.112 248.588 259.112 248.588 259.112 248.757C259.112 248.757 259.112 248.757 258.943 248.926C258.774 248.926 258.605 248.926 258.436 248.757C258.097 248.588 257.59 248.249 257.252 248.249C255.729 247.91 254.545 248.588 254.207 249.943C254.207 250.112 254.376 250.281 254.545 250.281C255.053 250.451 255.391 250.62 255.729 250.959C255.899 251.128 256.068 251.297 255.899 251.467C255.729 251.467 255.56 251.467 255.391 251.297C255.222 251.128 255.053 250.959 254.884 250.959C254.038 250.451 253.192 250.281 252.347 250.451C251.67 250.62 251.163 250.789 250.655 251.297C250.317 251.467 250.317 251.636 250.148 251.805C249.979 251.975 249.979 252.144 249.979 252.313C249.81 252.483 249.81 252.652 249.81 252.652C249.641 253.329 249.81 254.007 249.979 254.684C249.979 254.853 250.148 255.023 249.979 255.023C249.81 255.192 249.641 255.023 249.641 255.023C249.641 254.853 249.471 254.684 249.471 254.684C249.471 254.515 249.471 254.515 249.471 254.345C249.302 253.668 249.302 253.668 248.626 253.668C247.611 253.668 246.934 254.007 246.427 254.684C246.427 254.684 246.258 254.684 246.258 254.853C246.089 255.023 246.089 255.023 245.92 255.192C245.751 255.361 245.581 255.7 245.581 255.869C245.243 256.547 245.243 257.393 245.581 258.24C245.581 258.24 245.581 258.24 245.581 258.409C245.751 259.256 246.258 259.764 247.104 260.103ZM247.104 257.563C247.273 257.393 247.611 257.224 247.611 256.716C247.949 256.208 248.288 255.7 249.133 255.7C249.471 255.7 249.81 255.7 250.148 255.7C250.486 255.869 250.825 255.869 250.994 255.7C250.994 255.7 250.994 255.7 251.163 255.7C251.67 255.361 251.839 255.023 251.501 254.345C250.825 252.483 252.347 251.467 253.869 251.975C254.376 252.144 254.884 252.144 255.222 252.144H255.391C255.729 252.144 256.068 252.144 256.406 251.975C256.575 251.975 256.744 251.975 256.913 251.805C257.421 251.805 257.928 251.467 258.266 251.297C259.281 250.62 259.958 249.773 260.296 248.588C260.465 248.08 260.465 247.572 259.958 247.064C259.619 246.725 259.281 246.556 259.112 246.048C259.281 246.048 259.281 246.048 259.45 246.048C259.789 246.386 259.958 246.725 260.296 247.064C260.465 247.233 260.634 247.233 260.634 247.064C260.803 246.725 260.803 246.556 260.973 246.217C260.973 246.048 261.142 245.878 261.311 246.048C261.48 246.217 261.48 246.386 261.48 246.386V246.556C261.48 246.725 261.311 246.725 261.311 246.894C261.142 247.064 261.142 247.233 261.142 247.402C260.803 247.741 260.972 248.249 260.803 248.757C260.634 248.926 260.803 248.926 260.634 249.096C260.465 249.435 260.296 249.943 260.127 250.281C259.958 250.451 259.789 250.62 259.789 250.789C259.619 250.959 259.45 251.128 259.281 251.297C258.943 251.636 258.436 251.805 257.928 252.144H257.759C257.421 252.313 256.913 252.313 256.575 252.483H256.406C255.391 252.483 254.376 252.483 253.362 252.313C252.347 252.144 251.67 252.991 251.839 254.007C252.008 254.515 252.178 255.192 252.008 255.7C251.501 256.377 250.825 256.377 249.81 256.208C249.133 256.039 248.457 256.377 248.288 256.885C248.288 257.055 248.288 257.224 248.288 257.393C248.288 257.563 248.457 257.563 248.457 257.732C248.457 258.071 248.795 258.24 248.795 258.579C248.795 258.748 249.133 258.917 248.795 259.087C248.457 259.256 248.457 258.917 248.288 258.748C248.288 258.748 248.288 258.748 248.288 258.579C248.118 258.24 248.118 258.071 247.949 257.732C247.78 257.563 247.78 257.563 247.611 257.732C247.442 257.901 247.104 258.24 246.934 258.409C246.765 258.579 246.765 258.579 246.427 258.579C246.427 258.579 246.427 258.409 246.258 258.409C246.765 258.071 246.934 257.901 247.104 257.563Z" fill="#37BFA7"/>
</g>
<g opacity="0.56">
<path opacity="0.56" d="M248.626 251.805C248.626 251.805 248.626 251.975 248.795 251.975C248.964 252.144 249.133 252.483 249.302 252.652C249.302 252.483 249.471 252.483 249.471 252.313C249.471 252.144 249.641 252.144 249.641 251.975C249.81 251.805 249.81 251.636 249.81 251.467C249.81 251.467 249.81 251.467 249.979 251.297C250.486 250.62 251.163 250.281 251.839 250.112H252.008C252.347 250.112 252.685 250.112 252.854 250.112C253.361 250.112 253.7 250.112 253.7 249.604V249.435C254.207 248.419 254.884 247.91 256.237 247.91C256.575 247.91 256.744 247.741 256.575 247.402C256.406 246.894 256.575 246.556 256.575 246.217C256.913 244.524 258.605 243.338 260.634 243.508C260.803 243.508 260.803 243.508 260.972 243.508C260.972 243.338 260.972 243.338 260.803 243.169C260.127 242.153 259.112 241.306 258.097 240.629C255.729 239.105 253.192 238.597 250.825 239.105C249.641 239.444 248.626 239.952 247.78 240.798C247.442 241.137 246.934 241.645 246.765 242.153C246.596 242.153 246.596 242.322 246.596 242.492C246.596 242.492 246.596 242.492 246.596 242.661C246.427 242.661 246.427 242.83 246.427 243C246.258 243.338 246.258 243.677 246.089 244.016C245.751 245.54 246.089 246.894 246.596 248.419C246.765 248.757 246.934 248.927 247.273 249.096C247.442 249.435 247.78 249.604 248.118 249.773C248.287 249.943 248.457 249.943 248.288 250.112C248.118 250.281 247.949 250.112 247.78 250.112C247.78 250.112 247.611 250.112 247.611 249.943C247.442 249.773 247.273 249.604 247.104 249.604C247.442 250.112 247.611 250.62 247.949 250.959C247.949 250.959 247.949 250.959 247.949 251.128C248.457 251.467 248.457 251.636 248.626 251.805ZM247.611 244.693C247.78 244.016 247.949 243.508 248.288 242.83C248.626 242.492 248.964 241.984 249.302 241.645C249.979 241.137 250.825 240.629 251.67 240.46C251.839 240.46 251.839 240.46 252.008 240.46C252.347 240.46 252.516 240.46 252.685 240.46C254.038 240.46 255.222 240.629 256.575 241.137C256.744 241.306 256.913 241.306 256.913 241.306C256.913 241.476 257.082 241.476 257.252 241.476C257.759 241.476 258.266 241.645 258.774 241.645C259.112 241.645 259.281 241.814 259.112 242.153C259.112 242.153 259.112 242.153 258.943 242.153C258.435 242.153 258.097 241.984 257.59 241.984C257.421 241.984 257.252 241.984 257.421 242.153C257.59 242.492 257.759 242.83 257.928 243.169C257.928 243.338 258.097 243.508 257.928 243.508C257.759 243.508 257.59 243.338 257.59 243.338C257.421 243.169 257.421 243 257.252 242.83C257.252 242.83 257.252 242.661 257.082 242.661C256.913 242.153 256.744 241.814 256.237 241.645C254.884 241.137 253.531 240.798 252.347 240.968C250.148 241.306 248.795 242.492 248.288 244.524C248.118 245.37 248.118 246.217 248.457 247.064V247.233C248.626 247.91 248.795 248.419 249.302 248.927C250.148 249.773 251.501 249.773 251.839 248.757C252.178 248.08 251.839 247.233 250.825 246.725C250.655 246.386 250.317 246.217 250.148 245.878C250.148 245.709 249.979 245.54 249.979 245.54C249.979 245.201 249.979 244.693 249.979 244.354V244.185C250.317 243.677 250.824 243.338 251.501 243.169C252.008 243.169 252.347 243.169 252.854 243.338C253.192 243.508 253.531 243.846 253.869 244.016C254.207 244.185 254.715 244.354 255.053 244.354C255.222 244.524 255.222 244.524 255.391 244.524C255.56 244.524 255.729 244.693 255.729 244.862C255.729 245.032 255.56 245.032 255.391 245.032C255.053 244.862 254.715 244.862 254.207 244.693C254.038 244.693 254.038 244.693 254.038 244.862C254.207 245.201 254.376 245.709 254.376 246.048C254.376 246.217 254.376 246.217 254.207 246.217C254.038 246.217 254.038 246.217 253.869 246.048C253.869 245.878 253.7 245.878 253.7 245.709C253.7 245.709 253.7 245.709 253.7 245.54C253.7 245.201 253.361 244.693 253.361 244.354C253.361 244.354 253.361 244.185 253.192 244.185C252.685 243.677 252.008 243.508 251.332 243.677C250.655 243.846 250.317 244.185 250.317 244.862V245.032C250.317 245.54 250.486 246.217 251.163 246.556C251.839 247.064 252.347 247.741 252.347 248.588V248.757C252.347 249.096 252.008 249.435 251.839 249.773C251.501 249.943 251.163 250.112 250.825 250.112C249.81 250.112 248.964 249.604 248.457 248.588C247.78 247.064 247.611 245.878 247.611 244.693Z" fill="#37BFA7"/>
</g>
<g opacity="0.56">
<path opacity="0.56" d="M268.076 252.313C268.076 250.789 267.23 249.604 265.877 248.757C265.708 248.588 265.539 248.588 265.539 248.926C265.539 249.434 265.37 249.773 265.032 250.112C264.863 250.281 264.863 250.62 264.524 250.451C264.186 250.281 264.524 250.112 264.524 249.943C265.201 248.757 265.201 247.572 264.355 246.217C263.848 245.54 263.34 245.032 262.495 244.524C262.495 244.524 262.495 244.524 262.326 244.524C262.156 244.354 261.987 244.354 261.987 244.354C261.818 244.354 261.987 244.524 261.987 244.693C262.326 245.37 262.495 246.048 262.664 246.725C262.833 248.08 262.833 249.265 262.326 250.451C262.156 250.62 262.156 250.789 262.156 250.959C261.649 251.805 261.142 252.483 260.465 252.991C260.465 252.991 260.296 253.16 260.465 253.16C260.634 254.007 260.465 254.853 260.296 255.869C260.972 255.531 261.649 255.192 262.156 254.684C262.326 254.515 262.664 254.345 262.833 254.176C263.002 254.176 263.002 254.176 263.002 254.007C263.34 253.668 263.679 253.329 263.848 252.991C263.848 252.821 263.848 252.821 263.848 252.652C263.679 252.313 263.509 251.805 263.34 251.467C263.171 251.128 263.34 251.128 263.679 251.128C263.679 251.128 263.679 251.128 263.679 251.297C263.848 251.636 263.848 252.144 264.017 252.483C264.017 252.652 264.186 252.652 264.355 252.652C264.693 252.483 264.863 252.313 265.201 252.144C265.539 251.975 265.539 251.975 265.708 252.313C264.693 252.821 264.017 253.668 263.34 254.515C263.171 254.515 263.171 254.684 263.171 254.853C263.171 254.853 263.171 254.853 263.002 255.023C262.833 255.192 262.664 255.361 262.495 255.531C262.326 255.7 262.495 255.7 262.664 255.7C263.679 256.039 264.524 256.208 265.37 256.039C265.539 256.039 265.539 256.039 265.708 256.039C266.046 256.039 266.216 255.869 266.554 255.7C267.569 254.684 268.076 253.668 268.076 252.313Z" fill="#37BFA7"/>
</g>
<g opacity="0.56">
<path opacity="0.56" d="M241.522 255.023C241.353 255.192 241.522 255.192 241.691 255.361C242.706 255.7 243.89 255.869 244.905 255.7C245.074 255.7 245.243 255.7 245.243 255.531C245.412 255.361 245.412 255.023 245.75 254.853C245.92 254.684 245.92 254.684 245.75 254.515C245.412 254.176 244.905 253.668 244.567 253.329C244.567 253.16 244.397 253.16 244.397 252.991C244.397 252.991 244.397 252.991 244.397 252.821C244.228 252.483 244.059 252.144 243.721 251.975C243.721 251.805 243.552 251.805 243.383 251.636C242.875 251.467 242.537 251.297 242.03 251.128C242.03 251.128 242.03 251.128 241.86 251.128C241.691 250.959 241.522 250.959 241.522 250.789C241.522 250.62 241.86 250.62 242.03 250.789C242.368 250.959 242.706 251.128 243.044 251.297C243.213 251.467 243.213 251.297 243.213 251.128C243.213 250.789 243.044 250.451 243.044 249.943C243.044 249.773 243.044 249.604 243.213 249.604H243.383C243.552 249.773 243.552 249.943 243.552 250.112C243.721 250.62 243.552 251.128 243.89 251.636C244.397 252.483 244.905 253.16 245.75 253.837C245.75 253.837 245.75 254.007 245.92 254.007C246.258 254.515 246.258 254.515 246.765 254.176C246.934 254.007 247.104 254.007 247.273 253.837C247.442 253.668 247.611 253.668 247.273 253.329C246.427 252.652 245.75 251.805 245.243 250.959C245.074 250.62 244.905 250.281 244.736 250.112C244.736 249.943 244.567 249.943 244.567 249.773C244.567 249.604 244.397 249.435 244.397 249.096C244.228 248.588 243.89 248.418 243.552 248.418C243.383 248.418 243.383 248.418 243.213 248.418C242.199 248.249 241.353 248.588 241.015 249.265C240.846 249.434 240.846 249.773 240.676 249.943C240.676 250.62 240.846 251.467 241.522 251.975C241.522 251.975 241.522 251.975 241.691 252.144C242.199 252.652 242.706 252.821 243.383 252.821H243.552H243.721C243.89 252.821 244.059 252.821 244.059 252.991C244.059 253.16 244.059 253.16 243.89 253.16C243.721 253.16 243.552 253.16 243.552 253.16C242.875 252.991 242.199 252.652 241.522 252.313C241.522 252.313 241.522 252.313 241.353 252.144C241.353 251.975 241.184 251.805 241.015 251.975C240.846 251.975 240.846 252.144 240.846 252.313C240.676 252.483 240.676 252.821 240.507 252.991C240.169 253.668 239.493 253.837 238.647 254.176C238.478 254.176 238.478 254.176 238.309 254.176C238.139 254.176 237.97 254.176 237.97 254.176C237.632 254.345 237.125 254.515 236.786 254.684C236.617 254.684 236.448 254.853 236.279 254.684C236.279 254.684 236.279 254.684 236.279 254.515C236.448 254.176 236.786 254.176 237.125 254.007C237.294 253.837 237.632 253.837 237.632 253.668C237.632 253.499 237.294 253.329 237.125 253.16C236.956 252.991 236.786 252.991 236.786 252.821C236.617 252.652 236.448 252.652 236.617 252.483C236.786 252.313 236.956 252.483 237.125 252.652C237.463 252.991 237.97 253.329 238.309 253.499C238.309 253.668 238.478 253.668 238.647 253.668C238.985 253.668 239.154 253.499 239.493 253.499C240.507 253.16 241.184 251.805 240.676 250.789C240.676 250.789 240.676 250.789 240.676 250.62C240.507 249.943 240.676 249.265 241.015 248.757C241.184 248.757 241.184 248.588 241.015 248.588C240.676 248.588 240.338 248.249 240 248.08C239.662 247.741 239.323 247.233 238.985 246.894C238.985 246.894 238.985 246.894 238.985 246.725C238.985 246.386 238.816 246.048 238.985 245.709C239.323 244.862 239.831 244.354 240.846 244.354C241.015 244.354 241.015 244.354 241.015 244.185C241.353 243.846 241.522 243.508 241.86 243.338C242.03 243.169 242.03 243.169 242.368 243.338C242.537 243.508 242.368 243.677 242.368 243.677C242.199 243.846 241.86 244.185 241.691 244.354C241.522 244.524 241.522 244.524 241.86 244.693C242.199 244.862 242.537 244.862 242.875 245.032C242.875 245.032 242.875 245.032 243.044 245.032C243.213 245.032 243.383 245.201 243.383 245.37C243.383 245.54 243.213 245.54 243.044 245.37C242.537 245.201 242.03 245.032 241.691 244.862C241.015 244.693 240.507 244.862 240.169 245.201C239.831 245.54 239.662 246.048 239.831 246.725C240.338 247.741 241.353 248.418 242.368 247.91C243.044 247.741 243.721 247.572 244.567 247.91C244.736 247.91 244.736 247.91 244.736 247.741C244.567 247.064 244.397 246.217 244.397 245.54C244.397 245.032 244.228 244.693 243.89 244.185C243.89 244.016 243.721 244.016 243.721 243.846C243.721 243.677 243.552 243.677 243.552 243.508C243.552 243.338 243.383 243.169 243.552 243.169C243.721 243.169 243.89 243.169 243.89 243.338C244.059 243.677 244.228 243.846 244.397 244.185C244.567 244.524 244.567 244.524 244.905 244.354C245.074 244.185 245.243 244.016 245.412 243.677C245.581 243.508 245.581 243.508 245.75 243.677C245.92 243.846 245.92 244.016 245.75 244.016C245.412 244.354 245.243 244.693 244.905 244.862C244.736 245.032 244.736 245.032 244.736 245.201C244.736 246.048 244.905 246.894 245.243 247.741C245.92 249.604 247.104 251.467 248.795 252.821C248.964 252.991 248.964 252.991 249.133 252.991C249.471 252.991 249.641 252.821 249.979 252.821C250.148 252.821 250.148 252.652 250.148 252.483C249.979 252.313 249.81 251.975 249.641 251.636C249.471 251.297 249.133 250.959 248.964 250.451C248.964 250.451 248.964 250.451 248.964 250.281C248.795 249.943 248.626 249.604 248.457 249.265C248.287 249.265 248.287 249.435 248.287 249.435C248.287 249.604 248.287 249.773 248.287 249.943C248.287 250.112 248.287 250.281 247.949 250.112C247.78 250.112 247.78 249.943 247.78 249.773C247.78 249.604 247.78 249.604 247.78 249.435C247.78 249.096 247.949 248.757 247.78 248.249V248.08C247.611 247.572 247.273 247.064 247.104 246.556V246.386C246.934 245.54 246.934 244.862 246.934 244.016V243.846C247.104 243.338 247.104 242.83 247.273 242.322C247.611 241.306 248.287 240.46 248.964 239.613C248.964 239.613 248.964 239.613 249.133 239.613C249.471 239.274 249.979 238.936 250.486 238.766C250.655 238.766 250.486 238.597 250.486 238.597C250.148 238.258 249.641 238.089 249.133 237.92C247.611 237.412 246.089 238.089 245.581 239.274C245.581 239.274 245.581 239.274 245.581 239.444C245.412 239.444 245.412 239.613 245.581 239.613C245.412 239.782 245.412 239.952 245.581 240.121C245.581 240.121 245.581 240.121 245.581 240.29C245.581 240.46 245.581 240.798 245.75 240.968V241.137C245.75 241.306 245.75 241.476 245.92 241.476C245.92 241.476 245.92 241.476 245.92 241.645C245.92 241.814 246.089 241.984 246.089 242.153C246.089 242.153 245.92 242.322 245.75 242.322C245.412 241.984 245.243 241.476 245.074 240.968C245.074 240.798 244.905 240.629 244.736 240.46C243.89 240.121 243.044 240.29 242.706 240.798C242.368 241.306 242.03 241.645 241.522 241.984H241.353H241.184H241.015C240.676 241.984 240.169 241.984 239.831 241.984C239.323 241.984 238.985 242.153 238.647 242.661C238.478 242.661 238.478 242.83 238.478 243C238.309 243.338 238.309 243.677 238.309 244.016C238.139 244.524 237.632 244.862 237.125 245.032C236.617 245.201 236.279 245.37 236.11 245.878C235.941 245.878 235.941 246.048 235.941 246.217C235.772 246.725 235.941 247.233 236.279 247.91C236.786 248.757 237.97 249.265 238.816 248.926C239.154 248.757 239.493 248.757 239.831 248.588C240 248.588 240.169 248.588 240.169 248.757C240.338 248.926 240.169 248.926 240 249.096C239.662 249.265 239.323 249.265 238.985 249.435C238.816 249.435 238.816 249.604 238.985 249.604C239.323 249.773 239.662 250.112 239.831 250.281C240 250.451 240.169 250.451 240 250.62C239.831 250.789 239.662 250.62 239.662 250.62C239.323 250.281 238.816 249.943 238.478 249.604C238.309 249.434 238.139 249.435 238.139 249.435C237.632 249.435 237.125 249.096 236.617 248.757C236.279 248.588 236.11 248.249 235.772 247.91C235.602 247.741 235.602 247.572 235.433 247.402V247.233C235.264 245.878 235.602 245.201 236.786 244.693C237.125 244.524 237.632 244.354 237.632 244.016C237.632 243.169 237.97 242.492 238.478 241.984C238.478 241.984 238.478 241.984 238.647 241.984C239.154 241.814 239.662 241.645 240.338 241.645H240.507C241.184 241.645 242.03 241.137 242.03 240.629C242.03 240.629 242.199 240.629 242.199 240.46C242.706 239.782 243.552 239.444 244.567 239.782C244.905 239.952 244.905 239.952 244.905 239.444C245.074 239.274 244.905 239.105 245.074 238.936C245.243 238.766 245.074 238.597 244.736 238.597C243.044 238.258 241.691 238.597 240.676 239.782C240.338 240.121 240.169 240.629 240 240.968C240 241.137 239.831 241.137 239.831 241.137C239.662 241.137 239.662 240.968 239.662 240.798C239.662 240.629 239.662 240.629 239.831 240.46C239.831 240.29 239.831 240.121 239.662 240.121C238.816 240.121 238.139 240.29 237.632 240.629C237.125 240.968 236.617 241.306 236.448 241.984C236.448 241.984 236.448 241.984 236.279 241.984C236.11 242.492 235.941 243.169 236.11 243.846C236.11 244.016 236.11 244.185 236.11 244.185H235.941C235.941 244.185 235.772 244.185 235.772 244.016C235.772 244.016 235.772 244.016 235.772 243.846C235.772 243.677 235.772 243.508 235.772 243.338C235.772 243.169 235.772 243.169 235.602 243.169C235.095 243.508 234.588 243.846 234.419 244.354C234.08 244.524 234.08 244.862 234.08 245.201C233.742 246.556 234.419 248.418 235.772 249.435C236.279 249.773 236.617 250.112 237.125 250.281C237.294 250.281 237.463 250.451 237.463 250.62C237.463 250.789 237.294 250.789 237.125 250.62C236.956 250.62 236.786 250.451 236.617 250.451C236.11 250.112 235.602 249.773 235.264 249.435C234.926 250.62 235.095 251.805 235.772 252.821C237.125 254.853 239.831 255.7 241.691 254.684C242.537 254.345 243.044 253.668 243.383 252.821C243.383 252.652 243.383 252.483 243.721 252.652C243.89 252.821 243.89 252.821 243.89 252.991C241.86 254.515 241.691 254.684 241.522 255.023Z" fill="#37BFA7"/>
</g>
<g opacity="0.56">
<path opacity="0.56" d="M265.708 258.579C266.216 257.901 266.385 257.055 266.385 256.208C266.385 256.039 266.385 255.869 266.047 256.039C265.877 256.039 265.708 256.208 265.539 256.208C265.539 256.208 265.539 256.208 265.37 256.208C264.186 256.377 263.171 256.208 261.987 255.7C261.818 255.7 261.818 255.7 261.649 255.7C261.311 255.869 261.142 256.039 260.803 256.208C260.296 256.377 259.958 256.547 259.45 256.885C259.281 256.885 258.943 257.055 258.774 257.055C258.605 257.055 258.436 257.055 258.436 257.224C258.266 257.732 258.266 258.24 258.436 258.748C258.605 260.103 259.619 260.949 261.142 261.119C261.818 261.119 262.495 261.119 263.171 260.78C264.186 260.272 265.032 259.425 265.708 258.579Z" fill="#37BFA7"/>
</g>
<g opacity="0.56">
<path opacity="0.56" d="M259.619 262.643C259.958 262.812 260.127 262.982 260.296 263.151C260.634 263.659 260.803 264.167 261.142 264.506C261.142 264.675 261.311 264.675 261.48 264.675C262.156 264.336 262.833 264.336 263.679 264.336C263.848 264.336 263.848 264.336 264.017 264.336C263.848 263.998 263.679 263.659 263.34 263.49C263.34 263.32 263.171 263.32 263.171 263.151C263.002 262.643 262.495 262.135 262.326 261.627C262.326 261.457 262.156 261.457 262.156 261.457C261.311 261.457 260.634 261.288 259.789 260.949C259.619 260.78 259.281 260.611 259.112 260.441C258.943 260.272 258.943 260.272 258.774 260.441C258.605 260.611 258.266 260.611 258.097 260.611C257.59 260.611 257.59 260.78 257.928 261.119C258.266 261.627 258.774 262.304 259.619 262.643Z" fill="#37BFA7"/>
</g>
<g opacity="0.56">
<path opacity="0.56" d="M261.987 265.522C262.664 265.691 263.171 265.691 263.679 265.522C263.848 265.522 264.017 265.522 264.017 265.352C264.186 265.352 264.186 265.183 264.186 265.183C264.186 265.014 264.017 265.014 263.848 265.014C263.002 264.844 262.326 264.844 261.649 265.014C261.48 265.014 261.311 265.183 261.48 265.183C261.649 265.352 261.818 265.522 261.987 265.522Z" fill="#37BFA7"/>
</g>
</g>
<path d="M102.156 290.414C106.08 290.414 109.26 287.23 109.26 283.302C109.26 279.374 106.08 276.19 102.156 276.19C98.2332 276.19 95.0528 279.374 95.0528 283.302C95.0528 287.23 98.2332 290.414 102.156 290.414Z" fill="#AAAFAE"/>
<path d="M41.945 406.58C38.5623 406.58 35.1797 405.225 32.3044 402.516C21.4799 392.186 21.3107 352.9 27.5687 339.691C33.6575 327.16 43.8055 312.597 44.1437 312.089C45.1585 310.565 47.019 309.719 48.7103 309.888C50.5708 303.115 53.6152 297.188 58.1818 292.277C73.742 275.343 99.4503 277.375 100.465 277.375C103.34 277.545 105.37 280.085 105.201 282.963C105.032 285.842 102.495 287.874 99.6194 287.705C99.2811 287.705 77.8012 286.181 65.6236 299.389C58.0126 307.687 55.4756 320.387 58.1818 337.151C66.3002 387.106 55.1374 400.992 47.8646 404.887C46.1733 406.072 44.1437 406.58 41.945 406.58ZM47.1881 326.483C43.9746 331.563 39.9154 338.167 37.0401 344.094C31.6279 355.271 33.3192 388.969 39.5771 394.896C40.7611 396.081 42.1141 396.25 43.2981 395.742C48.2029 393.202 54.63 378.3 48.2029 338.845C47.6955 334.611 47.1881 330.547 47.1881 326.483Z" fill="#C2CCC9"/>
<path d="M51.4165 302.437C56.3213 291.769 46.1733 291.599 41.4376 296.68C41.4376 297.526 41.4376 298.373 41.4376 299.389C41.4376 313.444 43.129 326.314 46.1733 337.998C46.6807 337.321 47.8647 336.643 47.6955 335.627C47.3573 327.838 46.3425 313.444 51.4165 302.437Z" fill="#D8E5E1"/>
</g>
<defs>
<clipPath id="clip0">
<rect width="400" height="560" fill="white"/>
</clipPath>
</defs>
</svg>
