<svg width="400" height="536" viewBox="0 0 400 536" fill="none" xmlns="http://www.w3.org/2000/svg">
<path d="M302.821 152.695C312.746 176.977 318.186 203.627 318.186 231.587C318.186 344.181 229.521 435.466 120.202 435.466C80.8061 435.466 44.131 423.577 13.2494 403.123C42.0655 480.453 114.761 535.315 200 535.315C310.479 535.315 400 443.073 400 329.32C400 254.358 361.058 188.715 302.821 152.695Z" fill="#D14648"/>
<path d="M318.186 231.587C318.186 203.627 312.695 176.927 302.821 152.695C272.746 134.106 237.582 123.426 200 123.426C89.5718 123.426 0 215.617 0 329.421C0 355.416 4.73552 380.302 13.2494 403.174C44.0806 423.627 80.8061 435.516 120.202 435.516C229.572 435.516 318.186 344.232 318.186 231.587Z" fill="#D6816D"/>
<path d="M120.353 189.975H237.229C242.872 189.975 247.456 194.61 247.456 200.201V200.504C247.456 206.146 242.821 210.73 237.229 210.73H120.353C114.71 210.73 110.126 206.096 110.126 200.504V200.201C110.126 194.61 114.71 189.975 120.353 189.975Z" fill="#D14648"/>
<path d="M201.511 225.592H321.259C330.277 225.592 337.683 232.997 337.683 242.015V242.519C337.683 251.537 330.277 258.942 321.259 258.942H201.511C192.494 258.942 185.088 251.537 185.088 242.519V242.015C185.088 232.947 192.494 225.592 201.511 225.592Z" fill="#D14648"/>
<path d="M66.8514 310.68H191.738C199.043 310.68 205.088 316.675 205.088 324.03V324.433C205.088 331.738 199.093 337.783 191.738 337.783H66.8514C59.5466 337.783 53.5013 331.788 53.5013 324.433V324.03C53.5516 316.675 59.5466 310.68 66.8514 310.68Z" fill="#D14648"/>
<path d="M107.758 383.476H245.793C252.292 383.476 257.582 388.766 257.582 395.264V395.617C257.582 402.116 252.292 407.406 245.793 407.406H107.758C101.259 407.406 95.9698 402.116 95.9698 395.617V395.264C95.9698 388.816 101.259 383.476 107.758 383.476Z" fill="#D14648"/>
<path d="M172.695 89.1184C177.38 82.0655 182.72 73.9547 188.262 65.4912V86.801C188.262 87.6574 188.967 88.3627 189.824 88.3627H210.277C211.134 88.3627 211.839 87.6574 211.839 86.801V42.267C211.839 41.4106 211.134 40.7053 210.277 40.7053H204.433C213.149 27.2544 221.31 14.4584 227.103 4.88666C227.305 5.13855 227.506 5.34006 227.657 5.59195L251.688 46.398C252.796 48.262 252.746 50.6297 251.587 52.4937L229.874 87.3552C229.37 88.1612 228.665 88.8161 227.909 89.2695H172.846C172.796 89.2192 172.746 89.1688 172.695 89.1184Z" fill="#292C48"/>
<path d="M193.3 57.9345L196.524 63.5265H202.972L206.197 57.9345L202.972 52.3426H196.927C199.496 48.4131 202.015 44.4836 204.534 40.6046H210.378C211.234 40.6046 211.94 41.3098 211.94 42.1663V86.7506C211.94 87.6071 211.234 88.3124 210.378 88.3124H189.924C189.068 88.3124 188.363 87.6071 188.363 86.7506V65.4912C190.176 62.7204 191.99 59.9496 193.854 57.1285L193.3 57.9345Z" fill="#696B88"/>
<path d="M206.146 57.9345L202.922 63.5264H196.474L193.249 57.9345L193.703 57.1285C194.71 55.5667 195.768 53.9547 196.776 52.3929H202.821L206.146 57.9345Z" fill="#3F4167"/>
<path d="M189.874 40.6549C189.018 40.6549 188.312 41.3602 188.312 42.2166V65.4912C182.771 73.9547 177.38 82.0655 172.746 89.1184C172.091 88.665 171.537 88.1108 171.083 87.4056L149.421 50.9824C148.312 49.1184 148.312 46.8514 149.421 44.9874L162.066 23.5768C162.922 24.4333 163.678 25.1386 163.93 25.3401L166.851 22.67L164.181 20L172.695 5.54158C173.753 3.77836 175.668 2.67004 177.733 2.67004H222.67C224.433 2.67004 226.096 3.52647 227.204 4.83629C221.411 14.3577 213.249 27.1537 204.534 40.6549H189.874Z" fill="#3F4167"/>
<path d="M189.874 40.6549H204.484C201.965 44.534 199.446 48.4635 196.877 52.3929H196.524L193.804 57.1285C191.94 59.9496 190.126 62.7708 188.312 65.4912V42.267C188.262 41.3602 189.018 40.6549 189.874 40.6549Z" fill="#696B88"/>
<path d="M158.035 19.4459C159.043 18.5391 159.849 17.4811 160.453 16.2217L164.131 19.8993L162.015 23.4761C160.756 22.2166 159.043 20.5038 158.035 19.4459Z" fill="#3F4167"/>
<path d="M163.93 25.3401C163.627 25.1386 162.922 24.4333 162.066 23.5769L164.181 20L166.851 22.6701L163.93 25.3401Z" fill="#3F4167"/>
<path d="M159.899 15.7179L160.453 16.272C161.259 14.7607 161.713 13.0479 161.713 11.1839C161.713 4.98741 156.675 0 150.529 0C144.333 0 139.345 5.03778 139.345 11.1839C139.345 17.33 144.383 22.3678 150.529 22.3678C153.451 22.3678 156.02 21.2594 158.035 19.4458C157.481 18.8413 157.128 18.4887 157.128 18.4887L159.899 15.7179ZM155.919 11.1839C155.919 14.1562 153.501 16.5239 150.579 16.5239C147.607 16.5239 145.239 14.1058 145.239 11.1839C145.239 8.26196 147.657 5.84383 150.579 5.84383C153.501 5.84383 155.919 8.26196 155.919 11.1839Z" fill="#3F4167"/>
<path d="M158.035 19.4458C157.481 18.8413 157.129 18.4887 157.129 18.4887L159.95 15.6675L160.504 16.2217C159.849 17.4811 159.043 18.539 158.035 19.4458Z" fill="#3F4167"/>
<path d="M150.529 16.5239C153.478 16.5239 155.869 14.1331 155.869 11.1839C155.869 8.23466 153.478 5.84384 150.529 5.84384C147.58 5.84384 145.189 8.23466 145.189 11.1839C145.189 14.1331 147.58 16.5239 150.529 16.5239Z" fill="#3F4167"/>
<path d="M196.524 52.3929H196.877C195.819 53.9547 194.811 55.5667 193.804 57.1285L196.524 52.3929Z" fill="#3F4167"/>
<path d="M254.61 133.3C254.861 133.703 254.559 134.207 254.106 134.207H242.418C242.217 134.207 242.015 134.106 241.914 133.904L225.491 106.902C225.39 106.751 225.189 106.599 224.987 106.599H178.791C178.589 106.599 178.438 106.7 178.338 106.851L158.942 133.501C158.841 133.652 158.64 133.753 158.489 133.753H147.708C147.254 133.753 146.952 133.249 147.204 132.846L172.393 94.5088H229.572L254.61 133.3Z" fill="#696B88"/>
<path d="M172.846 89.2191C173.854 89.9244 175.063 90.3275 176.322 90.2771C186.197 89.9244 215.214 90.0252 224.987 90.0756C226.096 90.0756 227.103 89.7733 228.01 89.2191H243.526C244.987 89.2191 246.146 90.3778 246.146 91.8388C246.146 93.2997 244.987 94.4584 243.526 94.4584H229.673L229.27 93.8035C229.169 93.6524 228.967 93.5516 228.766 93.5516H173.3C173.098 93.5516 172.897 93.6524 172.796 93.8035L172.393 94.4584H169.169C170.277 92.796 171.436 91.0327 172.645 89.2191H172.846Z" fill="#3F4167"/>
<path d="M176.272 90.2771C175.013 90.3275 173.804 89.9244 172.796 89.2191H227.96C227.053 89.7733 225.995 90.0756 224.937 90.0756C215.164 90.0252 186.197 89.9244 176.272 90.2771Z" fill="#3F4167"/>
<path d="M156.474 91.8388C156.474 90.3778 157.632 89.2191 159.093 89.2191H172.645C171.436 91.0327 170.277 92.796 169.169 94.4584H159.093C157.632 94.4584 156.474 93.2997 156.474 91.8388Z" fill="#3F4167"/>
<path d="M173.3 93.5516H228.715C228.917 93.5516 229.118 93.6524 229.219 93.8035L229.622 94.4584H172.393L172.796 93.8035C172.947 93.6524 173.098 93.5516 173.3 93.5516Z" fill="#3F4167"/>
<path d="M258.942 130.73H237.078C234.307 130.73 232.091 132.997 232.091 135.718C232.091 138.489 234.358 140.705 237.078 140.705H258.942C261.713 140.705 263.929 138.438 263.929 135.718C263.929 132.997 261.713 130.73 258.942 130.73Z" fill="#3F4167"/>
<path d="M162.922 130.428H141.058C138.287 130.428 136.071 132.695 136.071 135.416C136.071 138.186 138.338 140.403 141.058 140.403H162.922C165.693 140.403 167.909 138.136 167.909 135.416C167.909 132.695 165.693 130.428 162.922 130.428Z" fill="#3F4167"/>
</svg>
