<svg width="236" height="78" viewBox="0 0 236 78" fill="none" xmlns="http://www.w3.org/2000/svg">
<path d="M41.1484 22.5519H45.0932C45.3553 22.5519 45.565 22.3431 45.565 22.0951C45.565 21.8341 45.3553 21.6252 45.0932 21.6252H41.1484C40.8994 21.6252 40.6766 21.8341 40.6766 22.0951C40.6766 22.3431 40.8863 22.5519 41.1484 22.5519ZM43.1142 57.0213C41.9872 57.0213 41.0567 57.948 41.0567 59.0704C41.0567 60.1929 41.9741 61.1195 43.1142 61.1195C44.2544 61.1195 45.1718 60.2059 45.1718 59.0704C45.1718 57.9349 44.2544 57.0213 43.1142 57.0213ZM33.0493 55.2724H53.2054V25.5799H33.0493V55.2724ZM97.646 45.5228C96.6893 45.5228 95.8243 45.836 95.0511 46.4625C94.2779 47.1021 93.7668 47.9243 93.5309 48.9554C93.4129 49.4383 93.3605 49.8298 93.3605 50.13V53.0145C93.3605 54.2805 93.7406 55.3507 94.5269 56.2121C95.3001 57.0735 96.3092 57.5173 97.5542 57.5173C99.0089 57.5173 100.149 56.9561 100.962 55.8336C101.774 54.7112 102.18 53.2363 102.18 51.396C102.18 49.7124 101.8 48.3159 101.04 47.2195C100.188 46.0971 99.0614 45.5228 97.646 45.5228ZM168.324 45.2748C166.777 45.2748 165.585 45.9666 164.785 47.337C164.077 48.4725 163.737 49.8559 163.737 51.5005C163.737 53.0928 164.077 54.4632 164.785 55.5987C165.611 56.9691 166.79 57.6608 168.297 57.6608C169.765 57.6608 170.932 56.9691 171.77 55.5595C172.491 54.411 172.858 53.0275 172.858 51.4352C172.858 49.8429 172.517 48.4725 171.823 47.337C170.984 45.9666 169.831 45.2748 168.324 45.2748ZM116.806 45.5228C115.849 45.5228 114.984 45.836 114.211 46.4625C113.438 47.1021 112.927 47.9243 112.678 48.9554C112.56 49.4383 112.508 49.8298 112.508 50.13V53.0145C112.508 54.2805 112.888 55.3507 113.674 56.2121C114.447 57.0735 115.456 57.5173 116.701 57.5173C118.169 57.5173 119.296 56.9561 120.122 55.8336C120.934 54.7112 121.341 53.2363 121.341 51.396C121.341 49.7124 120.961 48.3159 120.187 47.2195C119.349 46.0971 118.222 45.5228 116.806 45.5228ZM76.7821 39.3102H76.7035C76.4545 40.3282 76.0875 41.8422 75.5502 43.8522L73.5451 50.1431H80.0323L78.0009 43.8522C77.7781 43.1996 77.3719 41.6856 76.7821 39.3102ZM197.706 45.0921C196.448 45.0921 195.413 45.6272 194.626 46.6713C193.984 47.5067 193.591 48.4986 193.473 49.6602H201.546C201.572 48.5247 201.323 47.5328 200.799 46.6975C200.117 45.6403 199.082 45.0921 197.706 45.0921ZM93.8585 27.9553C93.9109 27.7856 93.9109 27.629 93.9109 27.4593V26.2325C92.3121 26.2194 90.7787 26.5457 90.7787 27.9031C90.7787 28.7906 91.3554 29.1952 92.0631 29.1952C92.9935 29.1821 93.6357 28.5948 93.8585 27.9553ZM72.7194 22.3431C72.4835 21.5861 72.2738 20.7508 72.0904 20.0329H72.0511C71.8676 20.7508 71.6579 21.6122 71.4613 22.3431L70.5046 25.3972H73.6892L72.7194 22.3431ZM201.284 21.4556C204.193 21.4556 205.163 23.844 205.163 25.8148C205.163 26.2325 205.124 26.5718 205.084 26.7676H199.069C199.121 28.386 200.38 29.0777 201.834 29.0777C202.883 29.0777 203.63 28.908 204.324 28.6731L204.652 30.2132C203.879 30.5395 202.804 30.7875 201.52 30.7875C198.61 30.7875 196.893 29.0125 196.893 26.2716C196.893 23.7918 198.401 21.4556 201.284 21.4556ZM165.296 21.6644L165.401 23.0087H165.454C165.86 22.3039 166.83 21.4686 168.324 21.4686C169.896 21.4686 171.508 22.4736 171.508 25.3058V30.6178H169.241V25.5668C169.241 24.2878 168.756 23.3089 167.524 23.3089C166.62 23.3089 165.991 23.9484 165.755 24.6271C165.676 24.8098 165.65 25.0839 165.65 25.3449V30.6178H163.383V24.34C163.383 23.3089 163.344 22.4475 163.304 21.6774H165.296V21.6644ZM141.471 21.4556C144.38 21.4556 145.35 23.844 145.35 25.8148C145.35 26.2325 145.31 26.5718 145.271 26.7676H139.256C139.308 28.386 140.566 29.0777 142.021 29.0777C143.069 29.0777 143.803 28.908 144.511 28.6731L144.839 30.2132C144.065 30.5395 142.991 30.7875 141.706 30.7875C138.797 30.7875 137.08 29.0125 137.08 26.2716C137.08 23.7918 138.6 21.4556 141.471 21.4556ZM132.179 17.5662H134.446V30.6048H132.179V17.5662ZM114.198 23.0479C113.307 23.0479 112.39 23.3219 111.787 23.7135L111.341 22.2387C112.01 21.8341 113.163 21.4425 114.591 21.4425C117.475 21.4425 118.3 23.2567 118.3 25.2275V28.4382C118.3 29.2474 118.339 30.0305 118.444 30.5917H116.4L116.229 29.5998H116.177C115.64 30.2915 114.696 30.7875 113.517 30.7875C111.708 30.7875 110.699 29.4823 110.699 28.1249C110.699 25.8801 112.704 24.7315 116.033 24.7446V24.601C116.02 24.0267 115.771 23.0479 114.198 23.0479ZM100.778 17.9316C101.551 17.9316 102.036 18.4667 102.049 19.1585C102.049 19.8241 101.551 20.3723 100.752 20.3723C99.9919 20.3723 99.4938 19.8241 99.4938 19.1585C99.507 18.4667 100.031 17.9316 100.778 17.9316ZM101.905 21.6644V30.6048H99.638V21.6644H101.905ZM70.7143 18.2187H73.6106L77.6471 30.5917H75.1964L74.0693 27.0808H70.1377L69.063 30.5917H66.7171L70.7143 18.2187ZM55.6037 59.2662C55.6037 61.4458 53.8214 63.2208 51.6328 63.2208H34.5957C32.4071 63.2208 30.6248 61.4589 30.6248 59.2662V21.573C30.6248 19.3934 32.4071 17.6184 34.5957 17.6184H51.6328C53.8214 17.6184 55.6037 19.3934 55.6037 21.573V59.2662ZM82.981 60.1668L80.7269 53.0928H72.8636L70.7143 60.1668H66.704L74.4756 36.0865H79.2853L87.1092 60.1668H82.981ZM83.8591 30.6048H81.6311L78.2892 21.6644H80.74L82.1947 26.2064C82.4568 26.9895 82.6403 27.7073 82.7975 28.4512H82.8499C83.0203 27.7203 83.2169 27.0156 83.4528 26.2064L84.8944 21.6644H87.2796L83.8591 30.6048ZM88.5377 28.138C88.5377 25.8931 90.5428 24.7446 93.8716 24.7576V24.6141C93.8716 24.0267 93.6357 23.0479 92.05 23.0479C91.1588 23.0479 90.2414 23.3219 89.6386 23.7135L89.193 22.2387C89.8613 21.8341 91.0146 21.4425 92.4431 21.4425C95.3132 21.4425 96.152 23.2567 96.152 25.2275V28.4382C96.152 29.2474 96.1913 30.0305 96.2961 30.5917H94.2517L94.0813 29.5998H94.0289C93.4916 30.2915 92.548 30.7875 91.3685 30.7875C89.5468 30.8005 88.5377 29.4954 88.5377 28.138ZM103.701 58.2873C102.259 59.8013 100.464 60.5714 98.3275 60.5714C96.0078 60.5714 94.3565 59.7491 93.3474 58.1046V67.2277H89.4813V48.5116C89.4813 46.6583 89.4289 44.7528 89.3371 42.8081H92.7445L92.9542 45.562H93.0198C94.3172 43.4998 96.2699 42.4557 98.9041 42.4557C100.962 42.4557 102.678 43.2649 104.055 44.8833C105.431 46.5017 106.112 48.6421 106.112 51.2786C106.125 54.2413 105.313 56.5645 103.701 58.2873ZM107.737 30.6048H105.47V17.5662H107.737V30.6048ZM122.861 58.2873C121.419 59.8013 119.624 60.5714 117.488 60.5714C115.181 60.5714 113.517 59.7491 112.521 58.1046V67.2277H108.641V48.5116C108.641 46.6583 108.589 44.7528 108.497 42.8081H111.892L112.114 45.562H112.18C113.477 43.4998 115.43 42.4557 118.064 42.4557C120.122 42.4557 121.839 43.2649 123.215 44.8833C124.591 46.5017 125.285 48.6421 125.285 51.2786C125.272 54.2413 124.473 56.5645 122.861 58.2873ZM125.521 30.8005C124.355 30.8005 123.333 30.3568 122.677 29.2604H122.638L122.533 30.6048H120.594C120.633 30.0044 120.672 29.0125 120.672 28.0858V17.5662H122.939V22.8912H122.979C123.529 22.0298 124.512 21.4556 125.862 21.4556C128.051 21.4556 129.623 23.2697 129.61 25.9975C129.597 29.2082 127.539 30.8005 125.521 30.8005ZM145.022 58.4178C143.436 59.8274 141.248 60.5192 138.43 60.5192C135.822 60.5192 133.738 60.0232 132.166 59.0182L133.07 55.8075C134.761 56.7994 136.635 57.3084 138.653 57.3084C140.121 57.3084 141.248 56.9821 142.06 56.3296C142.873 55.677 143.279 54.8025 143.279 53.6931C143.279 52.7273 142.938 51.9051 142.283 51.2394C141.602 50.5738 140.501 49.9604 138.954 49.3861C134.721 47.8199 132.611 45.5228 132.611 42.4948C132.611 40.511 133.345 38.8926 134.852 37.6266C136.346 36.3736 138.325 35.7341 140.789 35.7341C142.991 35.7341 144.812 36.1126 146.28 36.8696L145.297 40.015C143.934 39.2841 142.388 38.9056 140.658 38.9056C139.295 38.9056 138.22 39.245 137.447 39.8975C136.805 40.4979 136.477 41.2288 136.477 42.0902C136.477 43.0299 136.844 43.8261 137.591 44.4526C138.234 45.0268 139.413 45.6403 141.104 46.3059C143.187 47.1282 144.721 48.1201 145.704 49.2425C146.687 50.365 147.171 51.7484 147.171 53.419C147.158 55.4682 146.438 57.1388 145.022 58.4178ZM158.678 45.6925H154.406V54.1369C154.406 56.2774 155.166 57.3476 156.673 57.3476C157.367 57.3476 157.931 57.2954 158.39 57.1779L158.495 60.1015C157.734 60.3886 156.725 60.5322 155.48 60.5322C153.96 60.5322 152.754 60.0754 151.889 59.1357C151.024 58.209 150.592 56.6428 150.592 54.4632V45.6925H148.049V42.8081H150.592V39.6235L154.393 38.4749V42.795H158.665V45.6925H158.678ZM156.489 30.8005C153.96 30.8005 151.994 29.0777 151.994 26.1933C151.994 23.2567 153.934 21.4556 156.647 21.4556C159.32 21.4556 161.116 23.335 161.116 26.0497C161.103 29.3388 158.77 30.8005 156.489 30.8005ZM174.575 57.9219C172.963 59.6838 170.84 60.5583 168.193 60.5583C165.624 60.5583 163.579 59.7099 162.072 58.0263C160.552 56.3426 159.805 54.2021 159.805 51.631C159.805 48.9423 160.591 46.7366 162.151 45.0268C163.724 43.304 165.82 42.4557 168.481 42.4557C171.05 42.4557 173.107 43.291 174.654 44.9877C176.134 46.6191 176.868 48.7466 176.868 51.3438C176.855 54.0194 176.095 56.1991 174.575 57.9219ZM178.572 21.6644H179.843V19.9807L182.071 19.3542V21.6513H184.234V23.335H182.071V27.2896C182.071 28.386 182.36 28.9472 183.238 28.9472C183.644 28.9472 183.867 28.9342 184.129 28.8558L184.168 30.5656C183.84 30.6961 183.225 30.8005 182.53 30.8005C181.678 30.8005 180.997 30.5265 180.577 30.0696C180.079 29.5606 179.856 28.7253 179.856 27.5507V23.348H178.585V21.6644H178.572ZM188.519 46.2015C188.139 46.1362 187.733 46.0971 187.3 46.0971C185.937 46.0971 184.889 46.6061 184.142 47.6241C183.5 48.5377 183.172 49.6602 183.172 51.0567V60.1668H179.293V48.2636C179.293 46.2798 179.254 44.4526 179.188 42.8081H182.556L182.7 46.1362H182.805C183.211 45.0007 183.854 44.0741 184.745 43.3954C185.61 42.7689 186.54 42.4687 187.549 42.4687C187.903 42.4687 188.231 42.4818 188.506 42.534V46.2015H188.519ZM189.109 25.2405V30.6048H186.842V17.5662H189.109V22.8782H189.148C189.423 22.4605 189.817 22.1081 190.275 21.8732C190.734 21.6122 191.271 21.4686 191.848 21.4686C193.381 21.4686 194.98 22.4736 194.98 25.3449V30.6178H192.713V25.5929C192.713 24.3139 192.228 23.3089 190.983 23.3089C190.092 23.3089 189.476 23.8962 189.214 24.5749C189.122 24.7576 189.109 25.0056 189.109 25.2405ZM205.097 52.4271H193.473C193.525 54.1369 194.076 55.4421 195.164 56.3426C196.146 57.1518 197.405 57.5564 198.964 57.5564C200.694 57.5564 202.254 57.2823 203.669 56.7342L204.285 59.4228C202.647 60.1406 200.681 60.493 198.44 60.493C195.74 60.493 193.617 59.7099 192.084 58.1176C190.537 56.5384 189.764 54.411 189.764 51.7484C189.764 49.1251 190.485 46.9454 191.913 45.2096C193.434 43.3562 195.465 42.4296 198.021 42.4296C200.537 42.4296 202.437 43.3562 203.721 45.2096C204.744 46.6844 205.268 48.5116 205.268 50.6782C205.229 51.3569 205.189 51.9442 205.097 52.4271ZM125.023 23.2175C124.106 23.2175 123.254 23.8832 123.018 24.8751C122.979 25.0448 122.939 25.2405 122.939 25.4624V26.9111C122.939 27.0939 122.953 27.2766 122.992 27.4463C123.228 28.3599 124.027 29.0255 124.997 29.0255C126.412 29.0255 127.29 27.9031 127.29 26.0889C127.29 24.5096 126.53 23.2175 125.023 23.2175ZM141.34 22.9957C139.937 22.9957 139.347 24.2617 139.256 25.1753H143.2C143.227 24.353 142.86 22.9957 141.34 22.9957ZM156.581 23.087C154.982 23.087 154.327 24.6532 154.327 26.1411C154.327 27.8639 155.192 29.1691 156.555 29.1691C157.839 29.1691 158.744 27.9161 158.744 26.1019C158.757 24.7054 158.128 23.087 156.581 23.087ZM112.94 27.9031C112.94 28.7906 113.517 29.1952 114.224 29.1952C115.142 29.1952 115.797 28.6079 116.02 27.9683C116.072 27.7987 116.072 27.642 116.072 27.4724V26.2455C114.473 26.2064 112.94 26.5457 112.94 27.9031ZM201.153 22.9957C199.75 22.9957 199.161 24.2617 199.069 25.1753H203.014C203.027 24.353 202.66 22.9957 201.153 22.9957Z" fill="white"/>
<path d="M223.787 77.9877H11.263C5.04794 77.9877 0 73.2897 0 67.5189V10.667C0 4.88269 5.04794 0.184631 11.263 0.184631H223.787C230.002 0.184631 235.05 4.88269 235.05 10.667V67.5053C235.065 73.2897 230.002 77.9877 223.787 77.9877ZM11.263 2.90027C6.66736 2.90027 2.91788 6.38987 2.91788 10.667V67.5053C2.91788 71.7825 6.66736 75.2585 11.263 75.2585H223.787C228.397 75.2585 232.132 71.7825 232.132 67.5053V10.667C232.132 6.37629 228.383 2.90027 223.787 2.90027H11.263Z" fill="white"/>
</svg>
