<svg width="110" height="132" viewBox="0 0 110 132" fill="none" xmlns="http://www.w3.org/2000/svg">
<g clip-path="url(#clip0)">
<path d="M9.67435 55.6691C9.67435 66.4723 9.61464 77.5116 9.73407 88.492C9.73407 91.1485 9.97294 93.805 10.5104 96.4025C16.303 122.2 42.0413 137.431 67.6602 130.229C84.8589 125.388 97.5191 111.397 99.5495 94.8086C101.102 81.8211 100.445 68.5385 100.744 55.61C69.9892 63.0483 39.8915 63.1074 9.67435 55.6691ZM33.5614 89.5546C28.2466 89.6136 21.4387 82.9428 21.6776 77.8068C21.7373 77.0394 22.5734 75.7997 23.1706 75.6226C24.0066 75.4455 25.2607 76.0358 25.8578 76.6852C26.6342 77.6297 26.9328 78.9875 27.5299 80.1091C28.784 82.5886 30.5158 84.7728 33.5614 84.7138C36.5473 84.6548 38.3388 82.5886 39.5332 80.0501C40.0707 78.8694 40.3693 77.5707 41.1456 76.6261C41.6233 75.9768 42.9968 75.3274 43.594 75.6226C44.3703 75.9768 45.3258 77.1575 45.3258 77.9839C45.4453 83.0608 38.7569 89.4955 33.5614 89.5546ZM66.227 75.6816C66.8839 75.4455 68.3171 76.0948 68.8546 76.7442C69.6309 77.6888 69.9295 78.9875 70.467 80.1682C71.6613 82.7066 73.5126 84.7138 76.4985 84.7728C79.2455 84.8319 80.9773 82.8837 82.2314 80.6995C82.8882 79.6369 83.0674 78.161 83.8437 77.2755C84.5603 76.449 85.8144 76.1539 86.8296 75.5635C87.3074 76.5671 88.2628 77.7478 88.0837 78.6333C86.8296 84.7138 81.5147 89.5546 76.4985 89.5546C71.303 89.5546 64.7938 83.356 64.6744 78.102C64.6744 77.2755 65.5104 75.9177 66.227 75.6816ZM57.0902 83.297C56.3139 87.4294 55.1792 91.5027 54.164 95.6351C53.9849 96.2845 53.9252 96.9338 53.746 98.0555C55.7764 97.5242 57.3291 96.8158 58.822 96.8158C59.8372 96.8158 60.8524 97.8193 61.8676 98.3506C61.2704 99.2952 60.8524 100.889 60.0164 101.184C57.0305 102.188 53.9252 102.955 50.8198 103.546C48.6103 103.959 47.4757 102.542 47.9534 100.594C49.3866 94.3954 50.999 88.1968 52.7905 82.0573C53.0294 81.2308 54.6418 80.8766 55.657 80.2862C56.1944 81.2898 57.2694 82.4115 57.0902 83.297Z" fill="white"/>
<path d="M47.2966 41.0286C48.7298 47.1682 49.2075 47.0501 55.4779 47.0501C56.1945 47.0501 56.9111 46.932 57.568 47.0501C59.897 47.4633 61.0914 46.3417 61.5691 44.2755C63.0023 38.7853 64.6147 33.3542 65.6896 27.805C66.5257 23.3775 66.7048 18.7728 67.1826 14.1091C58.8221 14.1091 51.1185 14.1091 43.2358 14.1091C43.1163 14.9946 42.8775 15.7621 42.9969 16.5295C44.4301 24.6762 45.3856 32.941 47.2966 41.0286ZM55.1196 23.5546C55.9556 23.4955 56.8514 24.6762 58.2846 25.6798C56.7917 26.7424 55.7765 27.9821 55.1196 27.805C54.1641 27.5689 53.5072 26.2701 52.7309 25.4437C53.5072 24.7943 54.2835 23.6136 55.1196 23.5546ZM55.0002 33C55.8362 32.941 56.7917 34.0626 58.2846 35.0072C56.8514 36.1288 55.8959 37.3685 55.1793 37.2505C54.2835 37.0734 53.5072 35.8336 52.7309 35.0072C53.5072 34.3578 54.2238 33.059 55.0002 33Z" fill="white"/>
<path d="M81.3353 46.1646C81.2756 51.7138 81.2756 51.7138 75.6621 51.7138C61.7479 51.7138 47.774 51.7138 33.8597 51.7138C28.9032 51.7138 28.7837 51.5367 28.724 46.814C28.724 45.9285 28.6643 45.102 28.6046 43.9803C21.9759 44.8659 15.4667 45.4562 9.0769 49.5295C11.1073 50.4741 12.3017 51.3006 13.5557 51.5957C18.2734 52.7174 22.9911 54.0161 27.7685 54.6655C42.2799 56.6726 56.9705 57.0859 71.5416 55.7281C79.7229 54.9607 87.7848 53.1896 95.8467 51.7138C97.4591 51.4186 98.8326 50.297 100.982 49.2344C94.3538 45.6333 87.964 44.9249 81.3353 43.9803C81.3353 45.043 81.3353 45.5743 81.3353 46.1646Z" fill="white"/>
<path d="M76.5581 46.814C76.5581 43.8032 76.3192 40.9696 76.6178 38.195C77.1553 33.5903 74.5874 31.17 70.9446 29.3399C69.392 35.1843 67.8393 40.9106 66.2269 46.814C69.6906 46.814 72.975 46.814 76.5581 46.814Z" fill="white"/>
<path d="M43.7731 46.873C42.2204 40.9696 40.6677 35.1843 38.8762 28.5134C36.8458 30.8158 34.2182 32.5277 33.8002 34.5939C33.0239 38.5492 33.5613 42.7406 33.5613 46.873C37.2041 46.873 40.4289 46.873 43.7731 46.873Z" fill="white"/>
<path d="M55.8959 0.295422C55.4778 0.11832 54.8807 -0.0587816 54.5224 0.0592864C50.2824 1.88934 46.9979 4.72297 44.6689 9.09149C51.7753 9.09149 58.3443 9.09149 65.2715 9.09149C63.1217 4.90007 59.9567 2.12548 55.8959 0.295422Z" fill="white"/>
<path d="M0.179096 79.814C0.537402 82.5296 1.85119 84.8319 4.71764 86.1307C4.71764 80.3453 4.71764 74.9142 4.71764 68.9518C0.298531 71.8444 -0.418081 75.6817 0.179096 79.814Z" fill="white"/>
<path d="M105.402 69.1879C105.402 74.9732 105.402 80.5224 105.402 86.0716C111.075 83.9464 111.971 72.6709 105.402 69.1879Z" fill="white"/>
</g>
<defs>
<clipPath id="clip0">
<rect width="110" height="132" fill="white"/>
</clipPath>
</defs>
</svg>
