<svg width="164" height="64" viewBox="0 0 164 64" fill="none" xmlns="http://www.w3.org/2000/svg">
<g filter="url(#filter0_d)">
<rect width="147.996" height="47.3172" rx="9" transform="matrix(1 0.000372897 -7.95186e-05 1 8.00366 4)" fill="url(#paint0_linear)"/>
</g>
<path d="M61.7694 34.732L61.7574 37H50.9814V19.72H61.7574V21.988H53.8014V27.196H60.1614V29.392H53.8014V34.732H61.7694ZM66.4603 26.38C66.7243 26.108 66.9963 25.864 67.2763 25.648C67.5643 25.424 67.8683 25.232 68.1883 25.072C68.5083 24.912 68.8483 24.788 69.2083 24.7C69.5683 24.612 69.9603 24.568 70.3843 24.568C71.0563 24.568 71.6443 24.68 72.1483 24.904C72.6603 25.128 73.0883 25.444 73.4323 25.852C73.7843 26.26 74.0483 26.752 74.2243 27.328C74.4003 27.896 74.4883 28.524 74.4883 29.212V37H71.9203V29.212C71.9203 28.388 71.7283 27.748 71.3443 27.292C70.9683 26.836 70.3923 26.608 69.6163 26.608C69.0403 26.608 68.5043 26.74 68.0083 27.004C67.5203 27.268 67.0603 27.628 66.6283 28.084V37H64.0483V24.76H65.6083C65.9603 24.76 66.1843 24.924 66.2803 25.252L66.4603 26.38ZM88.0196 24.76L83.0996 37H80.7716L75.8516 24.76H77.9756C78.1756 24.76 78.3396 24.812 78.4676 24.916C78.6036 25.012 78.6916 25.128 78.7316 25.264L81.4436 32.392C81.5556 32.728 81.6556 33.06 81.7436 33.388C81.8316 33.716 81.9076 34.048 81.9716 34.384C82.0356 34.048 82.1116 33.72 82.1996 33.4C82.2956 33.072 82.3996 32.736 82.5116 32.392L85.2716 25.264C85.3196 25.12 85.4076 25 85.5356 24.904C85.6636 24.808 85.8196 24.76 86.0036 24.76H88.0196ZM92.4707 24.76V37H89.8907V24.76H92.4707ZM92.9027 21.064C92.9027 21.296 92.8547 21.516 92.7587 21.724C92.6707 21.932 92.5467 22.116 92.3867 22.276C92.2267 22.428 92.0387 22.552 91.8227 22.648C91.6147 22.736 91.3907 22.78 91.1507 22.78C90.9187 22.78 90.6987 22.736 90.4907 22.648C90.2907 22.552 90.1147 22.428 89.9627 22.276C89.8107 22.116 89.6867 21.932 89.5907 21.724C89.5027 21.516 89.4587 21.296 89.4587 21.064C89.4587 20.824 89.5027 20.6 89.5907 20.392C89.6867 20.184 89.8107 20.004 89.9627 19.852C90.1147 19.692 90.2907 19.568 90.4907 19.48C90.6987 19.384 90.9187 19.336 91.1507 19.336C91.3907 19.336 91.6147 19.384 91.8227 19.48C92.0387 19.568 92.2267 19.692 92.3867 19.852C92.5467 20.004 92.6707 20.184 92.7587 20.392C92.8547 20.6 92.9027 20.824 92.9027 21.064ZM102.252 31.648C101.332 31.68 100.556 31.756 99.9244 31.876C99.2924 31.988 98.7804 32.136 98.3884 32.32C97.9964 32.496 97.7124 32.708 97.5364 32.956C97.3684 33.204 97.2844 33.476 97.2844 33.772C97.2844 34.06 97.3284 34.308 97.4164 34.516C97.5124 34.716 97.6404 34.884 97.8004 35.02C97.9684 35.148 98.1604 35.244 98.3764 35.308C98.6004 35.364 98.8444 35.392 99.1084 35.392C99.7804 35.392 100.356 35.268 100.836 35.02C101.324 34.764 101.796 34.396 102.252 33.916V31.648ZM95.4124 26.464C96.7964 25.176 98.4444 24.532 100.356 24.532C101.06 24.532 101.684 24.648 102.228 24.88C102.78 25.104 103.24 25.424 103.608 25.84C103.984 26.256 104.268 26.752 104.46 27.328C104.66 27.896 104.76 28.528 104.76 29.224V37H103.608C103.36 37 103.172 36.964 103.044 36.892C102.916 36.812 102.808 36.656 102.72 36.424L102.468 35.428C102.156 35.708 101.848 35.96 101.544 36.184C101.24 36.4 100.924 36.584 100.596 36.736C100.276 36.888 99.9284 37 99.5524 37.072C99.1844 37.152 98.7764 37.192 98.3284 37.192C97.8324 37.192 97.3684 37.124 96.9364 36.988C96.5124 36.852 96.1444 36.648 95.8324 36.376C95.5204 36.096 95.2724 35.752 95.0884 35.344C94.9124 34.936 94.8244 34.456 94.8244 33.904C94.8244 33.432 94.9484 32.972 95.1964 32.524C95.4524 32.076 95.8684 31.676 96.4444 31.324C97.0284 30.964 97.7924 30.668 98.7364 30.436C99.6884 30.204 100.86 30.072 102.252 30.04V29.224C102.252 28.344 102.064 27.688 101.688 27.256C101.312 26.824 100.76 26.608 100.032 26.608C99.5364 26.608 99.1204 26.672 98.7844 26.8C98.4484 26.92 98.1564 27.052 97.9084 27.196C97.6604 27.34 97.4404 27.476 97.2484 27.604C97.0564 27.724 96.8524 27.784 96.6364 27.784C96.4604 27.784 96.3084 27.74 96.1804 27.652C96.0604 27.556 95.9604 27.44 95.8804 27.304L95.4124 26.464ZM110.219 27.028C110.603 26.252 111.067 25.644 111.611 25.204C112.155 24.756 112.807 24.532 113.567 24.532C113.831 24.532 114.079 24.564 114.311 24.628C114.543 24.684 114.751 24.772 114.935 24.892L114.755 26.836C114.723 26.972 114.671 27.068 114.599 27.124C114.535 27.172 114.447 27.196 114.335 27.196C114.215 27.196 114.043 27.176 113.819 27.136C113.595 27.088 113.359 27.064 113.111 27.064C112.751 27.064 112.431 27.116 112.151 27.22C111.879 27.324 111.631 27.476 111.407 27.676C111.191 27.876 110.999 28.12 110.831 28.408C110.663 28.696 110.507 29.024 110.363 29.392V37H107.783V24.76H109.283C109.555 24.76 109.743 24.812 109.847 24.916C109.951 25.012 110.023 25.184 110.063 25.432L110.219 27.028Z" fill="white"/>
<defs>
<filter id="filter0_d" x="0.000732422" y="0.00341797" width="163.999" height="63.3657" filterUnits="userSpaceOnUse" color-interpolation-filters="sRGB">
<feFlood flood-opacity="0" result="BackgroundImageFix"/>
<feColorMatrix in="SourceAlpha" type="matrix" values="0 0 0 0 0 0 0 0 0 0 0 0 0 0 0 0 0 0 127 0"/>
<feOffset dy="4"/>
<feGaussianBlur stdDeviation="4"/>
<feColorMatrix type="matrix" values="0 0 0 0 0 0 0 0 0 0 0 0 0 0 0 0 0 0 0.25 0"/>
<feBlend mode="normal" in2="BackgroundImageFix" result="effect1_dropShadow"/>
<feBlend mode="normal" in="SourceGraphic" in2="effect1_dropShadow" result="shape"/>
</filter>
<linearGradient id="paint0_linear" x1="80.4836" y1="-11.8716" x2="76.042" y2="125.653" gradientUnits="userSpaceOnUse">
<stop offset="0.0945692" stop-color="#F54768"/>
<stop offset="1" stop-color="#974063"/>
</linearGradient>
</defs>
</svg>
