<svg width="112" height="134" viewBox="0 0 112 134" fill="none" xmlns="http://www.w3.org/2000/svg">
<path d="M101.922 56.74C71.0409 63.9898 40.4634 63.9898 9.88599 56.74C9.88599 68.3037 9.88599 80.2868 9.94666 92.21C9.94666 94.0075 10.3107 95.805 10.6747 97.5425C15.9529 122.048 39.068 136.607 62.0011 133.612C83.9028 130.796 101.861 111.443 101.982 89.6936C102.043 80.8261 101.982 71.9585 101.982 63.0311C101.922 60.8142 101.922 58.5375 101.922 56.74ZM34.1538 90.8919C28.7542 90.9518 22.0806 84.6007 22.0199 79.0885C22.0199 78.2497 23.0513 76.8117 23.7186 76.7518C24.6287 76.6919 25.9634 77.4109 26.5701 78.2497C27.4801 79.5079 27.7835 81.1855 28.6329 82.5037C31.727 87.4168 36.7019 87.2969 39.5534 82.264C40.3421 80.886 40.7668 79.2682 41.6768 78.01C42.2228 77.291 43.6182 76.5721 44.3463 76.7518C45.135 76.9915 46.045 78.3096 46.1057 79.1484C46.1057 84.3611 39.432 90.832 34.1538 90.8919ZM60.7877 102.755C57.9969 103.774 54.9634 104.373 52.0513 104.972C49.6245 105.511 48.2898 104.253 48.8358 101.856C50.2919 95.745 51.8086 89.6936 53.5074 83.6421C53.8107 82.6834 55.3881 82.1442 56.4195 81.3653C56.9655 82.5636 58.1789 83.9417 57.9362 85.0201C56.9655 89.6936 55.6308 94.2471 54.2354 99.5197C56.4195 98.9206 57.9969 98.2016 59.5137 98.2615C60.6664 98.2615 61.8191 99.2201 62.9718 99.7594C62.2438 100.838 61.7584 102.396 60.7877 102.755ZM77.7145 90.8919C72.2543 90.8919 65.5199 84.3611 65.6413 79.0286C65.6413 78.1898 66.794 76.8117 67.4007 76.7518C68.3107 76.7518 69.5848 77.5307 70.1915 78.3096C71.2835 79.8674 71.7082 81.7847 72.8003 83.2826C75.6517 87.1771 80.1413 86.9974 82.7501 82.9231C83.7208 81.4252 84.1455 79.5678 85.1768 78.1299C85.7229 77.3509 87.1183 76.632 88.0283 76.7518C88.6957 76.8117 89.6664 78.3096 89.6664 79.2083C89.6057 84.6007 82.9928 90.8919 77.7145 90.8919Z" fill="white"/>
<path d="M73.6499 43.7383C72.9219 43.6185 71.7692 44.3375 71.2231 44.9966C62.9114 55.0025 48.8968 55.1223 40.5244 45.2362C39.7357 44.3375 37.9762 43.6784 36.7628 43.7983C32.4553 44.1578 28.1478 44.7569 23.9009 45.4759C19.0473 46.3147 14.1938 47.2134 9.1582 50.4489C11.2816 51.4075 12.677 52.3662 14.1938 52.6059C22.3235 54.1037 30.3925 56.081 38.5829 56.5603C50.1708 57.2193 61.8194 57.2193 73.3466 56.5603C81.3549 56.081 89.242 54.0438 97.129 52.5459C98.7671 52.2464 100.284 51.108 102.529 50.0894C100.709 49.1907 99.7378 48.4118 98.5851 48.1721C90.2734 46.6143 81.9616 45.1164 73.6499 43.7383Z" fill="white"/>
<path d="M46.4699 44.3376C51.0808 48.2321 56.4197 48.8912 62.0013 46.3148C67.4009 43.8582 69.8884 39.5443 70.3737 33.7325C60.7273 31.995 51.5055 30.3173 42.1624 28.5798C40.1603 35.1106 41.7377 40.2633 46.4699 44.3376Z" fill="white"/>
<path d="M61.2734 20.1915C58.9072 19.3527 58.1185 17.9148 58.1792 15.4582C58.3612 10.3055 58.2399 5.15274 58.2399 0C56.4805 0 55.0851 0 53.3863 0C53.3863 5.27257 53.265 10.4253 53.447 15.578C53.5077 17.9148 52.719 19.2329 50.5349 20.1316C48.5934 20.9704 46.8947 22.4084 44.5286 23.9063C53.265 25.5839 61.0307 27.0818 69.5851 28.7595C67.583 24.2658 65.0349 21.5696 61.2734 20.1915Z" fill="white"/>
<path d="M4.66865 87.4167C4.66865 81.7847 4.66865 76.1526 4.66865 70.2809C-1.94433 73.8758 -1.15563 85.1998 4.66865 87.4167Z" fill="white"/>
<path d="M106.896 70.4009C106.896 76.0929 106.896 81.7249 106.896 87.6566C113.388 82.8633 113.267 74.2954 106.896 70.4009Z" fill="white"/>
<path d="M77.472 2.39722C77.2899 1.43857 76.0766 0.300174 75.1665 0.0605117C74.6205 -0.0593194 73.0431 1.37865 72.9824 2.15756C72.9824 3.05629 74.0745 4.01494 75.2272 5.75249C76.3799 4.07486 77.5933 3.11621 77.472 2.39722Z" fill="white"/>
<path d="M29.1184 18.8136C30.0891 18.5739 31.1812 17.3756 31.3632 16.417C31.4845 15.698 30.2105 14.7393 29.0577 13.1815C27.9657 14.9191 26.8736 15.8777 26.9343 16.8364C26.9343 17.5554 28.5117 18.9933 29.1184 18.8136Z" fill="white"/>
</svg>
