<svg width="1440" height="601" viewBox="0 0 1440 601" fill="none" xmlns="http://www.w3.org/2000/svg">
<path d="M-38.158 53.6281C-38.158 53.6281 28.3475 14.6258 70.1579 0C70.1579 0 166.126 90.1926 178.474 90.1926C190.821 90.1926 274.442 104.818 274.442 104.818C274.442 104.818 318.697 175.51 328.6 175.51C338.502 175.51 390.093 170.635 409.776 165.759C429.458 160.884 434.348 202.324 495.964 221.825C557.579 241.326 658.438 270.578 683.01 248.639L865.167 287.641L1034.98 231.576L1074.34 151.134C1074.34 151.134 1170.31 153.571 1177.77 148.696C1185.1 143.821 1222.02 75.5668 1246.72 68.2539C1271.29 60.941 1357.48 109.694 1357.48 109.694L1451 102.381V526.53H-35.7129L-38.158 53.6281Z" fill="#292C48"/>
<path d="M-52.8284 260.827L22.9683 226.7L142.776 314.455L216.127 304.705L272.364 321.768L379.946 268.14L467.968 329.081L624.451 282.766L776.045 380.272L890.962 331.519C890.962 331.519 1221.04 416.836 1269.95 360.771C1318.85 304.705 1360.41 282.766 1367.75 280.329C1375.08 277.891 1455.77 329.081 1455.77 329.081V546.031H-45.4932L-52.8284 260.827Z" fill="#3F4167"/>
<path d="M-50.3832 365.646C-50.3832 365.646 304.149 346.145 428.847 404.648C428.847 404.648 807.83 390.022 842.061 360.771C876.292 331.519 1321.29 299.83 1436.21 372.959C1551.13 446.088 1445.99 377.834 1445.99 377.834V546.031H-55.2733L-50.3832 365.646Z" fill="#696B88"/>
<path d="M1322.39 531.527C1302.22 547.981 1287.55 547.981 1305.89 562.607C1324.23 577.233 247.791 562.607 247.791 562.607L240.456 515.073C240.456 515.073 236.788 493.135 258.794 474.852C280.799 456.57 282.633 436.459 291.802 429.146C300.971 421.834 315.641 425.49 328.478 429.146C341.314 432.803 341.314 432.803 341.314 432.803C341.314 432.803 346.816 443.772 352.317 427.318C357.818 410.864 348.649 410.864 357.818 410.864C366.987 410.864 368.821 407.208 392.66 412.692C416.5 418.177 460.511 379.784 497.186 383.441C533.862 387.097 541.197 401.723 561.369 387.097C581.541 372.471 1021.65 368.815 1091.33 407.208C1161.02 445.601 1144.51 387.097 1166.52 399.895C1188.53 412.692 1170.19 443.772 1190.36 440.116C1210.53 436.459 1212.36 421.834 1219.7 438.288C1227.03 454.742 1217.87 447.429 1238.04 469.368C1258.21 491.306 1254.54 487.65 1267.38 494.963C1280.21 502.276 1342.56 515.073 1322.39 531.527Z" fill="#292C48"/>
<path d="M731.3 456.692C890.171 456.692 1018.96 441.576 1018.96 422.93C1018.96 404.285 890.171 389.169 731.3 389.169C572.43 389.169 443.64 404.285 443.64 422.93C443.64 441.576 572.43 456.692 731.3 456.692Z" fill="#D4DDE2"/>
<path d="M472.858 445.235C472.858 445.235 478.604 424.881 507.089 424.881C535.574 424.881 547.799 428.903 570.66 445.966C593.521 463.03 657.826 464.614 671.763 444.382C685.578 424.027 692.179 416.714 703.549 424.881C714.918 433.047 765.531 468.758 767.12 466.32C768.709 463.883 882.038 445.966 897.564 438.653C913.09 431.34 921.158 445.113 936.684 449.257C952.211 453.279 983.14 445.966 992.065 447.672C1000.99 449.257 1004.29 465.589 1005.15 468.027C1006 470.464 486.795 483.506 474.569 468.027C462.344 452.548 472.858 445.235 472.858 445.235Z" fill="#292C48"/>
<g clip-path="url(#clip0)">
<path d="M732.2 422.4C729.3 422.4 726.9 420 726.9 417.1V337.7C726.9 334.8 729.3 332.4 732.2 332.4C735.1 332.4 737.5 334.8 737.5 337.7V417C737.5 420 735.2 422.4 732.2 422.4Z" fill="#C0CBC7"/>
<path d="M740.1 422.4H732.2C729.3 422.4 726.9 420 726.9 417.1C726.9 414.2 729.3 411.8 732.2 411.8H740.1C743 411.8 745.4 414.2 745.4 417.1C745.4 420 743.1 422.4 740.1 422.4Z" fill="#C0CBC7"/>
<path d="M693.3 422.4H685.4C682.5 422.4 680.1 420 680.1 417.1C680.1 414.2 682.5 411.8 685.4 411.8H693.3C696.2 411.8 698.6 414.2 698.6 417.1C698.6 420 696.3 422.4 693.3 422.4Z" fill="#C0CBC7"/>
<path d="M694.6 422.4C691.7 422.4 689.3 420 689.3 417.1V337.7C689.3 334.8 691.7 332.4 694.6 332.4C697.5 332.4 699.9 334.8 699.9 337.7V417C700 420 697.6 422.4 694.6 422.4Z" fill="#C0CBC7"/>
<path d="M774.9 226.9C774.5 226.9 774.2 226.9 774.1 226.9C771.2 226.8 768.9 224.3 769 221.4C769.1 218.5 771.6 216.2 774.5 216.3C776.1 216.3 812 217 828.6 180.3C829.8 177.6 833 176.4 835.6 177.7C838.3 178.9 839.5 182.1 838.2 184.7C819.9 225.3 781.1 226.9 774.9 226.9Z" fill="#C0CBC7"/>
<path d="M620.8 290.7C618.1 290.7 615.8 288.7 615.5 285.9C610.8 238.7 648.2 218 649.8 217.2C652.4 215.8 655.6 216.8 657 219.4C658.4 222 657.4 225.2 654.8 226.6C653.4 227.4 622 244.9 626 284.9C626.3 287.8 624.2 290.4 621.2 290.7C621.2 290.7 621 290.7 620.8 290.7Z" fill="#C0CBC7"/>
<path d="M773.6 209.9V282.2C773.6 315.9 746.3 343.1 712.7 343.1C679.1 343.1 651.8 315.8 651.8 282.2V210C652.1 210.5 652.5 211 652.8 211.5C670.9 216.2 691.2 218.8 712.6 218.8C734 218.8 754.3 216.2 772.4 211.5C772.8 211 773.2 210.4 773.6 209.9Z" fill="#C0CBC7"/>
<path d="M773.6 209.9V282.2C773.6 315.9 746.3 343.1 712.7 343.1C679.1 343.1 651.8 315.8 651.8 282.2V210C652.1 210.5 652.5 211 652.8 211.5C670.9 216.2 691.2 218.8 712.6 218.8C734 218.8 754.3 216.2 772.4 211.5C772.8 211 773.2 210.4 773.6 209.9Z" fill="#D6E2DE"/>
<path d="M712.7 215.4C691.4 215.4 670.9 212.9 651.8 208.1C642.8 195.3 638.1 180.3 638.1 164.6C638.1 123.1 671.6 89.3 712.7 89.3C753.8 89.3 787.3 123.1 787.3 164.6C787.3 180.3 782.6 195.3 773.6 208.1C754.5 213 734 215.4 712.7 215.4Z" fill="#404167"/>
<path d="M712.7 91.9C752.5 91.9 784.8 124.5 784.8 164.7C784.8 179.6 780.4 193.8 772.1 206C753.5 210.6 733.5 213 712.7 213C691.9 213 672 210.6 653.3 206C645 193.8 640.6 179.5 640.6 164.6C640.6 124.5 672.9 91.9 712.7 91.9ZM712.7 86.9C670.1 86.9 635.6 121.7 635.6 164.7C635.6 181.8 641 197.6 650.3 210.4C669.2 215.3 690.4 218 712.7 218C735 218 756.2 215.3 775.1 210.4C784.3 197.6 789.8 181.8 789.8 164.7C789.8 121.7 755.3 86.9 712.7 86.9Z" fill="#D2DDD9"/>
<path d="M773.6 171.4V211.3C773.2 211.8 772.8 212.3 772.4 212.8C754.3 217 734 219.4 712.6 219.4C691.2 219.4 670.9 217 652.8 212.8C652.5 212.4 652.1 211.9 651.8 211.5V171.4C651.8 141.2 679.1 116.7 712.7 116.7C746.3 116.8 773.6 141.3 773.6 171.4Z" fill="#D68A79"/>
<path d="M775.3 210.1C775.2 210.3 775 210.5 774.9 210.6C774.1 211.7 773.2 212.8 772.4 213.8C772.2 214 772.1 214.1 772 214.3C755 222.2 734.6 226.9 712.7 226.9C690.8 226.9 670.4 222.3 653.4 214.3C653.2 214.1 653.1 214 653 213.8C652.1 212.7 651.3 211.7 650.5 210.6C650.4 210.4 650.2 210.3 650.1 210.1C669.1 215 690.3 217.7 712.7 217.7C735.1 217.7 756.4 214.9 775.3 210.1Z" fill="#C0CBC7"/>
<g opacity="0.56">
<path opacity="0.56" d="M756.682 261.009C762.106 255.813 761.392 246.266 755.088 239.686C748.784 233.105 739.277 231.983 733.853 237.179C728.429 242.376 729.143 251.922 735.447 258.503C741.751 265.083 751.258 266.205 756.682 261.009Z" fill="#EBEDEC"/>
<path opacity="0.56" d="M748.1 265.2C739.6 265.2 731.2 258.1 729.6 249.3C728.8 244.8 729.7 240.7 732.3 237.6C734.7 234.7 738.3 233.1 742.4 233.1C750.9 233.1 759.3 240.2 760.9 249C761.7 253.5 760.8 257.6 758.2 260.7C755.8 263.6 752.2 265.2 748.1 265.2ZM742.4 234.9C738.9 234.9 735.8 236.3 733.7 238.8C731.5 241.5 730.7 245.1 731.4 249C732.9 256.9 740.4 263.4 748.1 263.4C751.6 263.4 754.7 262 756.8 259.5C759 256.8 759.8 253.2 759.1 249.3C757.6 241.4 750.1 234.9 742.4 234.9Z" fill="#D68A79"/>
</g>
<path d="M745.9 254.4C746.3 254.5 746.7 254.4 747 254.3C747.1 254.3 747.2 254.3 747.2 254.2C747.5 254.2 747.8 254 748 253.9C748.5 253.6 748.8 253.1 749 252.6C749.1 252.3 749.2 251.9 749.1 251.6C749.1 251.5 749.1 251.4 749.2 251.4C749.3 251.4 749.3 251.5 749.3 251.6C749.3 251.8 749.3 251.9 749.3 252.1C749.3 252.2 749.3 252.3 749.5 252.2C749.7 252.2 750 252.2 750.2 252.1C750.3 252.1 750.4 252.1 750.5 252C750.6 252 750.6 252 750.7 252H750.8C751 252 751 251.9 751.1 251.8C751.2 251.6 751.2 251.4 751.2 251.1C751.2 250.9 751.3 250.6 751.2 250.4C751.1 250.4 751.1 250.4 751.1 250.5C750.6 250.8 749.9 251 749.3 251.1C748.9 251.1 748.4 251.1 748 251.1C747.7 251.1 747.7 251.1 747.8 251.3C747.8 251.5 747.8 251.8 747.8 252C747.7 252.4 747.5 252.6 747.3 252.9C747.3 252.9 747.3 252.9 747.2 253C746.9 253.2 746.6 253.3 746.3 253.3C746.2 253.3 746.2 253.3 746.2 253.4C746.2 253.6 746.1 253.8 746.1 254C746 254.1 745.9 254.3 745.8 254.4C745.8 254.4 745.7 254.4 745.8 254.5C745.8 254.5 745.8 254.4 745.9 254.4Z" fill="#D68A79"/>
<path d="M750.1 254.2C750.2 254.1 750.5 254.2 750.3 253.9C750.1 253.4 750 253 750.1 252.6C750.1 252.5 750.1 252.4 750 252.5C749.9 252.5 749.7 252.5 749.6 252.5C749.5 252.5 749.4 252.5 749.4 252.6C749.3 253 749.1 253.4 748.7 253.7C748.6 253.8 748.6 253.9 748.8 253.9C749.2 254.3 749.6 254.3 750.1 254.2Z" fill="#D68A79"/>
<path d="M743.6 254.3C743.7 254.3 743.7 254.3 743.6 254.3C744.1 254.5 744.4 254.6 744.8 254.5C745.4 254.4 745.7 254 745.9 253.5C745.9 253.4 745.9 253.3 745.7 253.2C745.5 253.2 745.4 253.2 745.2 253.1C745.1 253.1 745 253 745.1 252.9C745.1 252.8 745.2 252.8 745.3 252.8C745.4 252.8 745.5 252.9 745.6 252.9H745.7C745.9 253 746.1 253 746.2 252.9C746.7 252.8 747 252.7 747.3 252.3C747.4 252.3 747.4 252.2 747.4 252.1C747.6 251.9 747.6 251.6 747.6 251.3C747.6 250.9 747.6 250.9 747.1 250.7C746.9 250.6 746.8 250.6 746.9 250.4C746.9 250.4 746.9 250.4 747 250.4C747.1 250.4 747.1 250.4 747.2 250.5C747.7 250.7 748.2 250.8 748.7 250.8H748.8H748.9C749.9 250.8 750.7 250.5 751.4 250C751.7 249.8 751.9 249.6 752.1 249.3C752.3 249.1 752.4 248.9 752.5 248.6C752.5 248.6 752.5 248.6 752.6 248.6C753 247.5 753 246.3 752.3 245C752.3 244.9 752.2 244.9 752.1 244.8C751.8 244.7 751.4 244.7 751.1 244.8C751 244.8 751 244.8 750.9 244.8C750 245 749.5 245.9 749.7 246.9C749.7 247 749.8 247 749.9 247.1C750.2 247.2 750.4 247.3 750.6 247.4C750.7 247.5 750.7 247.5 750.7 247.6C750.7 247.6 750.7 247.6 750.6 247.7C750.5 247.7 750.4 247.7 750.3 247.6C750.1 247.5 749.8 247.3 749.6 247.3C748.7 247.1 748 247.5 747.8 248.3C747.8 248.4 747.9 248.5 748 248.5C748.3 248.6 748.5 248.7 748.7 248.9C748.8 249 748.9 249.1 748.8 249.2C748.7 249.2 748.6 249.2 748.5 249.1C748.4 249 748.3 248.9 748.2 248.9C747.7 248.6 747.2 248.5 746.7 248.6C746.3 248.7 746 248.8 745.7 249.1C745.5 249.2 745.5 249.3 745.4 249.4C745.3 249.5 745.3 249.6 745.3 249.7C745.2 249.8 745.2 249.9 745.2 249.9C745.1 250.3 745.2 250.7 745.3 251.1C745.3 251.2 745.4 251.3 745.3 251.3C745.2 251.4 745.1 251.3 745.1 251.3C745.1 251.2 745 251.1 745 251.1C745 251 745 251 745 250.9C744.9 250.5 744.9 250.5 744.5 250.5C743.9 250.5 743.5 250.7 743.2 251.1C743.2 251.1 743.1 251.1 743.1 251.2C743 251.3 743 251.3 742.9 251.4C742.8 251.5 742.7 251.7 742.7 251.8C742.5 252.2 742.5 252.7 742.7 253.2C742.7 253.2 742.7 253.2 742.7 253.3C742.9 253.7 743.1 254.1 743.6 254.3ZM743.7 252.8C743.8 252.7 744 252.6 744 252.3C744.2 252 744.4 251.7 744.9 251.7C745.1 251.7 745.3 251.7 745.5 251.7C745.7 251.8 745.9 251.8 746 251.7C746 251.7 746 251.7 746.1 251.7C746.4 251.5 746.5 251.3 746.3 250.9C745.9 249.8 746.8 249.2 747.7 249.5C748 249.6 748.3 249.6 748.5 249.6H748.6C748.8 249.6 749 249.6 749.2 249.5C749.3 249.5 749.4 249.5 749.5 249.4C749.8 249.4 750.1 249.2 750.3 249.1C750.9 248.7 751.3 248.2 751.5 247.5C751.6 247.2 751.6 246.9 751.3 246.6C751.1 246.4 750.9 246.3 750.8 246C750.9 246 750.9 246 751 246C751.2 246.2 751.3 246.4 751.5 246.6C751.6 246.7 751.7 246.7 751.7 246.6C751.8 246.4 751.8 246.3 751.9 246.1C751.9 246 752 245.9 752.1 246C752.2 246.1 752.2 246.2 752.2 246.2V246.3C752.2 246.4 752.1 246.4 752.1 246.5C752 246.6 752 246.7 752 246.8C751.8 247 751.9 247.3 751.8 247.6C751.7 247.7 751.8 247.7 751.7 247.8C751.6 248 751.5 248.3 751.4 248.5C751.3 248.6 751.2 248.7 751.2 248.8C751.1 248.9 751 249 750.9 249.1C750.7 249.3 750.4 249.4 750.1 249.6H750C749.8 249.7 749.5 249.7 749.3 249.8H749.2C748.6 249.8 748 249.8 747.4 249.7C746.8 249.6 746.4 250.1 746.5 250.7C746.6 251 746.7 251.4 746.6 251.7C746.3 252.1 745.9 252.1 745.3 252C744.9 251.9 744.5 252.1 744.4 252.4C744.4 252.5 744.4 252.6 744.4 252.7C744.4 252.8 744.5 252.8 744.5 252.9C744.5 253.1 744.7 253.2 744.7 253.4C744.7 253.5 744.9 253.6 744.7 253.7C744.5 253.8 744.5 253.6 744.4 253.5C744.4 253.5 744.4 253.5 744.4 253.4C744.3 253.2 744.3 253.1 744.2 252.9C744.1 252.8 744.1 252.8 744 252.9C743.9 253 743.7 253.2 743.6 253.3C743.5 253.4 743.5 253.4 743.3 253.4C743.3 253.4 743.3 253.3 743.2 253.3C743.4 253.1 743.6 253 743.7 252.8Z" fill="#D68A79"/>
<path d="M744.6 249.4C744.6 249.4 744.6 249.5 744.7 249.5C744.8 249.6 744.9 249.8 745 249.9C745 249.8 745.1 249.8 745.1 249.7C745.1 249.6 745.2 249.6 745.2 249.5C745.3 249.4 745.3 249.3 745.3 249.2C745.3 249.2 745.3 249.2 745.4 249.1C745.7 248.7 746.1 248.5 746.5 248.4H746.6C746.8 248.4 747 248.4 747.1 248.4C747.4 248.4 747.6 248.4 747.6 248.1V248C747.9 247.4 748.3 247.1 749.1 247.1C749.3 247.1 749.4 247 749.3 246.8C749.2 246.5 749.3 246.3 749.3 246.1C749.5 245.1 750.5 244.4 751.7 244.5C751.8 244.5 751.8 244.5 751.9 244.5C751.9 244.4 751.9 244.4 751.8 244.3C751.4 243.7 750.8 243.2 750.2 242.8C748.8 241.9 747.3 241.6 745.9 241.9C745.2 242.1 744.6 242.4 744.1 242.9C743.9 243.1 743.6 243.4 743.5 243.7C743.4 243.7 743.4 243.8 743.4 243.9C743.4 243.9 743.4 243.9 743.4 244C743.3 244 743.3 244.1 743.3 244.2C743.2 244.4 743.2 244.6 743.1 244.8C742.9 245.7 743.1 246.5 743.4 247.4C743.5 247.6 743.6 247.7 743.8 247.8C743.9 248 744.1 248.1 744.3 248.2C744.4 248.3 744.5 248.3 744.4 248.4C744.3 248.5 744.2 248.4 744.1 248.4C744.1 248.4 744 248.4 744 248.3C743.9 248.2 743.8 248.1 743.7 248.1C743.9 248.4 744 248.7 744.2 248.9C744.2 248.9 744.2 248.9 744.2 249C744.4 249.1 744.5 249.3 744.6 249.4ZM744 245.2C744 245.1 744 245.1 744 245.2C744.1 244.8 744.2 244.5 744.4 244.1C744.6 243.9 744.8 243.6 745 243.4C745.4 243.1 745.9 242.8 746.4 242.7C746.5 242.7 746.5 242.7 746.6 242.7C746.8 242.7 746.9 242.7 747 242.7C747.8 242.7 748.5 242.8 749.3 243.1C749.4 243.2 749.5 243.2 749.5 243.2C749.5 243.3 749.6 243.3 749.7 243.3C750 243.3 750.3 243.4 750.6 243.4C750.8 243.4 750.9 243.5 750.8 243.7C750.8 243.7 750.8 243.7 750.7 243.7C750.4 243.7 750.2 243.6 749.9 243.6C749.8 243.6 749.7 243.6 749.8 243.7C749.9 243.9 750 244.1 750.1 244.3C750.1 244.4 750.2 244.5 750.1 244.5C750 244.5 749.9 244.4 749.9 244.4C749.8 244.3 749.8 244.2 749.7 244.1C749.7 244.1 749.7 244 749.6 244C749.5 243.7 749.4 243.5 749.1 243.4C748.3 243.1 747.5 242.9 746.8 243C745.5 243.2 744.7 243.9 744.4 245.1C744.3 245.6 744.3 246.1 744.5 246.6V246.7C744.6 247.1 744.7 247.4 745 247.7C745.5 248.2 746.3 248.2 746.5 247.6C746.7 247.2 746.5 246.7 745.9 246.4C745.8 246.2 745.6 246.1 745.5 245.9C745.5 245.8 745.4 245.7 745.4 245.7C745.4 245.5 745.4 245.2 745.4 245V244.9C745.6 244.6 745.9 244.4 746.3 244.3C746.6 244.3 746.8 244.3 747.1 244.4C747.3 244.5 747.5 244.7 747.7 244.8C747.9 244.9 748.2 245 748.4 245C748.5 245.1 748.5 245.1 748.6 245.1C748.7 245.1 748.8 245.2 748.8 245.3C748.8 245.4 748.7 245.4 748.6 245.4C748.4 245.3 748.2 245.3 747.9 245.2C747.8 245.2 747.8 245.2 747.8 245.3C747.9 245.5 748 245.8 748 246C748 246.1 748 246.1 747.9 246.1C747.8 246.1 747.8 246.1 747.7 246C747.7 245.9 747.6 245.9 747.6 245.8C747.6 245.8 747.6 245.8 747.6 245.7C747.6 245.5 747.4 245.2 747.4 245C747.4 245 747.4 244.9 747.3 244.9C747 244.6 746.6 244.5 746.2 244.6C745.8 244.7 745.6 244.9 745.6 245.3V245.4C745.6 245.7 745.7 246.1 746.1 246.3C746.5 246.6 746.8 247 746.8 247.5V247.6C746.8 247.8 746.6 248 746.5 248.2C746.3 248.3 746.1 248.4 745.9 248.4C745.3 248.4 744.8 248.1 744.5 247.5C744 246.6 743.9 245.9 744 245.2Z" fill="#D68A79"/>
<path d="M756.1 249.7C756.1 248.8 755.6 248.1 754.8 247.6C754.7 247.5 754.6 247.5 754.6 247.7C754.6 248 754.5 248.2 754.3 248.4C754.2 248.5 754.2 248.7 754 248.6C753.8 248.5 754 248.4 754 248.3C754.4 247.6 754.4 246.9 753.9 246.1C753.6 245.7 753.3 245.4 752.8 245.1C752.8 245.1 752.8 245.1 752.7 245.1C752.6 245 752.5 245 752.5 245C752.4 245 752.5 245.1 752.5 245.2C752.7 245.6 752.8 246 752.9 246.4C753 247.2 753 247.9 752.7 248.6C752.6 248.7 752.6 248.8 752.6 248.9C752.3 249.4 752 249.8 751.6 250.1C751.6 250.1 751.5 250.2 751.6 250.2C751.7 250.7 751.6 251.2 751.5 251.8C751.9 251.6 752.3 251.4 752.6 251.1C752.7 251 752.9 250.9 753 250.8C753.1 250.8 753.1 250.8 753.1 250.7C753.3 250.5 753.5 250.3 753.6 250.1C753.6 250 753.6 250 753.6 249.9C753.5 249.7 753.4 249.4 753.3 249.2C753.2 249 753.3 249 753.5 249C753.5 249 753.5 249 753.5 249.1C753.6 249.3 753.6 249.6 753.7 249.8C753.7 249.9 753.8 249.9 753.9 249.9C754.1 249.8 754.2 249.7 754.4 249.6C754.6 249.5 754.6 249.5 754.7 249.7C754.1 250 753.7 250.5 753.3 251C753.2 251 753.2 251.1 753.2 251.2C753.2 251.2 753.2 251.2 753.1 251.3C753 251.4 752.9 251.5 752.8 251.6C752.7 251.7 752.8 251.7 752.9 251.7C753.5 251.9 754 252 754.5 251.9C754.6 251.9 754.6 251.9 754.7 251.9C754.9 251.9 755 251.8 755.2 251.7C755.8 251 756.1 250.4 756.1 249.7Z" fill="#D68A79"/>
<path d="M740.3 251.2C740.2 251.3 740.3 251.3 740.4 251.4C741 251.6 741.7 251.7 742.3 251.6C742.4 251.6 742.5 251.6 742.5 251.5C742.6 251.4 742.6 251.2 742.8 251.1C742.9 251 742.9 251 742.8 250.9C742.6 250.7 742.3 250.4 742.1 250.2C742.1 250.1 742 250.1 742 250C742 250 742 250 742 249.9C741.9 249.7 741.8 249.5 741.6 249.4C741.6 249.3 741.5 249.3 741.4 249.2C741.1 249.1 740.9 249 740.6 248.9C740.6 248.9 740.6 248.9 740.5 248.9C740.4 248.8 740.3 248.8 740.3 248.7C740.3 248.6 740.5 248.6 740.6 248.7C740.8 248.8 741 248.9 741.2 249C741.3 249.1 741.3 249 741.3 248.9C741.3 248.7 741.2 248.5 741.2 248.2C741.2 248.1 741.2 248 741.3 248H741.4C741.5 248.1 741.5 248.2 741.5 248.3C741.6 248.6 741.5 248.9 741.7 249.2C742 249.7 742.3 250.1 742.8 250.5C742.8 250.5 742.8 250.6 742.9 250.6C743.1 250.9 743.1 250.9 743.4 250.7C743.5 250.6 743.6 250.6 743.7 250.5C743.8 250.4 743.9 250.4 743.7 250.2C743.2 249.8 742.8 249.3 742.5 248.8C742.4 248.6 742.3 248.4 742.2 248.3C742.2 248.2 742.1 248.2 742.1 248.1C742.1 248 742 247.9 742 247.7C741.9 247.4 741.7 247.3 741.5 247.3C741.4 247.3 741.4 247.3 741.3 247.3C740.7 247.2 740.2 247.4 740 247.8C739.9 247.9 739.9 248.1 739.8 248.2C739.8 248.6 739.9 249.1 740.3 249.4C740.3 249.4 740.3 249.4 740.4 249.5C740.7 249.8 741 249.9 741.4 249.9H741.5H741.6C741.7 249.9 741.8 249.9 741.8 250C741.8 250.1 741.8 250.1 741.7 250.1C741.6 250.1 741.5 250.1 741.5 250.1C741.1 250 740.7 249.8 740.3 249.6C740.3 249.6 740.3 249.6 740.2 249.5C740.2 249.4 740.1 249.3 740 249.4C739.9 249.4 739.9 249.5 739.9 249.6C739.8 249.7 739.8 249.9 739.7 250C739.5 250.4 739.1 250.5 738.6 250.7C738.5 250.7 738.5 250.7 738.4 250.7C738.3 250.7 738.2 250.7 738.2 250.7C738 250.8 737.7 250.9 737.5 251C737.4 251 737.3 251.1 737.2 251C737.2 251 737.2 251 737.2 250.9C737.3 250.7 737.5 250.7 737.7 250.6C737.8 250.5 738 250.5 738 250.4C738 250.3 737.8 250.2 737.7 250.1C737.6 250 737.5 250 737.5 249.9C737.4 249.8 737.3 249.8 737.4 249.7C737.5 249.6 737.6 249.7 737.7 249.8C737.9 250 738.2 250.2 738.4 250.3C738.4 250.4 738.5 250.4 738.6 250.4C738.8 250.4 738.9 250.3 739.1 250.3C739.7 250.1 740.1 249.3 739.8 248.7C739.8 248.7 739.8 248.7 739.8 248.6C739.7 248.2 739.8 247.8 740 247.5C740.1 247.5 740.1 247.4 740 247.4C739.8 247.4 739.6 247.2 739.4 247.1C739.2 246.9 739 246.6 738.8 246.4C738.8 246.4 738.8 246.4 738.8 246.3C738.8 246.1 738.7 245.9 738.8 245.7C739 245.2 739.3 244.9 739.9 244.9C740 244.9 740 244.9 740 244.8C740.2 244.6 740.3 244.4 740.5 244.3C740.6 244.2 740.6 244.2 740.8 244.3C740.9 244.4 740.8 244.5 740.8 244.5C740.7 244.6 740.5 244.8 740.4 244.9C740.3 245 740.3 245 740.5 245.1C740.7 245.2 740.9 245.2 741.1 245.3C741.1 245.3 741.1 245.3 741.2 245.3C741.3 245.3 741.4 245.4 741.4 245.5C741.4 245.6 741.3 245.6 741.2 245.5C740.9 245.4 740.6 245.3 740.4 245.2C740 245.1 739.7 245.2 739.5 245.4C739.3 245.6 739.2 245.9 739.3 246.3C739.6 246.9 740.2 247.3 740.8 247C741.2 246.9 741.6 246.8 742.1 247C742.2 247 742.2 247 742.2 246.9C742.1 246.5 742 246 742 245.6C742 245.3 741.9 245.1 741.7 244.8C741.7 244.7 741.6 244.7 741.6 244.6C741.6 244.5 741.5 244.5 741.5 244.4C741.5 244.3 741.4 244.2 741.5 244.2C741.6 244.2 741.7 244.2 741.7 244.3C741.8 244.5 741.9 244.6 742 244.8C742.1 245 742.1 245 742.3 244.9C742.4 244.8 742.5 244.7 742.6 244.5C742.7 244.4 742.7 244.4 742.8 244.5C742.9 244.6 742.9 244.7 742.8 244.7C742.6 244.9 742.5 245.1 742.3 245.2C742.2 245.3 742.2 245.3 742.2 245.4C742.2 245.9 742.3 246.4 742.5 246.9C742.9 248 743.6 249.1 744.6 249.9C744.7 250 744.7 250 744.8 250C745 250 745.1 249.9 745.3 249.9C745.4 249.9 745.4 249.8 745.4 249.7C745.3 249.6 745.2 249.4 745.1 249.2C745 249 744.8 248.8 744.7 248.5C744.7 248.5 744.7 248.5 744.7 248.4C744.6 248.2 744.5 248 744.4 247.8C744.3 247.8 744.3 247.9 744.3 247.9C744.3 248 744.3 248.1 744.3 248.2C744.3 248.3 744.3 248.4 744.1 248.3C744 248.3 744 248.2 744 248.1C744 248 744 248 744 247.9C744 247.7 744.1 247.5 744 247.2V247.1C743.9 246.8 743.7 246.5 743.6 246.2V246.1C743.5 245.6 743.5 245.2 743.5 244.7V244.6C743.6 244.3 743.6 244 743.7 243.7C743.9 243.1 744.3 242.6 744.7 242.1C744.7 242.1 744.7 242.1 744.8 242.1C745 241.9 745.3 241.7 745.6 241.6C745.7 241.6 745.6 241.5 745.6 241.5C745.4 241.3 745.1 241.2 744.8 241.1C743.9 240.8 743 241.2 742.7 241.9C742.7 241.9 742.7 241.9 742.7 242C742.6 242 742.6 242.1 742.7 242.1C742.6 242.2 742.6 242.3 742.7 242.4C742.7 242.4 742.7 242.4 742.7 242.5C742.7 242.6 742.7 242.8 742.8 242.9V243C742.8 243.1 742.8 243.2 742.9 243.2C742.9 243.2 742.9 243.2 742.9 243.3C742.9 243.4 743 243.5 743 243.6C743 243.6 742.9 243.7 742.8 243.7C742.6 243.5 742.5 243.2 742.4 242.9C742.4 242.8 742.3 242.7 742.2 242.6C741.7 242.4 741.2 242.5 741 242.8C740.8 243.1 740.6 243.3 740.3 243.5H740.2H740.1H740C739.8 243.5 739.5 243.5 739.3 243.5C739 243.5 738.8 243.6 738.6 243.9C738.5 243.9 738.5 244 738.5 244.1C738.4 244.3 738.4 244.5 738.4 244.7C738.3 245 738 245.2 737.7 245.3C737.4 245.4 737.2 245.5 737.1 245.8C737 245.8 737 245.9 737 246C736.9 246.3 737 246.6 737.2 247C737.5 247.5 738.2 247.8 738.7 247.6C738.9 247.5 739.1 247.5 739.3 247.4C739.4 247.4 739.5 247.4 739.5 247.5C739.6 247.6 739.5 247.6 739.4 247.7C739.2 247.8 739 247.8 738.8 247.9C738.7 247.9 738.7 248 738.8 248C739 248.1 739.2 248.3 739.3 248.4C739.4 248.5 739.5 248.5 739.4 248.6C739.3 248.7 739.2 248.6 739.2 248.6C739 248.4 738.7 248.2 738.5 248C738.4 247.9 738.3 247.9 738.3 247.9C738 247.9 737.7 247.7 737.4 247.5C737.2 247.4 737.1 247.2 736.9 247C736.8 246.9 736.8 246.8 736.7 246.7V246.6C736.6 245.8 736.8 245.4 737.5 245.1C737.7 245 738 244.9 738 244.7C738 244.2 738.2 243.8 738.5 243.5C738.5 243.5 738.5 243.5 738.6 243.5C738.9 243.4 739.2 243.3 739.6 243.3H739.7C740.1 243.3 740.6 243 740.6 242.7C740.6 242.7 740.7 242.7 740.7 242.6C741 242.2 741.5 242 742.1 242.2C742.3 242.3 742.3 242.3 742.3 242C742.4 241.9 742.3 241.8 742.4 241.7C742.5 241.6 742.4 241.5 742.2 241.5C741.2 241.3 740.4 241.5 739.8 242.2C739.6 242.4 739.5 242.7 739.4 242.9C739.4 243 739.3 243 739.3 243C739.2 243 739.2 242.9 739.2 242.8C739.2 242.7 739.2 242.7 739.3 242.6C739.3 242.5 739.3 242.4 739.2 242.4C738.7 242.4 738.3 242.5 738 242.7C737.7 242.9 737.4 243.1 737.3 243.5C737.3 243.5 737.3 243.5 737.2 243.5C737.1 243.8 737 244.2 737.1 244.6C737.1 244.7 737.1 244.8 737.1 244.8H737C737 244.8 736.9 244.8 736.9 244.7C736.9 244.7 736.9 244.7 736.9 244.6C736.9 244.5 736.9 244.4 736.9 244.3C736.9 244.2 736.9 244.2 736.8 244.2C736.5 244.4 736.2 244.6 736.1 244.9C735.9 245 735.9 245.2 735.9 245.4C735.7 246.2 736.1 247.3 736.9 247.9C737.2 248.1 737.4 248.3 737.7 248.4C737.8 248.4 737.9 248.5 737.9 248.6C737.9 248.7 737.8 248.7 737.7 248.6C737.6 248.6 737.5 248.5 737.4 248.5C737.1 248.3 736.8 248.1 736.6 247.9C736.4 248.6 736.5 249.3 736.9 249.9C737.7 251.1 739.3 251.6 740.4 251C740.9 250.8 741.2 250.4 741.4 249.9C741.4 249.8 741.4 249.7 741.6 249.8C741.7 249.9 741.7 249.9 741.7 250C740.5 250.9 740.4 251.1 740.3 251.2Z" fill="#D68A79"/>
<path d="M754.6 253.3C754.9 252.9 755 252.4 755 251.9C755 251.8 755 251.7 754.8 251.8C754.7 251.8 754.6 251.9 754.5 251.9C754.5 251.9 754.5 251.9 754.4 251.9C753.7 252 753.1 251.9 752.4 251.6C752.3 251.6 752.3 251.6 752.2 251.6C752 251.7 751.9 251.8 751.7 251.9C751.4 252 751.2 252.1 750.9 252.3C750.8 252.3 750.6 252.4 750.5 252.4C750.4 252.4 750.3 252.4 750.3 252.5C750.2 252.8 750.2 253.1 750.3 253.4C750.4 254.2 751 254.7 751.9 254.8C752.3 254.8 752.7 254.8 753.1 254.6C753.8 254.3 754.3 253.9 754.6 253.3Z" fill="#D68A79"/>
<path d="M751.1 255.7C751.3 255.8 751.4 255.9 751.5 256C751.7 256.3 751.8 256.6 752 256.8C752 256.9 752.1 256.9 752.2 256.9C752.6 256.7 753 256.7 753.5 256.7C753.6 256.7 753.6 256.7 753.7 256.7C753.6 256.5 753.5 256.3 753.3 256.2C753.3 256.1 753.2 256.1 753.2 256C753.1 255.7 752.8 255.4 752.7 255.1C752.7 255 752.6 255 752.6 255C752.1 255 751.7 254.9 751.2 254.7C751.1 254.6 750.9 254.5 750.8 254.4C750.7 254.3 750.7 254.3 750.6 254.4C750.5 254.5 750.3 254.5 750.2 254.5C749.9 254.5 749.9 254.6 750.1 254.8C750.2 255.2 750.6 255.5 751.1 255.7Z" fill="#D68A79"/>
<path d="M752.5 257.5C752.9 257.6 753.2 257.6 753.5 257.5C753.6 257.5 753.7 257.5 753.7 257.4C753.8 257.4 753.8 257.3 753.8 257.3C753.8 257.2 753.7 257.2 753.6 257.2C753.1 257.1 752.7 257.1 752.3 257.2C752.2 257.2 752.1 257.3 752.2 257.3C752.3 257.4 752.4 257.4 752.5 257.5Z" fill="#D68A79"/>
<path d="M691.5 168.6C694.427 168.6 696.8 164.839 696.8 160.2C696.8 155.561 694.427 151.8 691.5 151.8C688.573 151.8 686.2 155.561 686.2 160.2C686.2 164.839 688.573 168.6 691.5 168.6Z" fill="#070308"/>
<path d="M731.5 168.6C734.427 168.6 736.8 164.839 736.8 160.2C736.8 155.561 734.427 151.8 731.5 151.8C728.573 151.8 726.2 155.561 726.2 160.2C726.2 164.839 728.573 168.6 731.5 168.6Z" fill="#070308"/>
<path d="M688.4 159.7C688.952 159.7 689.4 158.625 689.4 157.3C689.4 155.975 688.952 154.9 688.4 154.9C687.848 154.9 687.4 155.975 687.4 157.3C687.4 158.625 687.848 159.7 688.4 159.7Z" fill="white"/>
<path d="M724.3 183.7C713.5 191.9 703.3 187.1 698.4 183.7C697.4 183 698.7 182 700.5 182.2C705.5 182.7 713.5 183.2 722.2 182.2C723.9 182 725.3 183 724.3 183.7Z" stroke="#070308" stroke-width="7" stroke-miterlimit="10"/>
<path d="M728.4 159.7C728.952 159.7 729.4 158.625 729.4 157.3C729.4 155.975 728.952 154.9 728.4 154.9C727.848 154.9 727.4 155.975 727.4 157.3C727.4 158.625 727.848 159.7 728.4 159.7Z" fill="white"/>
<path opacity="0.65" d="M691.5 110.4C683.6 112.6 667.8 122.2 662.8 133.8" stroke="white" stroke-width="15" stroke-miterlimit="10" stroke-linecap="round" stroke-linejoin="round"/>
<path opacity="0.65" d="M653.8 164.6C656.948 164.6 659.5 160.481 659.5 155.4C659.5 150.319 656.948 146.2 653.8 146.2C650.652 146.2 648.1 150.319 648.1 155.4C648.1 160.481 650.652 164.6 653.8 164.6Z" fill="white"/>
<path d="M729.3 120.5C728.6 120.1 728.2 119.6 727.7 119.2C727.3 118.8 726.9 118.3 726.5 117.9C725.8 117.1 725.2 116.3 724.8 115.5C724.3 114.7 723.9 114 723.5 113.2C723 112.4 722.6 111.5 721.6 110.4C722.8 109.4 724.6 109.5 725.9 110.1C727.3 110.7 728.4 111.7 729.1 112.8C729.5 113.4 729.7 114 730 114.6C730.2 115.2 730.3 115.9 730.4 116.5C730.4 117.2 730.4 117.8 730.3 118.5C729.9 119.2 729.7 119.8 729.3 120.5Z" fill="#D68A79"/>
<path d="M730.1 122.4C729.3 120.6 729.1 118.8 729.1 117C729.2 115.2 729.6 113.4 730.4 111.8C731.2 110.1 732.4 108.5 734.2 107.4C735.1 106.9 736.1 106.5 737.2 106.4C738.2 106.4 739.3 106.6 740.1 107.2C738.4 108.2 737.5 109.2 736.9 110.3C736.2 111.4 735.6 112.6 735 113.9C734.4 115.2 733.7 116.6 733 118C732.1 119.5 731.3 120.9 730.1 122.4Z" fill="#D68A79"/>
<path d="M731.5 123C731.2 121.5 731.4 120.2 731.9 119C732.4 117.8 733.2 116.7 734.3 115.9C735.4 115.1 736.8 114.5 738.3 114.4C739.8 114.4 741.3 115 742.2 116.3C740.8 117.1 740.1 117.7 739.4 118.2C738.7 118.8 738.1 119.3 737.4 119.8C736.7 120.3 735.9 120.9 735 121.4C734 122 733 122.5 731.5 123Z" fill="#D68A79"/>
<path d="M712.7 91.9C752.5 91.9 784.8 124.5 784.8 164.7C784.8 179.6 780.4 193.8 772.1 206C753.5 210.6 733.5 213 712.7 213C691.9 213 672 210.6 653.3 206C645 193.8 640.6 179.5 640.6 164.6C640.6 124.5 672.9 91.9 712.7 91.9ZM712.7 86.9C670.1 86.9 635.6 121.7 635.6 164.7C635.6 181.8 641 197.6 650.3 210.4C669.2 215.3 690.4 218 712.7 218C735 218 756.2 215.3 775.1 210.4C784.3 197.6 789.8 181.8 789.8 164.7C789.8 121.7 755.3 86.9 712.7 86.9Z" fill="#D2DDD9"/>
<path d="M635.5 184.1L626 184C623.7 184 621.9 182.1 622 179.8L622.7 141.5C622.7 139.2 624.6 137.4 626.9 137.5L636.4 137.7C638.7 137.7 640.5 139.6 640.4 141.9C640.4 141.9 637.1 148.9 636.9 160.3C636.7 171.7 639.7 180.1 639.7 180.1C639.6 182.4 637.8 184.2 635.5 184.1Z" fill="#D2DDD9"/>
<path d="M789 137.8L798.5 137.4C800.8 137.3 802.7 139.1 802.7 141.3L804.2 179.6C804.3 181.9 802.5 183.8 800.3 183.8L790.8 184.2C788.5 184.3 786.6 182.5 786.6 180.3C786.6 180.3 789.5 173.1 789.1 161.7C788.6 150.3 785.2 142.1 785.2 142.1C785 139.8 786.7 137.9 789 137.8Z" fill="#D2DDD9"/>
<path d="M626.71 148.54L622.41 148.46L621.99 171.156L626.289 171.235L626.71 148.54Z" fill="#C0CBC7"/>
<path d="M802.975 147.129L798.678 147.287L799.512 169.971L803.809 169.813L802.975 147.129Z" fill="#C0CBC7"/>
<path d="M786 142.3L785.2 88.7" stroke="#D2DDD9" stroke-width="4" stroke-miterlimit="10"/>
<path d="M791.2 88.9C791.1 85.6 788.4 82.9 785.1 83C781.8 83.1 779.1 85.8 779.2 89.1C779.3 92.4 782 95.1 785.3 95C788.6 95 791.2 92.2 791.2 88.9Z" fill="#D2DDD9"/>
<path d="M681.1 149C681.2 147.3 682.1 145.9 683.1 144.7C684.1 143.6 685.4 142.7 686.9 142.2C688.3 141.7 690 141.4 691.6 141.7C692.4 141.8 693.2 142.2 694 142.6C694.4 142.8 694.7 143.1 695 143.4C695.3 143.7 695.5 144.1 695.7 144.5V144.6C695.7 144.7 695.7 144.7 695.6 144.8H695.5C694.3 144.2 693 144 691.7 144.1C690.4 144.2 689.1 144.5 687.9 145C686.7 145.4 685.5 146 684.4 146.7C683.3 147.4 682.2 148.2 681.3 149.2C681.2 149.3 681.2 149.3 681.1 149.2C681.1 149.2 681.1 149.2 681.1 149Z" fill="#CB6C55"/>
<path d="M740.4 148.9C739.5 148 738.4 147.2 737.3 146.4C736.2 145.7 735 145.1 733.8 144.7C732.6 144.2 731.3 143.9 730 143.8C728.7 143.7 727.4 143.9 726.2 144.5C726.1 144.5 726.1 144.5 726 144.4V144.3V144.2C726.2 143.8 726.4 143.4 726.7 143.1C727 142.8 727.3 142.5 727.7 142.3C728.4 141.9 729.3 141.5 730.1 141.4C731.7 141.1 733.4 141.3 734.8 141.9C736.2 142.4 737.5 143.3 738.6 144.4C739.6 145.5 740.5 146.9 740.6 148.7V148.8C740.6 148.9 740.5 148.9 740.5 148.9C740.5 148.9 740.5 148.9 740.4 148.9Z" fill="#CB6C55"/>
</g>
<defs>
<clipPath id="clip0">
<rect width="242.7" height="339.4" fill="white" transform="translate(596 83)"/>
</clipPath>
</defs>
</svg>
