<svg width="465" height="68" viewBox="0 0 465 68" fill="none" xmlns="http://www.w3.org/2000/svg">
<path d="M454.92 67.9598H271.893C266.341 67.9598 261.824 63.4489 261.824 57.9172V10.0545C261.824 4.51087 266.341 0 271.893 0H454.932C460.483 0 465 4.51087 465 10.0545V57.9172C464.988 63.4489 460.471 67.9598 454.92 67.9598ZM271.893 2.37414C267.649 2.37414 264.202 5.81665 264.202 10.0545V57.9172C264.202 62.155 267.649 65.5975 271.893 65.5975H454.932C459.175 65.5975 462.623 62.155 462.623 57.9172V10.0545C462.623 5.81665 459.175 2.37414 454.932 2.37414H271.893Z" fill="white"/>
<path d="M329.331 19.836H327.976C327.976 19.6461 327.846 19.1238 327.596 18.2572H325.658C325.397 19.1119 325.266 19.6342 325.266 19.836H323.994C323.994 19.7292 324.327 18.827 324.981 17.1414C325.635 15.4557 325.967 14.5298 325.967 14.3517H327.56C327.56 14.5061 327.857 15.432 328.452 17.0939C329.034 18.7795 329.331 19.6817 329.331 19.836ZM327.394 17.4619C326.918 16.0136 326.669 15.2302 326.669 15.1115H326.597C326.597 15.2183 326.348 16.0018 325.849 17.4619H327.394Z" fill="white"/>
<path d="M334.776 19.836H333.73C333.73 19.7173 333.338 19.1119 332.565 18.0079C331.757 16.8446 331.293 16.0611 331.186 15.6338H331.127C331.198 16.2511 331.234 16.809 331.234 17.2957C331.234 17.9842 331.257 18.8389 331.293 19.836H330.259C330.306 18.9694 330.318 18.0079 330.318 16.9633C330.318 15.9424 330.294 15.064 330.259 14.3517H331.507C331.507 14.5061 331.852 15.0996 332.553 16.1323C333.29 17.2363 333.718 17.9842 333.825 18.3759H333.884C333.813 17.7468 333.777 17.1888 333.777 16.6903C333.777 15.9305 333.754 15.1471 333.718 14.3517H334.776C334.74 15.0521 334.716 15.9187 334.716 16.9633C334.716 18.0198 334.74 18.9813 334.776 19.836Z" fill="white"/>
<path d="M340.886 16.9039C340.886 17.6993 340.624 18.3997 340.113 18.9932C339.602 19.5867 338.889 19.8835 337.962 19.8835C337.546 19.8835 336.975 19.8716 336.238 19.836C336.274 18.9932 336.297 18.0317 336.297 16.9633C336.297 15.9424 336.274 15.064 336.238 14.3517H336.975C337.094 14.3517 337.272 14.3517 337.51 14.3399C337.748 14.328 337.902 14.328 337.974 14.328C338.984 14.328 339.721 14.5773 340.185 15.0877C340.66 15.5982 340.886 16.2036 340.886 16.9039ZM339.733 17.082C339.733 16.5478 339.578 16.0849 339.257 15.7169C338.948 15.3489 338.461 15.1589 337.819 15.1589C337.7 15.1589 337.534 15.1708 337.32 15.1946C337.344 15.7525 337.367 16.346 337.367 16.9514C337.367 17.6281 337.379 18.2928 337.415 18.9457C337.593 18.9813 337.783 19.0051 337.962 19.0051C338.568 19.0051 339.02 18.8151 339.305 18.4471C339.59 18.0791 339.733 17.6281 339.733 17.082Z" fill="white"/>
<path d="M346.52 19.836H345.272C344.951 18.8389 344.702 18.2335 344.523 17.996C344.345 17.7586 344.072 17.6518 343.679 17.6518C343.513 17.6518 343.358 17.6518 343.216 17.6518C343.216 18.3759 343.228 19.1 343.251 19.836H342.074C342.11 18.9932 342.134 18.0317 342.134 16.9633C342.134 15.9424 342.11 15.064 342.074 14.3517H342.8C342.883 14.3517 343.061 14.3517 343.335 14.3399C343.608 14.328 343.846 14.328 344.083 14.328C345.379 14.328 346.021 14.7672 346.021 15.6456C346.021 16.346 345.653 16.8327 344.916 17.1057V17.1651C345.201 17.2482 345.45 17.4619 345.664 17.8299C345.866 18.1978 346.164 18.8745 346.52 19.836ZM344.939 15.9662C344.939 15.4082 344.583 15.1233 343.858 15.1233C343.596 15.1233 343.358 15.1471 343.156 15.1827C343.192 15.6219 343.204 16.1798 343.204 16.8802C343.358 16.8802 343.489 16.8921 343.596 16.8921C344.499 16.8921 344.939 16.5834 344.939 15.9662Z" fill="white"/>
<path d="M352.571 16.9989C352.571 17.8655 352.309 18.5777 351.775 19.1475C351.252 19.7173 350.598 20.0022 349.813 20.0022C349.076 20.0022 348.446 19.741 347.947 19.2187C347.448 18.6964 347.198 18.0317 347.198 17.2363C347.198 16.3698 347.46 15.6575 347.994 15.0877C348.517 14.5179 349.171 14.233 349.956 14.233C350.693 14.233 351.323 14.4942 351.822 15.0165C352.321 15.5269 352.571 16.1917 352.571 16.9989ZM351.406 17.1176C351.406 16.536 351.252 16.0493 350.954 15.6931C350.657 15.3251 350.277 15.1471 349.837 15.1471C349.421 15.1471 349.076 15.3251 348.791 15.6931C348.506 16.0611 348.363 16.5241 348.363 17.082C348.363 17.6637 348.517 18.1385 348.815 18.5065C349.112 18.8745 349.492 19.0525 349.92 19.0525C350.336 19.0525 350.681 18.8626 350.966 18.4946C351.263 18.1385 351.406 17.6755 351.406 17.1176Z" fill="white"/>
<path d="M354.948 19.836H353.76C353.795 18.9694 353.819 18.0079 353.819 16.9633C353.819 15.9424 353.795 15.064 353.76 14.3517H354.948C354.913 15.064 354.889 15.9305 354.889 16.9633C354.901 18.0317 354.913 18.9813 354.948 19.836Z" fill="white"/>
<path d="M361.059 16.9039C361.059 17.6993 360.797 18.3997 360.286 18.9932C359.775 19.5867 359.061 19.8835 358.134 19.8835C357.718 19.8835 357.148 19.8716 356.411 19.836C356.446 18.9932 356.47 18.0317 356.47 16.9633C356.47 15.9424 356.446 15.064 356.411 14.3517H357.148C357.267 14.3517 357.445 14.3517 357.683 14.3399C357.92 14.328 358.075 14.328 358.146 14.328C359.157 14.328 359.894 14.5773 360.357 15.0877C360.833 15.5982 361.059 16.2036 361.059 16.9039ZM359.917 17.082C359.917 16.5478 359.763 16.0849 359.442 15.7169C359.133 15.3489 358.645 15.1589 358.004 15.1589C357.885 15.1589 357.718 15.1708 357.504 15.1946C357.528 15.7525 357.552 16.346 357.552 16.9514C357.552 17.6281 357.564 18.2928 357.599 18.9457C357.778 18.9813 357.968 19.0051 358.146 19.0051C358.752 19.0051 359.204 18.8151 359.489 18.4471C359.763 18.0791 359.917 17.6281 359.917 17.082Z" fill="white"/>
<path d="M369.177 19.836H367.822C367.822 19.6461 367.691 19.1238 367.442 18.2572H365.492C365.231 19.1119 365.1 19.6342 365.1 19.836H363.828C363.828 19.7292 364.161 18.827 364.815 17.1414C365.469 15.4557 365.801 14.5298 365.801 14.3517H367.394C367.394 14.5061 367.691 15.432 368.286 17.0939C368.88 18.7795 369.177 19.6817 369.177 19.836ZM367.228 17.4619C366.752 16.0136 366.503 15.2302 366.503 15.1115H366.431C366.431 15.2183 366.182 16.0018 365.683 17.4619H367.228Z" fill="white"/>
<path d="M374.087 15.7881C374.087 16.4647 373.837 16.9514 373.338 17.2719C372.839 17.5924 372.232 17.7467 371.507 17.7467C371.377 17.7467 371.281 17.7467 371.222 17.7349C371.222 18.2572 371.234 18.9576 371.27 19.8241H370.081C370.116 19.0169 370.14 18.0554 370.14 16.9514C370.14 15.9424 370.116 15.064 370.081 14.3398H370.818C370.925 14.3398 371.127 14.3398 371.412 14.328C371.697 14.3161 371.959 14.3161 372.185 14.3161C372.72 14.3161 373.171 14.4348 373.54 14.6841C373.908 14.9334 374.087 15.3014 374.087 15.7881ZM373.005 16.0255C373.005 15.4201 372.601 15.1233 371.804 15.1233C371.602 15.1233 371.388 15.1471 371.174 15.1827C371.21 15.7168 371.222 16.3104 371.222 16.987C371.293 16.987 371.377 16.9989 371.472 16.9989C372.494 16.9989 373.005 16.6665 373.005 16.0255Z" fill="white"/>
<path d="M379.151 15.7881C379.151 16.4647 378.901 16.9514 378.402 17.2719C377.903 17.5924 377.296 17.7467 376.559 17.7467C376.429 17.7467 376.333 17.7467 376.274 17.7349C376.274 18.2572 376.286 18.9576 376.322 19.8241H375.133C375.168 19.0169 375.192 18.0554 375.192 16.9514C375.192 15.9424 375.168 15.064 375.133 14.3398H375.87C375.977 14.3398 376.179 14.3398 376.464 14.328C376.749 14.3161 377.011 14.3161 377.237 14.3161C377.772 14.3161 378.224 14.4348 378.592 14.6841C378.961 14.9334 379.151 15.3014 379.151 15.7881ZM378.057 16.0255C378.057 15.4201 377.653 15.1233 376.856 15.1233C376.654 15.1233 376.44 15.1471 376.226 15.1827C376.262 15.7168 376.274 16.3104 376.274 16.987C376.345 16.987 376.429 16.9989 376.524 16.9989C377.546 16.9989 378.057 16.6665 378.057 16.0255Z" fill="white"/>
<path d="M387.412 16.9989C387.412 17.8655 387.151 18.5777 386.616 19.1475C386.093 19.7173 385.439 20.0022 384.654 20.0022C383.917 20.0022 383.287 19.741 382.788 19.2187C382.289 18.6964 382.039 18.0317 382.039 17.2363C382.039 16.3698 382.301 15.6575 382.836 15.0877C383.359 14.5179 384.013 14.233 384.797 14.233C385.534 14.233 386.164 14.4942 386.663 15.0165C387.163 15.5269 387.412 16.1917 387.412 16.9989ZM386.259 17.1176C386.259 16.536 386.105 16.0493 385.808 15.6931C385.51 15.3251 385.13 15.1471 384.69 15.1471C384.274 15.1471 383.929 15.3251 383.644 15.6931C383.359 16.0611 383.216 16.5241 383.216 17.082C383.216 17.6637 383.371 18.1385 383.668 18.5065C383.965 18.8745 384.345 19.0525 384.773 19.0525C385.189 19.0525 385.534 18.8626 385.819 18.4946C386.105 18.1385 386.259 17.6755 386.259 17.1176Z" fill="white"/>
<path d="M393.13 19.836H392.084C392.084 19.7173 391.692 19.1119 390.919 18.0079C390.111 16.8446 389.647 16.0611 389.54 15.6338H389.469C389.54 16.2511 389.576 16.809 389.576 17.2957C389.576 17.9842 389.6 18.8389 389.635 19.836H388.601C388.649 18.9694 388.661 18.0079 388.661 16.9633C388.661 15.9424 388.637 15.064 388.601 14.3517H389.849C389.849 14.5061 390.194 15.0996 390.895 16.1323C391.632 17.2363 392.06 17.9842 392.167 18.3759H392.227C392.155 17.7468 392.12 17.1888 392.12 16.6903C392.12 15.9305 392.096 15.1471 392.06 14.3517H393.118C393.083 15.0521 393.059 15.9187 393.059 16.9633C393.071 18.0198 393.094 18.9813 393.13 19.836Z" fill="white"/>
<path d="M343.382 37.4047C343.382 40.123 342.574 42.2954 340.957 43.9098C339.127 45.8329 336.737 46.7944 333.789 46.7944C330.972 46.7944 328.583 45.821 326.609 43.8742C324.636 41.9274 323.649 39.5058 323.649 36.6212C323.649 33.7366 324.636 31.315 326.609 29.3682C328.583 27.4214 330.972 26.448 333.789 26.448C335.192 26.448 336.523 26.721 337.795 27.2671C339.067 27.8131 340.089 28.5372 340.85 29.4394L339.138 31.1488C337.843 29.6056 336.072 28.834 333.801 28.834C331.745 28.834 329.973 29.5581 328.476 30.9945C326.978 32.4308 326.229 34.3064 326.229 36.6093C326.229 38.9122 326.978 40.7878 328.476 42.2242C329.973 43.6605 331.745 44.3846 333.801 44.3846C335.976 44.3846 337.795 43.6605 339.245 42.2123C340.184 41.2745 340.731 39.9569 340.886 38.2712H333.801V35.9327H343.263C343.346 36.4431 343.382 36.9298 343.382 37.4047Z" fill="white"/>
<path d="M346.354 34.615C347.638 33.2618 349.29 32.5851 351.287 32.5851C353.284 32.5851 354.925 33.2618 356.22 34.615C357.504 35.9683 358.158 37.6539 358.158 39.6957C358.158 41.7256 357.516 43.4231 356.22 44.7763C354.925 46.1296 353.284 46.8062 351.287 46.8062C349.29 46.8062 347.65 46.1296 346.354 44.7763C345.07 43.4231 344.416 41.7374 344.416 39.6957C344.416 37.6539 345.07 35.9683 346.354 34.615ZM348.22 43.1857C349.088 44.0641 350.098 44.5033 351.287 44.5033C352.464 44.5033 353.486 44.0641 354.354 43.1857C355.222 42.3072 355.65 41.1439 355.65 39.6838C355.65 38.2356 355.222 37.0723 354.354 36.182C353.486 35.3035 352.464 34.8643 351.287 34.8643C350.11 34.8643 349.088 35.3035 348.22 36.182C347.352 37.0604 346.924 38.2237 346.924 39.6838C346.924 41.1439 347.364 42.3072 348.22 43.1857Z" fill="white"/>
<path d="M360.94 34.615C362.223 33.2618 363.876 32.5851 365.873 32.5851C367.87 32.5851 369.51 33.2618 370.806 34.615C372.09 35.9683 372.744 37.6539 372.744 39.6957C372.744 41.7256 372.102 43.4231 370.806 44.7763C369.51 46.1296 367.87 46.8062 365.873 46.8062C363.876 46.8062 362.235 46.1296 360.94 44.7763C359.644 43.4231 359.002 41.7374 359.002 39.6957C359.002 37.6539 359.644 35.9683 360.94 34.615ZM362.806 43.1857C363.674 44.0641 364.684 44.5033 365.873 44.5033C367.05 44.5033 368.072 44.0641 368.94 43.1857C369.807 42.3072 370.235 41.1439 370.235 39.6838C370.235 38.2356 369.807 37.0723 368.94 36.182C368.072 35.3035 367.05 34.8643 365.873 34.8643C364.696 34.8643 363.674 35.3035 362.806 36.182C361.938 37.0604 361.51 38.2237 361.51 39.6838C361.51 41.1439 361.938 42.3072 362.806 43.1857Z" fill="white"/>
<path d="M380.149 52.6704C378.568 52.6704 377.272 52.2787 376.274 51.4833C375.275 50.688 374.562 49.7858 374.122 48.7768L376.417 47.8272C376.666 48.5513 377.142 49.1567 377.819 49.6553C378.497 50.142 379.281 50.3912 380.149 50.3912C381.528 50.3912 382.61 49.9758 383.406 49.1567C384.203 48.3257 384.595 47.2099 384.595 45.7973V44.5152H384.488C384.048 45.1681 383.43 45.7142 382.634 46.1534C381.837 46.5926 380.934 46.8063 379.935 46.8063C378.212 46.8063 376.714 46.1297 375.466 44.7645C374.217 43.3994 373.587 41.7138 373.587 39.7076C373.587 37.7015 374.217 36.0039 375.466 34.6507C376.714 33.2856 378.212 32.6089 379.935 32.6089C380.934 32.6089 381.837 32.8226 382.634 33.2618C383.43 33.701 384.048 34.2471 384.488 34.9H384.595V33.0481H386.996V45.7023C386.996 47.9934 386.33 49.7265 385.011 50.9136C383.668 52.0769 382.051 52.6704 380.149 52.6704ZM380.339 44.5034C381.516 44.5034 382.527 44.0642 383.347 43.1976C384.179 42.331 384.583 41.1558 384.583 39.6839C384.583 38.2119 384.167 37.0486 383.347 36.1701C382.515 35.3036 381.516 34.8644 380.339 34.8644C379.174 34.8644 378.176 35.3036 377.344 36.182C376.512 37.0604 376.096 38.2238 376.096 39.6839C376.096 41.1321 376.512 42.2954 377.344 43.1857C378.176 44.0642 379.174 44.5034 380.339 44.5034Z" fill="white"/>
<path d="M391.87 46.3552H389.362V26.8753H391.87V46.3552Z" fill="white"/>
<path d="M400.143 46.7944C398.123 46.7944 396.482 46.1177 395.222 44.7763C393.962 43.435 393.332 41.7374 393.332 39.6838C393.332 37.737 393.95 36.0751 395.175 34.6744C396.399 33.2736 397.968 32.5851 399.87 32.5851C401.855 32.5851 403.436 33.2261 404.625 34.5201C405.814 35.8021 406.408 37.5352 406.408 39.6957L406.384 40.1586H395.84C395.912 41.5 396.363 42.5684 397.183 43.34C398.016 44.1235 398.978 44.5152 400.084 44.5152C401.879 44.5152 403.103 43.7555 403.733 42.2241L405.968 43.1501C405.528 44.1828 404.815 45.0494 403.817 45.7497C402.83 46.4382 401.606 46.7944 400.143 46.7944ZM403.745 38.0813C403.686 37.3215 403.341 36.5974 402.699 35.9089C402.057 35.2204 401.094 34.8762 399.822 34.8762C398.895 34.8762 398.087 35.1611 397.409 35.7427C396.732 36.3244 396.256 37.1079 396.007 38.0813H403.745Z" fill="white"/>
<path d="M416.286 46.3552H413.778V26.8753H420.423C422.075 26.8753 423.502 27.4214 424.714 28.5254C425.927 29.6293 426.521 31.0064 426.521 32.6801C426.521 34.3539 425.915 35.7309 424.714 36.8349C423.502 37.927 422.075 38.4849 420.423 38.4849H416.286V46.3552ZM416.286 36.0751H420.482C421.54 36.0751 422.384 35.719 423.014 35.0187C423.656 34.3064 423.965 33.5348 423.965 32.6801C423.965 31.8254 423.644 31.042 423.014 30.3416C422.373 29.6293 421.529 29.2851 420.482 29.2851H416.286V36.0751Z" fill="white"/>
<path d="M430.67 46.3552H428.162V26.8753H430.67V46.3552Z" fill="white"/>
<path d="M437.125 46.7944C435.71 46.7944 434.521 46.3908 433.57 45.5717C432.619 44.7526 432.144 43.6724 432.144 42.331C432.144 40.8828 432.702 39.7432 433.832 38.9122C434.961 38.0813 436.352 37.6777 438.004 37.6777C439.478 37.6777 440.679 37.9507 441.63 38.4968V38.105C441.63 37.1198 441.297 36.3363 440.619 35.7546C439.942 35.1611 439.122 34.8643 438.135 34.8643C437.41 34.8643 436.744 35.0424 436.162 35.3866C435.567 35.7309 435.163 36.2057 434.949 36.7993L432.655 35.814C432.964 35.0187 433.57 34.2708 434.486 33.5942C435.389 32.9175 436.59 32.5733 438.087 32.5733C439.799 32.5733 441.214 33.0719 442.343 34.069C443.472 35.0661 444.031 36.4787 444.031 38.2831V46.3433H441.63V44.4915H441.523C440.512 46.0347 439.05 46.7944 437.125 46.7944ZM437.541 44.5033C438.575 44.5033 439.514 44.1116 440.358 43.3519C441.202 42.5803 441.63 41.6662 441.63 40.6216C440.917 40.04 439.859 39.7551 438.444 39.7551C437.232 39.7551 436.304 40.0162 435.686 40.5385C435.068 41.0608 434.759 41.6781 434.759 42.3904C434.759 43.0432 435.044 43.5656 435.603 43.9454C436.162 44.3134 436.804 44.5033 437.541 44.5033Z" fill="white"/>
<path d="M449.475 52.2312H446.884L449.986 45.5124L444.483 33.0244H447.205L451.187 42.604H451.246L455.11 33.0244H457.832L449.475 52.2312Z" fill="white"/>
<path d="M276.897 36.2887C276.897 30.0684 276.897 23.8363 276.897 17.6161C276.897 16.8563 277.04 16.156 277.587 15.5743C277.801 15.3488 277.943 15.2894 278.205 15.5506C282.401 19.824 286.597 24.0856 290.805 28.3472C293.527 31.1131 296.249 33.8671 298.984 36.6211C299.245 36.8822 299.269 37.0247 298.995 37.3096C292.315 43.9453 285.634 50.5929 278.977 57.2524C278.573 57.656 278.288 57.6203 277.896 57.3117C277.182 56.7657 276.909 56.0297 276.909 55.1512C276.909 51.4595 276.909 47.7795 276.897 44.0877C276.885 41.4999 276.885 38.8884 276.897 36.2887C276.885 36.2887 276.897 36.2887 276.897 36.2887Z" fill="white"/>
<path d="M279.286 14.8621C279.798 14.8621 280.154 15.0045 280.499 15.1944C289.034 19.9665 297.569 24.7504 306.104 29.5105C306.496 29.7242 306.484 29.8548 306.187 30.1515C304.273 32.0271 302.383 33.9145 300.493 35.8139C300.291 36.0157 300.16 36.1344 299.887 35.8613C293.099 28.9407 286.3 22.0438 279.5 15.1351C279.453 15.0757 279.405 15.0045 279.286 14.8621Z" fill="white"/>
<path d="M281.2 57.098C287.393 50.8422 293.599 44.5982 299.78 38.3305C300.16 37.9387 300.339 37.9981 300.683 38.3542C302.252 39.9924 303.845 41.5949 305.45 43.1974C305.735 43.4823 305.759 43.5892 305.379 43.8029C297.426 48.1475 289.474 52.516 281.533 56.8725C281.39 56.9319 281.272 57.0506 281.2 57.098Z" fill="white"/>
<path d="M316.588 36.4549C316.565 37.1553 316.232 37.6538 315.732 38.0218C315.364 38.2948 314.948 38.5204 314.544 38.7459C312.142 40.0754 309.729 41.3931 307.328 42.7226C307.007 42.9007 306.817 42.9007 306.544 42.6158C304.832 40.8589 303.108 39.102 301.385 37.3689C301.135 37.1196 301.123 36.9772 301.385 36.7279C303.405 34.7455 305.414 32.7393 307.411 30.7332C307.649 30.4958 307.816 30.472 308.113 30.6382C310.49 31.9796 312.88 33.3091 315.257 34.6387C315.982 35.0541 316.565 35.5883 316.588 36.4549Z" fill="white"/>
<path d="M35.564 19.3318H38.9734C39.1999 19.3318 39.3812 19.1513 39.3812 18.937C39.3812 18.7114 39.1999 18.5309 38.9734 18.5309H35.564C35.3488 18.5309 35.1562 18.7114 35.1562 18.937C35.1562 19.1513 35.3375 19.3318 35.564 19.3318ZM37.263 49.1234C36.2889 49.1234 35.4847 49.9243 35.4847 50.8944C35.4847 51.8645 36.2776 52.6655 37.263 52.6655C38.2485 52.6655 39.0414 51.8758 39.0414 50.8944C39.0414 49.913 38.2485 49.1234 37.263 49.1234ZM28.564 47.6118H45.9848V21.9489H28.564V47.6118ZM84.3943 39.1854C83.5674 39.1854 82.8198 39.4561 82.1516 39.9975C81.4833 40.5503 81.0415 41.2609 80.8376 42.1521C80.7357 42.5695 80.6904 42.9079 80.6904 43.1673V45.6603C80.6904 46.7545 81.0189 47.6795 81.6985 48.424C82.3668 49.1685 83.2389 49.5521 84.315 49.5521C85.5723 49.5521 86.5577 49.067 87.26 48.0969C87.9623 47.1268 88.3134 45.8521 88.3134 44.2615C88.3134 42.8064 87.9849 41.5994 87.3279 40.6518C86.5917 39.6817 85.6176 39.1854 84.3943 39.1854ZM145.48 38.971C144.144 38.971 143.113 39.5689 142.422 40.7533C141.81 41.7347 141.516 42.9305 141.516 44.3518C141.516 45.728 141.81 46.9124 142.422 47.8938C143.136 49.0783 144.155 49.6761 145.458 49.6761C146.726 49.6761 147.734 49.0783 148.459 47.86C149.082 46.8673 149.399 45.6716 149.399 44.2954C149.399 42.9192 149.105 41.7347 148.505 40.7533C147.78 39.5689 146.783 38.971 145.48 38.971ZM100.954 39.1854C100.127 39.1854 99.3798 39.4561 98.7115 39.9975C98.0432 40.5503 97.6015 41.2609 97.3862 42.1521C97.2843 42.5695 97.239 42.9079 97.239 43.1673V45.6603C97.239 46.7545 97.5675 47.6795 98.2471 48.424C98.9154 49.1685 99.7875 49.5521 100.864 49.5521C102.132 49.5521 103.106 49.067 103.82 48.0969C104.522 47.1268 104.873 45.8521 104.873 44.2615C104.873 42.8064 104.545 41.5994 103.877 40.6518C103.152 39.6817 102.178 39.1854 100.954 39.1854ZM66.3619 33.8159H66.2939C66.0787 34.6957 65.7615 36.0043 65.2971 37.7415L63.5641 43.1786H69.1709L67.4153 37.7415C67.2227 37.1774 66.8716 35.8689 66.3619 33.8159ZM170.875 38.8131C169.788 38.8131 168.893 39.2756 168.213 40.178C167.658 40.9 167.319 41.7573 167.217 42.7612H174.194C174.217 41.7799 174.001 40.9225 173.548 40.2006C172.959 39.2869 172.064 38.8131 170.875 38.8131ZM81.1208 24.0019C81.1661 23.8553 81.1661 23.7199 81.1661 23.5733V22.5129C79.7842 22.5016 78.459 22.7836 78.459 23.9568C78.459 24.7239 78.9574 25.0736 79.569 25.0736C80.3732 25.0623 80.9282 24.5547 81.1208 24.0019ZM62.8505 19.1513C62.6466 18.4971 62.4654 17.7751 62.3068 17.1547H62.2728C62.1143 17.7751 61.933 18.5196 61.7631 19.1513L60.9363 21.791H63.6887L62.8505 19.1513ZM173.967 18.3843C176.482 18.3843 177.32 20.4486 177.32 22.1519C177.32 22.5129 177.286 22.8062 177.252 22.9754H172.053C172.098 24.3742 173.186 24.972 174.443 24.972C175.349 24.972 175.995 24.8254 176.595 24.6223L176.878 25.9534C176.21 26.2354 175.281 26.4498 174.171 26.4498C171.657 26.4498 170.173 24.9156 170.173 22.5467C170.173 20.4035 171.476 18.3843 173.967 18.3843ZM142.864 18.5648L142.954 19.7266H143C143.351 19.1175 144.189 18.3955 145.48 18.3955C146.839 18.3955 148.233 19.2641 148.233 21.712V26.3031H146.273V21.9376C146.273 20.8321 145.854 19.9861 144.789 19.9861C144.008 19.9861 143.464 20.5388 143.26 21.1254C143.192 21.2833 143.17 21.5202 143.17 21.7458V26.3031H141.21V20.8772C141.21 19.9861 141.176 19.2416 141.142 18.576H142.864V18.5648ZM122.271 18.3843C124.786 18.3843 125.624 20.4486 125.624 22.1519C125.624 22.5129 125.59 22.8062 125.556 22.9754H120.357C120.403 24.3742 121.49 24.972 122.747 24.972C123.653 24.972 124.288 24.8254 124.899 24.6223L125.182 25.9534C124.514 26.2354 123.585 26.4498 122.475 26.4498C119.961 26.4498 118.477 24.9156 118.477 22.5467C118.477 20.4035 119.791 18.3843 122.271 18.3843ZM114.241 15.0227H116.2V26.2918H114.241V15.0227ZM98.7002 19.7605C97.9299 19.7605 97.1371 19.9974 96.616 20.3358L96.2309 19.0611C96.8086 18.7114 97.8053 18.373 99.04 18.373C101.532 18.373 102.245 19.941 102.245 21.6443V24.4193C102.245 25.1187 102.279 25.7955 102.37 26.2806H100.603L100.456 25.4232H100.411C99.9461 26.0211 99.1306 26.4498 98.1112 26.4498C96.548 26.4498 95.6759 25.3217 95.6759 24.1486C95.6759 22.2083 97.4089 21.2157 100.286 21.2269V21.1028C100.275 20.6065 100.059 19.7605 98.7002 19.7605ZM87.1014 15.3386C87.7697 15.3386 88.1888 15.8011 88.2001 16.3989C88.2001 16.9742 87.7697 17.448 87.0788 17.448C86.4218 17.448 85.9914 16.9742 85.9914 16.3989C86.0027 15.8011 86.4558 15.3386 87.1014 15.3386ZM88.0755 18.5648V26.2918H86.116V18.5648H88.0755ZM61.1175 15.5867H63.6207L67.1094 26.2806H64.9913L64.0172 23.2461H60.6191L59.6903 26.2806H57.6628L61.1175 15.5867ZM48.0576 51.0636C48.0576 52.9475 46.5171 54.4816 44.6255 54.4816H29.9006C28.009 54.4816 26.4685 52.9587 26.4685 51.0636V18.4858C26.4685 16.602 28.009 15.0678 29.9006 15.0678H44.6255C46.5171 15.0678 48.0576 16.602 48.0576 18.4858V51.0636ZM71.7195 51.842L69.7713 45.728H62.9751L61.1175 51.842H57.6515L64.3683 31.0296H68.5253L75.2875 51.842H71.7195ZM72.4784 26.2918H70.5528L67.6645 18.5648H69.7826L71.0399 22.4903C71.2664 23.1672 71.425 23.7876 71.5609 24.4306H71.6062C71.7535 23.7989 71.9234 23.1897 72.1273 22.4903L73.3732 18.5648H75.4347L72.4784 26.2918ZM76.5221 24.1598C76.5221 22.2196 78.2551 21.2269 81.1321 21.2382V21.1141C81.1321 20.6065 80.9283 19.7605 79.5577 19.7605C78.7875 19.7605 77.9946 19.9974 77.4735 20.3358L77.0884 19.0611C77.6661 18.7114 78.6629 18.373 79.8975 18.373C82.3781 18.373 83.103 19.941 83.103 21.6443V24.4193C83.103 25.1187 83.137 25.7955 83.2276 26.2806H81.4606L81.3134 25.4232H81.2681C80.8037 26.0211 79.9881 26.4498 78.9687 26.4498C77.3943 26.461 76.5221 25.333 76.5221 24.1598ZM89.6273 50.2176C88.3814 51.5261 86.8296 52.1917 84.9833 52.1917C82.9784 52.1917 81.5512 51.481 80.6791 50.0597V57.9447H77.3376V41.7686C77.3376 40.1667 77.2923 38.5198 77.213 36.839H80.158L80.3393 39.2192H80.3959C81.5173 37.4369 83.205 36.5345 85.4817 36.5345C87.26 36.5345 88.7438 37.2338 89.9331 38.6326C91.1225 40.0314 91.7115 41.8814 91.7115 44.16C91.7228 46.7207 91.0205 48.7286 89.6273 50.2176ZM93.116 26.2918H91.1564V15.0227H93.116V26.2918ZM106.187 50.2176C104.941 51.5261 103.389 52.1917 101.543 52.1917C99.5497 52.1917 98.1112 51.481 97.2503 50.0597V57.9447H93.8976V41.7686C93.8976 40.1667 93.8522 38.5198 93.773 36.839H96.7066L96.8992 39.2192H96.9558C98.0772 37.4369 99.7649 36.5345 102.042 36.5345C103.82 36.5345 105.304 37.2338 106.493 38.6326C107.682 40.0314 108.283 41.8814 108.283 44.16C108.271 46.7207 107.58 48.7286 106.187 50.2176ZM108.487 26.461C107.479 26.461 106.595 26.0775 106.029 25.13H105.995L105.904 26.2918H104.228C104.262 25.7729 104.296 24.9156 104.296 24.1147V15.0227H106.255V19.6251H106.289C106.765 18.8806 107.614 18.3843 108.781 18.3843C110.673 18.3843 112.032 19.9522 112.021 22.3099C112.009 25.0848 110.231 26.461 108.487 26.461ZM125.341 50.3304C123.97 51.5487 122.079 52.1466 119.644 52.1466C117.39 52.1466 115.589 51.7179 114.229 50.8493L115.011 48.0743C116.472 48.9316 118.092 49.3716 119.836 49.3716C121.105 49.3716 122.079 49.0896 122.781 48.5255C123.483 47.9615 123.835 47.2057 123.835 46.2469C123.835 45.4121 123.54 44.7015 122.974 44.1262C122.385 43.5509 121.433 43.0207 120.097 42.5244C116.438 41.1707 114.614 39.1854 114.614 36.5683C114.614 34.8537 115.249 33.4549 116.551 32.3607C117.843 31.2778 119.553 30.725 121.682 30.725C123.585 30.725 125.16 31.0522 126.428 31.7064L125.579 34.425C124.401 33.7933 123.064 33.4662 121.569 33.4662C120.391 33.4662 119.462 33.7595 118.794 34.3235C118.239 34.8424 117.956 35.4741 117.956 36.2186C117.956 37.0308 118.273 37.7189 118.919 38.2604C119.474 38.7567 120.493 39.2869 121.954 39.8622C123.755 40.5728 125.081 41.4302 125.93 42.4003C126.78 43.3704 127.199 44.5661 127.199 46.01C127.187 47.781 126.564 49.2249 125.341 50.3304ZM137.144 39.332H133.451V46.6304C133.451 48.4804 134.108 49.4054 135.411 49.4054C136.011 49.4054 136.498 49.3603 136.894 49.2588L136.985 51.7856C136.328 52.0337 135.456 52.1578 134.38 52.1578C133.066 52.1578 132.024 51.763 131.276 50.9508C130.529 50.1499 130.155 48.7963 130.155 46.9124V39.332H127.958V36.839H130.155V34.0866L133.44 33.0939V36.8277H137.132V39.332H137.144ZM135.252 26.461C133.066 26.461 131.367 24.972 131.367 22.4791C131.367 19.941 133.043 18.3843 135.388 18.3843C137.699 18.3843 139.25 20.0086 139.25 22.355C139.239 25.1976 137.223 26.461 135.252 26.461ZM150.883 49.9017C149.49 51.4246 147.655 52.1804 145.367 52.1804C143.147 52.1804 141.38 51.4472 140.077 49.992C138.763 48.5368 138.118 46.6868 138.118 44.4646C138.118 42.1408 138.797 40.2344 140.145 38.7567C141.505 37.2677 143.317 36.5345 145.616 36.5345C147.836 36.5345 149.615 37.2564 150.951 38.7229C152.231 40.1329 152.865 41.9716 152.865 44.2164C152.854 46.5289 152.197 48.4127 150.883 49.9017ZM154.338 18.5648H155.437V17.1096L157.362 16.5681V18.5535H159.231V20.0086H157.362V23.4266C157.362 24.3742 157.611 24.8592 158.37 24.8592C158.721 24.8592 158.914 24.8479 159.141 24.7803L159.174 26.258C158.891 26.3708 158.359 26.461 157.759 26.461C157.022 26.461 156.433 26.2242 156.071 25.8293C155.64 25.3894 155.448 24.6675 155.448 23.6522V20.0199H154.349V18.5648H154.338ZM162.935 39.7719C162.607 39.7155 162.255 39.6817 161.882 39.6817C160.704 39.6817 159.797 40.1216 159.152 41.0015C158.597 41.7911 158.314 42.7612 158.314 43.9682V51.842H154.961V41.5542C154.961 39.8396 154.927 38.2604 154.87 36.839H157.781L157.906 39.7155H157.996C158.348 38.7341 158.903 37.9332 159.673 37.3466C160.42 36.8052 161.225 36.5457 162.097 36.5457C162.403 36.5457 162.686 36.557 162.924 36.6021V39.7719H162.935ZM163.445 21.6556V26.2918H161.485V15.0227H163.445V19.6138H163.479C163.717 19.2529 164.056 18.9483 164.453 18.7452C164.849 18.5196 165.314 18.3955 165.812 18.3955C167.137 18.3955 168.519 19.2641 168.519 21.7458V26.3031H166.56V21.9602C166.56 20.8547 166.141 19.9861 165.064 19.9861C164.294 19.9861 163.762 20.4937 163.535 21.0803C163.456 21.2382 163.445 21.4525 163.445 21.6556ZM177.264 45.1527H167.217C167.262 46.6304 167.738 47.7585 168.678 48.5368C169.527 49.2362 170.615 49.5859 171.963 49.5859C173.458 49.5859 174.806 49.349 176.029 48.8752L176.561 51.199C175.145 51.8194 173.446 52.124 171.509 52.124C169.176 52.124 167.341 51.4472 166.016 50.071C164.679 48.706 164.011 46.8673 164.011 44.5661C164.011 42.2987 164.634 40.4149 165.869 38.9146C167.183 37.3128 168.938 36.5119 171.147 36.5119C173.322 36.5119 174.964 37.3128 176.074 38.9146C176.958 40.1893 177.411 41.7686 177.411 43.6411C177.377 44.2277 177.343 44.7353 177.264 45.1527ZM108.056 19.9071C107.263 19.9071 106.527 20.4824 106.323 21.3397C106.289 21.4864 106.255 21.6556 106.255 21.8474V23.0995C106.255 23.2574 106.267 23.4153 106.301 23.562C106.504 24.3516 107.195 24.9269 108.034 24.9269C109.257 24.9269 110.016 23.9568 110.016 22.3888C110.016 21.0239 109.359 19.9071 108.056 19.9071ZM122.158 19.7154C120.946 19.7154 120.436 20.8096 120.357 21.5992H123.767C123.789 20.8885 123.472 19.7154 122.158 19.7154ZM135.331 19.7943C133.949 19.7943 133.383 21.148 133.383 22.4339C133.383 23.923 134.131 25.051 135.309 25.051C136.419 25.051 137.2 23.9681 137.2 22.4001C137.212 21.1931 136.668 19.7943 135.331 19.7943ZM97.6128 23.9568C97.6128 24.7239 98.1112 25.0736 98.7228 25.0736C99.5157 25.0736 100.082 24.5659 100.275 24.0132C100.32 23.8666 100.32 23.7312 100.32 23.5845V22.5242C98.938 22.4903 97.6128 22.7836 97.6128 23.9568ZM173.854 19.7154C172.642 19.7154 172.132 20.8096 172.053 21.5992H175.463C175.474 20.8885 175.157 19.7154 173.854 19.7154Z" fill="white"/>
<path d="M193.417 67.2444H9.73452C4.36288 67.2444 0 63.184 0 58.1964V9.05981C0 4.06048 4.36288 0 9.73452 0H193.417C198.789 0 203.151 4.06048 203.151 9.05981V58.1846C203.164 63.184 198.789 67.2444 193.417 67.2444ZM9.73452 2.3471C5.76254 2.3471 2.5219 5.36312 2.5219 9.05981V58.1846C2.5219 61.8813 5.76254 64.8856 9.73452 64.8856H193.417C197.402 64.8856 200.63 61.8813 200.63 58.1846V9.05981C200.63 5.35139 197.389 2.3471 193.417 2.3471H9.73452Z" fill="white"/>
</svg>
