<svg width="496" height="863" viewBox="0 0 496 863" fill="none" xmlns="http://www.w3.org/2000/svg">
<g clip-path="url(#clip0)">
<path d="M185.633 375.804C185.633 375.804 194.154 351.493 224.883 348.279C255.612 345.066 261.898 369.517 261.898 369.517C261.898 369.517 236.476 410.733 185.633 375.804Z" fill="#B4BFBD"/>
<path d="M20.6725 506.161C20.6725 506.161 10.895 482.269 31.8468 459.635C52.7987 437 73.6108 450.972 73.6108 450.972C73.6108 450.972 81.8519 498.756 20.6725 506.161Z" fill="#B4BFBD"/>
<path d="M398.504 442.729C398.504 442.729 421.691 431.551 445.715 450.972C469.74 470.393 456.89 492.189 456.89 492.189C456.89 492.189 409.818 503.366 398.504 442.729Z" fill="#B4BFBD"/>
<path d="M479.099 631.348C479.099 631.348 500.33 646.018 495.162 676.477C489.994 706.935 464.852 706.516 464.852 706.516C464.852 706.516 431.748 671.028 479.099 631.348Z" fill="#B4BFBD"/>
<path d="M230.749 843.44C230.749 843.44 217.62 865.655 186.89 862.721C156.161 859.787 154.764 834.637 154.764 834.637C154.764 834.637 187.728 799.149 230.749 843.44Z" fill="#B4BFBD"/>
<path d="M58.9445 743.122C58.9445 743.122 27.9358 751.645 8.79975 727.194C-10.3363 702.744 13.1298 681.507 13.1298 681.507C13.1298 681.507 71.3759 676.756 58.9445 743.122Z" fill="#B4BFBD"/>
<path d="M242.343 845.116C376.185 845.116 484.686 736.585 484.686 602.706C484.686 468.826 376.185 360.295 242.343 360.295C108.501 360.295 0 468.826 0 602.706C0 736.585 108.501 845.116 242.343 845.116Z" fill="#D4DDE2"/>
<path d="M63.4143 561.908C55.5923 555.621 40.2276 561.629 29.0533 575.461C25.4217 580.071 22.6281 584.822 20.8123 589.432C31.9866 575.88 47.2116 570.012 54.8939 576.299C60.062 580.491 60.6208 589.293 56.9891 598.654C57.1288 598.514 57.2685 598.374 57.2685 598.235C68.4428 584.542 71.2364 568.195 63.4143 561.908Z" fill="#555382"/>
<path d="M54.8938 576.299C47.2115 570.012 31.9865 575.88 20.8122 589.432C17.1805 598.933 17.7392 607.596 22.9073 611.787C30.5897 618.075 45.8147 612.206 56.989 598.654C60.6207 589.293 60.2016 580.63 54.8938 576.299Z" fill="#202263"/>
<path d="M305.478 584.961C308.272 581.888 304.5 576.998 297.237 574.203C294.862 573.225 292.348 572.666 289.974 572.387C297.237 575.321 300.869 580.071 298.075 583.145C296.259 585.241 291.929 585.939 287.04 585.381C287.04 585.381 287.18 585.381 287.18 585.52C294.583 588.315 302.824 588.175 305.478 584.961Z" fill="#555382"/>
<path d="M298.075 583.145C300.869 580.071 297.237 575.321 289.974 572.387C285.085 571.828 280.894 572.527 278.939 574.622C276.145 577.696 279.777 582.446 287.04 585.381C291.929 585.939 296.119 585.241 298.075 583.145Z" fill="#202263"/>
<path d="M92.6072 646.298C107.693 642.386 130.181 657.754 142.752 680.668C146.942 688.213 149.457 695.618 150.434 702.324C137.723 679.69 115.654 664.601 100.569 668.513C90.512 671.167 86.182 681.786 88.2771 695.339C88.1375 695.059 87.9978 694.919 87.8581 694.78C75.4267 672.006 77.5219 650.21 92.6072 646.298Z" fill="#555382"/>
<path d="M100.709 668.652C115.654 664.74 137.863 679.83 150.574 702.464C152.669 716.156 148.479 726.775 138.282 729.29C123.337 733.202 101.128 718.112 88.4169 695.478C86.3218 681.926 90.5121 671.307 100.709 668.652Z" fill="#202263"/>
<path d="M51.9607 551.709C50.7036 551.988 75.287 539.693 75.7061 566.519C75.5664 566.519 70.8173 548.216 51.9607 551.709Z" fill="#555382"/>
<path d="M17.8789 574.064C17.8789 574.064 -5.86655 643.084 49.8653 612.486C49.8653 612.486 -10.895 659.012 17.8789 574.064Z" fill="#555382"/>
<path d="M397.945 513.566C405.488 508.536 418.618 515.102 427.557 528.376C430.491 532.707 432.586 537.318 433.703 541.509C424.764 528.515 411.774 522.088 404.371 527.118C399.342 530.471 398.225 538.296 400.739 546.958C400.599 546.818 400.599 546.679 400.46 546.539C391.66 533.406 390.403 518.595 397.945 513.566Z" fill="#555382"/>
<path d="M404.371 527.118C411.774 522.088 424.903 528.655 433.703 541.509C436.217 550.172 435.1 557.996 430.072 561.349C422.669 566.379 409.539 559.812 400.739 546.958C398.225 538.296 399.342 530.472 404.371 527.118Z" fill="#202263"/>
<path d="M408.98 505.462C410.097 505.741 389.146 492.887 386.631 516.779C386.631 516.639 392.498 500.851 408.98 505.462Z" fill="#555382"/>
<path d="M437.614 528.096C437.614 528.096 453.258 591.668 406.047 559.952C406.047 559.952 456.611 606.198 437.614 528.096Z" fill="#555382"/>
<path d="M63.9729 698.133C63.9729 698.133 115.794 788.391 168.872 711.406C168.732 711.406 119.006 816.893 63.9729 698.133Z" fill="#555382"/>
<path d="M189.684 838.55C182.002 840.506 170.548 832.682 164.123 820.945C162.028 817.033 160.77 813.261 160.212 809.908C166.637 821.364 177.951 829.049 185.633 827.093C190.801 825.696 192.897 820.386 191.919 813.401C191.919 813.54 192.058 813.68 192.058 813.68C198.344 825.416 197.366 836.594 189.684 838.55Z" fill="#555382"/>
<path d="M185.494 827.093C177.811 829.049 166.497 821.364 160.072 809.907C158.955 802.921 161.19 797.472 166.358 796.215C174.04 794.259 185.354 801.943 191.779 813.4C192.757 820.386 190.662 825.835 185.494 827.093Z" fill="#202263"/>
<path d="M204.211 812.143C204.211 812.143 177.811 766.176 150.714 805.436C150.714 805.436 176.135 751.645 204.211 812.143Z" fill="#555382"/>
<path d="M337.185 685.698C358.416 685.698 376.854 697.295 386.492 714.48C386.771 712.105 386.911 709.869 386.911 707.494C386.911 676.477 361.629 651.328 330.341 651.328C299.053 651.328 273.771 676.477 273.771 707.494C273.771 717.414 276.425 726.775 281.034 735.019C284.526 707.215 308.271 685.698 337.185 685.698Z" fill="#555382"/>
<path d="M330.341 763.661C359.254 763.661 383 742.144 386.492 714.48C376.854 697.295 358.416 685.698 337.185 685.698C308.272 685.698 284.526 707.215 281.034 734.879C290.812 752.064 309.249 763.661 330.341 763.661Z" fill="#202263"/>
<path d="M410.237 700.368C410.517 703.302 410.796 706.237 410.796 709.171C410.796 751.365 376.575 785.736 334.252 785.736C300.17 785.736 271.396 763.521 261.479 732.643C265.809 770.786 298.215 800.406 337.464 800.406C379.647 800.406 414.008 766.176 414.008 723.841C414.008 715.737 412.612 707.773 410.237 700.368Z" fill="#555382"/>
<path d="M155.742 492.049C145.685 497.777 134.65 498.895 126.689 495.682C126.968 496.52 127.387 497.358 127.806 498.197C133.812 508.675 150.574 510.352 165.519 501.969C180.325 493.586 187.589 478.217 181.722 467.738C179.767 464.385 176.694 461.87 173.062 460.473C176.694 470.672 169.57 484.225 155.742 492.049Z" fill="#555382"/>
<path d="M144.009 463.826C130.32 471.65 123.057 485.343 126.689 495.542C134.65 498.755 145.545 497.638 155.742 491.909C169.431 484.085 176.694 470.393 173.062 460.193C165.1 457.12 154.206 458.098 144.009 463.826Z" fill="#202263"/>
<path d="M118.168 506.859C117.47 506.021 116.772 505.043 116.213 504.065C108.111 489.814 117.889 468.996 138.003 457.539C154.206 448.317 172.224 448.038 182.84 455.862C173.481 444.126 152.39 442.868 133.673 453.487C113.559 464.944 103.781 485.762 111.883 500.013C113.559 502.668 115.654 505.043 118.168 506.859Z" fill="#555382"/>
<path d="M244.019 427.08C237.454 427.779 231.448 425.683 228.096 422.19C228.096 422.749 228.096 423.168 228.096 423.727C228.794 430.573 237.175 435.463 246.952 434.485C256.73 433.507 263.993 427.22 263.295 420.374C263.015 418.138 262.038 416.182 260.501 414.506C259.803 420.793 252.959 426.242 244.019 427.08Z" fill="#555382"/>
<path d="M244.438 409.755C235.499 410.594 228.515 416.043 228.096 422.33C231.448 425.823 237.454 427.779 244.019 427.22C252.959 426.382 259.942 420.933 260.362 414.645C257.009 411.013 251.003 409.057 244.438 409.755Z" fill="#202263"/>
<path d="M220.833 426.102C220.693 425.404 220.553 424.845 220.414 424.146C219.575 414.785 229.493 406.262 242.622 404.865C253.238 403.887 262.736 407.939 266.368 414.366C264.133 406.123 253.517 400.534 241.226 401.652C228.096 402.909 218.179 411.572 219.017 420.933C219.436 422.889 219.994 424.565 220.833 426.102Z" fill="#555382"/>
<path d="M270.558 570.012C270.558 570.012 276.564 599.632 301.986 594.183C301.986 594.183 269.86 609.272 270.558 570.012Z" fill="#555382"/>
<path d="M342.632 433.787C342.772 430.433 337.744 429.036 331.318 430.713C329.223 431.272 327.268 432.11 325.452 433.088C331.737 431.411 336.766 432.809 336.626 436.162C336.486 438.397 334.112 441.052 330.62 443.008H330.76C337.185 441.331 342.493 437.28 342.632 433.787Z" fill="#555382"/>
<path d="M336.626 436.162C336.766 432.809 331.877 431.412 325.452 433.088C321.96 435.044 319.446 437.699 319.446 439.934C319.306 443.288 324.195 444.685 330.62 443.008C334.112 441.192 336.487 438.537 336.626 436.162Z" fill="#202263"/>
<path d="M311.205 441.052C311.205 441.052 331.179 457.818 345.147 441.611C345.147 441.611 332.017 467.459 311.205 441.052Z" fill="#555382"/>
<path d="M193.735 590.69C194.713 594.742 189.265 597.257 181.443 596.418C178.929 596.139 176.415 595.58 174.04 594.742C181.722 595.44 187.17 592.926 186.192 589.013C185.494 586.359 182.002 583.704 177.532 582.027C177.672 582.027 177.672 582.027 177.811 582.027C185.494 582.726 192.757 586.638 193.735 590.69Z" fill="#555382"/>
<path d="M186.192 589.013C187.17 592.926 181.862 595.58 174.04 594.742C169.431 593.065 166.078 590.411 165.38 587.756C164.402 583.844 169.71 581.189 177.532 582.028C182.002 583.564 185.494 586.219 186.192 589.013Z" fill="#202263"/>
<path d="M196.947 601.448C196.947 601.448 166.917 609.831 158.955 582.726C158.815 582.586 161.469 620.869 196.947 601.448Z" fill="#555382"/>
</g>
<path d="M159.315 148.43C164.408 136.481 166.687 131.244 166.687 118.221V118.087C166.687 116.744 166.687 115.267 166.687 113.79C166.955 65.7252 201.269 26.9238 243.625 26.9238C285.981 26.9238 320.428 65.7252 320.697 113.79C320.697 115.267 320.697 116.744 320.697 118.087V118.221C320.697 129.768 322.439 135.138 326.326 144.402C311.716 154.471 285.311 166.152 240.81 166.152C202.207 166.152 175.936 157.291 159.315 148.43Z" fill="#37BFA7"/>
<path d="M196.577 444.072C200.464 444.072 203.681 440.849 203.681 436.956V330.353C203.681 326.459 200.464 323.237 196.577 323.237C192.69 323.237 189.473 326.459 189.473 330.353V436.956C189.473 440.849 192.69 444.072 196.577 444.072Z" fill="#C2CCC9"/>
<path d="M185.988 444.072H196.577C200.464 444.072 203.681 440.849 203.681 436.956C203.681 433.062 200.464 429.84 196.577 429.84H185.988C182.101 429.84 178.884 433.062 178.884 436.956C178.884 440.849 182.101 444.072 185.988 444.072Z" fill="#C2CCC9"/>
<path d="M287.991 444.072C291.878 444.072 295.095 440.849 295.095 436.956V330.353C295.095 326.459 291.878 323.237 287.991 323.237C284.104 323.237 280.887 326.459 280.887 330.353V436.956C280.887 440.849 283.97 444.072 287.991 444.072Z" fill="#C2CCC9"/>
<path d="M287.991 444.072H298.58C302.467 444.072 305.684 440.849 305.684 436.956C305.684 433.062 302.467 429.84 298.58 429.84H287.991C284.104 429.84 280.887 433.062 280.887 436.956C280.887 440.849 283.97 444.072 287.991 444.072Z" fill="#C2CCC9"/>
<path d="M153.551 182.935C154.087 182.935 154.489 182.935 154.623 182.935C158.511 182.8 161.593 179.444 161.459 175.55C161.325 171.657 157.974 168.569 154.087 168.703C151.943 168.703 103.823 169.643 81.5727 120.369C79.9643 116.744 75.675 115.133 72.19 116.878C68.571 118.49 66.9626 122.786 68.705 126.277C93.234 180.652 145.241 182.935 153.551 182.935Z" fill="#C2CCC9"/>
<path d="M377.395 268.056C381.014 268.056 384.097 265.371 384.499 261.611C390.798 198.24 340.668 170.448 338.524 169.374C335.039 167.495 330.749 168.837 328.873 172.328C326.996 175.819 328.337 180.115 331.822 181.995C333.564 183.069 375.652 206.565 370.291 260.269C369.889 264.162 372.703 267.653 376.724 268.056C376.859 268.056 377.127 268.056 377.395 268.056Z" fill="#C2CCC9"/>
<path d="M143.364 190.722C143.364 190.588 143.498 190.453 143.498 190.319C150.468 169.106 155.696 157.022 159.449 148.296C176.07 157.157 202.341 165.884 240.81 165.884C285.311 165.884 311.716 154.203 326.326 144.133C329.945 152.726 335.441 164.675 343.215 188.037C344.555 192.064 346.03 196.629 347.504 201.463C350.587 212.741 352.196 224.69 352.196 237.176C352.196 305.112 303.674 338.006 243.759 338.006C183.844 338.006 135.322 305.112 135.322 237.176C135.322 224.019 137.064 211.532 140.415 199.717C141.354 196.629 142.292 193.676 143.364 190.722Z" fill="#D8E5E1"/>
<path d="M240.81 170.583C294.157 170.583 327.398 149.101 328.739 148.161C330.749 146.819 331.42 143.999 329.945 141.985C328.605 139.971 325.79 139.3 323.779 140.777C323.377 141.045 291.208 161.722 240.676 161.722C189.875 161.722 161.861 144.939 161.593 144.805C159.449 143.462 156.768 144.133 155.428 146.282C154.087 148.43 154.757 151.115 156.902 152.458C158.242 152.995 187.463 170.583 240.81 170.583Z" fill="#C2CCC9"/>
<path d="M261.05 40.0814C262.658 40.0814 264.133 39.0073 264.535 37.2619C264.535 37.1277 268.556 20.4793 276.598 14.0348C278.073 12.8265 278.341 10.5441 277.134 9.06719C275.928 7.59032 273.649 7.3218 272.175 8.53014C262.122 16.5858 257.833 34.9795 257.699 35.7851C257.297 37.6647 258.503 39.6786 260.38 40.0814C260.514 40.0814 260.782 40.0814 261.05 40.0814Z" fill="#F74442"/>
<path d="M251.399 31.8915C253.275 31.8915 254.884 30.4146 255.018 28.4007C255.018 27.7294 255.42 11.3496 253.811 2.89116C253.409 1.01151 251.533 -0.331093 249.656 0.0716896C247.78 0.474472 246.439 2.35412 246.842 4.23377C248.316 11.8866 247.914 27.9979 247.914 28.1322C247.914 30.1461 249.388 31.8915 251.399 31.8915Z" fill="#F74442"/>
<path d="M241.748 40.0814C243.357 40.0814 244.831 39.0073 245.233 37.3962C245.635 35.9193 248.584 22.4932 243.089 14.8404C240.944 11.8866 237.861 10.1413 233.974 9.87274C231.963 9.73848 230.221 11.2153 230.087 13.095C229.953 15.1089 231.427 16.8543 233.304 16.9886C235.046 17.1228 236.253 17.7941 237.191 19.0025C240.274 23.1645 238.933 32.697 238.129 35.6508C237.727 37.5304 238.799 39.5443 240.81 39.9471C241.212 40.0814 241.48 40.0814 241.748 40.0814Z" fill="#F74442"/>
<path d="M218.559 119.698C218.559 123.994 220.704 127.754 223.921 130.036C223.921 130.036 224.055 130.17 224.323 130.304C225.932 131.379 232.902 135.809 243.222 135.943H244.161C254.616 135.809 261.586 131.513 263.06 130.304C263.328 130.17 263.462 130.036 263.462 130.036C266.679 127.754 268.824 123.994 268.824 119.698C268.824 112.716 263.194 107.077 256.224 107.077C253.543 107.077 251.131 107.883 249.12 109.36C249.12 109.36 249.12 109.36 248.986 109.494C248.45 109.763 246.976 110.702 243.759 110.702C240.542 110.702 238.933 109.763 238.531 109.494C238.397 109.36 238.397 109.36 238.397 109.36C236.387 108.017 233.974 107.077 231.293 107.077C224.189 107.077 218.559 112.716 218.559 119.698Z" fill="black"/>
<path d="M215.075 103.184C228.746 103.184 239.872 92.0403 239.872 78.3457C239.872 64.6511 228.746 53.5074 215.075 53.5074C201.403 53.5074 190.278 64.6511 190.278 78.3457C190.278 92.0403 201.403 103.184 215.075 103.184ZM215.075 58.7436C225.798 58.7436 234.51 67.4706 234.51 78.2114C234.51 88.9523 225.798 97.6792 215.075 97.6792C204.352 97.6792 195.639 88.9523 195.639 78.2114C195.639 67.4706 204.352 58.7436 215.075 58.7436Z" fill="#D8E5E1"/>
<path d="M267.751 91.1004C264.346 91.1004 261.586 87.3135 261.586 82.642C261.586 77.9706 264.346 74.1836 267.751 74.1836C271.157 74.1836 273.917 77.9706 273.917 82.642C273.917 87.3135 271.157 91.1004 267.751 91.1004Z" fill="black"/>
<path d="M270.432 103.184C284.104 103.184 295.229 92.0403 295.229 78.3457C295.229 64.6511 284.104 53.5074 270.432 53.5074C256.76 53.5074 245.635 64.6511 245.635 78.3457C245.635 92.0403 256.76 103.184 270.432 103.184ZM270.432 58.7436C281.155 58.7436 289.868 67.4706 289.868 78.2114C289.868 88.9523 281.155 97.6792 270.432 97.6792C259.709 97.6792 250.997 89.0865 250.997 78.3457C250.997 67.6048 259.709 58.7436 270.432 58.7436Z" fill="#D8E5E1"/>
<path d="M215.074 91.1004C211.669 91.1004 208.909 87.3135 208.909 82.642C208.909 77.9706 211.669 74.1836 215.074 74.1836C218.48 74.1836 221.24 77.9706 221.24 82.642C221.24 87.3135 218.48 91.1004 215.074 91.1004Z" fill="black"/>
<g opacity="0.56">
<path opacity="0.56" d="M171.721 215.46C164.451 208.484 165.408 195.666 173.858 186.832C182.307 177.997 195.051 176.49 202.321 183.467C209.591 190.443 208.634 203.261 200.184 212.095C191.734 220.93 178.991 222.437 171.721 215.46Z" fill="#EBEDED"/>
<path opacity="0.56" d="M183.173 220.93C194.567 220.93 205.826 211.398 207.97 199.583C209.043 193.541 207.836 188.037 204.351 183.874C201.134 179.981 196.309 177.833 190.814 177.833C179.42 177.833 168.161 187.365 166.017 199.18C164.944 205.222 166.151 210.727 169.636 214.889C172.852 218.782 177.678 220.93 183.173 220.93ZM190.948 180.249C195.639 180.249 199.794 182.129 202.609 185.486C205.558 189.111 206.63 193.944 205.692 199.18C203.681 209.787 193.628 218.514 183.307 218.514C178.616 218.514 174.461 216.634 171.646 213.278C168.697 209.653 167.625 204.819 168.563 199.583C170.574 188.976 180.627 180.249 190.948 180.249Z" fill="#37BFA7"/>
</g>
<g opacity="0.56">
<g opacity="0.56">
<path opacity="0.56" d="M186.256 206.565C185.72 206.699 185.184 206.565 184.782 206.43C184.648 206.43 184.514 206.43 184.514 206.296C184.112 206.296 183.71 206.027 183.442 205.893C182.771 205.49 182.369 204.819 182.101 204.148C181.967 203.745 181.833 203.208 181.967 202.805C181.967 202.671 181.967 202.537 181.833 202.537C181.699 202.537 181.699 202.671 181.699 202.805C181.699 203.074 181.699 203.208 181.699 203.477C181.699 203.611 181.699 203.745 181.431 203.611C181.163 203.611 180.761 203.611 180.493 203.477C180.359 203.477 180.225 203.477 180.091 203.342C179.957 203.342 179.957 203.342 179.823 203.342H179.688C179.42 203.342 179.42 203.208 179.286 203.074C179.152 202.805 179.152 202.537 179.152 202.134C179.152 201.865 179.018 201.463 179.152 201.194C179.286 201.194 179.286 201.194 179.286 201.328C179.957 201.731 180.895 202 181.699 202.134C182.235 202.134 182.905 202.134 183.442 202.134C183.844 202.134 183.844 202.134 183.71 202.402C183.71 202.671 183.71 203.074 183.71 203.342C183.844 203.879 184.112 204.148 184.38 204.551C184.38 204.551 184.38 204.551 184.514 204.685C184.916 204.953 185.318 205.088 185.72 205.088C185.854 205.088 185.854 205.088 185.854 205.222C185.854 205.49 185.988 205.759 185.988 206.027C186.122 206.162 186.256 206.43 186.39 206.565C186.39 206.565 186.524 206.565 186.39 206.699C186.39 206.565 186.256 206.565 186.256 206.565Z" fill="#37BFA7"/>
</g>
<g opacity="0.56">
<path opacity="0.56" d="M180.627 206.296C180.493 206.162 180.091 206.296 180.359 205.893C180.627 205.222 180.761 204.685 180.627 204.148C180.627 204.014 180.627 203.879 180.761 204.014C180.895 204.014 181.163 204.014 181.297 204.014C181.431 204.014 181.565 204.014 181.565 204.148C181.699 204.685 181.967 205.222 182.503 205.625C182.637 205.759 182.637 205.893 182.369 205.893C181.833 206.296 181.297 206.296 180.627 206.296Z" fill="#37BFA7"/>
</g>
<g opacity="0.56">
<path opacity="0.56" d="M189.205 206.296C189.205 206.296 189.071 206.43 189.205 206.296C188.535 206.565 188.133 206.699 187.597 206.565C186.792 206.43 186.39 205.893 186.122 205.222C186.122 205.088 186.122 204.953 186.39 204.819C186.658 204.819 186.792 204.819 187.061 204.685C187.195 204.685 187.329 204.551 187.195 204.416C187.195 204.282 187.061 204.282 186.927 204.282C186.792 204.282 186.658 204.416 186.524 204.416H186.39C186.122 204.551 185.854 204.551 185.72 204.416C185.05 204.282 184.648 204.148 184.246 203.611C184.112 203.611 184.112 203.477 184.112 203.342C183.844 203.074 183.844 202.671 183.844 202.268C183.844 201.731 183.844 201.731 184.514 201.463C184.782 201.328 184.916 201.328 184.782 201.06C184.782 201.06 184.782 201.06 184.648 201.06C184.514 201.06 184.514 201.06 184.38 201.194C183.71 201.463 183.039 201.597 182.369 201.597H182.235H182.101C180.761 201.597 179.688 201.194 178.75 200.523C178.348 200.254 178.08 199.986 177.812 199.583C177.544 199.314 177.41 199.046 177.276 198.643C177.276 198.643 177.276 198.643 177.142 198.643C176.606 197.166 176.606 195.555 177.544 193.81C177.544 193.676 177.678 193.676 177.812 193.541C178.214 193.407 178.75 193.407 179.152 193.541C179.286 193.541 179.286 193.541 179.42 193.541C180.627 193.81 181.297 195.018 181.029 196.361C181.029 196.495 180.895 196.495 180.761 196.629C180.359 196.763 180.091 196.898 179.822 197.032C179.688 197.166 179.688 197.166 179.688 197.301C179.688 197.301 179.688 197.301 179.822 197.435C179.957 197.435 180.091 197.435 180.225 197.301C180.493 197.166 180.895 196.898 181.163 196.898C182.369 196.629 183.307 197.166 183.576 198.24C183.576 198.375 183.442 198.509 183.307 198.509C182.905 198.643 182.637 198.777 182.369 199.046C182.235 199.18 182.101 199.314 182.235 199.449C182.369 199.449 182.503 199.449 182.637 199.314C182.771 199.18 182.905 199.046 183.039 199.046C183.71 198.643 184.38 198.509 185.05 198.643C185.586 198.777 185.988 198.912 186.39 199.314C186.658 199.449 186.658 199.583 186.792 199.717C186.927 199.852 186.927 199.986 186.927 200.12C187.061 200.254 187.061 200.389 187.061 200.389C187.195 200.926 187.061 201.463 186.927 202C186.927 202.134 186.792 202.268 186.927 202.268C187.061 202.402 187.195 202.268 187.195 202.268C187.195 202.134 187.329 202 187.329 202C187.329 201.865 187.329 201.865 187.329 201.731C187.463 201.194 187.463 201.194 187.999 201.194C188.803 201.194 189.339 201.463 189.741 202C189.741 202 189.875 202 189.875 202.134C190.009 202.268 190.009 202.268 190.143 202.402C190.277 202.537 190.411 202.805 190.411 202.94C190.68 203.477 190.68 204.148 190.411 204.819C190.411 204.819 190.411 204.819 190.411 204.953C190.277 205.625 189.875 206.028 189.205 206.296ZM189.205 204.282C189.071 204.148 188.803 204.014 188.803 203.611C188.535 203.208 188.267 202.805 187.597 202.805C187.329 202.805 187.061 202.805 186.792 202.805C186.524 202.94 186.256 202.94 186.122 202.805C186.122 202.805 186.122 202.805 185.988 202.805C185.586 202.537 185.452 202.268 185.72 201.731C186.256 200.254 185.05 199.449 183.844 199.852C183.442 199.986 183.039 199.986 182.771 199.986H182.637C182.369 199.986 182.101 199.986 181.833 199.852C181.699 199.852 181.565 199.852 181.431 199.717C181.029 199.717 180.627 199.449 180.359 199.314C179.554 198.777 179.018 198.106 178.75 197.166C178.616 196.764 178.616 196.361 179.018 195.958C179.286 195.689 179.554 195.555 179.688 195.152C179.554 195.152 179.554 195.152 179.42 195.152C179.152 195.421 179.018 195.689 178.75 195.958C178.616 196.092 178.482 196.092 178.482 195.958C178.348 195.689 178.348 195.555 178.214 195.287C178.214 195.152 178.08 195.018 177.946 195.152C177.812 195.287 177.812 195.421 177.812 195.421V195.555C177.812 195.689 177.946 195.689 177.946 195.824C178.08 195.958 178.08 196.092 178.08 196.226C178.348 196.495 178.214 196.898 178.348 197.301C178.482 197.435 178.348 197.435 178.482 197.569C178.616 197.838 178.75 198.24 178.884 198.509C179.018 198.643 179.152 198.777 179.152 198.912C179.286 199.046 179.42 199.18 179.554 199.314C179.823 199.583 180.225 199.717 180.627 199.986H180.761C181.029 200.12 181.431 200.12 181.699 200.254H181.833C182.637 200.254 183.442 200.254 184.246 200.12C185.05 199.986 185.586 200.657 185.452 201.463C185.318 201.865 185.184 202.402 185.318 202.805C185.72 203.342 186.256 203.342 187.061 203.208C187.597 203.074 188.133 203.342 188.267 203.745C188.267 203.879 188.267 204.014 188.267 204.148C188.267 204.282 188.133 204.282 188.133 204.416C188.133 204.685 187.865 204.819 187.865 205.088C187.865 205.222 187.597 205.356 187.865 205.49C188.133 205.625 188.133 205.356 188.267 205.222C188.267 205.222 188.267 205.222 188.267 205.088C188.401 204.819 188.401 204.685 188.535 204.416C188.669 204.282 188.669 204.282 188.803 204.416C188.937 204.551 189.205 204.819 189.339 204.953C189.473 205.088 189.473 205.088 189.741 205.088C189.741 205.088 189.741 204.953 189.875 204.953C189.473 204.685 189.339 204.551 189.205 204.282Z" fill="#37BFA7"/>
</g>
<g opacity="0.56">
<path opacity="0.56" d="M187.999 199.717C187.999 199.717 187.999 199.852 187.865 199.852C187.731 199.986 187.597 200.254 187.463 200.389C187.463 200.254 187.329 200.254 187.329 200.12C187.329 199.986 187.195 199.986 187.195 199.852C187.061 199.717 187.061 199.583 187.061 199.449C187.061 199.449 187.061 199.449 186.927 199.315C186.525 198.777 185.988 198.509 185.452 198.375H185.318C185.05 198.375 184.782 198.375 184.648 198.375C184.246 198.375 183.978 198.375 183.978 197.972V197.838C183.576 197.032 183.04 196.629 181.967 196.629C181.699 196.629 181.565 196.495 181.699 196.227C181.833 195.824 181.699 195.555 181.699 195.287C181.431 193.944 180.091 193.004 178.482 193.139C178.348 193.139 178.348 193.139 178.214 193.139C178.214 193.004 178.214 193.004 178.348 192.87C178.884 192.064 179.689 191.393 180.493 190.856C182.369 189.648 184.38 189.245 186.256 189.648C187.195 189.916 187.999 190.319 188.669 190.99C188.937 191.259 189.339 191.662 189.473 192.064C189.607 192.064 189.607 192.199 189.607 192.333C189.607 192.333 189.607 192.333 189.607 192.467C189.741 192.467 189.741 192.601 189.741 192.736C189.875 193.004 189.875 193.273 190.01 193.541C190.278 194.75 190.01 195.824 189.607 197.032C189.473 197.301 189.339 197.435 189.071 197.569C188.937 197.838 188.669 197.972 188.401 198.106C188.267 198.24 188.133 198.24 188.267 198.375C188.401 198.509 188.535 198.375 188.669 198.375C188.669 198.375 188.803 198.375 188.803 198.24C188.937 198.106 189.071 197.972 189.205 197.972C188.937 198.375 188.803 198.777 188.535 199.046C188.535 199.046 188.535 199.046 188.535 199.18C188.133 199.449 188.133 199.583 187.999 199.717ZM188.803 194.078C188.669 193.541 188.535 193.139 188.267 192.601C187.999 192.333 187.731 191.93 187.463 191.662C186.927 191.259 186.256 190.856 185.586 190.722C185.452 190.722 185.452 190.722 185.318 190.722C185.05 190.722 184.916 190.722 184.782 190.722C183.71 190.722 182.771 190.856 181.699 191.259C181.565 191.393 181.431 191.393 181.431 191.393C181.431 191.527 181.297 191.527 181.163 191.527C180.761 191.527 180.359 191.662 179.957 191.662C179.689 191.662 179.555 191.796 179.689 192.064C179.689 192.064 179.689 192.064 179.823 192.064C180.225 192.064 180.493 191.93 180.895 191.93C181.029 191.93 181.163 191.93 181.029 192.064C180.895 192.333 180.761 192.601 180.627 192.87C180.627 193.004 180.493 193.139 180.627 193.139C180.761 193.139 180.895 193.004 180.895 193.004C181.029 192.87 181.029 192.736 181.163 192.601C181.163 192.601 181.163 192.467 181.297 192.467C181.431 192.064 181.565 191.796 181.967 191.662C183.04 191.259 184.112 190.99 185.05 191.125C186.793 191.393 187.865 192.333 188.267 193.944C188.401 194.615 188.401 195.287 188.133 195.958V196.092C187.999 196.629 187.865 197.032 187.463 197.435C186.793 198.106 185.72 198.106 185.452 197.301C185.184 196.764 185.452 196.092 186.256 195.689C186.391 195.421 186.659 195.287 186.793 195.018C186.793 194.884 186.927 194.75 186.927 194.75C186.927 194.481 186.927 194.078 186.927 193.81V193.676C186.659 193.273 186.256 193.004 185.72 192.87C185.318 192.87 185.05 192.87 184.648 193.004C184.38 193.139 184.112 193.407 183.844 193.541C183.576 193.676 183.174 193.81 182.906 193.81C182.771 193.944 182.771 193.944 182.637 193.944C182.503 193.944 182.369 194.078 182.369 194.213C182.369 194.347 182.503 194.347 182.637 194.347C182.906 194.213 183.174 194.213 183.576 194.078C183.71 194.078 183.71 194.078 183.71 194.213C183.576 194.481 183.442 194.884 183.442 195.152C183.442 195.287 183.442 195.287 183.576 195.287C183.71 195.287 183.71 195.287 183.844 195.152C183.844 195.018 183.978 195.018 183.978 194.884C183.978 194.884 183.978 194.884 183.978 194.75C183.978 194.481 184.246 194.078 184.246 193.81C184.246 193.81 184.246 193.676 184.38 193.676C184.782 193.273 185.318 193.139 185.854 193.273C186.39 193.407 186.659 193.676 186.659 194.213V194.347C186.659 194.75 186.525 195.287 185.988 195.555C185.452 195.958 185.05 196.495 185.05 197.166V197.301C185.05 197.569 185.318 197.838 185.452 198.106C185.72 198.24 185.988 198.375 186.256 198.375C187.061 198.375 187.731 197.972 188.133 197.166C188.669 195.958 188.803 195.018 188.803 194.078Z" fill="#37BFA7"/>
</g>
<g opacity="0.56">
<path opacity="0.56" d="M172.584 200.12C172.584 198.912 173.255 197.972 174.327 197.301C174.461 197.166 174.595 197.166 174.595 197.435C174.595 197.838 174.729 198.106 174.997 198.375C175.131 198.509 175.131 198.777 175.399 198.643C175.667 198.509 175.399 198.375 175.399 198.24C174.863 197.301 174.863 196.361 175.533 195.287C175.935 194.75 176.338 194.347 177.008 193.944C177.008 193.944 177.008 193.944 177.142 193.944C177.276 193.81 177.41 193.81 177.41 193.81C177.544 193.81 177.41 193.944 177.41 194.078C177.142 194.615 177.008 195.152 176.874 195.689C176.74 196.764 176.74 197.703 177.142 198.643C177.276 198.777 177.276 198.912 177.276 199.046C177.678 199.717 178.08 200.254 178.616 200.657C178.616 200.657 178.75 200.791 178.616 200.791C178.482 201.463 178.616 202.134 178.75 202.94C178.214 202.671 177.678 202.402 177.276 202C177.142 201.865 176.874 201.731 176.74 201.597C176.606 201.597 176.606 201.597 176.606 201.463C176.338 201.194 176.069 200.926 175.935 200.657C175.935 200.523 175.935 200.523 175.935 200.389C176.069 200.12 176.204 199.717 176.338 199.449C176.472 199.18 176.338 199.18 176.069 199.18C176.069 199.18 176.069 199.18 176.069 199.314C175.935 199.583 175.935 199.986 175.801 200.254C175.801 200.389 175.667 200.389 175.533 200.389C175.265 200.254 175.131 200.12 174.863 199.986C174.595 199.852 174.595 199.852 174.461 200.12C175.265 200.523 175.801 201.194 176.338 201.865C176.472 201.865 176.472 202 176.472 202.134C176.472 202.134 176.472 202.134 176.606 202.268C176.74 202.403 176.874 202.537 177.008 202.671C177.142 202.805 177.008 202.805 176.874 202.805C176.069 203.074 175.399 203.208 174.729 203.074C174.595 203.074 174.595 203.074 174.461 203.074C174.193 203.074 174.059 202.94 173.791 202.805C172.987 202 172.584 201.194 172.584 200.12Z" fill="#37BFA7"/>
</g>
<g opacity="0.56">
<path opacity="0.56" d="M193.628 202.268C193.763 202.402 193.628 202.402 193.494 202.537C192.69 202.805 191.752 202.94 190.948 202.805C190.814 202.805 190.68 202.805 190.68 202.671C190.546 202.537 190.546 202.268 190.278 202.134C190.143 202 190.143 202 190.278 201.865C190.546 201.597 190.948 201.194 191.216 200.926C191.216 200.791 191.35 200.791 191.35 200.657C191.35 200.657 191.35 200.657 191.35 200.523C191.484 200.254 191.618 199.986 191.886 199.852C191.886 199.717 192.02 199.717 192.154 199.583C192.556 199.449 192.824 199.315 193.226 199.18C193.226 199.18 193.226 199.18 193.36 199.18C193.494 199.046 193.628 199.046 193.628 198.912C193.628 198.777 193.36 198.777 193.226 198.912C192.958 199.046 192.69 199.18 192.422 199.314C192.288 199.449 192.288 199.315 192.288 199.18C192.288 198.912 192.422 198.643 192.422 198.24C192.422 198.106 192.422 197.972 192.288 197.972H192.154C192.02 198.106 192.02 198.24 192.02 198.375C191.886 198.777 192.02 199.18 191.752 199.583C191.35 200.254 190.948 200.791 190.278 201.328C190.278 201.328 190.278 201.463 190.144 201.463C189.875 201.865 189.875 201.865 189.473 201.597C189.339 201.463 189.205 201.463 189.071 201.328C188.937 201.194 188.803 201.194 189.071 200.926C189.741 200.389 190.278 199.717 190.68 199.046C190.814 198.777 190.948 198.509 191.082 198.375C191.082 198.24 191.216 198.24 191.216 198.106C191.216 197.972 191.35 197.838 191.35 197.569C191.484 197.166 191.752 197.032 192.02 197.032C192.154 197.032 192.154 197.032 192.288 197.032C193.092 196.898 193.763 197.166 194.031 197.703C194.165 197.838 194.165 198.106 194.299 198.24C194.299 198.777 194.165 199.449 193.628 199.852C193.628 199.852 193.628 199.852 193.494 199.986C193.092 200.389 192.69 200.523 192.154 200.523H192.02H191.886C191.752 200.523 191.618 200.523 191.618 200.657C191.618 200.791 191.618 200.791 191.752 200.791C191.886 200.791 192.02 200.791 192.02 200.791C192.556 200.657 193.092 200.389 193.628 200.12C193.628 200.12 193.628 200.12 193.763 199.986C193.763 199.852 193.897 199.717 194.031 199.852C194.165 199.852 194.165 199.986 194.165 200.12C194.299 200.254 194.299 200.523 194.433 200.657C194.701 201.194 195.237 201.328 195.907 201.597C196.041 201.597 196.041 201.597 196.175 201.597C196.309 201.597 196.443 201.597 196.443 201.597C196.711 201.731 197.113 201.865 197.382 202C197.516 202 197.65 202.134 197.784 202C197.784 202 197.784 202 197.784 201.865C197.65 201.597 197.382 201.597 197.113 201.463C196.979 201.328 196.711 201.328 196.711 201.194C196.711 201.06 196.979 200.926 197.113 200.791C197.248 200.657 197.382 200.657 197.382 200.523C197.516 200.389 197.65 200.389 197.516 200.254C197.382 200.12 197.248 200.254 197.113 200.389C196.845 200.657 196.443 200.926 196.175 201.06C196.175 201.194 196.041 201.194 195.907 201.194C195.639 201.194 195.505 201.06 195.237 201.06C194.433 200.791 193.897 199.717 194.299 198.912C194.299 198.912 194.299 198.912 194.299 198.777C194.433 198.24 194.299 197.703 194.031 197.301C193.897 197.301 193.897 197.166 194.031 197.166C194.299 197.166 194.567 196.898 194.835 196.764C195.103 196.495 195.371 196.092 195.639 195.824C195.639 195.824 195.639 195.824 195.639 195.689C195.639 195.421 195.773 195.152 195.639 194.884C195.371 194.213 194.969 193.81 194.165 193.81C194.031 193.81 194.031 193.81 194.031 193.676C193.763 193.407 193.628 193.139 193.36 193.004C193.226 192.87 193.226 192.87 192.958 193.004C192.824 193.139 192.958 193.273 192.958 193.273C193.092 193.407 193.36 193.676 193.494 193.81C193.628 193.944 193.628 193.944 193.36 194.078C193.092 194.213 192.824 194.213 192.556 194.347C192.556 194.347 192.556 194.347 192.422 194.347C192.288 194.347 192.154 194.481 192.154 194.615C192.154 194.75 192.288 194.75 192.422 194.615C192.824 194.481 193.226 194.347 193.494 194.213C194.031 194.078 194.433 194.213 194.701 194.481C194.969 194.75 195.103 195.152 194.969 195.689C194.567 196.495 193.763 197.032 192.958 196.629C192.422 196.495 191.886 196.361 191.216 196.629C191.082 196.629 191.082 196.629 191.082 196.495C191.216 195.958 191.35 195.287 191.35 194.75C191.35 194.347 191.484 194.078 191.752 193.676C191.752 193.541 191.886 193.541 191.886 193.407C191.886 193.273 192.02 193.273 192.02 193.139C192.02 193.004 192.154 192.87 192.02 192.87C191.886 192.87 191.752 192.87 191.752 193.004C191.618 193.273 191.484 193.407 191.35 193.676C191.216 193.944 191.216 193.944 190.948 193.81C190.814 193.676 190.68 193.541 190.546 193.273C190.412 193.139 190.412 193.139 190.278 193.273C190.143 193.407 190.143 193.541 190.278 193.541C190.546 193.81 190.68 194.078 190.948 194.213C191.082 194.347 191.082 194.347 191.082 194.481C191.082 195.152 190.948 195.824 190.68 196.495C190.143 197.972 189.205 199.449 187.865 200.523C187.731 200.657 187.731 200.657 187.597 200.657C187.329 200.657 187.195 200.523 186.927 200.523C186.793 200.523 186.793 200.389 186.793 200.254C186.927 200.12 187.061 199.852 187.195 199.583C187.329 199.315 187.597 199.046 187.731 198.643C187.731 198.643 187.731 198.643 187.731 198.509C187.865 198.24 187.999 197.972 188.133 197.703C188.267 197.703 188.267 197.838 188.267 197.838C188.267 197.972 188.267 198.106 188.267 198.24C188.267 198.375 188.267 198.509 188.535 198.375C188.669 198.375 188.669 198.24 188.669 198.106C188.669 197.972 188.669 197.972 188.669 197.838C188.669 197.569 188.535 197.301 188.669 196.898V196.764C188.803 196.361 189.071 195.958 189.205 195.555V195.421C189.339 194.75 189.339 194.213 189.339 193.541V193.407C189.205 193.004 189.205 192.601 189.071 192.199C188.803 191.393 188.267 190.722 187.731 190.051C187.731 190.051 187.731 190.051 187.597 190.051C187.329 189.782 186.927 189.513 186.524 189.379C186.39 189.379 186.524 189.245 186.524 189.245C186.793 188.976 187.195 188.842 187.597 188.708C188.803 188.305 190.009 188.842 190.412 189.782C190.412 189.782 190.412 189.782 190.412 189.916C190.546 189.916 190.546 190.051 190.412 190.051C190.546 190.185 190.546 190.319 190.412 190.453C190.412 190.453 190.412 190.453 190.412 190.588C190.412 190.722 190.412 190.99 190.278 191.125V191.259C190.278 191.393 190.278 191.527 190.144 191.527C190.144 191.527 190.144 191.527 190.144 191.662C190.144 191.796 190.009 191.93 190.009 192.064C190.009 192.064 190.143 192.199 190.278 192.199C190.546 191.93 190.68 191.527 190.814 191.125C190.814 190.99 190.948 190.856 191.082 190.722C191.752 190.453 192.422 190.588 192.69 190.99C192.958 191.393 193.226 191.662 193.628 191.93H193.763H193.897H194.031C194.299 191.93 194.701 191.93 194.969 191.93C195.371 191.93 195.639 192.064 195.907 192.467C196.041 192.467 196.041 192.601 196.041 192.736C196.175 193.004 196.175 193.273 196.175 193.541C196.309 193.944 196.711 194.213 197.113 194.347C197.516 194.481 197.784 194.615 197.918 195.018C198.052 195.018 198.052 195.152 198.052 195.287C198.186 195.689 198.052 196.092 197.784 196.629C197.382 197.301 196.443 197.703 195.773 197.435C195.505 197.301 195.237 197.301 194.969 197.166C194.835 197.166 194.701 197.166 194.701 197.301C194.567 197.435 194.701 197.435 194.835 197.569C195.103 197.703 195.371 197.703 195.639 197.838C195.773 197.838 195.773 197.972 195.639 197.972C195.371 198.106 195.103 198.375 194.969 198.509C194.835 198.643 194.701 198.643 194.835 198.777C194.969 198.912 195.103 198.777 195.103 198.777C195.371 198.509 195.773 198.24 196.041 197.972C196.175 197.838 196.309 197.838 196.309 197.838C196.711 197.838 197.113 197.569 197.516 197.301C197.784 197.166 197.918 196.898 198.186 196.629C198.32 196.495 198.32 196.361 198.454 196.227V196.092C198.588 195.018 198.32 194.481 197.382 194.078C197.113 193.944 196.711 193.81 196.711 193.541C196.711 192.87 196.443 192.333 196.041 191.93C196.041 191.93 196.041 191.93 195.907 191.93C195.505 191.796 195.103 191.662 194.567 191.662H194.433C193.897 191.662 193.226 191.259 193.226 190.856C193.226 190.856 193.092 190.856 193.092 190.722C192.69 190.185 192.02 189.916 191.216 190.185C190.948 190.319 190.948 190.319 190.948 189.916C190.814 189.782 190.948 189.648 190.814 189.514C190.68 189.379 190.814 189.245 191.082 189.245C192.422 188.976 193.494 189.245 194.299 190.185C194.567 190.453 194.701 190.856 194.835 191.125C194.835 191.259 194.969 191.259 194.969 191.259C195.103 191.259 195.103 191.125 195.103 190.99C195.103 190.856 195.103 190.856 194.969 190.722C194.969 190.588 194.969 190.453 195.103 190.453C195.773 190.453 196.309 190.588 196.711 190.856C197.113 191.125 197.516 191.393 197.65 191.93C197.65 191.93 197.65 191.93 197.784 191.93C197.918 192.333 198.052 192.87 197.918 193.407C197.918 193.541 197.918 193.676 197.918 193.676H198.052C198.052 193.676 198.186 193.676 198.186 193.541C198.186 193.541 198.186 193.541 198.186 193.407C198.186 193.273 198.186 193.139 198.186 193.004C198.186 192.87 198.186 192.87 198.32 192.87C198.722 193.139 199.124 193.407 199.258 193.81C199.526 193.944 199.526 194.213 199.526 194.481C199.794 195.555 199.258 197.032 198.186 197.838C197.784 198.106 197.516 198.375 197.113 198.509C196.979 198.509 196.845 198.643 196.845 198.777C196.845 198.912 196.979 198.912 197.113 198.777C197.248 198.777 197.382 198.643 197.516 198.643C197.918 198.375 198.32 198.106 198.588 197.838C198.856 198.777 198.722 199.717 198.186 200.523C197.113 202.134 194.969 202.805 193.494 202C192.824 201.731 192.422 201.194 192.154 200.523C192.154 200.389 192.154 200.254 191.886 200.389C191.752 200.523 191.752 200.523 191.752 200.657C193.36 201.865 193.494 202 193.628 202.268Z" fill="#37BFA7"/>
</g>
<g opacity="0.56">
<path opacity="0.56" d="M174.461 205.088C174.059 204.551 173.925 203.879 173.925 203.208C173.925 203.074 173.925 202.94 174.193 203.074C174.327 203.074 174.461 203.208 174.595 203.208C174.595 203.208 174.595 203.208 174.729 203.208C175.667 203.342 176.472 203.208 177.41 202.805C177.544 202.805 177.544 202.805 177.678 202.805C177.946 202.94 178.08 203.074 178.348 203.208C178.75 203.342 179.018 203.477 179.42 203.745C179.554 203.745 179.823 203.879 179.957 203.879C180.091 203.879 180.225 203.879 180.225 204.014C180.359 204.416 180.359 204.819 180.225 205.222C180.091 206.296 179.286 206.967 178.08 207.102C177.544 207.102 177.008 207.102 176.472 206.833C175.667 206.43 174.997 205.759 174.461 205.088Z" fill="#37BFA7"/>
</g>
<g opacity="0.56">
<path opacity="0.56" d="M179.287 208.31C179.018 208.444 178.884 208.578 178.75 208.713C178.482 209.116 178.348 209.518 178.08 209.787C178.08 209.921 177.946 209.921 177.812 209.921C177.276 209.653 176.74 209.653 176.07 209.653C175.936 209.653 175.936 209.653 175.802 209.653C175.936 209.384 176.07 209.116 176.338 208.981C176.338 208.847 176.472 208.847 176.472 208.713C176.606 208.31 177.008 207.907 177.142 207.504C177.142 207.37 177.276 207.37 177.276 207.37C177.946 207.37 178.482 207.236 179.152 206.967C179.287 206.833 179.555 206.699 179.689 206.565C179.823 206.43 179.823 206.43 179.957 206.565C180.091 206.699 180.359 206.699 180.493 206.699C180.895 206.699 180.895 206.833 180.627 207.102C180.359 207.504 179.957 208.041 179.287 208.31Z" fill="#37BFA7"/>
</g>
<g opacity="0.56">
<path opacity="0.56" d="M177.41 210.592C176.874 210.727 176.472 210.727 176.069 210.592C175.935 210.592 175.801 210.592 175.801 210.458C175.667 210.458 175.667 210.324 175.667 210.324C175.667 210.19 175.801 210.19 175.935 210.19C176.606 210.055 177.142 210.055 177.678 210.19C177.812 210.19 177.946 210.324 177.812 210.324C177.678 210.458 177.544 210.592 177.41 210.592Z" fill="#37BFA7"/>
</g>
</g>
<path d="M304.076 230.329C300.967 230.329 298.446 227.804 298.446 224.69C298.446 221.575 300.967 219.051 304.076 219.051C307.185 219.051 309.706 221.575 309.706 224.69C309.706 227.804 307.185 230.329 304.076 230.329Z" fill="#AAAFAE"/>
<path d="M351.793 322.431C354.474 322.431 357.155 321.357 359.434 319.209C368.012 311.019 368.146 279.871 363.187 269.399C358.361 259.463 350.319 247.917 350.051 247.514C349.247 246.306 347.772 245.634 346.432 245.769C344.957 240.398 342.545 235.699 338.926 231.806C326.594 218.38 306.22 219.991 305.416 219.991C303.138 220.125 301.529 222.139 301.663 224.421C301.797 226.704 303.808 228.315 306.086 228.181C306.354 228.181 323.377 226.972 333.028 237.445C339.06 244.023 341.07 254.093 338.926 267.385C332.492 306.992 341.338 318.001 347.102 321.089C348.442 322.029 350.051 322.431 351.793 322.431ZM347.638 258.926C350.185 262.954 353.402 268.19 355.68 272.889C359.97 281.751 358.629 308.468 353.67 313.167C352.732 314.107 351.659 314.242 350.721 313.839C346.834 311.825 341.741 300.01 346.834 268.727C347.236 265.371 347.638 262.148 347.638 258.926Z" fill="#C2CCC9"/>
<path d="M344.287 239.861C340.4 231.403 348.442 231.268 352.196 235.296C352.196 235.968 352.196 236.639 352.196 237.444C352.196 248.588 350.855 258.792 348.442 268.056C348.04 267.519 347.102 266.982 347.236 266.176C347.504 260 348.308 248.588 344.287 239.861Z" fill="#D8E5E1"/>
<defs>
<clipPath id="clip0">
<rect width="496" height="515" fill="white" transform="translate(0 348)"/>
</clipPath>
</defs>
</svg>
