<svg width="109" height="129" viewBox="0 0 109 129" fill="none" xmlns="http://www.w3.org/2000/svg">
<g clip-path="url(#clip0)">
<path d="M99.3214 52.2407C69.306 59.7201 39.5788 59.6626 9.50583 52.2407C9.50583 58.3968 9.44822 64.7256 9.50583 71.0543C9.62105 77.5556 9.333 84.1145 10.1972 90.5582C13.9419 118.807 44.2453 136.298 70.6887 125.711C88.5481 118.577 99.4366 102.525 99.4366 83.309C99.4366 73.7008 99.4366 64.1502 99.4366 54.5421C99.4366 53.6215 99.379 52.7585 99.3214 52.2407ZM33.3568 86.1857C28.0566 86.2432 21.6041 80.1446 21.5465 74.794C21.5465 73.931 22.4683 72.5502 23.2172 72.32C23.9086 72.0899 25.2912 72.9529 25.8097 73.7584C26.6739 74.9666 27.0196 76.5775 27.7685 77.8433C30.5915 82.561 35.2579 82.7336 38.2537 78.1309C39.1755 76.6926 39.6364 74.9666 40.6158 73.5858C41.0767 72.8954 42.4593 72.0324 42.9778 72.2625C43.7844 72.6077 44.7061 73.8159 44.7061 74.6789C44.7061 79.972 38.5418 86.0706 33.3568 86.1857ZM59.7426 97.8075C56.6892 98.8431 53.5206 99.591 50.2944 100.109C47.9324 100.512 47.0106 99.0157 47.7595 96.0815C48.9117 91.2486 50.1792 86.4733 51.389 81.698C51.6195 80.7775 51.8499 79.8569 52.138 78.9364C52.5989 77.3255 53.5782 76.1173 55.1913 76.9803C55.9979 77.4405 56.7468 79.1665 56.574 80.1446C55.8251 84.0569 54.6728 87.9117 53.6935 91.7664C53.463 92.5719 53.2902 93.4349 53.0597 94.6431C55.249 94.1829 56.9773 93.55 58.7632 93.4925C59.6274 93.4349 61.2981 94.413 61.2981 94.9308C61.2981 95.9664 60.5492 97.5774 59.7426 97.8075ZM75.9313 86.1857C70.5735 86.2432 64.1787 80.0871 64.1787 74.6789C64.1787 73.8159 65.158 72.6077 65.9646 72.205C66.4831 71.9748 67.8658 72.7803 68.3843 73.4707C69.3636 74.9666 69.9398 76.7501 70.8615 78.3035C73.3964 82.3309 77.7749 82.5035 80.4826 78.6487C81.6348 77.0378 82.2685 75.0241 83.3631 73.4132C83.824 72.7228 85.1491 72.0324 85.8404 72.2625C86.5893 72.4926 87.5111 73.7008 87.5111 74.5063C87.7992 79.6843 81.3467 86.1281 75.9313 86.1857Z" fill="white"/>
<path d="M71.15 44.9914C71.2076 47.2928 70.113 48.2709 67.8086 48.2709C58.8789 48.2133 49.9492 48.2709 41.0195 48.2709C38.8879 48.2709 37.7933 47.2928 37.8509 45.164C37.9085 43.3805 37.8509 41.5969 37.8509 39.4106C27.9418 40.6764 18.2055 40.7339 8.75732 46.1421C11.0618 47.2352 12.5596 48.2133 14.1728 48.6161C19.1273 49.7667 24.0818 51.2626 29.0364 51.5503C40.9043 52.2982 52.7721 52.816 64.64 52.701C74.8947 52.5859 85.0919 51.4352 94.9434 48.3284C96.4989 47.8106 97.9391 46.89 100.128 45.8544C90.5649 41.0216 80.9439 40.6189 71.0348 39.4682C71.15 41.5969 71.15 43.2654 71.15 44.9914Z" fill="white"/>
<path d="M60.8951 14.7286C56.5167 14.7286 52.5416 14.7286 48.1631 14.7286C46.9533 17.6629 45.513 20.9998 43.9575 24.5669C51.1589 24.5669 57.8994 24.5669 65.0431 24.5669C63.5453 20.9423 62.105 17.6053 60.8951 14.7286Z" fill="white"/>
<path d="M47.2412 29.3998C45.6857 29.3998 44.3607 29.3998 42.8052 29.3998C42.8052 34.2902 42.8052 38.8929 42.8052 43.4956C44.4183 43.4956 45.8009 43.4956 47.2412 43.4956C47.2412 38.6627 47.2412 34.06 47.2412 29.3998Z" fill="white"/>
<path d="M61.7593 43.438C63.3724 43.438 64.755 43.438 66.1953 43.438C66.1953 38.6627 66.1953 34.06 66.1953 29.3998C64.6398 29.3998 63.3148 29.3998 61.7593 29.3998C61.7593 34.2326 61.7593 38.8353 61.7593 43.438Z" fill="white"/>
<path d="M56.6892 43.4956C56.6892 38.7778 56.6892 34.1751 56.6892 29.5148C55.1337 29.5148 53.8087 29.5148 52.426 29.5148C52.426 34.2901 52.426 38.8928 52.426 43.4956C53.9239 43.4956 55.249 43.4956 56.6892 43.4956Z" fill="white"/>
<path d="M4.49394 82.7911C4.49394 77.0377 4.49394 71.6296 4.49394 66.1063C-1.03672 68.2926 -1.95849 79.1665 4.49394 82.7911Z" fill="white"/>
<path d="M104.276 65.7612C104.276 71.6296 104.276 77.0953 104.276 83.1364C108.539 80.2022 109.461 76.52 108.827 72.2625C108.424 69.4433 107.157 67.142 104.276 65.7612Z" fill="white"/>
<path d="M54.5003 0C53.0024 3.50956 51.7349 6.32872 50.2371 9.83828C53.2904 9.83828 55.8829 9.83828 58.8211 9.83828C57.2656 6.32872 55.9982 3.45203 54.5003 0Z" fill="white"/>
</g>
<defs>
<clipPath id="clip0">
<rect width="109" height="128.818" fill="white"/>
</clipPath>
</defs>
</svg>
