<svg width="130" height="156" viewBox="0 0 130 156" fill="none" xmlns="http://www.w3.org/2000/svg">
<path d="M11.4364 65.3907C11.4364 78.0852 11.3658 91.0573 11.5069 103.96C11.5069 107.082 11.7892 110.203 12.4244 113.255C19.2702 143.57 49.6878 161.467 79.9643 153.004C100.29 147.316 115.252 130.875 117.651 111.382C119.486 96.1213 118.71 80.5132 119.063 65.3213C82.7167 74.0618 47.1471 74.1312 11.4364 65.3907ZM39.6662 105.209C33.3851 105.278 25.3396 97.4393 25.6219 91.4041C25.6925 90.5023 26.6805 89.0456 27.3862 88.8375C28.3743 88.6294 29.8564 89.3231 30.5621 90.0861C31.4796 91.196 31.8324 92.7915 32.5382 94.1095C34.0203 97.0231 36.0669 99.5897 39.6662 99.5203C43.195 99.451 45.3122 97.0231 46.7237 94.0402C47.3589 92.6528 47.7117 91.1267 48.6292 90.0168C49.1938 89.2537 50.817 88.4906 51.5228 88.8375C52.4402 89.2537 53.5694 90.6411 53.5694 91.6123C53.7106 97.578 45.8062 105.139 39.6662 105.209ZM78.2705 88.9068C79.0469 88.6294 80.7407 89.3924 81.3758 90.1555C82.2933 91.2654 82.6462 92.7915 83.2813 94.1789C84.6928 97.1618 86.8807 99.5204 90.4094 99.5897C93.6558 99.6591 95.7025 97.3699 97.1845 94.8032C97.9609 93.5546 98.1726 91.8204 99.0901 90.7798C99.937 89.8086 101.419 89.4618 102.619 88.7681C103.183 89.9474 104.313 91.3348 104.101 92.3753C102.619 99.5203 96.3377 105.209 90.4094 105.209C84.2694 105.209 76.5768 97.9249 76.4356 91.751C76.4356 90.7798 77.4237 89.1843 78.2705 88.9068ZM67.4726 97.8555C66.5552 102.711 65.2142 107.498 64.0145 112.354C63.8027 113.117 63.7322 113.88 63.5205 115.198C65.92 114.573 67.7549 113.741 69.5193 113.741C70.7191 113.741 71.9188 114.92 73.1186 115.545C72.4129 116.655 71.9188 118.528 70.9308 118.874C67.4021 120.054 63.7322 120.955 60.0623 121.649C57.451 122.135 56.1101 120.47 56.6747 118.181C58.3685 110.897 60.274 103.613 62.3913 96.3987C62.6736 95.4276 64.5791 95.0113 65.7788 94.3176C66.414 95.4969 67.6844 96.8149 67.4726 97.8555Z" fill="#FF8D6C"/>
<path d="M55.8984 48.1868C57.5922 55.4013 58.1568 55.2625 65.5671 55.2625C66.414 55.2625 67.2609 55.1238 68.0372 55.2625C70.7897 55.7481 72.2011 54.4301 72.7657 52.0022C74.4595 45.5508 76.365 39.1688 77.6354 32.6481C78.6234 27.4454 78.8352 22.0346 79.3998 16.5544C69.5193 16.5544 60.4152 16.5544 51.0993 16.5544C50.9582 17.595 50.6759 18.4968 50.817 19.3986C52.5108 28.9715 53.64 38.6833 55.8984 48.1868ZM65.1437 27.6535C66.1317 27.5842 67.1903 28.9715 68.8841 30.1508C67.1198 31.3995 65.92 32.8562 65.1437 32.6481C64.0145 32.3706 63.2382 30.8445 62.3207 29.8733C63.2382 29.1103 64.1556 27.7229 65.1437 27.6535ZM65.0025 38.7526C65.9906 38.6833 67.1198 40.0013 68.8841 41.1112C67.1903 42.4292 66.0612 43.8859 65.2143 43.7472C64.1556 43.5391 63.2382 42.0823 62.3207 41.1112C63.2382 40.3481 64.0851 38.822 65.0025 38.7526Z" fill="#FF8D6C"/>
<path d="M96.1256 54.2222C96.055 60.7429 96.055 60.7429 89.421 60.7429C72.9771 60.7429 56.4627 60.7429 40.0188 60.7429C34.1611 60.7429 34.0199 60.5348 33.9493 54.9852C33.9493 53.9447 33.8788 52.9735 33.8082 51.6555C25.9744 52.6961 18.2818 53.3898 10.7303 58.1762C13.1298 59.2861 14.5413 60.2573 16.0234 60.6042C21.5988 61.9222 27.1742 63.4483 32.8201 64.2114C49.9698 66.5699 67.3311 67.0555 84.5514 65.46C94.2201 64.5582 103.748 62.4771 113.275 60.7429C115.181 60.396 116.804 59.078 119.345 57.8294C111.511 53.5979 103.959 52.7654 96.1256 51.6555C96.1256 52.9042 96.1256 53.5285 96.1256 54.2222Z" fill="#FF8D6C"/>
<path d="M90.4799 54.9852C90.4799 51.4474 90.1976 48.1176 90.5505 44.8573C91.1856 39.4465 88.1509 36.6024 83.8459 34.4519C82.0109 41.3195 80.176 48.0483 78.2705 54.9852C82.3638 54.9852 86.2454 54.9852 90.4799 54.9852Z" fill="#FF8D6C"/>
<path d="M51.7344 55.0546C49.8994 48.1176 48.0645 41.3194 45.9473 33.4807C43.5477 36.1861 40.4424 38.1978 39.9484 40.6258C39.0309 45.2735 39.6661 50.1987 39.6661 55.0546C43.9712 55.0546 47.7822 55.0546 51.7344 55.0546Z" fill="#FF8D6C"/>
<path d="M66.0612 0.322399C65.5672 0.114291 64.8614 -0.0938164 64.438 0.0449222C59.4272 2.19537 55.5456 5.5251 52.7932 10.6584C61.1915 10.6584 68.9547 10.6584 77.1414 10.6584C74.6007 5.73321 70.8603 2.47285 66.0612 0.322399Z" fill="#FF8D6C"/>
<path d="M0.21483 93.7625C0.638278 96.9535 2.19092 99.6589 5.5785 101.185C5.5785 94.3868 5.5785 88.0048 5.5785 80.9985C0.355979 84.3976 -0.490916 88.9066 0.21483 93.7625Z" fill="#FF8D6C"/>
<path d="M124.567 81.2761C124.567 88.0743 124.567 94.595 124.567 101.116C131.272 98.6184 132.331 85.3689 124.567 81.2761Z" fill="#FF8D6C"/>
</svg>
