<svg width="2102" height="736" viewBox="0 0 2102 736" fill="none" xmlns="http://www.w3.org/2000/svg">
<mask id="mask0" mask-type="alpha" maskUnits="userSpaceOnUse" x="0" y="0" width="2102" height="736">
<rect width="2102" height="736" fill="url(#paint0_linear)"/>
</mask>
<g mask="url(#mask0)">
<rect width="2102" height="736" fill="#75417B"/>
<path d="M489.498 897.987C483.527 897.987 478.586 893.046 478.586 887.075V723.598C478.586 717.628 483.527 712.686 489.498 712.686C495.469 712.686 500.41 717.628 500.41 723.598V887.075C500.41 893.046 495.469 897.987 489.498 897.987Z" fill="#C2CCC9"/>
<path d="M349.081 897.987C343.11 897.987 338.169 893.046 338.169 887.075V723.598C338.169 717.628 343.11 712.686 349.081 712.686C355.052 712.686 359.993 717.628 359.993 723.598V887.075C359.993 893.046 355.258 897.987 349.081 897.987Z" fill="#C2CCC9"/>
<path d="M555.589 497.532C554.765 497.532 554.147 497.532 553.941 497.532C547.971 497.326 543.235 492.179 543.441 486.208C543.647 480.237 548.794 475.502 554.765 475.707C558.059 475.707 631.974 477.149 666.151 401.587C668.622 396.028 675.21 393.558 680.564 396.234C686.123 398.705 688.593 405.293 685.917 410.646C648.239 494.032 568.354 497.532 555.589 497.532Z" fill="#C2CCC9"/>
<path d="M211.753 628.066C206.194 628.066 201.458 623.948 200.841 618.183C191.164 521.003 268.166 478.384 271.461 476.737C276.814 473.854 283.402 475.913 286.285 481.266C289.167 486.62 287.108 493.208 281.755 496.091C279.079 497.738 214.429 533.768 222.665 616.124C223.283 622.095 218.959 627.448 212.782 628.066C212.576 628.066 212.164 628.066 211.753 628.066Z" fill="#C2CCC9"/>
<path d="M546.735 444.618C538.911 426.294 535.411 418.264 535.411 398.293V398.087C535.411 396.028 535.411 393.763 535.411 391.499C535 317.79 482.292 258.288 417.231 258.288C352.17 258.288 299.256 317.79 298.844 391.499C298.844 393.763 298.844 396.028 298.844 398.087V398.293C298.844 416 296.168 424.235 290.197 438.442C312.639 453.883 353.199 471.796 421.554 471.796C480.851 471.796 521.205 458.207 546.735 444.618Z" fill="#37BFA7"/>
<path d="M571.236 509.473C571.236 509.268 571.03 509.062 571.03 508.856C560.324 476.325 552.294 457.795 546.529 444.412C520.999 458.001 480.645 471.384 421.554 471.384C353.199 471.384 312.639 453.472 290.197 438.03C284.638 451.207 276.196 469.531 264.255 505.356C262.196 511.532 259.931 518.533 257.666 525.945C252.931 543.239 250.46 561.564 250.46 580.711C250.46 684.891 324.992 735.334 417.025 735.334C509.057 735.334 583.589 684.891 583.589 580.711C583.589 560.534 580.913 541.386 575.766 523.268C574.324 518.533 572.883 514.003 571.236 509.473Z" fill="#D8E5E1"/>
<path d="M421.554 478.59C339.61 478.59 288.55 445.648 286.491 444.207C283.402 442.148 282.373 437.824 284.638 434.736C286.697 431.647 291.02 430.618 294.109 432.883C294.726 433.295 344.14 465.002 421.76 465.002C499.792 465.002 542.823 439.265 543.235 439.059C546.529 437.001 550.647 438.03 552.706 441.324C554.765 444.618 553.735 448.736 550.441 450.795C548.382 451.619 503.498 478.59 421.554 478.59Z" fill="#C2CCC9"/>
<path d="M390.465 278.465C387.994 278.465 385.729 276.818 385.111 274.142C385.111 273.936 378.935 248.405 366.581 238.523C364.317 236.67 363.905 233.17 365.758 230.905C367.611 228.64 371.111 228.228 373.376 230.081C388.817 242.435 395.406 270.642 395.612 271.877C396.229 274.759 394.376 277.848 391.494 278.465C391.288 278.465 390.876 278.465 390.465 278.465Z" fill="#F74442"/>
<path d="M405.289 265.906C402.406 265.906 399.936 263.641 399.73 260.553C399.73 259.523 399.112 234.405 401.583 221.434C402.2 218.551 405.083 216.492 407.965 217.11C410.848 217.728 412.907 220.61 412.289 223.493C410.024 235.228 410.642 259.935 410.642 260.141C410.642 263.229 408.377 265.906 405.289 265.906Z" fill="#F74442"/>
<path d="M420.113 278.465C417.642 278.465 415.378 276.818 414.76 274.347C414.142 272.083 409.613 251.494 418.054 239.758C421.348 235.228 426.084 232.552 432.055 232.14C435.143 231.934 437.82 234.199 438.025 237.081C438.231 240.17 435.966 242.846 433.084 243.052C430.407 243.258 428.554 244.287 427.113 246.14C422.378 252.523 424.437 267.141 425.672 271.671C426.29 274.553 424.643 277.642 421.554 278.259C420.937 278.465 420.525 278.465 420.113 278.465Z" fill="#F74442"/>
<path d="M455.732 400.558C455.732 407.146 452.438 412.911 447.496 416.411C447.496 416.411 447.291 416.617 446.879 416.823C444.408 418.47 433.702 425.264 417.848 425.47H416.407C400.348 425.264 389.641 418.676 387.377 416.823C386.965 416.617 386.759 416.411 386.759 416.411C381.818 412.911 378.523 407.146 378.523 400.558C378.523 389.851 387.171 381.204 397.877 381.204C401.995 381.204 405.701 382.439 408.789 384.704C408.789 384.704 408.789 384.704 408.995 384.91C409.819 385.322 412.083 386.763 417.025 386.763C421.966 386.763 424.437 385.322 425.055 384.91C425.26 384.704 425.26 384.704 425.26 384.704C428.349 382.645 432.055 381.204 436.173 381.204C447.085 381.204 455.732 389.851 455.732 400.558Z" fill="black"/>
<path d="M461.085 375.233C440.084 375.233 422.996 358.145 422.996 337.144C422.996 316.143 440.084 299.054 461.085 299.054C482.086 299.054 499.175 316.143 499.175 337.144C499.175 358.145 482.086 375.233 461.085 375.233ZM461.085 307.084C444.614 307.084 431.231 320.467 431.231 336.938C431.231 353.409 444.614 366.792 461.085 366.792C477.556 366.792 490.939 353.409 490.939 336.938C490.939 320.467 477.556 307.084 461.085 307.084Z" fill="#D8E5E1"/>
<path d="M380.171 356.703C385.401 356.703 389.642 350.896 389.642 343.732C389.642 336.569 385.401 330.761 380.171 330.761C374.94 330.761 370.7 336.569 370.7 343.732C370.7 350.896 374.94 356.703 380.171 356.703Z" fill="black"/>
<path d="M376.052 375.233C355.052 375.233 337.963 358.145 337.963 337.144C337.963 316.143 355.052 299.054 376.052 299.054C397.053 299.054 414.142 316.143 414.142 337.144C414.142 358.145 397.053 375.233 376.052 375.233ZM376.052 307.084C359.581 307.084 346.198 320.467 346.198 336.938C346.198 353.409 359.581 366.792 376.052 366.792C392.524 366.792 405.906 353.615 405.906 337.144C405.906 320.673 392.524 307.084 376.052 307.084Z" fill="#D8E5E1"/>
<path d="M461.085 356.703C466.315 356.703 470.556 350.896 470.556 343.732C470.556 336.569 466.315 330.761 461.085 330.761C455.854 330.761 451.614 336.569 451.614 343.732C451.614 350.896 455.854 356.703 461.085 356.703Z" fill="black"/>
<g opacity="0.56">
<path opacity="0.56" d="M527.679 547.41C538.846 536.711 537.376 517.056 524.397 503.508C511.417 489.959 491.842 487.649 480.676 498.348C469.509 509.046 470.978 528.702 483.958 542.25C496.937 555.798 516.512 558.108 527.679 547.41Z" fill="#EBEDED"/>
<path opacity="0.56" d="M510.087 555.799C492.587 555.799 475.292 541.18 471.998 523.062C470.351 513.797 472.204 505.356 477.557 498.973C482.498 493.002 489.91 489.708 498.352 489.708C515.852 489.708 533.147 504.326 536.441 522.444C538.088 531.71 536.235 540.151 530.882 546.534C525.941 552.504 518.529 555.799 510.087 555.799ZM498.146 493.414C490.94 493.414 484.557 496.297 480.233 501.444C475.704 507.003 474.057 514.415 475.498 522.444C478.586 538.71 494.028 552.093 509.882 552.093C517.088 552.093 523.47 549.21 527.794 544.063C532.323 538.504 533.971 531.092 532.529 523.062C529.441 506.797 513.999 493.414 498.146 493.414Z" fill="#37BFA7"/>
</g>
<g opacity="0.56">
<g opacity="0.56">
<path opacity="0.56" d="M505.352 533.769C506.175 533.974 506.999 533.769 507.616 533.563C507.822 533.563 508.028 533.563 508.028 533.357C508.646 533.357 509.263 532.945 509.675 532.739C510.705 532.121 511.322 531.092 511.734 530.063C511.94 529.445 512.146 528.621 511.94 528.004C511.94 527.798 511.94 527.592 512.146 527.592C512.352 527.592 512.352 527.798 512.352 528.004C512.352 528.415 512.352 528.621 512.352 529.033C512.352 529.239 512.352 529.445 512.764 529.239C513.175 529.239 513.793 529.239 514.205 529.033C514.411 529.033 514.617 529.033 514.823 528.827C515.028 528.827 515.028 528.827 515.234 528.827H515.44C515.852 528.827 515.852 528.621 516.058 528.415C516.264 528.004 516.264 527.592 516.264 526.974C516.264 526.562 516.47 525.945 516.264 525.533C516.058 525.533 516.058 525.533 516.058 525.739C515.028 526.356 513.587 526.768 512.352 526.974C511.528 526.974 510.499 526.974 509.675 526.974C509.058 526.974 509.058 526.974 509.263 527.386C509.263 527.798 509.263 528.415 509.263 528.827C509.058 529.651 508.646 530.063 508.234 530.68C508.234 530.68 508.234 530.68 508.028 530.886C507.411 531.298 506.793 531.504 506.175 531.504C505.969 531.504 505.969 531.504 505.969 531.71C505.969 532.121 505.763 532.533 505.763 532.945C505.557 533.151 505.352 533.563 505.146 533.769C505.146 533.769 504.94 533.769 505.146 533.974C505.146 533.769 505.352 533.769 505.352 533.769Z" fill="#37BFA7"/>
</g>
<g opacity="0.56">
<path opacity="0.56" d="M513.998 533.357C514.204 533.151 514.822 533.357 514.41 532.74C513.998 531.71 513.793 530.886 513.998 530.063C513.998 529.857 513.998 529.651 513.793 529.857C513.587 529.857 513.175 529.857 512.969 529.857C512.763 529.857 512.557 529.857 512.557 530.063C512.351 530.886 511.939 531.71 511.116 532.328C510.91 532.534 510.91 532.74 511.322 532.74C512.145 533.357 512.969 533.357 513.998 533.357Z" fill="#37BFA7"/>
</g>
<g opacity="0.56">
<path opacity="0.56" d="M500.822 533.357C500.822 533.357 501.027 533.563 500.822 533.357C501.851 533.769 502.469 533.974 503.292 533.769C504.528 533.563 505.145 532.739 505.557 531.71C505.557 531.504 505.557 531.298 505.145 531.092C504.733 531.092 504.528 531.092 504.116 530.886C503.91 530.886 503.704 530.68 503.91 530.474C503.91 530.268 504.116 530.268 504.322 530.268C504.528 530.268 504.733 530.474 504.939 530.474H505.145C505.557 530.68 505.969 530.68 506.175 530.474C507.204 530.268 507.822 530.063 508.439 529.239C508.645 529.239 508.645 529.033 508.645 528.827C509.057 528.415 509.057 527.798 509.057 527.18C509.057 526.357 509.057 526.356 508.028 525.945C507.616 525.739 507.41 525.739 507.616 525.327C507.616 525.327 507.616 525.327 507.822 525.327C508.028 525.327 508.028 525.327 508.234 525.533C509.263 525.945 510.292 526.151 511.322 526.151H511.528H511.734C513.793 526.151 515.44 525.533 516.881 524.503C517.499 524.092 517.91 523.68 518.322 523.062C518.734 522.65 518.94 522.239 519.146 521.621C519.146 521.621 519.146 521.621 519.352 521.621C520.175 519.356 520.175 516.886 518.734 514.209C518.734 514.003 518.528 514.003 518.322 513.797C517.704 513.591 516.881 513.591 516.263 513.797C516.057 513.797 516.057 513.797 515.851 513.797C513.998 514.209 512.969 516.062 513.381 518.121C513.381 518.327 513.587 518.327 513.793 518.533C514.41 518.739 514.822 518.944 515.234 519.15C515.44 519.356 515.44 519.356 515.44 519.562C515.44 519.562 515.44 519.562 515.234 519.768C515.028 519.768 514.822 519.768 514.616 519.562C514.204 519.356 513.587 518.944 513.175 518.944C511.322 518.533 509.881 519.356 509.469 521.003C509.469 521.209 509.675 521.415 509.881 521.415C510.498 521.621 510.91 521.827 511.322 522.239C511.528 522.445 511.734 522.65 511.528 522.856C511.322 522.856 511.116 522.856 510.91 522.65C510.704 522.445 510.498 522.239 510.292 522.239C509.263 521.621 508.234 521.415 507.204 521.621C506.381 521.827 505.763 522.033 505.145 522.65C504.733 522.856 504.733 523.062 504.528 523.268C504.322 523.474 504.322 523.68 504.322 523.886C504.116 524.092 504.116 524.298 504.116 524.298C503.91 525.121 504.116 525.945 504.322 526.768C504.322 526.974 504.528 527.18 504.322 527.18C504.116 527.386 503.91 527.18 503.91 527.18C503.91 526.974 503.704 526.768 503.704 526.768C503.704 526.562 503.704 526.562 503.704 526.356C503.498 525.533 503.498 525.533 502.675 525.533C501.439 525.533 500.616 525.945 499.998 526.768C499.998 526.768 499.792 526.768 499.792 526.974C499.586 527.18 499.586 527.18 499.38 527.386C499.174 527.592 498.969 528.004 498.969 528.21C498.557 529.033 498.557 530.063 498.969 531.092C498.969 531.092 498.969 531.092 498.969 531.298C499.174 532.327 499.792 532.945 500.822 533.357ZM500.822 530.268C501.027 530.063 501.439 529.857 501.439 529.239C501.851 528.621 502.263 528.004 503.292 528.004C503.704 528.004 504.116 528.004 504.528 528.004C504.939 528.21 505.351 528.21 505.557 528.004C505.557 528.004 505.557 528.004 505.763 528.004C506.381 527.592 506.586 527.18 506.175 526.356C505.351 524.092 507.204 522.856 509.057 523.474C509.675 523.68 510.292 523.68 510.704 523.68H510.91C511.322 523.68 511.734 523.68 512.145 523.474C512.351 523.474 512.557 523.474 512.763 523.268C513.381 523.268 513.998 522.856 514.41 522.65C515.646 521.827 516.469 520.797 516.881 519.356C517.087 518.739 517.087 518.121 516.469 517.503C516.057 517.091 515.646 516.886 515.44 516.268C515.646 516.268 515.646 516.268 515.851 516.268C516.263 516.68 516.469 517.091 516.881 517.503C517.087 517.709 517.293 517.709 517.293 517.503C517.499 517.091 517.499 516.886 517.704 516.474C517.704 516.268 517.91 516.062 518.116 516.268C518.322 516.474 518.322 516.68 518.322 516.68V516.886C518.322 517.091 518.116 517.091 518.116 517.297C517.91 517.503 517.91 517.709 517.91 517.915C517.499 518.327 517.704 518.944 517.499 519.562C517.293 519.768 517.499 519.768 517.293 519.974C517.087 520.386 516.881 521.003 516.675 521.415C516.469 521.621 516.263 521.827 516.263 522.033C516.057 522.239 515.851 522.445 515.646 522.65C515.234 523.062 514.616 523.268 513.998 523.68H513.793C513.381 523.886 512.763 523.886 512.351 524.092H512.145C510.91 524.092 509.675 524.092 508.439 523.886C507.204 523.68 506.381 524.709 506.586 525.945C506.792 526.562 506.998 527.386 506.792 528.004C506.175 528.827 505.351 528.827 504.116 528.621C503.292 528.415 502.469 528.827 502.263 529.445C502.263 529.651 502.263 529.857 502.263 530.063C502.263 530.268 502.469 530.268 502.469 530.474C502.469 530.886 502.88 531.092 502.88 531.504C502.88 531.71 503.292 531.916 502.88 532.121C502.469 532.327 502.469 531.916 502.263 531.71C502.263 531.71 502.263 531.71 502.263 531.504C502.057 531.092 502.057 530.886 501.851 530.474C501.645 530.268 501.645 530.268 501.439 530.474C501.233 530.68 500.822 531.092 500.616 531.298C500.41 531.504 500.41 531.504 499.998 531.504C499.998 531.504 499.998 531.298 499.792 531.298C500.41 530.886 500.616 530.68 500.822 530.268Z" fill="#37BFA7"/>
</g>
<g opacity="0.56">
<path opacity="0.56" d="M502.675 523.268C502.675 523.268 502.675 523.474 502.881 523.474C503.087 523.68 503.293 524.092 503.499 524.298C503.499 524.092 503.704 524.092 503.704 523.886C503.704 523.68 503.91 523.68 503.91 523.474C504.116 523.268 504.116 523.062 504.116 522.856C504.116 522.856 504.116 522.856 504.322 522.65C504.94 521.827 505.763 521.415 506.587 521.209H506.793C507.205 521.209 507.616 521.209 507.822 521.209C508.44 521.209 508.852 521.209 508.852 520.592V520.386C509.469 519.15 510.293 518.533 511.94 518.533C512.352 518.533 512.558 518.327 512.352 517.915C512.146 517.297 512.352 516.885 512.352 516.474C512.764 514.415 514.822 512.974 517.293 513.179C517.499 513.179 517.499 513.179 517.705 513.179C517.705 512.974 517.705 512.974 517.499 512.768C516.675 511.532 515.44 510.503 514.205 509.679C511.322 507.826 508.234 507.209 505.352 507.826C503.91 508.238 502.675 508.856 501.646 509.885C501.234 510.297 500.616 510.915 500.41 511.532C500.204 511.532 500.204 511.738 500.204 511.944C500.204 511.944 500.204 511.944 500.204 512.15C499.998 512.15 499.998 512.356 499.998 512.562C499.793 512.974 499.793 513.385 499.587 513.797C499.175 515.65 499.587 517.297 500.204 519.15C500.41 519.562 500.616 519.768 501.028 519.974C501.234 520.386 501.646 520.592 502.057 520.797C502.263 521.003 502.469 521.003 502.263 521.209C502.057 521.415 501.851 521.209 501.646 521.209C501.646 521.209 501.44 521.209 501.44 521.003C501.234 520.797 501.028 520.592 500.822 520.592C501.234 521.209 501.44 521.827 501.851 522.239C501.851 522.239 501.851 522.239 501.851 522.445C502.469 522.856 502.469 523.062 502.675 523.268ZM501.44 514.621C501.646 513.797 501.851 513.179 502.263 512.356C502.675 511.944 503.087 511.326 503.499 510.915C504.322 510.297 505.352 509.679 506.381 509.473C506.587 509.473 506.587 509.473 506.793 509.473C507.205 509.473 507.41 509.473 507.616 509.473C509.263 509.473 510.705 509.679 512.352 510.297C512.558 510.503 512.764 510.503 512.764 510.503C512.764 510.709 512.969 510.709 513.175 510.709C513.793 510.709 514.411 510.915 515.028 510.915C515.44 510.915 515.646 511.121 515.44 511.532C515.44 511.532 515.44 511.532 515.234 511.532C514.617 511.532 514.205 511.326 513.587 511.326C513.381 511.326 513.175 511.326 513.381 511.532C513.587 511.944 513.793 512.356 513.999 512.768C513.999 512.974 514.205 513.179 513.999 513.179C513.793 513.179 513.587 512.974 513.587 512.974C513.381 512.768 513.381 512.562 513.175 512.356C513.175 512.356 513.175 512.15 512.969 512.15C512.764 511.532 512.558 511.121 511.94 510.915C510.293 510.297 508.646 509.885 507.205 510.091C504.528 510.503 502.881 511.944 502.263 514.415C502.057 515.444 502.057 516.474 502.469 517.503V517.709C502.675 518.533 502.881 519.15 503.499 519.768C504.528 520.797 506.175 520.797 506.587 519.562C506.999 518.738 506.587 517.709 505.352 517.091C505.146 516.68 504.734 516.474 504.528 516.062C504.528 515.856 504.322 515.65 504.322 515.65C504.322 515.238 504.322 514.621 504.322 514.209V514.003C504.734 513.385 505.352 512.974 506.175 512.768C506.793 512.768 507.205 512.768 507.822 512.974C508.234 513.179 508.646 513.591 509.058 513.797C509.469 514.003 510.087 514.209 510.499 514.209C510.705 514.415 510.705 514.415 510.911 514.415C511.116 514.415 511.322 514.621 511.322 514.827C511.322 515.033 511.116 515.032 510.911 515.032C510.499 514.827 510.087 514.827 509.469 514.621C509.263 514.621 509.263 514.621 509.263 514.827C509.469 515.238 509.675 515.856 509.675 516.268C509.675 516.474 509.675 516.474 509.469 516.474C509.263 516.474 509.263 516.474 509.058 516.268C509.058 516.062 508.852 516.062 508.852 515.856C508.852 515.856 508.852 515.856 508.852 515.65C508.852 515.238 508.44 514.621 508.44 514.209C508.44 514.209 508.44 514.003 508.234 514.003C507.616 513.385 506.793 513.179 505.969 513.385C505.146 513.591 504.734 514.003 504.734 514.827V515.032C504.734 515.65 504.94 516.474 505.763 516.886C506.587 517.503 507.205 518.327 507.205 519.356V519.562C507.205 519.974 506.793 520.386 506.587 520.797C506.175 521.003 505.763 521.209 505.352 521.209C504.116 521.209 503.087 520.592 502.469 519.356C501.646 517.503 501.44 516.062 501.44 514.621Z" fill="#37BFA7"/>
</g>
<g opacity="0.56">
<path opacity="0.56" d="M526.352 523.886C526.352 522.033 525.323 520.592 523.676 519.562C523.47 519.356 523.264 519.356 523.264 519.768C523.264 520.386 523.058 520.797 522.646 521.209C522.44 521.415 522.44 521.827 522.029 521.621C521.617 521.415 522.029 521.209 522.029 521.003C522.852 519.562 522.852 518.121 521.823 516.474C521.205 515.65 520.587 515.033 519.558 514.415C519.558 514.415 519.558 514.415 519.352 514.415C519.146 514.209 518.94 514.209 518.94 514.209C518.734 514.209 518.94 514.415 518.94 514.621C519.352 515.444 519.558 516.268 519.764 517.091C519.97 518.739 519.97 520.18 519.352 521.621C519.146 521.827 519.146 522.033 519.146 522.239C518.528 523.268 517.911 524.092 517.087 524.709C517.087 524.709 516.881 524.915 517.087 524.915C517.293 525.945 517.087 526.974 516.881 528.209C517.705 527.798 518.528 527.386 519.146 526.768C519.352 526.562 519.764 526.356 519.97 526.151C520.176 526.151 520.176 526.151 520.176 525.945C520.587 525.533 520.999 525.121 521.205 524.709C521.205 524.503 521.205 524.503 521.205 524.298C520.999 523.886 520.793 523.268 520.587 522.856C520.381 522.445 520.587 522.445 520.999 522.445C520.999 522.445 520.999 522.445 520.999 522.65C521.205 523.062 521.205 523.68 521.411 524.092C521.411 524.298 521.617 524.298 521.823 524.298C522.234 524.092 522.44 523.886 522.852 523.68C523.264 523.474 523.264 523.474 523.47 523.886C522.235 524.503 521.411 525.533 520.587 526.562C520.381 526.562 520.381 526.768 520.381 526.974C520.381 526.974 520.381 526.974 520.176 527.18C519.97 527.386 519.764 527.592 519.558 527.798C519.352 528.004 519.558 528.004 519.764 528.004C520.999 528.415 522.029 528.621 523.058 528.415C523.264 528.415 523.264 528.415 523.47 528.415C523.882 528.415 524.088 528.209 524.499 528.004C525.735 526.768 526.352 525.533 526.352 523.886Z" fill="#37BFA7"/>
</g>
<g opacity="0.56">
<path opacity="0.56" d="M494.027 527.18C493.821 527.386 494.027 527.386 494.233 527.592C495.469 528.003 496.91 528.209 498.145 528.003C498.351 528.003 498.557 528.003 498.557 527.797C498.763 527.592 498.763 527.18 499.175 526.974C499.381 526.768 499.381 526.768 499.175 526.562C498.763 526.15 498.145 525.533 497.733 525.121C497.733 524.915 497.527 524.915 497.527 524.709C497.527 524.709 497.527 524.709 497.527 524.503C497.322 524.091 497.116 523.68 496.704 523.474C496.704 523.268 496.498 523.268 496.292 523.062C495.674 522.856 495.263 522.65 494.645 522.444C494.645 522.444 494.645 522.444 494.439 522.444C494.233 522.238 494.027 522.238 494.027 522.033C494.027 521.827 494.439 521.827 494.645 522.033C495.057 522.238 495.469 522.444 495.88 522.65C496.086 522.856 496.086 522.65 496.086 522.444C496.086 522.033 495.88 521.621 495.88 521.003C495.88 520.797 495.88 520.591 496.086 520.591H496.292C496.498 520.797 496.498 521.003 496.498 521.209C496.704 521.827 496.498 522.444 496.91 523.062C497.527 524.092 498.145 524.915 499.175 525.739C499.175 525.739 499.175 525.945 499.38 525.945C499.792 526.562 499.792 526.562 500.41 526.15C500.616 525.945 500.822 525.944 501.028 525.739C501.234 525.533 501.439 525.533 501.028 525.121C499.998 524.297 499.175 523.268 498.557 522.238C498.351 521.827 498.145 521.415 497.939 521.209C497.939 521.003 497.733 521.003 497.733 520.797C497.733 520.591 497.527 520.385 497.527 519.974C497.322 519.356 496.91 519.15 496.498 519.15C496.292 519.15 496.292 519.15 496.086 519.15C494.851 518.944 493.821 519.356 493.41 520.18C493.204 520.385 493.204 520.797 492.998 521.003C492.998 521.827 493.204 522.856 494.027 523.474C494.027 523.474 494.027 523.474 494.233 523.68C494.851 524.297 495.469 524.503 496.292 524.503H496.498H496.704C496.91 524.503 497.116 524.503 497.116 524.709C497.116 524.915 497.116 524.915 496.91 524.915C496.704 524.915 496.498 524.915 496.498 524.915C495.674 524.709 494.851 524.297 494.027 523.886C494.027 523.886 494.027 523.886 493.821 523.68C493.821 523.474 493.616 523.268 493.41 523.474C493.204 523.474 493.204 523.68 493.204 523.886C492.998 524.091 492.998 524.503 492.792 524.709C492.38 525.533 491.557 525.739 490.527 526.15C490.321 526.15 490.321 526.15 490.115 526.15C489.91 526.15 489.704 526.15 489.704 526.15C489.292 526.356 488.674 526.562 488.262 526.768C488.057 526.768 487.851 526.974 487.645 526.768C487.645 526.768 487.645 526.768 487.645 526.562C487.851 526.15 488.262 526.15 488.674 525.945C488.88 525.739 489.292 525.739 489.292 525.533C489.292 525.327 488.88 525.121 488.674 524.915C488.468 524.709 488.262 524.709 488.262 524.503C488.057 524.297 487.851 524.297 488.057 524.092C488.262 523.886 488.468 524.091 488.674 524.297C489.086 524.709 489.704 525.121 490.115 525.327C490.115 525.533 490.321 525.533 490.527 525.533C490.939 525.533 491.145 525.327 491.557 525.327C492.792 524.915 493.616 523.268 492.998 522.033C492.998 522.033 492.998 522.033 492.998 521.827C492.792 521.003 492.998 520.18 493.41 519.562C493.616 519.562 493.616 519.356 493.41 519.356C492.998 519.356 492.586 518.944 492.174 518.738C491.763 518.327 491.351 517.709 490.939 517.297C490.939 517.297 490.939 517.297 490.939 517.091C490.939 516.679 490.733 516.268 490.939 515.856C491.351 514.826 491.968 514.209 493.204 514.209C493.41 514.209 493.41 514.209 493.41 514.003C493.821 513.591 494.027 513.179 494.439 512.973C494.645 512.768 494.645 512.768 495.057 512.973C495.263 513.179 495.057 513.385 495.057 513.385C494.851 513.591 494.439 514.003 494.233 514.209C494.027 514.415 494.027 514.415 494.439 514.621C494.851 514.826 495.263 514.826 495.675 515.032C495.675 515.032 495.674 515.032 495.88 515.032C496.086 515.032 496.292 515.238 496.292 515.444C496.292 515.65 496.086 515.65 495.88 515.444C495.263 515.238 494.645 515.032 494.233 514.826C493.41 514.621 492.792 514.826 492.38 515.238C491.968 515.65 491.763 516.268 491.968 517.091C492.586 518.327 493.821 519.15 495.057 518.532C495.88 518.327 496.704 518.121 497.733 518.532C497.939 518.532 497.939 518.532 497.939 518.327C497.733 517.503 497.527 516.474 497.527 515.65C497.527 515.032 497.322 514.621 496.91 514.003C496.91 513.797 496.704 513.797 496.704 513.591C496.704 513.385 496.498 513.385 496.498 513.179C496.498 512.973 496.292 512.768 496.498 512.768C496.704 512.768 496.91 512.768 496.91 512.973C497.116 513.385 497.322 513.591 497.527 514.003C497.733 514.415 497.733 514.415 498.145 514.209C498.351 514.003 498.557 513.797 498.763 513.385C498.969 513.179 498.969 513.179 499.175 513.385C499.381 513.591 499.381 513.797 499.175 513.797C498.763 514.209 498.557 514.621 498.145 514.826C497.939 515.032 497.939 515.032 497.939 515.238C497.939 516.268 498.145 517.297 498.557 518.327C499.381 520.591 500.822 522.856 502.881 524.503C503.087 524.709 503.087 524.709 503.292 524.709C503.704 524.709 503.91 524.503 504.322 524.503C504.528 524.503 504.528 524.297 504.528 524.092C504.322 523.886 504.116 523.474 503.91 523.062C503.704 522.65 503.292 522.238 503.087 521.621C503.087 521.621 503.087 521.621 503.087 521.415C502.881 521.003 502.675 520.591 502.469 520.18C502.263 520.18 502.263 520.385 502.263 520.385C502.263 520.591 502.263 520.797 502.263 521.003C502.263 521.209 502.263 521.415 501.851 521.209C501.645 521.209 501.645 521.003 501.645 520.797C501.645 520.591 501.645 520.591 501.645 520.385C501.645 519.974 501.851 519.562 501.645 518.944V518.738C501.439 518.121 501.028 517.503 500.822 516.885V516.679C500.616 515.65 500.616 514.826 500.616 513.797V513.591C500.822 512.973 500.822 512.356 501.028 511.738C501.439 510.503 502.263 509.473 503.087 508.444C503.087 508.444 503.087 508.444 503.292 508.444C503.704 508.032 504.322 507.62 504.94 507.414C505.145 507.414 504.94 507.209 504.94 507.209C504.528 506.797 503.91 506.591 503.292 506.385C501.439 505.767 499.586 506.591 498.969 508.032C498.969 508.032 498.969 508.032 498.969 508.238C498.763 508.238 498.763 508.444 498.969 508.444C498.763 508.65 498.763 508.856 498.969 509.062C498.969 509.062 498.969 509.062 498.969 509.267C498.969 509.473 498.969 509.885 499.175 510.091V510.297C499.175 510.503 499.175 510.709 499.38 510.709C499.38 510.709 499.38 510.709 499.38 510.915C499.38 511.12 499.586 511.326 499.586 511.532C499.586 511.532 499.381 511.738 499.175 511.738C498.763 511.326 498.557 510.709 498.351 510.091C498.351 509.885 498.145 509.679 497.939 509.473C496.91 509.062 495.88 509.267 495.469 509.885C495.057 510.503 494.645 510.915 494.027 511.326H493.821H493.616H493.41C492.998 511.326 492.38 511.326 491.968 511.326C491.351 511.326 490.939 511.532 490.527 512.15C490.321 512.15 490.321 512.356 490.321 512.562C490.115 512.973 490.115 513.385 490.115 513.797C489.91 514.415 489.292 514.826 488.674 515.032C488.057 515.238 487.645 515.444 487.439 516.062C487.233 516.062 487.233 516.268 487.233 516.474C487.027 517.091 487.233 517.709 487.645 518.532C488.262 519.562 489.704 520.18 490.733 519.768C491.145 519.562 491.557 519.562 491.968 519.356C492.174 519.356 492.38 519.356 492.38 519.562C492.586 519.768 492.38 519.768 492.174 519.974C491.763 520.18 491.351 520.18 490.939 520.385C490.733 520.385 490.733 520.591 490.939 520.591C491.351 520.797 491.763 521.209 491.968 521.415C492.174 521.621 492.38 521.621 492.174 521.827C491.968 522.033 491.763 521.827 491.763 521.827C491.351 521.415 490.733 521.003 490.321 520.591C490.115 520.385 489.91 520.385 489.91 520.385C489.292 520.385 488.674 519.974 488.057 519.562C487.645 519.356 487.439 518.944 487.027 518.532C486.821 518.327 486.821 518.121 486.615 517.915V517.709C486.409 516.062 486.821 515.238 488.262 514.621C488.674 514.415 489.292 514.209 489.292 513.797C489.292 512.768 489.704 511.944 490.321 511.326C490.321 511.326 490.321 511.326 490.527 511.326C491.145 511.12 491.763 510.915 492.586 510.915H492.792C493.616 510.915 494.645 510.297 494.645 509.679C494.645 509.679 494.851 509.679 494.851 509.473C495.469 508.65 496.498 508.238 497.733 508.65C498.145 508.856 498.145 508.856 498.145 508.238C498.351 508.032 498.145 507.826 498.351 507.62C498.557 507.414 498.351 507.209 497.939 507.209C495.88 506.797 494.233 507.209 492.998 508.65C492.586 509.062 492.38 509.679 492.174 510.091C492.174 510.297 491.968 510.297 491.968 510.297C491.763 510.297 491.763 510.091 491.763 509.885C491.763 509.679 491.763 509.679 491.968 509.473C491.968 509.267 491.968 509.062 491.763 509.062C490.733 509.062 489.91 509.267 489.292 509.679C488.674 510.091 488.057 510.503 487.851 511.326C487.851 511.326 487.851 511.326 487.645 511.326C487.439 511.944 487.233 512.768 487.439 513.591C487.439 513.797 487.439 514.003 487.439 514.003H487.233C487.233 514.003 487.027 514.003 487.027 513.797C487.027 513.797 487.027 513.797 487.027 513.591C487.027 513.385 487.027 513.179 487.027 512.973C487.027 512.768 487.027 512.768 486.821 512.768C486.204 513.179 485.586 513.591 485.38 514.209C484.968 514.415 484.968 514.826 484.968 515.238C484.556 516.885 485.38 519.15 487.027 520.385C487.645 520.797 488.057 521.209 488.674 521.415C488.88 521.415 489.086 521.621 489.086 521.827C489.086 522.033 488.88 522.033 488.674 521.827C488.468 521.827 488.262 521.621 488.057 521.621C487.439 521.209 486.821 520.797 486.409 520.385C485.998 521.827 486.204 523.268 487.027 524.503C488.674 526.974 491.968 528.003 494.233 526.768C495.263 526.356 495.88 525.533 496.292 524.503C496.292 524.297 496.292 524.091 496.704 524.297C496.91 524.503 496.91 524.503 496.91 524.709C494.439 526.562 494.233 526.768 494.027 527.18Z" fill="#37BFA7"/>
</g>
<g opacity="0.56">
<path opacity="0.56" d="M523.47 531.504C524.087 530.68 524.293 529.651 524.293 528.621C524.293 528.415 524.293 528.209 523.881 528.415C523.675 528.415 523.47 528.621 523.264 528.621C523.264 528.621 523.264 528.621 523.058 528.621C521.617 528.827 520.381 528.621 518.94 528.003C518.734 528.003 518.734 528.003 518.528 528.003C518.116 528.209 517.911 528.415 517.499 528.621C516.881 528.827 516.469 529.033 515.852 529.445C515.646 529.445 515.234 529.651 515.028 529.651C514.822 529.651 514.616 529.651 514.616 529.856C514.41 530.474 514.41 531.092 514.616 531.709C514.822 533.357 516.058 534.386 517.911 534.592C518.734 534.592 519.558 534.592 520.381 534.18C521.617 533.562 522.646 532.533 523.47 531.504Z" fill="#37BFA7"/>
</g>
<g opacity="0.56">
<path opacity="0.56" d="M516.058 536.445C516.469 536.651 516.675 536.857 516.881 537.063C517.293 537.681 517.499 538.298 517.911 538.71C517.911 538.916 518.117 538.916 518.323 538.916C519.146 538.504 519.97 538.504 520.999 538.504C521.205 538.504 521.205 538.504 521.411 538.504C521.205 538.092 520.999 537.681 520.588 537.475C520.588 537.269 520.382 537.269 520.382 537.063C520.176 536.445 519.558 535.827 519.352 535.21C519.352 535.004 519.146 535.004 519.146 535.004C518.117 535.004 517.293 534.798 516.263 534.386C516.058 534.18 515.646 533.974 515.44 533.768C515.234 533.562 515.234 533.562 515.028 533.768C514.822 533.974 514.41 533.974 514.204 533.974C513.587 533.974 513.587 534.18 513.998 534.592C514.41 535.21 515.028 536.033 516.058 536.445Z" fill="#37BFA7"/>
</g>
<g opacity="0.56">
<path opacity="0.56" d="M518.94 539.946C519.763 540.151 520.381 540.151 520.999 539.946C521.205 539.946 521.411 539.946 521.411 539.74C521.617 539.74 521.617 539.534 521.617 539.534C521.617 539.328 521.411 539.328 521.205 539.328C520.175 539.122 519.352 539.122 518.528 539.328C518.322 539.328 518.116 539.534 518.322 539.534C518.528 539.74 518.734 539.946 518.94 539.946Z" fill="#37BFA7"/>
</g>
</g>
<path d="M324.374 570.211C329.15 570.211 333.021 566.34 333.021 561.564C333.021 556.788 329.15 552.917 324.374 552.917C319.598 552.917 315.727 556.788 315.727 561.564C315.727 566.34 319.598 570.211 324.374 570.211Z" fill="#AAAFAE"/>
<path d="M251.077 711.451C246.96 711.451 242.842 709.804 239.342 706.51C226.165 693.951 225.959 646.184 233.577 630.125C240.989 614.889 253.342 597.182 253.754 596.565C254.989 594.712 257.254 593.682 259.313 593.888C261.578 585.653 265.284 578.447 270.843 572.476C289.785 551.887 321.08 554.357 322.315 554.357C325.815 554.563 328.286 557.652 328.08 561.152C327.874 564.652 324.786 567.123 321.286 566.917C320.874 566.917 294.726 565.064 279.902 581.123C270.637 591.212 267.549 606.653 270.843 627.036C280.726 687.774 267.137 704.657 258.284 709.392C256.225 710.834 253.754 711.451 251.077 711.451ZM257.46 614.065C253.548 620.242 248.607 628.272 245.107 635.478C238.518 649.067 240.577 690.039 248.195 697.245C249.636 698.686 251.283 698.892 252.725 698.274C258.695 695.186 266.519 677.068 258.695 629.095C258.078 623.948 257.46 619.007 257.46 614.065Z" fill="#C2CCC9"/>
<path d="M262.607 584.829C268.578 571.858 256.225 571.652 250.46 577.829C250.46 578.858 250.46 579.888 250.46 581.123C250.46 598.212 252.519 613.86 256.225 628.066C256.843 627.243 258.284 626.419 258.078 625.184C257.666 615.713 256.431 598.212 262.607 584.829Z" fill="#D8E5E1"/>
<path d="M1612.5 -73C1618.47 -73 1623.41 -68.0586 1623.41 -62.0878L1623.41 101.389C1623.41 107.359 1618.47 112.301 1612.5 112.301C1606.53 112.301 1601.59 107.359 1601.59 101.389L1601.59 -62.0878C1601.59 -68.0586 1606.53 -73 1612.5 -73Z" fill="#C2CCC9"/>
<path d="M1752.92 -73C1758.89 -73 1763.83 -68.0586 1763.83 -62.0878L1763.83 101.389C1763.83 107.359 1758.89 112.301 1752.92 112.301C1746.95 112.301 1742.01 107.359 1742.01 101.389L1742.01 -62.0878C1742.01 -68.0586 1746.74 -73 1752.92 -73Z" fill="#C2CCC9"/>
<path d="M1546.41 327.456C1547.23 327.456 1547.85 327.456 1548.06 327.456C1554.03 327.661 1558.76 332.809 1558.56 338.779C1558.35 344.75 1553.21 349.486 1547.23 349.28C1543.94 349.28 1470.03 347.839 1435.85 423.4C1433.38 428.959 1426.79 431.43 1421.44 428.753C1415.88 426.283 1413.41 419.694 1416.08 414.341C1453.76 330.956 1533.65 327.456 1546.41 327.456Z" fill="#C2CCC9"/>
<path d="M1890.25 196.921C1895.81 196.921 1900.54 201.039 1901.16 206.804C1910.84 303.984 1833.83 346.603 1830.54 348.25C1825.19 351.133 1818.6 349.074 1815.72 343.721C1812.83 338.368 1814.89 331.779 1820.24 328.897C1822.92 327.25 1887.57 291.219 1879.34 208.863C1878.72 202.892 1883.04 197.539 1889.22 196.921C1889.42 196.921 1889.84 196.921 1890.25 196.921Z" fill="#C2CCC9"/>
<path d="M1555.26 380.369C1563.09 398.693 1566.59 406.723 1566.59 426.694L1566.59 426.9C1566.59 428.959 1566.59 431.224 1566.59 433.489C1567 507.197 1619.71 566.699 1684.77 566.699C1749.83 566.699 1802.74 507.197 1803.16 433.489C1803.16 431.224 1803.16 428.959 1803.16 426.9L1803.16 426.694C1803.16 408.988 1805.83 400.752 1811.8 386.546C1789.36 371.104 1748.8 353.192 1680.45 353.192C1621.15 353.192 1580.8 366.78 1555.26 380.369Z" fill="#37BFA7"/>
<path d="M1530.76 315.514C1530.76 315.72 1530.97 315.926 1530.97 316.131C1541.68 348.662 1549.71 367.192 1555.47 380.575C1581 366.986 1621.36 353.603 1680.45 353.603C1748.8 353.603 1789.36 371.516 1811.8 386.958C1817.36 373.781 1825.8 355.456 1837.75 319.632C1839.8 313.455 1842.07 306.455 1844.33 299.043C1849.07 281.748 1851.54 263.424 1851.54 244.276C1851.54 140.096 1777.01 89.6529 1684.98 89.6529C1592.94 89.6528 1518.41 140.096 1518.41 244.276C1518.41 264.453 1521.09 283.601 1526.23 301.719C1527.68 306.455 1529.12 310.984 1530.76 315.514Z" fill="#D8E5E1"/>
<path d="M1680.45 346.397C1762.39 346.397 1813.45 379.339 1815.51 380.781C1818.6 382.84 1819.63 387.163 1817.36 390.252C1815.3 393.34 1810.98 394.369 1807.89 392.105C1807.27 391.693 1757.86 359.986 1680.24 359.986C1602.21 359.986 1559.18 385.722 1558.76 385.928C1555.47 387.987 1551.35 386.957 1549.29 383.663C1547.24 380.369 1548.26 376.251 1551.56 374.192C1553.62 373.369 1598.5 346.397 1680.45 346.397Z" fill="#C2CCC9"/>
<path d="M1711.54 546.522C1714.01 546.522 1716.27 548.169 1716.89 550.846C1716.89 551.052 1723.07 576.582 1735.42 586.465C1737.68 588.318 1738.09 591.818 1736.24 594.083C1734.39 596.348 1730.89 596.759 1728.62 594.906C1713.18 582.553 1706.59 554.346 1706.39 553.111C1705.77 550.228 1707.62 547.14 1710.51 546.522C1710.71 546.522 1711.12 546.522 1711.54 546.522Z" fill="#F74442"/>
<path d="M1696.71 559.082C1699.59 559.082 1702.06 561.346 1702.27 564.435C1702.27 565.464 1702.89 590.583 1700.42 603.554C1699.8 606.436 1696.92 608.495 1694.03 607.877C1691.15 607.26 1689.09 604.377 1689.71 601.495C1691.98 589.759 1691.36 565.052 1691.36 564.846C1691.36 561.758 1693.62 559.082 1696.71 559.082Z" fill="#F74442"/>
<path d="M1681.89 546.522C1684.36 546.522 1686.62 548.169 1687.24 550.64C1687.86 552.905 1692.39 573.494 1683.95 585.229C1680.65 589.759 1675.92 592.436 1669.95 592.847C1666.86 593.053 1664.18 590.788 1663.97 587.906C1663.77 584.818 1666.03 582.141 1668.92 581.935C1671.59 581.729 1673.45 580.7 1674.89 578.847C1679.62 572.464 1677.56 557.846 1676.33 553.317C1675.71 550.434 1677.36 547.346 1680.45 546.728C1681.06 546.522 1681.47 546.522 1681.89 546.522Z" fill="#F74442"/>
<path d="M1646.27 424.43C1646.27 417.841 1649.56 412.076 1654.5 408.576C1654.5 408.576 1654.71 408.37 1655.12 408.164C1657.59 406.517 1668.3 399.723 1684.15 399.517L1685.59 399.517C1701.65 399.723 1712.36 406.311 1714.62 408.164C1715.04 408.37 1715.24 408.576 1715.24 408.576C1720.18 412.076 1723.48 417.841 1723.48 424.43C1723.48 435.136 1714.83 443.783 1704.12 443.783C1700.01 443.783 1696.3 442.548 1693.21 440.283C1693.21 440.283 1693.21 440.283 1693 440.077C1692.18 439.665 1689.92 438.224 1684.98 438.224C1680.03 438.224 1677.56 439.665 1676.95 440.077C1676.74 440.283 1676.74 440.283 1676.74 440.283C1673.65 442.342 1669.95 443.783 1665.83 443.783C1654.92 443.783 1646.27 435.136 1646.27 424.43Z" fill="black"/>
<path d="M1640.91 449.754C1661.92 449.754 1679 466.843 1679 487.844C1679 508.844 1661.92 525.933 1640.91 525.933C1619.91 525.933 1602.82 508.844 1602.82 487.844C1602.82 466.843 1619.91 449.754 1640.91 449.754ZM1640.91 517.903C1657.39 517.903 1670.77 504.521 1670.77 488.049C1670.77 471.578 1657.39 458.195 1640.91 458.195C1624.44 458.195 1611.06 471.578 1611.06 488.049C1611.06 504.521 1624.44 517.903 1640.91 517.903Z" fill="#D8E5E1"/>
<path d="M1721.83 468.284C1716.6 468.284 1712.36 474.091 1712.36 481.255C1712.36 488.419 1716.6 494.226 1721.83 494.226C1727.06 494.226 1731.3 488.419 1731.3 481.255C1731.3 474.091 1727.06 468.284 1721.83 468.284Z" fill="black"/>
<path d="M1725.95 449.754C1746.95 449.754 1764.04 466.843 1764.04 487.844C1764.04 508.844 1746.95 525.933 1725.95 525.933C1704.95 525.933 1687.86 508.844 1687.86 487.844C1687.86 466.843 1704.95 449.754 1725.95 449.754ZM1725.95 517.903C1742.42 517.903 1755.8 504.521 1755.8 488.049C1755.8 471.578 1742.42 458.195 1725.95 458.195C1709.48 458.195 1696.09 471.372 1696.09 487.844C1696.09 504.315 1709.48 517.903 1725.95 517.903Z" fill="#D8E5E1"/>
<path d="M1640.92 468.284C1635.68 468.284 1631.44 474.091 1631.44 481.255C1631.44 488.419 1635.68 494.226 1640.92 494.226C1646.15 494.226 1650.39 488.419 1650.39 481.255C1650.39 474.091 1646.15 468.284 1640.92 468.284Z" fill="black"/>
<g opacity="0.56">
<path opacity="0.56" d="M1574.32 277.578C1563.15 288.276 1564.62 307.932 1577.6 321.48C1590.58 335.028 1610.16 337.338 1621.32 326.64C1632.49 315.941 1631.02 296.286 1618.04 282.738C1605.06 269.189 1585.49 266.879 1574.32 277.578Z" fill="#EBEDED"/>
<path opacity="0.56" d="M1591.91 269.188C1609.41 269.188 1626.71 283.807 1630 301.925C1631.65 311.19 1629.8 319.631 1624.44 326.014C1619.5 331.985 1612.09 335.279 1603.65 335.279C1586.15 335.279 1568.85 320.661 1565.56 302.543C1563.91 293.278 1565.77 284.836 1571.12 278.453C1576.06 272.483 1583.47 269.188 1591.91 269.188ZM1603.85 331.573C1611.06 331.573 1617.44 328.691 1621.77 323.543C1626.3 317.984 1627.94 310.572 1626.5 302.543C1623.41 286.277 1607.97 272.894 1592.12 272.894C1584.91 272.894 1578.53 275.777 1574.21 280.924C1569.68 286.483 1568.03 293.895 1569.47 301.925C1572.56 318.19 1588 331.573 1603.85 331.573Z" fill="#37BFA7"/>
</g>
<g opacity="0.56">
<g opacity="0.56">
<path opacity="0.56" d="M1596.65 291.219C1595.82 291.013 1595 291.219 1594.38 291.425C1594.18 291.425 1593.97 291.425 1593.97 291.631C1593.35 291.631 1592.74 292.042 1592.32 292.248C1591.3 292.866 1590.68 293.895 1590.27 294.925C1590.06 295.542 1589.85 296.366 1590.06 296.984C1590.06 297.19 1590.06 297.395 1589.85 297.395C1589.65 297.395 1589.65 297.19 1589.65 296.984C1589.65 296.572 1589.65 296.366 1589.65 295.954C1589.65 295.748 1589.65 295.542 1589.24 295.748C1588.82 295.748 1588.21 295.748 1587.79 295.954C1587.59 295.954 1587.38 295.954 1587.18 296.16C1586.97 296.16 1586.97 296.16 1586.77 296.16L1586.56 296.16C1586.15 296.16 1586.15 296.366 1585.94 296.572C1585.74 296.984 1585.74 297.395 1585.74 298.013C1585.74 298.425 1585.53 299.043 1585.74 299.454C1585.94 299.454 1585.94 299.454 1585.94 299.248C1586.97 298.631 1588.41 298.219 1589.65 298.013C1590.47 298.013 1591.5 298.013 1592.32 298.013C1592.94 298.013 1592.94 298.013 1592.74 297.601C1592.74 297.19 1592.74 296.572 1592.74 296.16C1592.94 295.337 1593.35 294.925 1593.77 294.307C1593.77 294.307 1593.77 294.307 1593.97 294.101C1594.59 293.689 1595.21 293.484 1595.82 293.484C1596.03 293.484 1596.03 293.484 1596.03 293.278C1596.03 292.866 1596.24 292.454 1596.24 292.042C1596.44 291.836 1596.65 291.425 1596.85 291.219C1596.85 291.219 1597.06 291.219 1596.85 291.013C1596.85 291.219 1596.65 291.219 1596.65 291.219Z" fill="#37BFA7"/>
</g>
<g opacity="0.56">
<path opacity="0.56" d="M1588 291.63C1587.79 291.836 1587.18 291.63 1587.59 292.248C1588 293.278 1588.21 294.101 1588 294.925C1588 295.131 1588 295.336 1588.21 295.131C1588.41 295.131 1588.82 295.131 1589.03 295.131C1589.24 295.131 1589.44 295.131 1589.44 294.925C1589.65 294.101 1590.06 293.278 1590.88 292.66C1591.09 292.454 1591.09 292.248 1590.68 292.248C1589.85 291.63 1589.03 291.63 1588 291.63Z" fill="#37BFA7"/>
</g>
<g opacity="0.56">
<path opacity="0.56" d="M1601.18 291.631C1601.18 291.631 1600.97 291.425 1601.18 291.631C1600.15 291.219 1599.53 291.013 1598.71 291.219C1597.47 291.425 1596.85 292.248 1596.44 293.278C1596.44 293.484 1596.44 293.689 1596.85 293.895C1597.27 293.895 1597.47 293.895 1597.88 294.101C1598.09 294.101 1598.3 294.307 1598.09 294.513C1598.09 294.719 1597.88 294.719 1597.68 294.719C1597.47 294.719 1597.27 294.513 1597.06 294.513L1596.85 294.513C1596.44 294.307 1596.03 294.307 1595.82 294.513C1594.8 294.719 1594.18 294.925 1593.56 295.748C1593.35 295.748 1593.35 295.954 1593.35 296.16C1592.94 296.572 1592.94 297.19 1592.94 297.807C1592.94 298.631 1592.94 298.631 1593.97 299.043C1594.38 299.248 1594.59 299.248 1594.38 299.66C1594.38 299.66 1594.38 299.66 1594.18 299.66C1593.97 299.66 1593.97 299.66 1593.77 299.454C1592.74 299.043 1591.71 298.837 1590.68 298.837L1590.47 298.837L1590.27 298.837C1588.21 298.837 1586.56 299.454 1585.12 300.484C1584.5 300.896 1584.09 301.307 1583.68 301.925C1583.27 302.337 1583.06 302.749 1582.85 303.366C1582.85 303.366 1582.85 303.366 1582.65 303.366C1581.82 305.631 1581.82 308.102 1583.27 310.778C1583.27 310.984 1583.47 310.984 1583.68 311.19C1584.29 311.396 1585.12 311.396 1585.74 311.19C1585.94 311.19 1585.94 311.19 1586.15 311.19C1588 310.778 1589.03 308.925 1588.62 306.866C1588.62 306.661 1588.41 306.661 1588.21 306.455C1587.59 306.249 1587.18 306.043 1586.77 305.837C1586.56 305.631 1586.56 305.631 1586.56 305.425C1586.56 305.425 1586.56 305.425 1586.77 305.219C1586.97 305.219 1587.18 305.219 1587.38 305.425C1587.79 305.631 1588.41 306.043 1588.82 306.043C1590.68 306.455 1592.12 305.631 1592.53 303.984C1592.53 303.778 1592.32 303.572 1592.12 303.572C1591.5 303.366 1591.09 303.16 1590.68 302.749C1590.47 302.543 1590.27 302.337 1590.47 302.131C1590.68 302.131 1590.88 302.131 1591.09 302.337C1591.3 302.543 1591.5 302.749 1591.71 302.749C1592.74 303.366 1593.77 303.572 1594.8 303.366C1595.62 303.16 1596.24 302.955 1596.85 302.337C1597.27 302.131 1597.27 301.925 1597.47 301.719C1597.68 301.513 1597.68 301.307 1597.68 301.101C1597.88 300.896 1597.88 300.69 1597.88 300.69C1598.09 299.866 1597.88 299.043 1597.68 298.219C1597.68 298.013 1597.47 297.807 1597.68 297.807C1597.88 297.601 1598.09 297.807 1598.09 297.807C1598.09 298.013 1598.3 298.219 1598.3 298.219C1598.3 298.425 1598.3 298.425 1598.3 298.631C1598.5 299.454 1598.5 299.454 1599.32 299.454C1600.56 299.454 1601.38 299.043 1602 298.219C1602 298.219 1602.21 298.219 1602.21 298.013C1602.41 297.807 1602.41 297.807 1602.62 297.601C1602.82 297.395 1603.03 296.984 1603.03 296.778C1603.44 295.954 1603.44 294.925 1603.03 293.895C1603.03 293.895 1603.03 293.895 1603.03 293.689C1602.82 292.66 1602.21 292.042 1601.18 291.631ZM1601.18 294.719C1600.97 294.925 1600.56 295.131 1600.56 295.748C1600.15 296.366 1599.74 296.984 1598.71 296.984C1598.3 296.984 1597.88 296.984 1597.47 296.984C1597.06 296.778 1596.65 296.778 1596.44 296.984C1596.44 296.984 1596.44 296.984 1596.24 296.984C1595.62 297.395 1595.41 297.807 1595.82 298.631C1596.65 300.896 1594.8 302.131 1592.94 301.513C1592.32 301.307 1591.71 301.307 1591.3 301.307L1591.09 301.307C1590.68 301.307 1590.27 301.307 1589.85 301.513C1589.65 301.513 1589.44 301.513 1589.24 301.719C1588.62 301.719 1588 302.131 1587.59 302.337C1586.35 303.16 1585.53 304.19 1585.12 305.631C1584.91 306.249 1584.91 306.866 1585.53 307.484C1585.94 307.896 1586.35 308.102 1586.56 308.719C1586.35 308.719 1586.35 308.719 1586.15 308.719C1585.74 308.308 1585.53 307.896 1585.12 307.484C1584.91 307.278 1584.71 307.278 1584.71 307.484C1584.5 307.896 1584.5 308.102 1584.29 308.514C1584.29 308.719 1584.09 308.925 1583.88 308.719C1583.68 308.514 1583.68 308.308 1583.68 308.308L1583.68 308.102C1583.68 307.896 1583.88 307.896 1583.88 307.69C1584.09 307.484 1584.09 307.278 1584.09 307.072C1584.5 306.66 1584.29 306.043 1584.5 305.425C1584.71 305.219 1584.5 305.219 1584.71 305.013C1584.91 304.602 1585.12 303.984 1585.32 303.572C1585.53 303.366 1585.74 303.16 1585.74 302.954C1585.94 302.749 1586.15 302.543 1586.35 302.337C1586.77 301.925 1587.38 301.719 1588 301.307L1588.21 301.307C1588.62 301.101 1589.24 301.101 1589.65 300.896L1589.85 300.896C1591.09 300.896 1592.32 300.896 1593.56 301.101C1594.8 301.307 1595.62 300.278 1595.41 299.043C1595.21 298.425 1595 297.601 1595.21 296.984C1595.82 296.16 1596.65 296.16 1597.88 296.366C1598.71 296.572 1599.53 296.16 1599.74 295.542C1599.74 295.337 1599.74 295.131 1599.74 294.925C1599.74 294.719 1599.53 294.719 1599.53 294.513C1599.53 294.101 1599.12 293.895 1599.12 293.484C1599.12 293.278 1598.71 293.072 1599.12 292.866C1599.53 292.66 1599.53 293.072 1599.74 293.278C1599.74 293.278 1599.74 293.278 1599.74 293.484C1599.94 293.895 1599.94 294.101 1600.15 294.513C1600.35 294.719 1600.35 294.719 1600.56 294.513C1600.77 294.307 1601.18 293.895 1601.38 293.689C1601.59 293.484 1601.59 293.484 1602 293.484C1602 293.484 1602 293.689 1602.21 293.689C1601.59 294.101 1601.38 294.307 1601.18 294.719Z" fill="#37BFA7"/>
</g>
<g opacity="0.56">
<path opacity="0.56" d="M1599.32 301.719C1599.32 301.719 1599.32 301.513 1599.12 301.513C1598.91 301.307 1598.71 300.896 1598.5 300.69C1598.5 300.896 1598.3 300.896 1598.3 301.102C1598.3 301.307 1598.09 301.307 1598.09 301.513C1597.88 301.719 1597.88 301.925 1597.88 302.131C1597.88 302.131 1597.88 302.131 1597.68 302.337C1597.06 303.16 1596.24 303.572 1595.41 303.778L1595.21 303.778C1594.79 303.778 1594.38 303.778 1594.18 303.778C1593.56 303.778 1593.15 303.778 1593.15 304.396L1593.15 304.602C1592.53 305.837 1591.71 306.455 1590.06 306.455C1589.65 306.455 1589.44 306.661 1589.65 307.072C1589.85 307.69 1589.65 308.102 1589.65 308.514C1589.24 310.572 1587.18 312.014 1584.71 311.808C1584.5 311.808 1584.5 311.808 1584.29 311.808C1584.29 312.014 1584.29 312.014 1584.5 312.22C1585.32 313.455 1586.56 314.484 1587.79 315.308C1590.68 317.161 1593.77 317.779 1596.65 317.161C1598.09 316.749 1599.32 316.132 1600.35 315.102C1600.77 314.69 1601.38 314.073 1601.59 313.455C1601.8 313.455 1601.8 313.249 1601.8 313.043C1601.8 313.043 1601.8 313.043 1601.8 312.837C1602 312.837 1602 312.631 1602 312.425C1602.21 312.014 1602.21 311.602 1602.41 311.19C1602.82 309.337 1602.41 307.69 1601.8 305.837C1601.59 305.425 1601.38 305.219 1600.97 305.013C1600.77 304.602 1600.35 304.396 1599.94 304.19C1599.74 303.984 1599.53 303.984 1599.74 303.778C1599.94 303.572 1600.15 303.778 1600.35 303.778C1600.35 303.778 1600.56 303.778 1600.56 303.984C1600.77 304.19 1600.97 304.396 1601.18 304.396C1600.77 303.778 1600.56 303.16 1600.15 302.749C1600.15 302.749 1600.15 302.749 1600.15 302.543C1599.53 302.131 1599.53 301.925 1599.32 301.719ZM1600.56 310.367C1600.35 311.19 1600.15 311.808 1599.74 312.631C1599.32 313.043 1598.91 313.661 1598.5 314.073C1597.68 314.69 1596.65 315.308 1595.62 315.514C1595.41 315.514 1595.41 315.514 1595.21 315.514C1594.79 315.514 1594.59 315.514 1594.38 315.514C1592.74 315.514 1591.29 315.308 1589.65 314.69C1589.44 314.484 1589.24 314.484 1589.24 314.484C1589.24 314.278 1589.03 314.278 1588.82 314.278C1588.21 314.278 1587.59 314.073 1586.97 314.073C1586.56 314.073 1586.35 313.867 1586.56 313.455C1586.56 313.455 1586.56 313.455 1586.77 313.455C1587.38 313.455 1587.79 313.661 1588.41 313.661C1588.62 313.661 1588.82 313.661 1588.62 313.455C1588.41 313.043 1588.21 312.631 1588 312.22C1588 312.014 1587.79 311.808 1588 311.808C1588.21 311.808 1588.41 312.014 1588.41 312.014C1588.62 312.22 1588.62 312.425 1588.82 312.631C1588.82 312.631 1588.82 312.837 1589.03 312.837C1589.24 313.455 1589.44 313.867 1590.06 314.073C1591.71 314.69 1593.35 315.102 1594.79 314.896C1597.47 314.484 1599.12 313.043 1599.74 310.572C1599.94 309.543 1599.94 308.514 1599.53 307.484L1599.53 307.278C1599.32 306.455 1599.12 305.837 1598.5 305.219C1597.47 304.19 1595.82 304.19 1595.41 305.425C1595 306.249 1595.41 307.278 1596.65 307.896C1596.85 308.308 1597.27 308.514 1597.47 308.925C1597.47 309.131 1597.68 309.337 1597.68 309.337C1597.68 309.749 1597.68 310.367 1597.68 310.778L1597.68 310.984C1597.27 311.602 1596.65 312.014 1595.82 312.22C1595.21 312.22 1594.79 312.22 1594.18 312.014C1593.77 311.808 1593.35 311.396 1592.94 311.19C1592.53 310.984 1591.91 310.778 1591.5 310.778C1591.29 310.572 1591.29 310.572 1591.09 310.572C1590.88 310.572 1590.68 310.367 1590.68 310.161C1590.68 309.955 1590.88 309.955 1591.09 309.955C1591.5 310.161 1591.91 310.161 1592.53 310.367C1592.74 310.367 1592.74 310.367 1592.74 310.161C1592.53 309.749 1592.32 309.131 1592.32 308.719C1592.32 308.514 1592.32 308.514 1592.53 308.514C1592.74 308.514 1592.74 308.514 1592.94 308.719C1592.94 308.925 1593.15 308.925 1593.15 309.131C1593.15 309.131 1593.15 309.131 1593.15 309.337C1593.15 309.749 1593.56 310.367 1593.56 310.778C1593.56 310.778 1593.56 310.984 1593.77 310.984C1594.38 311.602 1595.21 311.808 1596.03 311.602C1596.85 311.396 1597.27 310.984 1597.27 310.161L1597.27 309.955C1597.27 309.337 1597.06 308.514 1596.24 308.102C1595.41 307.484 1594.79 306.661 1594.79 305.631L1594.79 305.425C1594.79 305.013 1595.21 304.602 1595.41 304.19C1595.82 303.984 1596.24 303.778 1596.65 303.778C1597.88 303.778 1598.91 304.396 1599.53 305.631C1600.35 307.484 1600.56 308.925 1600.56 310.367Z" fill="#37BFA7"/>
</g>
<g opacity="0.56">
<path opacity="0.56" d="M1575.65 301.101C1575.65 302.954 1576.68 304.396 1578.32 305.425C1578.53 305.631 1578.74 305.631 1578.74 305.219C1578.74 304.601 1578.94 304.19 1579.35 303.778C1579.56 303.572 1579.56 303.16 1579.97 303.366C1580.38 303.572 1579.97 303.778 1579.97 303.984C1579.15 305.425 1579.15 306.866 1580.18 308.513C1580.79 309.337 1581.41 309.955 1582.44 310.572C1582.44 310.572 1582.44 310.572 1582.65 310.572C1582.85 310.778 1583.06 310.778 1583.06 310.778C1583.27 310.778 1583.06 310.572 1583.06 310.366C1582.65 309.543 1582.44 308.719 1582.24 307.896C1582.03 306.249 1582.03 304.807 1582.65 303.366C1582.85 303.16 1582.85 302.954 1582.85 302.748C1583.47 301.719 1584.09 300.895 1584.91 300.278C1584.91 300.278 1585.12 300.072 1584.91 300.072C1584.71 299.042 1584.91 298.013 1585.12 296.778C1584.29 297.189 1583.47 297.601 1582.85 298.219C1582.65 298.425 1582.24 298.631 1582.03 298.836C1581.82 298.836 1581.82 298.836 1581.82 299.042C1581.41 299.454 1581 299.866 1580.79 300.278C1580.79 300.484 1580.79 300.484 1580.79 300.689C1581 301.101 1581.21 301.719 1581.41 302.131C1581.62 302.542 1581.41 302.542 1581 302.542C1581 302.542 1581 302.543 1581 302.337C1580.79 301.925 1580.79 301.307 1580.59 300.895C1580.59 300.689 1580.38 300.689 1580.18 300.689C1579.77 300.895 1579.56 301.101 1579.15 301.307C1578.74 301.513 1578.74 301.513 1578.53 301.101C1579.77 300.484 1580.59 299.454 1581.41 298.425C1581.62 298.425 1581.62 298.219 1581.62 298.013C1581.62 298.013 1581.62 298.013 1581.82 297.807C1582.03 297.601 1582.24 297.395 1582.44 297.189C1582.65 296.983 1582.44 296.983 1582.24 296.983C1581 296.572 1579.97 296.366 1578.94 296.572C1578.74 296.572 1578.74 296.572 1578.53 296.572C1578.12 296.572 1577.91 296.778 1577.5 296.983C1576.26 298.219 1575.65 299.454 1575.65 301.101Z" fill="#37BFA7"/>
</g>
<g opacity="0.56">
<path opacity="0.56" d="M1607.97 297.807C1608.18 297.602 1607.97 297.602 1607.77 297.396C1606.53 296.984 1605.09 296.778 1603.85 296.984C1603.65 296.984 1603.44 296.984 1603.44 297.19C1603.24 297.396 1603.24 297.807 1602.82 298.013C1602.62 298.219 1602.62 298.219 1602.82 298.425C1603.24 298.837 1603.85 299.455 1604.27 299.866C1604.27 300.072 1604.47 300.072 1604.47 300.278C1604.47 300.278 1604.47 300.278 1604.47 300.484C1604.68 300.896 1604.88 301.308 1605.3 301.513C1605.3 301.719 1605.5 301.719 1605.71 301.925C1606.33 302.131 1606.74 302.337 1607.35 302.543C1607.35 302.543 1607.35 302.543 1607.56 302.543C1607.77 302.749 1607.97 302.749 1607.97 302.955C1607.97 303.161 1607.56 303.161 1607.35 302.955C1606.94 302.749 1606.53 302.543 1606.12 302.337C1605.91 302.131 1605.91 302.337 1605.91 302.543C1605.91 302.955 1606.12 303.366 1606.12 303.984C1606.12 304.19 1606.12 304.396 1605.91 304.396L1605.71 304.396C1605.5 304.19 1605.5 303.984 1605.5 303.778C1605.3 303.161 1605.5 302.543 1605.09 301.925C1604.47 300.896 1603.85 300.072 1602.82 299.249C1602.82 299.249 1602.82 299.043 1602.62 299.043C1602.21 298.425 1602.21 298.425 1601.59 298.837C1601.38 299.043 1601.18 299.043 1600.97 299.249C1600.77 299.455 1600.56 299.455 1600.97 299.866C1602 300.69 1602.82 301.719 1603.44 302.749C1603.65 303.161 1603.85 303.572 1604.06 303.778C1604.06 303.984 1604.27 303.984 1604.27 304.19C1604.27 304.396 1604.47 304.602 1604.47 305.014C1604.68 305.631 1605.09 305.837 1605.5 305.837C1605.71 305.837 1605.71 305.837 1605.91 305.837C1607.15 306.043 1608.18 305.631 1608.59 304.808C1608.8 304.602 1608.8 304.19 1609 303.984C1609 303.161 1608.8 302.131 1607.97 301.513C1607.97 301.513 1607.97 301.513 1607.77 301.308C1607.15 300.69 1606.53 300.484 1605.71 300.484L1605.5 300.484L1605.3 300.484C1605.09 300.484 1604.88 300.484 1604.88 300.278C1604.88 300.072 1604.88 300.072 1605.09 300.072C1605.3 300.072 1605.5 300.072 1605.5 300.072C1606.33 300.278 1607.15 300.69 1607.97 301.102C1607.97 301.102 1607.97 301.102 1608.18 301.308C1608.18 301.513 1608.38 301.719 1608.59 301.513C1608.8 301.513 1608.8 301.308 1608.8 301.102C1609 300.896 1609 300.484 1609.21 300.278C1609.62 299.455 1610.44 299.249 1611.47 298.837C1611.68 298.837 1611.68 298.837 1611.88 298.837C1612.09 298.837 1612.3 298.837 1612.3 298.837C1612.71 298.631 1613.33 298.425 1613.74 298.219C1613.94 298.219 1614.15 298.013 1614.35 298.219C1614.35 298.219 1614.35 298.219 1614.35 298.425C1614.15 298.837 1613.74 298.837 1613.33 299.043C1613.12 299.249 1612.71 299.249 1612.71 299.455C1612.71 299.66 1613.12 299.866 1613.33 300.072C1613.53 300.278 1613.74 300.278 1613.74 300.484C1613.94 300.69 1614.15 300.69 1613.94 300.896C1613.74 301.102 1613.53 300.896 1613.33 300.69C1612.91 300.278 1612.3 299.866 1611.88 299.66C1611.88 299.455 1611.68 299.455 1611.47 299.455C1611.06 299.455 1610.85 299.66 1610.44 299.66C1609.21 300.072 1608.38 301.719 1609 302.955C1609 302.955 1609 302.955 1609 303.161C1609.21 303.984 1609 304.808 1608.59 305.425C1608.38 305.425 1608.38 305.631 1608.59 305.631C1609 305.631 1609.41 306.043 1609.83 306.249C1610.24 306.661 1610.65 307.278 1611.06 307.69C1611.06 307.69 1611.06 307.69 1611.06 307.896C1611.06 308.308 1611.27 308.72 1611.06 309.131C1610.65 310.161 1610.03 310.779 1608.8 310.779C1608.59 310.779 1608.59 310.779 1608.59 310.984C1608.18 311.396 1607.97 311.808 1607.56 312.014C1607.35 312.22 1607.35 312.22 1606.94 312.014C1606.74 311.808 1606.94 311.602 1606.94 311.602C1607.15 311.396 1607.56 310.984 1607.77 310.779C1607.97 310.573 1607.97 310.573 1607.56 310.367C1607.15 310.161 1606.74 310.161 1606.33 309.955C1606.33 309.955 1606.33 309.955 1606.12 309.955C1605.91 309.955 1605.71 309.749 1605.71 309.543C1605.71 309.337 1605.91 309.337 1606.12 309.543C1606.74 309.749 1607.35 309.955 1607.77 310.161C1608.59 310.367 1609.21 310.161 1609.62 309.749C1610.03 309.337 1610.24 308.72 1610.03 307.896C1609.41 306.661 1608.18 305.837 1606.94 306.455C1606.12 306.661 1605.3 306.867 1604.27 306.455C1604.06 306.455 1604.06 306.455 1604.06 306.661C1604.27 307.484 1604.47 308.514 1604.47 309.337C1604.47 309.955 1604.68 310.367 1605.09 310.984C1605.09 311.19 1605.3 311.19 1605.3 311.396C1605.3 311.602 1605.5 311.602 1605.5 311.808C1605.5 312.014 1605.71 312.22 1605.5 312.22C1605.3 312.22 1605.09 312.22 1605.09 312.014C1604.88 311.602 1604.68 311.396 1604.47 310.984C1604.27 310.573 1604.27 310.573 1603.85 310.779C1603.65 310.984 1603.44 311.19 1603.24 311.602C1603.03 311.808 1603.03 311.808 1602.82 311.602C1602.62 311.396 1602.62 311.19 1602.82 311.19C1603.24 310.779 1603.44 310.367 1603.85 310.161C1604.06 309.955 1604.06 309.955 1604.06 309.749C1604.06 308.72 1603.85 307.69 1603.44 306.661C1602.62 304.396 1601.18 302.131 1599.12 300.484C1598.91 300.278 1598.91 300.278 1598.71 300.278C1598.3 300.278 1598.09 300.484 1597.68 300.484C1597.47 300.484 1597.47 300.69 1597.47 300.896C1597.68 301.102 1597.88 301.513 1598.09 301.925C1598.3 302.337 1598.71 302.749 1598.91 303.366C1598.91 303.366 1598.91 303.366 1598.91 303.572C1599.12 303.984 1599.32 304.396 1599.53 304.808C1599.74 304.808 1599.74 304.602 1599.74 304.602C1599.74 304.396 1599.74 304.19 1599.74 303.984C1599.74 303.778 1599.74 303.572 1600.15 303.778C1600.35 303.778 1600.35 303.984 1600.35 304.19C1600.35 304.396 1600.35 304.396 1600.35 304.602C1600.35 305.014 1600.15 305.425 1600.35 306.043L1600.35 306.249C1600.56 306.867 1600.97 307.484 1601.18 308.102L1601.18 308.308C1601.38 309.337 1601.38 310.161 1601.38 311.19L1601.38 311.396C1601.18 312.014 1601.18 312.632 1600.97 313.249C1600.56 314.485 1599.74 315.514 1598.91 316.543C1598.91 316.543 1598.91 316.543 1598.71 316.543C1598.3 316.955 1597.68 317.367 1597.06 317.573C1596.85 317.573 1597.06 317.779 1597.06 317.779C1597.47 318.191 1598.09 318.396 1598.71 318.602C1600.56 319.22 1602.41 318.396 1603.03 316.955C1603.03 316.955 1603.03 316.955 1603.03 316.749C1603.24 316.749 1603.24 316.543 1603.03 316.543C1603.24 316.338 1603.24 316.132 1603.03 315.926C1603.03 315.926 1603.03 315.926 1603.03 315.72C1603.03 315.514 1603.03 315.102 1602.82 314.896L1602.82 314.69C1602.82 314.485 1602.82 314.279 1602.62 314.279C1602.62 314.279 1602.62 314.279 1602.62 314.073C1602.62 313.867 1602.41 313.661 1602.41 313.455C1602.41 313.455 1602.62 313.249 1602.82 313.249C1603.24 313.661 1603.44 314.279 1603.65 314.896C1603.65 315.102 1603.85 315.308 1604.06 315.514C1605.09 315.926 1606.12 315.72 1606.53 315.102C1606.94 314.485 1607.35 314.073 1607.97 313.661L1608.18 313.661L1608.38 313.661L1608.59 313.661C1609 313.661 1609.62 313.661 1610.03 313.661C1610.65 313.661 1611.06 313.455 1611.47 312.837C1611.68 312.837 1611.68 312.632 1611.68 312.426C1611.88 312.014 1611.88 311.602 1611.88 311.19C1612.09 310.573 1612.71 310.161 1613.33 309.955C1613.94 309.749 1614.35 309.543 1614.56 308.926C1614.77 308.926 1614.77 308.72 1614.77 308.514C1614.97 307.896 1614.77 307.278 1614.35 306.455C1613.74 305.425 1612.3 304.808 1611.27 305.219C1610.85 305.425 1610.44 305.425 1610.03 305.631C1609.83 305.631 1609.62 305.631 1609.62 305.425C1609.41 305.22 1609.62 305.219 1609.83 305.014C1610.24 304.808 1610.65 304.808 1611.06 304.602C1611.27 304.602 1611.27 304.396 1611.06 304.396C1610.65 304.19 1610.24 303.778 1610.03 303.572C1609.83 303.366 1609.62 303.366 1609.83 303.161C1610.03 302.955 1610.24 303.161 1610.24 303.161C1610.65 303.572 1611.27 303.984 1611.68 304.396C1611.88 304.602 1612.09 304.602 1612.09 304.602C1612.71 304.602 1613.33 305.014 1613.94 305.425C1614.35 305.631 1614.56 306.043 1614.97 306.455C1615.18 306.661 1615.18 306.867 1615.38 307.072L1615.38 307.278C1615.59 308.926 1615.18 309.749 1613.74 310.367C1613.33 310.573 1612.71 310.779 1612.71 311.19C1612.71 312.22 1612.3 313.043 1611.68 313.661C1611.68 313.661 1611.68 313.661 1611.47 313.661C1610.85 313.867 1610.24 314.073 1609.41 314.073L1609.21 314.073C1608.38 314.073 1607.35 314.69 1607.35 315.308C1607.35 315.308 1607.15 315.308 1607.15 315.514C1606.53 316.338 1605.5 316.749 1604.27 316.338C1603.85 316.132 1603.85 316.132 1603.85 316.749C1603.65 316.955 1603.85 317.161 1603.65 317.367C1603.44 317.573 1603.65 317.779 1604.06 317.779C1606.12 318.191 1607.77 317.779 1609 316.338C1609.41 315.926 1609.62 315.308 1609.83 314.896C1609.83 314.69 1610.03 314.69 1610.03 314.69C1610.24 314.69 1610.24 314.896 1610.24 315.102C1610.24 315.308 1610.24 315.308 1610.03 315.514C1610.03 315.72 1610.03 315.926 1610.24 315.926C1611.27 315.926 1612.09 315.72 1612.71 315.308C1613.33 314.896 1613.94 314.485 1614.15 313.661C1614.15 313.661 1614.15 313.661 1614.35 313.661C1614.56 313.043 1614.77 312.22 1614.56 311.396C1614.56 311.19 1614.56 310.984 1614.56 310.984L1614.77 310.984C1614.77 310.984 1614.97 310.984 1614.97 311.19C1614.97 311.19 1614.97 311.19 1614.97 311.396C1614.97 311.602 1614.97 311.808 1614.97 312.014C1614.97 312.22 1614.97 312.22 1615.18 312.22C1615.8 311.808 1616.41 311.396 1616.62 310.779C1617.03 310.573 1617.03 310.161 1617.03 309.749C1617.44 308.102 1616.62 305.837 1614.97 304.602C1614.35 304.19 1613.94 303.778 1613.33 303.572C1613.12 303.572 1612.91 303.366 1612.91 303.161C1612.91 302.955 1613.12 302.955 1613.33 303.161C1613.53 303.161 1613.74 303.367 1613.94 303.367C1614.56 303.778 1615.18 304.19 1615.59 304.602C1616 303.161 1615.8 301.719 1614.97 300.484C1613.33 298.013 1610.03 296.984 1607.77 298.219C1606.74 298.631 1606.12 299.455 1605.71 300.484C1605.71 300.69 1605.71 300.896 1605.3 300.69C1605.09 300.484 1605.09 300.484 1605.09 300.278C1607.56 298.425 1607.77 298.219 1607.97 297.807Z" fill="#37BFA7"/>
</g>
<g opacity="0.56">
<path opacity="0.56" d="M1578.53 293.484C1577.91 294.307 1577.71 295.337 1577.71 296.366C1577.71 296.572 1577.71 296.778 1578.12 296.572C1578.32 296.572 1578.53 296.366 1578.74 296.366C1578.74 296.366 1578.74 296.366 1578.94 296.366C1580.38 296.16 1581.62 296.366 1583.06 296.984C1583.27 296.984 1583.27 296.984 1583.47 296.984C1583.88 296.778 1584.09 296.572 1584.5 296.366C1585.12 296.16 1585.53 295.954 1586.15 295.543C1586.35 295.543 1586.77 295.337 1586.97 295.337C1587.18 295.337 1587.38 295.337 1587.38 295.131C1587.59 294.513 1587.59 293.896 1587.38 293.278C1587.18 291.631 1585.94 290.601 1584.09 290.395C1583.27 290.395 1582.44 290.395 1581.62 290.807C1580.38 291.425 1579.35 292.454 1578.53 293.484Z" fill="#37BFA7"/>
</g>
<g opacity="0.56">
<path opacity="0.56" d="M1585.94 288.543C1585.53 288.337 1585.32 288.131 1585.12 287.925C1584.71 287.307 1584.5 286.69 1584.09 286.278C1584.09 286.072 1583.88 286.072 1583.68 286.072C1582.85 286.484 1582.03 286.484 1581 286.484C1580.79 286.484 1580.79 286.484 1580.59 286.484C1580.79 286.895 1581 287.307 1581.41 287.513C1581.41 287.719 1581.62 287.719 1581.62 287.925C1581.82 288.543 1582.44 289.16 1582.65 289.778C1582.65 289.984 1582.85 289.984 1582.85 289.984C1583.88 289.984 1584.71 290.19 1585.74 290.601C1585.94 290.807 1586.35 291.013 1586.56 291.219C1586.77 291.425 1586.77 291.425 1586.97 291.219C1587.18 291.013 1587.59 291.013 1587.8 291.013C1588.41 291.013 1588.41 290.807 1588 290.396C1587.59 289.778 1586.97 288.954 1585.94 288.543Z" fill="#37BFA7"/>
</g>
<g opacity="0.56">
<path opacity="0.56" d="M1583.06 285.042C1582.24 284.836 1581.62 284.836 1581 285.042C1580.79 285.042 1580.59 285.042 1580.59 285.248C1580.38 285.248 1580.38 285.454 1580.38 285.454C1580.38 285.66 1580.59 285.66 1580.79 285.66C1581.82 285.865 1582.65 285.865 1583.47 285.66C1583.68 285.66 1583.88 285.454 1583.68 285.454C1583.47 285.248 1583.27 285.042 1583.06 285.042Z" fill="#37BFA7"/>
</g>
</g>
<path d="M1777.63 254.776C1772.85 254.776 1768.98 258.648 1768.98 263.424C1768.98 268.199 1772.85 272.071 1777.63 272.071C1782.4 272.071 1786.27 268.199 1786.27 263.424C1786.27 258.648 1782.4 254.776 1777.63 254.776Z" fill="#AAAFAE"/>
<path d="M1850.92 113.536C1855.04 113.536 1859.16 115.183 1862.66 118.477C1875.83 131.037 1876.04 178.803 1868.42 194.862C1861.01 210.098 1848.66 227.805 1848.25 228.422C1847.01 230.275 1844.75 231.305 1842.69 231.099C1840.42 239.335 1836.72 246.541 1831.16 252.512C1812.22 273.101 1780.92 270.63 1779.68 270.63C1776.18 270.424 1773.71 267.336 1773.92 263.835C1774.13 260.335 1777.21 257.865 1780.71 258.071C1781.13 258.071 1807.27 259.924 1822.1 243.864C1831.36 233.776 1834.45 218.334 1831.16 197.951C1821.27 137.213 1834.86 120.33 1843.72 115.595C1845.78 114.154 1848.25 113.536 1850.92 113.536ZM1844.54 210.922C1848.45 204.745 1853.39 196.715 1856.89 189.509C1863.48 175.921 1861.42 134.949 1853.8 127.742C1852.36 126.301 1850.72 126.095 1849.28 126.713C1843.3 129.801 1835.48 147.92 1843.3 195.892C1843.92 201.039 1844.54 205.981 1844.54 210.922Z" fill="#C2CCC9"/>
<path d="M1839.39 240.158C1833.42 253.129 1845.78 253.335 1851.54 247.158C1851.54 246.129 1851.54 245.099 1851.54 243.864C1851.54 226.775 1849.48 211.128 1845.78 196.921C1845.16 197.745 1843.72 198.568 1843.92 199.804C1844.33 209.275 1845.57 226.775 1839.39 240.158Z" fill="#D8E5E1"/>
</g>
<defs>
<linearGradient id="paint0_linear" x1="1051" y1="0" x2="1051" y2="736" gradientUnits="userSpaceOnUse">
<stop stop-color="#79417D"/>
<stop offset="1" stop-color="#963F8D"/>
</linearGradient>
</defs>
</svg>
