<svg width="624" height="95" viewBox="0 0 624 95" fill="none" xmlns="http://www.w3.org/2000/svg">
<g clip-path="url(#clip0)">
<path d="M609.925 95H354.075C346.314 95 340 88.6943 340 80.9616V14.055C340 6.30568 346.314 0 354.075 0H609.942C617.702 0 624.017 6.30568 624.017 14.055V80.9616C624 88.6943 617.686 95 609.925 95ZM354.075 3.31878C348.142 3.31878 343.323 8.13101 343.323 14.055V80.9616C343.323 86.8856 348.142 91.6978 354.075 91.6978H609.942C615.874 91.6978 620.693 86.8856 620.693 80.9616V14.055C620.693 8.13101 615.874 3.31878 609.942 3.31878H354.075Z" fill="white"/>
<path d="M434.368 27.7284H432.473C432.473 27.4629 432.29 26.7328 431.941 25.5214H429.233C428.867 26.7162 428.685 27.4463 428.685 27.7284H426.906C426.906 27.579 427.372 26.3179 428.286 23.9616C429.2 21.6052 429.665 20.3109 429.665 20.062H431.892C431.892 20.2777 432.307 21.5721 433.138 23.8952C433.952 26.2515 434.368 27.5127 434.368 27.7284ZM431.659 24.4096C430.994 22.3852 430.645 21.29 430.645 21.124H430.546C430.546 21.2734 430.197 22.3686 429.499 24.4096H431.659Z" fill="white"/>
<path d="M441.978 27.7284H440.516C440.516 27.5624 439.967 26.7162 438.887 25.1729C437.757 23.5467 437.109 22.4515 436.96 21.8542H436.877C436.976 22.717 437.026 23.4969 437.026 24.1773C437.026 25.1397 437.059 26.3345 437.109 27.7284H435.664C435.73 26.517 435.747 25.1729 435.747 23.7127C435.747 22.2856 435.713 21.0576 435.664 20.062H437.408C437.408 20.2777 437.89 21.1074 438.871 22.5511C439.901 24.0943 440.499 25.1397 440.649 25.6873H440.732C440.632 24.8079 440.582 24.028 440.582 23.331C440.582 22.269 440.549 21.1738 440.499 20.062H441.978C441.928 21.0411 441.895 22.2524 441.895 23.7127C441.895 25.1895 441.928 26.5336 441.978 27.7284Z" fill="white"/>
<path d="M450.519 23.6297C450.519 24.7415 450.154 25.7205 449.439 26.5502C448.725 27.3799 447.728 27.7947 446.431 27.7947C445.85 27.7947 445.052 27.7782 444.022 27.7284C444.072 26.5502 444.105 25.2061 444.105 23.7127C444.105 22.2856 444.072 21.0576 444.022 20.062H445.052C445.218 20.062 445.468 20.062 445.8 20.0454C446.132 20.0288 446.348 20.0288 446.448 20.0288C447.86 20.0288 448.891 20.3773 449.539 21.0908C450.203 21.8044 450.519 22.6506 450.519 23.6297ZM448.907 23.8786C448.907 23.1319 448.691 22.4847 448.243 21.9703C447.811 21.4559 447.129 21.1904 446.232 21.1904C446.066 21.1904 445.833 21.207 445.534 21.2402C445.567 22.0201 445.601 22.8498 445.601 23.6961C445.601 24.6419 445.617 25.5712 445.667 26.4838C445.916 26.5336 446.182 26.5668 446.431 26.5668C447.279 26.5668 447.91 26.3013 448.309 25.7869C448.708 25.2725 448.907 24.6419 448.907 23.8786Z" fill="white"/>
<path d="M458.396 27.7284H456.651C456.202 26.3345 455.853 25.4882 455.604 25.1563C455.355 24.8244 454.973 24.6751 454.424 24.6751C454.192 24.6751 453.976 24.6751 453.776 24.6751C453.776 25.6873 453.793 26.6995 453.826 27.7284H452.181C452.231 26.5502 452.264 25.2061 452.264 23.7127C452.264 22.2856 452.231 21.0576 452.181 20.062H453.195C453.311 20.062 453.56 20.062 453.942 20.0454C454.324 20.0288 454.657 20.0288 454.989 20.0288C456.8 20.0288 457.698 20.6428 457.698 21.8707C457.698 22.8498 457.183 23.5301 456.152 23.9118V23.9947C456.551 24.1109 456.9 24.4096 457.199 24.924C457.482 25.4384 457.897 26.3843 458.396 27.7284ZM456.186 22.3188C456.186 21.5389 455.687 21.1406 454.673 21.1406C454.308 21.1406 453.976 21.1738 453.693 21.2236C453.743 21.8375 453.76 22.6175 453.76 23.5965C453.976 23.5965 454.158 23.6131 454.308 23.6131C455.571 23.6131 456.186 23.1816 456.186 22.3188Z" fill="white"/>
<path d="M466.854 23.7624C466.854 24.9738 466.488 25.9694 465.74 26.7659C465.009 27.5624 464.095 27.9607 462.998 27.9607C461.968 27.9607 461.088 27.5956 460.39 26.8655C459.692 26.1354 459.343 25.2061 459.343 24.0943C459.343 22.883 459.708 21.8873 460.456 21.0908C461.187 20.2943 462.101 19.8961 463.198 19.8961C464.228 19.8961 465.109 20.2611 465.807 20.9913C466.505 21.7048 466.854 22.634 466.854 23.7624ZM465.225 23.9284C465.225 23.1153 465.009 22.4349 464.594 21.9371C464.178 21.4227 463.647 21.1738 463.032 21.1738C462.45 21.1738 461.968 21.4227 461.569 21.9371C461.171 22.4515 460.971 23.0987 460.971 23.8786C460.971 24.6917 461.187 25.3554 461.603 25.8699C462.018 26.3843 462.55 26.6332 463.148 26.6332C463.73 26.6332 464.212 26.3677 464.61 25.8533C465.026 25.3554 465.225 24.7083 465.225 23.9284Z" fill="white"/>
<path d="M470.177 27.7284H468.515C468.565 26.517 468.598 25.1729 468.598 23.7127C468.598 22.2856 468.565 21.0576 468.515 20.062H470.177C470.127 21.0576 470.094 22.269 470.094 23.7127C470.11 25.2061 470.127 26.5336 470.177 27.7284Z" fill="white"/>
<path d="M478.718 23.6297C478.718 24.7415 478.352 25.7205 477.638 26.5502C476.923 27.3799 475.926 27.7947 474.63 27.7947C474.049 27.7947 473.251 27.7782 472.221 27.7284C472.271 26.5502 472.304 25.2061 472.304 23.7127C472.304 22.2856 472.271 21.0576 472.221 20.062H473.251C473.417 20.062 473.667 20.062 473.999 20.0454C474.331 20.0288 474.547 20.0288 474.647 20.0288C476.059 20.0288 477.09 20.3773 477.738 21.0908C478.402 21.8044 478.718 22.6506 478.718 23.6297ZM477.123 23.8786C477.123 23.1319 476.907 22.4847 476.458 21.9703C476.026 21.4559 475.345 21.1904 474.448 21.1904C474.281 21.1904 474.049 21.207 473.75 21.2402C473.783 22.0201 473.816 22.8498 473.816 23.6961C473.816 24.6419 473.833 25.5712 473.883 26.4838C474.132 26.5336 474.398 26.5668 474.647 26.5668C475.494 26.5668 476.126 26.3013 476.525 25.7869C476.907 25.2725 477.123 24.6419 477.123 23.8786Z" fill="white"/>
<path d="M490.067 27.7284H488.173C488.173 27.4629 487.99 26.7328 487.641 25.5214H484.916C484.551 26.7162 484.368 27.4463 484.368 27.7284H482.59C482.59 27.579 483.055 26.3179 483.969 23.9616C484.883 21.6052 485.348 20.3109 485.348 20.062H487.575C487.575 20.2777 487.99 21.5721 488.821 23.8952C489.652 26.2515 490.067 27.5127 490.067 27.7284ZM487.342 24.4096C486.678 22.3852 486.329 21.29 486.329 21.124H486.229C486.229 21.2734 485.88 22.3686 485.182 24.4096H487.342Z" fill="white"/>
<path d="M496.93 22.0698C496.93 23.0157 496.581 23.6961 495.883 24.1441C495.185 24.5921 494.338 24.8078 493.324 24.8078C493.142 24.8078 493.009 24.8078 492.926 24.7912C492.926 25.5214 492.942 26.5004 492.992 27.7118H491.33C491.38 26.5834 491.413 25.2393 491.413 23.696C491.413 22.2856 491.38 21.0576 491.33 20.0454H492.361C492.51 20.0454 492.793 20.0454 493.191 20.0288C493.59 20.0122 493.956 20.0122 494.272 20.0122C495.019 20.0122 495.651 20.1781 496.166 20.5266C496.681 20.8751 496.93 21.3895 496.93 22.0698ZM495.418 22.4017C495.418 21.5554 494.853 21.1406 493.74 21.1406C493.457 21.1406 493.158 21.1738 492.859 21.2236C492.909 21.9703 492.926 22.8 492.926 23.7458C493.025 23.7458 493.142 23.7624 493.275 23.7624C494.704 23.7624 495.418 23.2978 495.418 22.4017Z" fill="white"/>
<path d="M504.009 22.0698C504.009 23.0157 503.66 23.6961 502.962 24.1441C502.264 24.5921 501.417 24.8078 500.387 24.8078C500.204 24.8078 500.071 24.8078 499.988 24.7912C499.988 25.5214 500.004 26.5004 500.054 27.7118H498.393C498.442 26.5834 498.476 25.2393 498.476 23.696C498.476 22.2856 498.442 21.0576 498.393 20.0454H499.423C499.572 20.0454 499.855 20.0454 500.254 20.0288C500.652 20.0122 501.018 20.0122 501.334 20.0122C502.082 20.0122 502.713 20.1781 503.228 20.5266C503.743 20.8751 504.009 21.3895 504.009 22.0698ZM502.48 22.4017C502.48 21.5554 501.915 21.1406 500.802 21.1406C500.52 21.1406 500.22 21.1738 499.921 21.2236C499.971 21.9703 499.988 22.8 499.988 23.7458C500.088 23.7458 500.204 23.7624 500.337 23.7624C501.766 23.7624 502.48 23.2978 502.48 22.4017Z" fill="white"/>
<path d="M515.558 23.7624C515.558 24.9738 515.192 25.9694 514.445 26.7659C513.713 27.5624 512.799 27.9607 511.703 27.9607C510.672 27.9607 509.792 27.5956 509.094 26.8655C508.396 26.1354 508.047 25.2061 508.047 24.0943C508.047 22.883 508.413 21.8873 509.16 21.0908C509.891 20.2943 510.805 19.8961 511.902 19.8961C512.932 19.8961 513.813 20.2611 514.511 20.9913C515.209 21.7048 515.558 22.634 515.558 23.7624ZM513.946 23.9284C513.946 23.1153 513.73 22.4349 513.315 21.9371C512.899 21.4227 512.367 21.1738 511.753 21.1738C511.171 21.1738 510.689 21.4227 510.29 21.9371C509.891 22.4515 509.692 23.0987 509.692 23.8786C509.692 24.6917 509.908 25.3554 510.324 25.8699C510.739 26.3843 511.271 26.6332 511.869 26.6332C512.45 26.6332 512.932 26.3677 513.331 25.8533C513.73 25.3554 513.946 24.7083 513.946 23.9284Z" fill="white"/>
<path d="M523.551 27.7284H522.088C522.088 27.5624 521.54 26.7162 520.46 25.1729C519.33 23.5467 518.682 22.4515 518.532 21.8542H518.433C518.532 22.717 518.582 23.4969 518.582 24.1773C518.582 25.1397 518.615 26.3345 518.665 27.7284H517.219C517.286 26.517 517.303 25.1729 517.303 23.7127C517.303 22.2856 517.269 21.0576 517.219 20.062H518.964C518.964 20.2777 519.446 21.1074 520.427 22.5511C521.457 24.0943 522.055 25.1397 522.205 25.6873H522.288C522.188 24.8079 522.138 24.028 522.138 23.331C522.138 22.269 522.105 21.1738 522.055 20.062H523.534C523.484 21.0411 523.451 22.2524 523.451 23.7127C523.467 25.1895 523.501 26.5336 523.551 27.7284Z" fill="white"/>
<path d="M454.009 52.2873C454.009 56.0873 452.879 59.124 450.619 61.3808C448.06 64.069 444.72 65.4131 440.599 65.4131C436.661 65.4131 433.321 64.0524 430.562 61.331C427.804 58.6096 426.425 55.2245 426.425 51.1921C426.425 47.1598 427.804 43.7747 430.562 41.0533C433.321 38.3319 436.661 36.9712 440.599 36.9712C442.56 36.9712 444.421 37.3528 446.199 38.1162C447.977 38.8795 449.406 39.8917 450.469 41.1528L448.077 43.5424C446.265 41.3852 443.789 40.3066 440.616 40.3066C437.741 40.3066 435.265 41.3188 433.171 43.3266C431.077 45.3345 430.031 47.9563 430.031 51.1756C430.031 54.3948 431.077 57.0166 433.171 59.0245C435.265 61.0323 437.741 62.0445 440.616 62.0445C443.656 62.0445 446.199 61.0323 448.226 59.0079C449.539 57.6969 450.303 55.855 450.519 53.4987H440.616V50.2297H453.843C453.959 50.9432 454.009 51.6236 454.009 52.2873Z" fill="white"/>
<path d="M458.163 48.3878C459.958 46.4961 462.267 45.5502 465.059 45.5502C467.851 45.5502 470.144 46.4961 471.955 48.3878C473.75 50.2795 474.664 52.6358 474.664 55.49C474.664 58.3275 473.766 60.7004 471.955 62.5922C470.144 64.4839 467.851 65.4297 465.059 65.4297C462.267 65.4297 459.974 64.4839 458.163 62.5922C456.368 60.7004 455.454 58.3441 455.454 55.49C455.454 52.6358 456.368 50.2795 458.163 48.3878ZM460.772 60.3686C461.985 61.5965 463.397 62.2105 465.059 62.2105C466.704 62.2105 468.133 61.5965 469.346 60.3686C470.559 59.1406 471.157 57.5144 471.157 55.4734C471.157 53.4489 470.559 51.8227 469.346 50.5782C468.133 49.3502 466.704 48.7363 465.059 48.7363C463.414 48.7363 461.985 49.3502 460.772 50.5782C459.559 51.8061 458.961 53.4323 458.961 55.4734C458.961 57.5144 459.575 59.1406 460.772 60.3686Z" fill="white"/>
<path d="M478.552 48.3878C480.347 46.4961 482.656 45.5502 485.448 45.5502C488.24 45.5502 490.533 46.4961 492.344 48.3878C494.139 50.2795 495.053 52.6358 495.053 55.49C495.053 58.3275 494.155 60.7004 492.344 62.5922C490.533 64.4839 488.24 65.4297 485.448 65.4297C482.656 65.4297 480.363 64.4839 478.552 62.5922C476.741 60.7004 475.844 58.3441 475.844 55.49C475.844 52.6358 476.741 50.2795 478.552 48.3878ZM481.161 60.3686C482.374 61.5965 483.786 62.2105 485.448 62.2105C487.093 62.2105 488.522 61.5965 489.735 60.3686C490.948 59.1406 491.547 57.5144 491.547 55.4734C491.547 53.4489 490.948 51.8227 489.735 50.5782C488.522 49.3502 487.093 48.7363 485.448 48.7363C483.803 48.7363 482.374 49.3502 481.161 50.5782C479.948 51.8061 479.35 53.4323 479.35 55.4734C479.35 57.5144 479.948 59.1406 481.161 60.3686Z" fill="white"/>
<path d="M505.405 73.6271C503.195 73.6271 501.384 73.0795 499.988 71.9677C498.592 70.8559 497.595 69.5948 496.98 68.1843L500.187 66.8568C500.536 67.869 501.201 68.7153 502.148 69.4123C503.095 70.0926 504.192 70.4411 505.405 70.4411C507.333 70.4411 508.845 69.8603 509.958 68.7153C511.071 67.5537 511.62 65.9939 511.62 64.0192V62.2271H511.47C510.855 63.1398 509.991 63.9031 508.878 64.5171C507.765 65.131 506.502 65.4297 505.106 65.4297C502.696 65.4297 500.603 64.4839 498.858 62.5756C497.113 60.6673 496.232 58.3109 496.232 55.5066C496.232 52.7022 497.113 50.3293 498.858 48.4376C500.603 46.5293 502.696 45.5834 505.106 45.5834C506.502 45.5834 507.765 45.8821 508.878 46.4961C509.991 47.1101 510.855 47.8734 511.47 48.7861H511.62V46.1974H514.976V63.8865C514.976 67.0891 514.046 69.5118 512.201 71.1712C510.324 72.7974 508.064 73.6271 505.405 73.6271ZM505.671 62.2105C507.316 62.2105 508.728 61.5965 509.875 60.3852C511.038 59.1738 511.603 57.531 511.603 55.4734C511.603 53.4158 511.022 51.7895 509.875 50.5616C508.712 49.3502 507.316 48.7363 505.671 48.7363C504.042 48.7363 502.647 49.3502 501.483 50.5782C500.32 51.8061 499.739 53.4323 499.739 55.4734C499.739 57.4978 500.32 59.124 501.483 60.3686C502.647 61.5965 504.042 62.2105 505.671 62.2105Z" fill="white"/>
<path d="M521.789 64.7991H518.283V37.5685H521.789V64.7991Z" fill="white"/>
<path d="M533.355 65.4131C530.53 65.4131 528.237 64.4673 526.475 62.5922C524.714 60.717 523.833 58.3441 523.833 55.4734C523.833 52.752 524.697 50.4288 526.409 48.4708C528.12 46.5127 530.314 45.5502 532.972 45.5502C535.747 45.5502 537.958 46.4463 539.619 48.255C541.281 50.0472 542.112 52.4699 542.112 55.49L542.079 56.1371H527.339C527.439 58.0122 528.07 59.5057 529.217 60.5843C530.38 61.6795 531.726 62.2271 533.272 62.2271C535.781 62.2271 537.492 61.1651 538.373 59.0245L541.497 60.3188C540.882 61.7625 539.885 62.9738 538.489 63.9529C537.11 64.9153 535.399 65.4131 533.355 65.4131ZM538.39 53.2332C538.306 52.1712 537.825 51.159 536.927 50.1965C536.03 49.2341 534.684 48.7528 532.906 48.7528C531.61 48.7528 530.48 49.1511 529.533 49.9642C528.586 50.7773 527.921 51.8725 527.572 53.2332H538.39Z" fill="white"/>
<path d="M555.92 64.7991H552.414V37.5685H561.703C564.013 37.5685 566.007 38.3319 567.702 39.8751C569.397 41.4183 570.228 43.3432 570.228 45.683C570.228 48.0227 569.38 49.9476 567.702 51.4908C566.007 53.0175 564.013 53.7974 561.703 53.7974H555.92V64.7991ZM555.92 50.4288H561.786C563.265 50.4288 564.445 49.931 565.326 48.952C566.223 47.9563 566.655 46.8777 566.655 45.683C566.655 44.4882 566.206 43.393 565.326 42.414C564.428 41.4183 563.249 40.9371 561.786 40.9371H555.92V50.4288Z" fill="white"/>
<path d="M576.027 64.7991H572.521V37.5685H576.027V64.7991Z" fill="white"/>
<path d="M585.05 65.4131C583.072 65.4131 581.411 64.8489 580.081 63.7039C578.752 62.5589 578.087 61.0489 578.087 59.1738C578.087 57.1493 578.868 55.5563 580.447 54.3948C582.026 53.2332 583.97 52.669 586.28 52.669C588.34 52.669 590.018 53.0507 591.348 53.814V53.2664C591.348 51.8891 590.882 50.7939 589.935 49.9808C588.988 49.1511 587.842 48.7362 586.462 48.7362C585.449 48.7362 584.518 48.9852 583.704 49.4664C582.873 49.9476 582.308 50.6114 582.009 51.4411L578.802 50.0638C579.234 48.952 580.081 47.9066 581.361 46.9607C582.624 46.0149 584.302 45.5336 586.396 45.5336C588.789 45.5336 590.766 46.2306 592.345 47.6245C593.923 49.0183 594.704 50.993 594.704 53.5153V64.7825H591.348V62.1939H591.198C589.786 64.3511 587.742 65.4131 585.05 65.4131ZM585.632 62.2105C587.077 62.2105 588.39 61.6629 589.57 60.6009C590.75 59.5223 591.348 58.2445 591.348 56.7843C590.351 55.9712 588.872 55.5729 586.894 55.5729C585.199 55.5729 583.903 55.938 583.039 56.6681C582.175 57.3983 581.743 58.2611 581.743 59.2568C581.743 60.1694 582.142 60.8996 582.923 61.4306C583.704 61.945 584.601 62.2105 585.632 62.2105Z" fill="white"/>
<path d="M602.315 73.0131H598.692L603.029 63.621L595.336 46.1642H599.141L604.708 59.5555H604.791L610.191 46.1642H613.997L602.315 73.0131Z" fill="white"/>
<path d="M361.07 50.7275C361.07 42.0323 361.07 33.3205 361.07 24.6253C361.07 23.5633 361.27 22.5842 362.034 21.7711C362.333 21.4558 362.533 21.3729 362.898 21.7379C368.764 27.7117 374.63 33.6689 380.512 39.6261C384.317 43.4925 388.123 47.3423 391.945 51.1921C392.31 51.5572 392.343 51.7563 391.961 52.1545C382.622 61.4305 373.284 70.7231 363.978 80.0323C363.413 80.5965 363.015 80.5467 362.466 80.1152C361.469 79.3519 361.087 78.3231 361.087 77.0951C361.087 71.9344 361.087 66.7903 361.07 61.6296C361.054 58.0122 361.054 54.3615 361.07 50.7275C361.054 50.7275 361.07 50.7275 361.07 50.7275Z" fill="white"/>
<path d="M364.41 20.7755C365.125 20.7755 365.623 20.9746 366.105 21.2401C378.036 27.9109 389.967 34.5982 401.898 41.2524C402.446 41.5511 402.43 41.7336 402.014 42.1484C399.339 44.7703 396.697 47.4087 394.055 50.0637C393.772 50.3458 393.59 50.5118 393.207 50.1301C383.719 40.4559 374.214 30.8148 364.709 21.1572C364.643 21.0742 364.576 20.9746 364.41 20.7755Z" fill="white"/>
<path d="M367.086 79.8166C375.743 71.0716 384.417 62.3432 393.058 53.5817C393.59 53.0341 393.839 53.117 394.321 53.6148C396.514 55.9048 398.741 58.145 400.984 60.3851C401.383 60.7834 401.416 60.9328 400.885 61.2314C389.768 67.3048 378.651 73.4114 367.551 79.5013C367.352 79.5843 367.185 79.7502 367.086 79.8166Z" fill="white"/>
<path d="M416.554 50.9598C416.521 51.9388 416.056 52.6358 415.358 53.1502C414.843 53.5319 414.261 53.8471 413.696 54.1624C410.34 56.0209 406.966 57.8629 403.61 59.7214C403.161 59.9703 402.895 59.9703 402.513 59.572C400.12 57.1161 397.711 54.6602 395.301 52.2375C394.952 51.8891 394.936 51.6899 395.301 51.3415C398.126 48.5703 400.934 45.7659 403.726 42.9616C404.058 42.6297 404.291 42.5965 404.706 42.8288C408.03 44.7039 411.37 46.5624 414.693 48.4209C415.707 49.0017 416.521 49.7485 416.554 50.9598Z" fill="white"/>
</g>
<path d="M49.7145 27.0237H54.4804C54.7971 27.0237 55.0504 26.7714 55.0504 26.4717C55.0504 26.1564 54.7971 25.9041 54.4804 25.9041H49.7145C49.4136 25.9041 49.1445 26.1564 49.1445 26.4717C49.1445 26.7714 49.3978 27.0237 49.7145 27.0237ZM52.0895 68.6689C50.7278 68.6689 49.6036 69.7884 49.6036 71.1445C49.6036 72.5007 50.712 73.6202 52.0895 73.6202C53.4671 73.6202 54.5754 72.5164 54.5754 71.1445C54.5754 69.7727 53.4671 68.6689 52.0895 68.6689ZM39.9292 66.5558H64.2815V30.682H39.9292V66.5558ZM117.974 54.7766C116.818 54.7766 115.773 55.1551 114.839 55.912C113.904 56.6846 113.287 57.6781 113.002 58.9238C112.859 59.5072 112.796 59.9803 112.796 60.343V63.8279C112.796 65.3574 113.255 66.6505 114.205 67.6912C115.139 68.7319 116.359 69.2681 117.863 69.2681C119.62 69.2681 120.998 68.59 121.98 67.2339C122.961 65.8778 123.452 64.0959 123.452 61.8725C123.452 59.8384 122.993 58.1511 122.075 56.8265C121.045 55.4704 119.684 54.7766 117.974 54.7766ZM203.365 54.477C201.496 54.477 200.056 55.3127 199.09 56.9685C198.235 58.3403 197.823 60.0118 197.823 61.9987C197.823 63.9225 198.235 65.5782 199.09 66.9501C200.087 68.6058 201.512 69.4415 203.333 69.4415C205.106 69.4415 206.516 68.6058 207.529 66.9028C208.4 65.5151 208.843 63.8436 208.843 61.9198C208.843 59.9961 208.432 58.3403 207.592 56.9685C206.579 55.3127 205.186 54.477 203.365 54.477ZM141.122 54.7766C139.967 54.7766 138.922 55.1551 137.987 55.912C137.053 56.6846 136.436 57.6781 136.135 58.9238C135.992 59.5072 135.929 59.9803 135.929 60.343V63.8279C135.929 65.3574 136.388 66.6505 137.338 67.6912C138.272 68.7319 139.492 69.2681 140.996 69.2681C142.769 69.2681 144.131 68.59 145.128 67.2339C146.11 65.8778 146.601 64.0959 146.601 61.8725C146.601 59.8384 146.142 58.1511 145.208 56.8265C144.194 55.4704 142.833 54.7766 141.122 54.7766ZM92.7663 47.2707H92.6713C92.3705 48.5007 91.9271 50.3298 91.278 52.7582L88.8554 60.3587H96.6931L94.2389 52.7582C93.9697 51.9698 93.4788 50.1406 92.7663 47.2707ZM238.864 54.2562C237.344 54.2562 236.093 54.9028 235.143 56.1643C234.367 57.1735 233.892 58.3719 233.75 59.7753H243.503C243.535 58.4034 243.234 57.205 242.601 56.1958C241.777 54.9185 240.526 54.2562 238.864 54.2562ZM113.398 33.5519C113.461 33.3469 113.461 33.1577 113.461 32.9527V31.4704C111.529 31.4547 109.677 31.8489 109.677 33.4888C109.677 34.5611 110.373 35.0499 111.228 35.0499C112.353 35.0342 113.128 34.3246 113.398 33.5519ZM87.8579 26.7714C87.5729 25.8568 87.3195 24.8476 87.0979 23.9803H87.0504C86.8287 24.8476 86.5753 25.8883 86.3378 26.7714L85.182 30.4612H89.0296L87.8579 26.7714ZM243.187 25.6991C246.702 25.6991 247.873 28.5848 247.873 30.9658C247.873 31.4704 247.826 31.8804 247.778 32.117H240.511C240.574 34.0723 242.094 34.908 243.852 34.908C245.118 34.908 246.021 34.703 246.86 34.4192L247.256 36.2799C246.322 36.6741 245.023 36.9737 243.472 36.9737C239.956 36.9737 237.882 34.8292 237.882 31.5177C237.882 28.5217 239.703 25.6991 243.187 25.6991ZM199.707 25.9514L199.834 27.5756H199.897C200.388 26.724 201.56 25.7148 203.365 25.7148C205.265 25.7148 207.212 26.929 207.212 30.3509V36.7687H204.473V30.6662C204.473 29.1209 203.887 27.9382 202.399 27.9382C201.306 27.9382 200.546 28.7109 200.261 29.5309C200.166 29.7516 200.135 30.0828 200.135 30.3982V36.7687H197.395V29.184C197.395 27.9382 197.348 26.8975 197.3 25.9671H199.707V25.9514ZM170.922 25.6991C174.437 25.6991 175.608 28.5848 175.608 30.9658C175.608 31.4704 175.561 31.8804 175.513 32.117H168.246C168.309 34.0723 169.829 34.908 171.587 34.908C172.853 34.908 173.74 34.703 174.595 34.4192L174.991 36.2799C174.057 36.6741 172.758 36.9737 171.207 36.9737C167.691 36.9737 165.617 34.8292 165.617 31.5177C165.617 28.5217 167.454 25.6991 170.922 25.6991ZM159.695 21H162.435V36.753H159.695V21ZM137.972 27.6229C136.895 27.6229 135.787 27.954 135.058 28.4271L134.52 26.6452C135.327 26.1564 136.721 25.6833 138.447 25.6833C141.93 25.6833 142.928 27.8752 142.928 30.2562V34.1353C142.928 35.113 142.975 36.0591 143.102 36.7372H140.632L140.426 35.5388H140.362C139.713 36.3745 138.573 36.9737 137.148 36.9737C134.963 36.9737 133.744 35.3968 133.744 33.7569C133.744 31.0447 136.167 29.657 140.188 29.6728V29.4993C140.172 28.8055 139.872 27.6229 137.972 27.6229ZM121.758 21.4415C122.692 21.4415 123.278 22.088 123.294 22.9238C123.294 23.728 122.692 24.3903 121.726 24.3903C120.808 24.3903 120.206 23.728 120.206 22.9238C120.222 22.088 120.855 21.4415 121.758 21.4415ZM123.12 25.9514V36.753H120.38V25.9514H123.12ZM85.4353 21.7884H88.9346L93.8114 36.7372H90.8504L89.4887 32.4954H84.7386L83.4403 36.7372H80.606L85.4353 21.7884ZM67.1791 71.3811C67.1791 74.0145 65.0257 76.159 62.3814 76.159H41.7976C39.1534 76.159 37 74.0302 37 71.3811V25.841C37 23.2076 39.1534 21.0631 41.7976 21.0631H62.3814C65.0257 21.0631 67.1791 23.2076 67.1791 25.841V71.3811ZM100.256 72.4691L97.5323 63.9225H88.032L85.4353 72.4691H80.5902L89.9796 43.3758H95.7906L105.243 72.4691H100.256ZM101.317 36.753H98.6248L94.5872 25.9514H97.5481L99.3056 31.4389C99.6223 32.385 99.844 33.2523 100.034 34.1511H100.097C100.303 33.2681 100.541 32.4166 100.826 31.4389L102.567 25.9514H105.449L101.317 36.753ZM106.969 33.7727C106.969 31.0604 109.392 29.6728 113.413 29.6886V29.5151C113.413 28.8055 113.128 27.6229 111.213 27.6229C110.136 27.6229 109.028 27.954 108.299 28.4271L107.761 26.6452C108.568 26.1564 109.962 25.6833 111.688 25.6833C115.155 25.6833 116.169 27.8752 116.169 30.2562V34.1353C116.169 35.113 116.216 36.0591 116.343 36.7372H113.873L113.667 35.5388H113.603C112.954 36.3745 111.814 36.9737 110.389 36.9737C108.188 36.9895 106.969 35.4126 106.969 33.7727ZM125.289 70.1984C123.547 72.0276 121.378 72.9579 118.797 72.9579C115.994 72.9579 113.999 71.9645 112.78 69.9777V81H108.109V58.3876C108.109 56.1485 108.046 53.8463 107.935 51.4967H112.052L112.305 54.8239H112.384C113.952 52.3325 116.311 51.071 119.494 51.071C121.98 51.071 124.054 52.0486 125.716 54.0039C127.379 55.9593 128.202 58.5453 128.202 61.7306C128.218 65.3101 127.236 68.1169 125.289 70.1984ZM130.166 36.753H127.426V21H130.166V36.753ZM148.438 70.1984C146.696 72.0276 144.527 72.9579 141.946 72.9579C139.159 72.9579 137.148 71.9645 135.945 69.9777V81H131.258V58.3876C131.258 56.1485 131.195 53.8463 131.084 51.4967H135.185L135.454 54.8239H135.533C137.101 52.3325 139.46 51.071 142.643 51.071C145.128 51.071 147.203 52.0486 148.865 54.0039C150.528 55.9593 151.367 58.5453 151.367 61.7306C151.351 65.3101 150.385 68.1169 148.438 70.1984ZM151.652 36.9895C150.243 36.9895 149.008 36.4534 148.216 35.1288H148.168L148.042 36.753H145.698C145.746 36.0276 145.793 34.8292 145.793 33.7096V21H148.533V27.4336H148.58C149.245 26.3929 150.433 25.6991 152.064 25.6991C154.708 25.6991 156.608 27.8909 156.592 31.1866C156.576 35.0657 154.09 36.9895 151.652 36.9895ZM175.212 70.3561C173.297 72.0591 170.652 72.8949 167.248 72.8949C164.097 72.8949 161.58 72.2957 159.68 71.0815L160.772 67.2024C162.815 68.4008 165.079 69.0158 167.517 69.0158C169.291 69.0158 170.652 68.6215 171.634 67.8331C172.616 67.0447 173.107 65.9882 173.107 64.6478C173.107 63.4809 172.695 62.4875 171.903 61.6833C171.08 60.8791 169.75 60.138 167.881 59.4441C162.767 57.5519 160.218 54.7766 160.218 51.1183C160.218 48.7214 161.105 46.7661 162.925 45.2365C164.731 43.7227 167.121 42.9501 170.098 42.9501C172.758 42.9501 174.959 43.4074 176.732 44.3219L175.545 48.1222C173.898 47.2392 172.03 46.7819 169.94 46.7819C168.293 46.7819 166.995 47.1919 166.061 47.9803C165.285 48.7057 164.889 49.5887 164.889 50.6294C164.889 51.7648 165.332 52.7267 166.235 53.4836C167.011 54.1774 168.436 54.9185 170.478 55.7227C172.996 56.7162 174.848 57.9146 176.036 59.2707C177.223 60.6268 177.809 62.2983 177.809 64.3167C177.793 66.7924 176.922 68.8108 175.212 70.3561ZM191.711 54.9816H186.549V65.184C186.549 67.77 187.468 69.0631 189.289 69.0631C190.128 69.0631 190.809 69 191.363 68.8581L191.49 72.3903C190.571 72.7372 189.352 72.9106 187.848 72.9106C186.011 72.9106 184.554 72.3587 183.509 71.2234C182.464 70.1038 181.942 68.2116 181.942 65.5782V54.9816H178.87V51.4967H181.942V47.6491L186.534 46.2615V51.4809H191.695V54.9816H191.711ZM189.067 36.9895C186.011 36.9895 183.636 34.908 183.636 31.4231C183.636 27.8752 185.979 25.6991 189.257 25.6991C192.487 25.6991 194.656 27.9698 194.656 31.2497C194.64 35.2234 191.822 36.9895 189.067 36.9895ZM210.917 69.7569C208.97 71.8857 206.405 72.9422 203.206 72.9422C200.103 72.9422 197.633 71.9172 195.812 69.883C193.975 67.8489 193.073 65.2628 193.073 62.1564C193.073 58.908 194.023 56.2431 195.907 54.1774C197.807 52.0959 200.341 51.071 203.555 51.071C206.658 51.071 209.144 52.0802 211.012 54.1301C212.802 56.1012 213.688 58.6715 213.688 61.8095C213.673 65.042 212.754 67.6754 210.917 69.7569ZM215.747 25.9514H217.283V23.9172L219.974 23.1603V25.9356H222.587V27.9698H219.974V32.7477C219.974 34.0723 220.323 34.7503 221.384 34.7503C221.874 34.7503 222.144 34.7346 222.46 34.6399L222.508 36.7057C222.112 36.8633 221.368 36.9895 220.529 36.9895C219.499 36.9895 218.676 36.6583 218.169 36.1064C217.568 35.4915 217.298 34.4823 217.298 33.0631V27.9855H215.763V25.9514H215.747ZM227.765 55.5966C227.305 55.5177 226.815 55.4704 226.292 55.4704C224.645 55.4704 223.379 56.0854 222.476 57.3154C221.7 58.4192 221.304 59.7753 221.304 61.4626V72.4691H216.618V58.088C216.618 55.6912 216.57 53.4836 216.491 51.4967H220.56L220.734 55.5177H220.861C221.352 54.1459 222.128 53.0263 223.204 52.2063C224.249 51.4494 225.374 51.0867 226.593 51.0867C227.02 51.0867 227.416 51.1025 227.749 51.1656V55.5966H227.765ZM228.477 30.272V36.753H225.738V21H228.477V27.4179H228.525C228.857 26.9133 229.332 26.4875 229.886 26.2037C230.44 25.8883 231.09 25.7148 231.786 25.7148C233.639 25.7148 235.571 26.929 235.571 30.3982V36.7687H232.831V30.6978C232.831 29.1524 232.245 27.9382 230.741 27.9382C229.665 27.9382 228.92 28.6478 228.604 29.4678C228.493 29.6886 228.477 29.9882 228.477 30.272ZM247.794 63.1183H233.75C233.813 65.184 234.478 66.7608 235.792 67.8489C236.98 68.8265 238.5 69.3154 240.384 69.3154C242.474 69.3154 244.358 68.9842 246.068 68.3219L246.812 71.5703C244.833 72.4376 242.458 72.8633 239.751 72.8633C236.489 72.8633 233.924 71.9172 232.071 69.9934C230.203 68.0854 229.269 65.5151 229.269 62.2983C229.269 59.1288 230.14 56.4954 231.865 54.3982C233.702 52.159 236.156 51.0394 239.244 51.0394C242.284 51.0394 244.58 52.159 246.132 54.3982C247.367 56.18 248 58.3876 248 61.0053C247.952 61.8252 247.905 62.5348 247.794 63.1183ZM151.05 27.8279C149.942 27.8279 148.913 28.6321 148.628 29.8305C148.58 30.0355 148.533 30.272 148.533 30.5401V32.2904C148.533 32.5112 148.548 32.7319 148.596 32.9369C148.881 34.0407 149.847 34.8449 151.019 34.8449C152.729 34.8449 153.789 33.4888 153.789 31.297C153.789 29.389 152.871 27.8279 151.05 27.8279ZM170.763 27.5598C169.069 27.5598 168.356 29.0894 168.246 30.1932H173.012C173.043 29.1997 172.6 27.5598 170.763 27.5598ZM189.178 27.6702C187.246 27.6702 186.454 29.5624 186.454 31.3601C186.454 33.4415 187.499 35.0184 189.146 35.0184C190.698 35.0184 191.79 33.5046 191.79 31.3127C191.806 29.6255 191.046 27.6702 189.178 27.6702ZM136.452 33.4888C136.452 34.5611 137.148 35.0499 138.003 35.0499C139.112 35.0499 139.903 34.3403 140.172 33.5677C140.236 33.3627 140.236 33.1735 140.236 32.9685V31.4862C138.304 31.4389 136.452 31.8489 136.452 33.4888ZM243.028 27.5598C241.334 27.5598 240.622 29.0894 240.511 30.1932H245.277C245.292 29.1997 244.849 27.5598 243.028 27.5598Z" fill="white"/>
<path d="M270.375 94H13.6077C6.09881 94 0 88.3239 0 81.3518V12.6646C0 5.67609 6.09881 0 13.6077 0H270.375C277.884 0 283.982 5.67609 283.982 12.6646V81.3354C284 88.3239 277.884 94 270.375 94ZM13.6077 3.28098C8.05536 3.28098 3.52532 7.49703 3.52532 12.6646V81.3354C3.52532 86.503 8.05536 90.7026 13.6077 90.7026H270.375C275.945 90.7026 280.457 86.503 280.457 81.3354V12.6646C280.457 7.48063 275.927 3.28098 270.375 3.28098H13.6077Z" fill="white"/>
<defs>
<clipPath id="clip0">
<rect width="284" height="95" fill="white" transform="translate(340)"/>
</clipPath>
</defs>
</svg>
