<svg width="130" height="156" viewBox="0 0 130 156" fill="none" xmlns="http://www.w3.org/2000/svg">
<path d="M118.598 65.676C82.6647 74.0676 47.0841 74.0676 11.5035 65.676C11.5035 79.0609 11.5035 92.9312 11.5741 106.732C11.5741 108.813 11.9977 110.893 12.4213 112.904C18.5632 141.269 45.4604 158.122 72.1458 154.654C97.6311 151.395 118.528 128.994 118.669 103.819C118.739 93.5554 118.669 83.2913 118.669 72.9579C118.598 70.3919 118.598 67.7566 118.598 65.676ZM39.7421 105.206C33.459 105.276 25.6934 97.9245 25.6228 91.5442C25.6228 90.5732 26.823 88.9088 27.5995 88.8395C28.6585 88.7701 30.2116 89.6023 30.9175 90.5733C31.9765 92.0296 32.3295 93.9715 33.3178 95.4972C36.9182 101.184 42.7071 101.045 46.0252 95.2198C46.9429 93.6247 47.4371 91.7522 48.496 90.2958C49.1314 89.4636 50.7551 88.6314 51.6023 88.8395C52.52 89.1169 53.579 90.6426 53.6496 91.6135C53.6496 97.6471 45.884 105.137 39.7421 105.206ZM70.7339 118.938C67.4865 120.117 63.9567 120.811 60.568 121.504C57.7442 122.128 56.1911 120.672 56.8264 117.898C58.5207 110.824 60.2856 103.819 62.2623 96.8149C62.6153 95.7053 64.4508 95.0811 65.651 94.1795C66.2863 95.5666 67.6983 97.1616 67.4159 98.41C66.2863 103.819 64.7332 109.09 63.1095 115.193C65.651 114.5 67.4865 113.667 69.2514 113.737C70.5927 113.737 71.934 114.846 73.2754 115.47C72.4282 116.719 71.8634 118.522 70.7339 118.938ZM90.4303 105.206C84.0766 105.206 76.2404 97.6471 76.3816 91.4748C76.3816 90.5039 77.723 88.9088 78.4289 88.8395C79.4879 88.8395 80.9704 89.741 81.6763 90.6426C82.9471 92.4457 83.4413 94.665 84.712 96.3988C88.03 100.907 93.2542 100.699 96.2898 95.9827C97.4193 94.2489 97.9135 92.099 99.1136 90.4345C99.749 89.533 101.373 88.7008 102.432 88.8395C103.208 88.9088 104.338 90.6426 104.338 91.6829C104.267 97.9245 96.5722 105.206 90.4303 105.206Z" fill="#FF8D6C"/>
<path d="M85.7006 50.6266C84.8534 50.4879 83.5121 51.3201 82.8767 52.083C73.205 63.6647 56.8973 63.8034 47.155 52.3604C46.2372 51.3201 44.1899 50.5572 42.778 50.6959C37.7656 51.1121 32.7533 51.8056 27.8115 52.6378C22.1638 53.6087 16.5161 54.649 10.6566 58.394C13.1275 59.5036 14.7512 60.6132 16.5161 60.8906C25.976 62.6244 35.3654 64.913 44.8959 65.4678C58.3798 66.2307 71.9343 66.2307 85.3476 65.4678C94.6663 64.913 103.844 62.5551 113.021 60.8213C114.928 60.4745 116.692 59.1568 119.304 57.9779C117.187 56.9376 116.057 56.036 114.716 55.7586C105.044 53.9555 95.3723 52.2217 85.7006 50.6266Z" fill="#FF8D6C"/>
<path d="M54.0733 51.3203C59.4387 55.8281 65.6512 56.591 72.146 53.6089C78.4291 50.7655 81.3236 45.7722 81.8883 39.045C70.6635 37.0339 59.9328 35.092 49.061 33.0808C46.7313 40.6401 48.5668 46.6044 54.0733 51.3203Z" fill="#FF8D6C"/>
<path d="M71.2991 23.3715C68.5458 22.4006 67.6281 20.7361 67.6986 17.8927C67.9104 11.9285 67.7692 5.96424 67.7692 0C65.7219 0 64.0982 0 62.1215 0C62.1215 6.10294 61.9803 12.0672 62.1921 18.0314C62.2627 20.7361 61.345 22.2619 58.8035 23.3021C56.5444 24.2731 54.5677 25.9375 51.8145 27.6713C61.9803 29.6131 71.0167 31.3469 80.9708 33.2888C78.6411 28.0874 75.676 24.9666 71.2991 23.3715Z" fill="#FF8D6C"/>
<path d="M5.43242 101.184C5.43242 94.6648 5.43242 88.1458 5.43242 81.3494C-2.26259 85.5105 -1.34483 98.6179 5.43242 101.184Z" fill="#FF8D6C"/>
<path d="M124.387 81.488C124.387 88.0764 124.387 94.5955 124.387 101.461C131.941 95.9132 131.8 85.9959 124.387 81.488Z" fill="#FF8D6C"/>
<path d="M90.1479 2.77463C89.9361 1.66501 88.5242 0.347328 87.4653 0.069922C86.8299 -0.0687811 84.9944 1.59566 84.9238 2.49723C84.9238 3.5375 86.1946 4.64713 87.5359 6.65832C88.8772 4.71648 90.2891 3.60685 90.1479 2.77463Z" fill="#FF8D6C"/>
<path d="M33.8829 21.7764C35.0124 21.499 36.2832 20.1119 36.495 19.0023C36.6362 18.1701 35.1536 17.0605 33.8123 15.2573C32.5416 17.2685 31.2708 18.3781 31.3414 19.4878C31.3414 20.32 33.1769 21.9844 33.8829 21.7764Z" fill="#FF8D6C"/>
</svg>
