<svg width="1701" height="1129" viewBox="0 0 1701 1129" fill="none" xmlns="http://www.w3.org/2000/svg">
<g clip-path="url(#clip0)">
<path d="M749.88 226.627C684 131.912 725.369 11.5757 808.04 -100.947C886.58 -247.931 1312.38 -177.572 1503.26 -268.881C1694.14 -360.19 1735.96 7.83736 1647.77 25.0386C1559.58 42.2398 1695.37 358.435 1721.02 503.906C1746.67 649.376 1593.49 780.353 1549.73 745.98C1505.98 711.606 1311.44 862.407 1221.66 809.973C1131.88 757.538 1187.81 586.162 1125.71 558.306C1063.61 530.449 947.131 536.711 906.229 402.444C865.328 268.177 815.76 321.342 749.88 226.627Z" fill="url(#paint0_linear)"/>
<path d="M885.33 216.857C819.45 122.142 860.82 1.80491 943.491 -110.718C1022.03 -257.702 1447.83 -187.343 1638.71 -278.652C1829.59 -369.961 1871.41 -1.93339 1783.22 15.2678C1695.04 32.469 1830.82 348.664 1856.47 494.135C1882.12 639.605 1728.94 770.583 1685.18 736.209C1641.43 701.836 1446.89 852.636 1357.11 800.202C1267.33 747.767 1323.26 576.391 1261.16 548.535C1199.06 520.679 1082.58 526.94 1041.68 392.673C1000.78 258.407 951.211 311.571 885.33 216.857Z" fill="url(#paint1_linear)"/>
<rect x="1189.21" y="332.774" width="256.612" height="544.259" rx="45" fill="#FBFBFB"/>
<rect x="1204.35" y="381.22" width="226.333" height="445.853" rx="45" fill="url(#paint2_linear)"/>
<path d="M1278.97 584.8H1266.77L1263.77 592H1256.62L1273.22 553.75H1273.62L1290.22 592H1281.82L1278.97 584.8ZM1276.57 578.7L1273.02 569.75L1269.32 578.7H1276.57ZM1301.54 592.45C1299.74 592.45 1298.06 592.133 1296.49 591.5C1294.92 590.867 1293.62 589.983 1292.59 588.85L1295.49 585C1297.42 586.8 1299.24 587.7 1300.94 587.7C1301.84 587.7 1302.56 587.567 1303.09 587.3C1303.66 587 1303.94 586.567 1303.94 586C1303.94 585.333 1303.62 584.833 1302.99 584.5C1302.36 584.133 1301.64 583.833 1300.84 583.6C1300.07 583.367 1299.56 583.217 1299.29 583.15C1297.39 582.55 1295.97 581.667 1295.04 580.5C1294.11 579.3 1293.64 577.933 1293.64 576.4C1293.64 575.233 1293.94 574.1 1294.54 573C1295.17 571.867 1296.14 570.95 1297.44 570.25C1298.74 569.517 1300.36 569.15 1302.29 569.15C1304.09 569.15 1305.62 569.333 1306.89 569.7C1308.16 570.067 1309.37 570.667 1310.54 571.5L1307.89 575.6C1307.22 575.067 1306.47 574.633 1305.64 574.3C1304.84 573.933 1304.11 573.75 1303.44 573.75C1302.64 573.75 1301.99 573.917 1301.49 574.25C1300.99 574.583 1300.74 574.983 1300.74 575.45C1300.71 576.15 1300.99 576.683 1301.59 577.05C1302.22 577.383 1303.19 577.733 1304.49 578.1C1304.69 578.167 1304.89 578.233 1305.09 578.3C1305.32 578.367 1305.56 578.433 1305.79 578.5C1309.22 579.633 1310.94 581.7 1310.94 584.7C1310.94 586.1 1310.59 587.383 1309.89 588.55C1309.19 589.717 1308.12 590.667 1306.69 591.4C1305.29 592.1 1303.57 592.45 1301.54 592.45ZM1325.85 560.55V570.05H1331.15V575.5H1325.85V592H1318.85V575.5H1315.45V570.05H1318.85V560.55H1325.85ZM1343.33 575.15C1343.93 573.983 1344.75 572.933 1345.78 572C1346.85 571.067 1347.93 570.35 1349.03 569.85C1350.13 569.317 1351 569.05 1351.63 569.05L1351.28 576.05C1351.08 576.017 1350.8 576 1350.43 576C1349.03 576 1347.8 576.367 1346.73 577.1C1345.66 577.833 1344.85 578.783 1344.28 579.95C1343.71 581.083 1343.43 582.25 1343.43 583.45V592H1336.48V570.15H1342.78L1343.33 575.15ZM1354.31 580.8C1354.31 578.567 1354.83 576.567 1355.86 574.8C1356.93 573.033 1358.41 571.65 1360.31 570.65C1362.24 569.617 1364.43 569.1 1366.86 569.1C1369.29 569.1 1371.43 569.617 1373.26 570.65C1375.13 571.65 1376.56 573.033 1377.56 574.8C1378.56 576.567 1379.06 578.567 1379.06 580.8C1379.06 583.033 1378.56 585.05 1377.56 586.85C1376.56 588.65 1375.13 590.067 1373.26 591.1C1371.43 592.1 1369.26 592.6 1366.76 592.6C1364.33 592.6 1362.16 592.133 1360.26 591.2C1358.39 590.233 1356.93 588.867 1355.86 587.1C1354.83 585.333 1354.31 583.233 1354.31 580.8ZM1361.36 580.85C1361.36 582.583 1361.86 584.033 1362.86 585.2C1363.86 586.333 1365.13 586.9 1366.66 586.9C1368.26 586.9 1369.54 586.333 1370.51 585.2C1371.51 584.067 1372.01 582.617 1372.01 580.85C1372.01 579.083 1371.51 577.633 1370.51 576.5C1369.54 575.367 1368.26 574.8 1366.66 574.8C1365.13 574.8 1363.86 575.383 1362.86 576.55C1361.86 577.683 1361.36 579.117 1361.36 580.85ZM1299.9 604.7V643H1292.65V625.45L1280.65 642.5H1280.55L1269 626.55V643H1262V604.7H1262.05L1280.7 631.15L1299.8 604.7H1299.9ZM1315.26 621.15V643H1308.26V621.15H1315.26ZM1308.11 613.4C1308.11 612.4 1308.49 611.567 1309.26 610.9C1310.06 610.2 1310.96 609.85 1311.96 609.85C1312.92 609.85 1313.79 610.2 1314.56 610.9C1315.32 611.567 1315.71 612.4 1315.71 613.4C1315.71 614.4 1315.32 615.233 1314.56 615.9C1313.79 616.567 1312.92 616.9 1311.96 616.9C1310.96 616.9 1310.06 616.567 1309.26 615.9C1308.49 615.233 1308.11 614.4 1308.11 613.4ZM1337.67 620.1C1339.73 620.1 1341.45 620.717 1342.82 621.95C1344.22 623.183 1344.93 624.75 1344.97 626.65V643H1337.97V629.25C1337.87 627.117 1336.8 626.05 1334.77 626.05C1333.17 626.05 1331.88 626.8 1330.92 628.3C1329.95 629.8 1329.47 631.733 1329.47 634.1V643H1322.47V621.15H1328.82L1329.32 624.65C1330.12 623.217 1331.22 622.1 1332.62 621.3C1334.05 620.5 1335.73 620.1 1337.67 620.1ZM1376.15 603.55V643H1369.15V640.7C1366.62 642.633 1363.92 643.6 1361.05 643.6C1359.02 643.6 1357.2 643.117 1355.6 642.15C1354 641.183 1352.74 639.8 1351.8 638C1350.9 636.2 1350.45 634.083 1350.45 631.65C1350.45 629.25 1350.94 627.183 1351.9 625.45C1352.9 623.683 1354.27 622.35 1356 621.45C1357.74 620.517 1359.72 620.05 1361.95 620.05C1363.39 620.05 1364.74 620.283 1366 620.75C1367.27 621.183 1368.34 621.833 1369.2 622.7V603.55H1376.15ZM1363.35 637.7C1364.75 637.7 1365.92 637.433 1366.85 636.9C1367.79 636.333 1368.55 635.5 1369.15 634.4V629.05C1368.75 627.983 1368.04 627.133 1367 626.5C1365.97 625.867 1364.75 625.55 1363.35 625.55C1361.79 625.55 1360.42 626.117 1359.25 627.25C1358.12 628.383 1357.55 629.817 1357.55 631.55C1357.55 632.683 1357.82 633.733 1358.35 634.7C1358.89 635.633 1359.59 636.367 1360.45 636.9C1361.35 637.433 1362.32 637.7 1363.35 637.7Z" fill="#FFF4F4"/>
<g filter="url(#filter0_f)">
<ellipse cx="1458.5" cy="817" rx="103.5" ry="103" fill="#58F0FF" fill-opacity="0.24"/>
</g>
<path d="M1554.41 817C1554.41 869.709 1511.48 912.445 1458.5 912.445C1405.52 912.445 1362.59 869.709 1362.59 817C1362.59 764.292 1405.52 721.555 1458.5 721.555C1511.48 721.555 1554.41 764.292 1554.41 817Z" fill="#43E2C6" fill-opacity="0.57" stroke="#43E2C6" stroke-width="2"/>
<mask id="mask0" mask-type="alpha" maskUnits="userSpaceOnUse" x="1381" y="739" width="155" height="154">
<ellipse cx="1458.5" cy="816.064" rx="77.1545" ry="76.7818" fill="#41436A"/>
</mask>
<g mask="url(#mask0)">
<ellipse cx="1458.5" cy="816.064" rx="77.1545" ry="76.7818" fill="#0CFFE1"/>
<path fill-rule="evenodd" clip-rule="evenodd" d="M1499.34 745.352L1418.05 719.618L1415.4 728.464L1414.15 732.654L1412.9 736.844L1410.4 745.224L1409.15 749.415L1407.9 753.605L1405.4 761.985L1404.15 766.175L1404.01 766.641L1402.76 770.831L1399.14 769.686L1396.59 778.21L1395.39 782.248L1394.18 786.285L1391.77 794.361L1390.57 798.399L1389.36 802.436L1386.95 810.512L1385.74 814.55L1385.61 814.998L1384.4 819.036L1381.76 827.882L1380.51 832.072L1379.26 836.262L1376.76 844.642L1375.51 848.832L1374.26 853.023L1371.75 861.403L1370.5 865.593L1370.36 866.058L1369.11 870.249L1373.12 871.518L1374.01 871.8L1466.22 900.989C1468.43 901.69 1470.79 900.382 1471.48 898.068L1471.62 897.602C1472.31 895.288 1471.08 892.844 1468.86 892.143L1443.03 883.964C1440.81 883.263 1439.58 880.819 1440.27 878.505C1440.96 876.191 1443.31 874.883 1445.53 875.584L1490.52 889.826C1492.73 890.527 1495.09 889.219 1495.78 886.905C1496.47 884.591 1495.23 882.147 1493.02 881.446L1470.3 874.254C1468.09 873.553 1466.85 871.109 1467.54 868.795C1468.23 866.481 1470.59 865.173 1472.8 865.874L1486.17 870.104C1488.38 870.805 1490.74 869.497 1491.43 867.183C1492.12 864.869 1490.88 862.425 1488.67 861.724L1463.06 853.616C1460.72 852.876 1459.42 850.296 1460.15 847.854C1460.87 845.411 1463.36 844.03 1465.7 844.77L1481.51 849.776C1483.72 850.477 1486.06 849.237 1486.73 847.007L1486.86 846.559C1487.52 844.329 1486.27 841.953 1484.06 841.252L1458.22 833.073C1456.01 832.372 1454.75 829.997 1455.42 827.767C1456.08 825.537 1458.42 824.297 1460.63 824.998L1505.62 839.24C1507.83 839.941 1510.17 838.701 1510.84 836.471C1511.5 834.241 1510.25 831.865 1508.03 831.164L1485.31 823.973C1483.1 823.272 1481.84 820.896 1482.51 818.666C1483.18 816.436 1485.51 815.196 1487.73 815.897L1501.09 820.128C1503.3 820.829 1505.64 819.589 1506.3 817.359C1506.97 815.129 1505.71 812.753 1503.5 812.052L1477.89 803.944C1475.55 803.204 1474.22 800.696 1474.93 798.342C1475.63 795.992 1478.09 794.684 1480.42 795.417L1480.43 795.42L1499.86 801.571C1502.08 802.272 1504.43 800.964 1505.12 798.65L1505.26 798.184C1505.95 795.87 1504.72 793.426 1502.5 792.725L1476.67 784.546C1474.45 783.846 1473.22 781.401 1473.91 779.087C1474.6 776.773 1476.96 775.465 1479.17 776.166L1524.16 790.408C1526.37 791.109 1528.73 789.801 1529.42 787.487C1530.11 785.173 1528.88 782.729 1526.66 782.028L1503.94 774.836C1501.73 774.136 1500.49 771.691 1501.19 769.377C1501.88 767.063 1504.23 765.755 1506.45 766.456L1519.81 770.686C1522.02 771.387 1524.38 770.08 1525.07 767.765C1525.76 765.451 1524.53 763.007 1522.31 762.306L1496.7 754.198C1494.36 753.458 1493.06 750.878 1493.79 748.436C1494.52 745.993 1497 744.613 1499.34 745.352Z" fill="#0DD9D6"/>
<path fill-rule="evenodd" clip-rule="evenodd" d="M1450.87 700.128L1359.65 670.579L1356.68 680.736L1355.28 685.548L1353.87 690.359L1351.07 699.981L1349.66 704.793L1348.26 709.604L1345.45 719.227L1344.05 724.038L1343.89 724.572L1342.49 729.384L1338.43 728.069L1335.57 737.857L1334.22 742.493L1332.87 747.129L1330.16 756.402L1328.81 761.038L1327.45 765.674L1324.75 774.947L1323.4 779.583L1323.25 780.099L1321.89 784.735L1318.93 794.892L1317.53 799.703L1316.12 804.514L1313.31 814.137L1311.91 818.948L1310.51 823.759L1307.7 833.382L1306.29 838.193L1306.14 838.728L1304.73 843.539L1309.23 844.996L1310.23 845.32L1413.71 878.836C1416.19 879.641 1418.84 878.139 1419.61 875.482L1419.77 874.947C1420.54 872.29 1419.16 869.484 1416.67 868.679L1387.68 859.288C1385.19 858.483 1383.81 855.677 1384.58 853.02C1385.36 850.362 1388 848.861 1390.49 849.665L1440.97 866.019C1443.46 866.823 1446.1 865.322 1446.88 862.665C1447.65 860.007 1446.27 857.201 1443.78 856.396L1418.29 848.139C1415.8 847.334 1414.42 844.527 1415.19 841.87C1415.97 839.213 1418.61 837.711 1421.1 838.516L1436.09 843.373C1438.58 844.178 1441.22 842.677 1442 840.019C1442.77 837.362 1441.39 834.556 1438.9 833.751L1410.16 824.441C1407.53 823.591 1406.07 820.629 1406.89 817.824C1407.71 815.022 1410.49 813.437 1413.11 814.281L1413.12 814.284L1430.87 820.032C1433.35 820.837 1435.97 819.413 1436.72 816.853L1436.87 816.338C1437.62 813.777 1436.21 811.049 1433.72 810.244L1404.73 800.853C1402.25 800.048 1400.84 797.32 1401.58 794.76C1402.33 792.199 1404.95 790.776 1407.44 791.58L1457.92 807.934C1460.41 808.738 1463.03 807.315 1463.78 804.755C1464.52 802.194 1463.11 799.466 1460.63 798.661L1435.14 790.403C1432.65 789.599 1431.24 786.871 1431.99 784.31C1432.74 781.749 1435.36 780.326 1437.84 781.131L1452.84 785.988C1455.32 786.793 1457.94 785.37 1458.69 782.809C1459.44 780.249 1458.03 777.52 1455.54 776.716L1426.8 767.406C1424.18 766.556 1422.69 763.676 1423.48 760.974C1424.27 758.271 1427.03 756.768 1429.66 757.618L1451.46 764.681C1453.95 765.485 1456.59 763.984 1457.36 761.327L1457.52 760.792C1458.3 758.135 1456.91 755.328 1454.42 754.523L1425.43 745.133C1422.95 744.328 1421.56 741.521 1422.34 738.864C1423.11 736.207 1425.75 734.705 1428.24 735.51L1478.73 751.863C1481.21 752.668 1483.85 751.166 1484.63 748.509C1485.41 745.852 1484.02 743.045 1481.54 742.241L1456.04 733.983C1453.56 733.178 1452.17 730.372 1452.95 727.715C1453.72 725.057 1456.36 723.556 1458.85 724.361L1473.85 729.218C1476.33 730.023 1478.97 728.521 1479.75 725.864C1480.52 723.207 1479.14 720.4 1476.65 719.595L1447.91 710.285C1445.29 709.436 1443.82 706.474 1444.64 703.669C1445.46 700.864 1448.25 699.279 1450.87 700.128Z" fill="#16C3D1"/>
<path fill-rule="evenodd" clip-rule="evenodd" d="M1535.39 822.465C1535.57 820.354 1535.65 818.219 1535.65 816.064C1535.65 773.658 1501.11 739.282 1458.5 739.282C1441.92 739.282 1426.56 744.486 1413.99 753.342C1385.75 767.007 1366.29 795.828 1366.29 829.173C1366.29 875.715 1404.2 913.445 1450.97 913.445C1497.74 913.445 1535.65 875.715 1535.65 829.173C1535.65 826.915 1535.57 824.678 1535.39 822.465ZM1458.5 892.846C1498.95 892.846 1532.12 861.875 1535.39 822.465C1531.96 779.059 1495.47 744.9 1450.97 744.9C1437.71 744.9 1425.16 747.934 1413.99 753.342C1394.24 767.248 1381.35 790.158 1381.35 816.064C1381.35 858.469 1415.89 892.846 1458.5 892.846Z" fill="#92FFEC" fill-opacity="0.86"/>
</g>
<g filter="url(#filter1_f)">
<circle cx="28.2782" cy="97.2782" r="199.089" transform="rotate(24.8244 28.2782 97.2782)" fill="#58F0FF" fill-opacity="0.24"/>
</g>
<circle cx="28.2783" cy="97.2782" r="185.42" transform="rotate(24.8244 28.2783 97.2782)" fill="#43E2C6" fill-opacity="0.57" stroke="#43E2C6" stroke-width="2"/>
<mask id="mask1" mask-type="alpha" maskUnits="userSpaceOnUse" x="-168" y="-102" width="395" height="395">
<circle cx="29.0379" cy="95.6356" r="148.412" transform="rotate(24.8244 29.0379 95.6356)" fill="#41436A"/>
</mask>
<g mask="url(#mask1)">
<circle cx="29.0379" cy="95.6356" r="148.412" transform="rotate(24.8244 29.0379 95.6356)" fill="#0CFFE1"/>
<path fill-rule="evenodd" clip-rule="evenodd" d="M157.719 4.56792L36.6776 -106.229L24.8884 -92.8439L19.304 -86.5035L13.7196 -80.1631L2.55088 -67.4822L-3.03349 -61.1418L-8.61787 -54.8014L-19.7866 -42.1205L-25.371 -35.7801L-25.9915 -35.0756L-31.5759 -28.7352L-36.9616 -33.6651L-48.3221 -20.7665L-53.7034 -14.6566L-59.0847 -8.54676L-69.8473 3.67296L-75.2287 9.78283L-80.61 15.8927L-91.3726 28.1124L-96.7539 34.2223L-97.3518 34.9012L-102.733 41.011L-114.522 54.3963L-120.107 60.7368L-125.691 67.0772L-136.86 79.758L-142.444 86.0985L-148.029 92.4389L-159.197 105.12L-164.782 111.46L-165.402 112.165L-170.987 118.505L-165.017 123.969L-163.691 125.183L-26.4006 250.855C-23.1039 253.872 -17.9313 253.48 -14.8471 249.978L-14.2266 249.274C-11.1424 245.772 -11.3147 240.487 -14.6114 237.469L-53.0792 202.257C-56.3759 199.239 -56.5482 193.954 -53.464 190.453C-50.3798 186.951 -45.2072 186.558 -41.9105 189.576L25.0766 250.894C28.3733 253.912 33.546 253.519 36.6301 250.018C39.7143 246.516 39.542 241.231 36.2454 238.213L2.4202 207.251C-0.876467 204.233 -1.04872 198.948 2.03543 195.446C5.1196 191.945 10.2923 191.552 13.589 194.57L33.4861 212.783C36.7828 215.801 41.9555 215.408 45.0396 211.907C48.1238 208.405 47.9515 203.12 44.6549 200.102L6.51865 165.194C3.03884 162.008 2.857 156.43 6.1125 152.733C9.36539 149.04 14.8193 148.624 18.2995 151.8C18.3023 151.803 18.3051 151.806 18.3079 151.808L41.8529 173.361C45.1495 176.378 50.2313 176.089 53.2033 172.715L53.8012 172.036C56.7733 168.661 56.5101 163.48 53.2134 160.462L14.7456 125.25C11.4489 122.232 11.1857 117.05 14.1577 113.676C17.1298 110.301 22.2115 110.012 25.5082 113.03L92.4953 174.348C95.7919 177.366 100.874 177.076 103.846 173.702C106.818 170.328 106.555 165.146 103.258 162.128L69.4327 131.166C66.1361 128.148 65.8729 122.966 68.8449 119.592C71.8169 116.217 76.8987 115.928 80.1953 118.946L100.092 137.159C103.389 140.177 108.471 139.888 111.443 136.513C114.415 133.139 114.152 127.957 110.855 124.939L72.7189 90.0307C69.2391 86.8454 68.9613 81.3757 72.0984 77.8139C75.2321 74.2559 80.588 73.9474 84.0681 77.1217C84.0719 77.1252 84.0757 77.1286 84.0794 77.1321L113.01 103.614C116.307 106.632 121.479 106.24 124.564 102.738L125.184 102.033C128.268 98.5317 128.096 93.2467 124.799 90.229L86.3315 55.0167C83.0349 51.9991 82.8626 46.7141 85.9468 43.2123C89.0309 39.7106 94.2036 39.3182 97.5003 42.3359L164.487 103.654C167.784 106.671 172.957 106.279 176.041 102.777C179.125 99.2756 178.953 93.9906 175.656 90.9729L141.831 60.0104C138.534 56.9928 138.362 51.7078 141.446 48.206C144.53 44.7043 149.703 44.3119 153 47.3296L172.897 65.5428C176.194 68.5605 181.366 68.1681 184.45 64.6664C187.535 61.1646 187.362 55.8796 184.066 52.862L145.929 17.9533C142.45 14.7679 142.268 9.18933 145.523 5.49307C148.779 1.79681 154.239 1.3826 157.719 4.56792Z" fill="#0DD9D6"/>
<path fill-rule="evenodd" clip-rule="evenodd" d="M109.806 -113.909L-25.483 -239.421L-38.8999 -223.996L-45.2552 -216.69L-51.6105 -209.383L-64.3212 -194.77L-70.6766 -187.463L-77.0319 -180.156L-89.7426 -165.543L-96.098 -158.237L-96.8041 -157.425L-103.159 -150.118L-109.179 -155.703L-122.108 -140.839L-128.232 -133.798L-134.357 -126.757L-146.605 -112.675L-152.729 -105.634L-158.854 -98.593L-171.102 -84.5111L-177.226 -77.4702L-177.907 -76.6879L-184.031 -69.647L-197.448 -54.2219L-203.803 -46.9152L-210.158 -39.6086L-222.869 -24.9954L-229.225 -17.6887L-235.58 -10.3821L-248.291 4.23116L-254.646 11.5378L-255.352 12.3496L-261.707 19.6562L-255.036 25.8459L-253.553 27.2214L-100.101 169.584C-96.4166 173.002 -90.5841 172.502 -87.0742 168.467L-86.368 167.655C-82.858 163.62 -82.9997 157.577 -86.6845 154.159L-129.681 114.27C-133.365 110.851 -133.507 104.809 -129.997 100.773C-126.487 96.738 -120.655 96.2379 -116.97 99.6564L-42.0973 169.118C-38.4126 172.537 -32.5801 172.037 -29.0702 168.001C-25.5602 163.966 -25.7019 157.923 -29.3867 154.505L-67.1936 119.43C-70.8783 116.012 -71.02 109.969 -67.51 105.934C-64.0001 101.899 -58.1677 101.398 -54.4829 104.817L-32.2435 125.449C-28.5588 128.868 -22.7263 128.368 -19.2164 124.332C-15.7064 120.297 -15.8481 114.254 -19.5329 110.836L-62.1583 71.2908C-66.0477 67.6824 -66.1973 61.3042 -62.4923 57.0447C-58.7897 52.7879 -52.6386 52.258 -48.7488 55.8589C-48.7463 55.8612 -48.7439 55.8634 -48.7415 55.8657L-22.4249 80.2805C-18.7401 83.699 -13.0111 83.3178 -9.62881 79.4292L-8.94835 78.6469C-5.56601 74.7583 -5.81117 68.8348 -9.49592 65.4163L-52.492 25.5274C-56.1768 22.1089 -56.4219 16.1854 -53.0396 12.2968C-49.6573 8.40817 -43.9283 8.02703 -40.2435 11.4455L34.629 80.9073C38.3137 84.3258 44.0427 83.9446 47.425 80.056C50.8074 76.1674 50.5622 70.2439 46.8775 66.8254L9.07055 31.7507C5.38582 28.3322 5.14066 22.4087 8.52298 18.5201C11.9053 14.6315 17.6343 14.2503 21.319 17.6688L43.5584 38.301C47.2432 41.7195 52.9721 41.3383 56.3545 37.4498C59.7368 33.5611 59.4916 27.6376 55.8069 24.2192L13.1814 -15.3259C9.29199 -18.9343 9.03321 -25.1869 12.6034 -29.2916C16.1714 -33.3935 22.2131 -33.798 26.1029 -30.1971L26.1104 -30.1901L58.4466 -0.190648C62.1314 3.22782 67.9638 2.72772 71.4738 -1.3076L72.1799 -2.11946C75.6899 -6.15479 75.5482 -12.1973 71.8635 -15.6158L28.8674 -55.5047C25.1826 -58.9232 25.0409 -64.9656 28.5509 -69.001C32.0609 -73.0363 37.8933 -73.5364 41.578 -70.118L116.451 -0.656165C120.135 2.76229 125.968 2.26222 129.478 -1.77312C132.988 -5.80845 132.846 -11.851 129.161 -15.2694L91.3544 -50.3442C87.6696 -53.7626 87.5279 -59.8051 91.0379 -63.8405C94.5478 -67.8758 100.38 -68.3759 104.065 -64.9574L126.304 -44.3252C129.989 -40.9067 135.822 -41.4068 139.332 -45.4422C142.842 -49.4775 142.7 -55.52 139.015 -58.9385L96.3896 -98.4835C92.5002 -102.092 92.3506 -108.47 96.0556 -112.73C99.7606 -116.989 105.917 -117.517 109.806 -113.909Z" fill="#16C3D1"/>
<path fill-rule="evenodd" clip-rule="evenodd" d="M158.08 168.961C160.098 165.4 161.987 161.726 163.736 157.945C198.149 83.5527 165.739 -4.65056 91.3468 -39.0629C62.402 -52.4522 31.3664 -55.7254 2.22184 -50.3459C-58.1594 -49.1762 -115.522 -14.3304 -142.581 44.1661C-180.351 125.816 -144.779 222.624 -63.1295 260.394C18.5201 298.163 115.329 262.591 153.098 180.942C154.93 176.981 156.59 172.985 158.08 168.961ZM-33.2712 230.334C37.339 262.997 120.392 235.459 158.08 168.961C187.308 90.039 151.335 0.65163 73.6463 -35.2858C50.4931 -45.996 26.121 -50.8088 2.22184 -50.3459C-43.539 -41.8992 -84.6376 -12.1205 -105.661 33.3266C-140.073 107.718 -107.663 195.922 -33.2712 230.334Z" fill="#92FFEC" fill-opacity="0.86"/>
</g>
</g>
<defs>
<filter id="filter0_f" x="1305" y="664" width="307" height="306" filterUnits="userSpaceOnUse" color-interpolation-filters="sRGB">
<feFlood flood-opacity="0" result="BackgroundImageFix"/>
<feBlend mode="normal" in="SourceGraphic" in2="BackgroundImageFix" result="shape"/>
<feGaussianBlur stdDeviation="25" result="effect1_foregroundBlur"/>
</filter>
<filter id="filter1_f" x="-286" y="-217" width="628.556" height="628.556" filterUnits="userSpaceOnUse" color-interpolation-filters="sRGB">
<feFlood flood-opacity="0" result="BackgroundImageFix"/>
<feBlend mode="normal" in="SourceGraphic" in2="BackgroundImageFix" result="shape"/>
<feGaussianBlur stdDeviation="25" result="effect1_foregroundBlur"/>
</filter>
<linearGradient id="paint0_linear" x1="1149.89" y1="-221.971" x2="1431.45" y2="1223.19" gradientUnits="userSpaceOnUse">
<stop offset="0.173007" stop-color="#F54768"/>
<stop offset="1" stop-color="#973F8D"/>
</linearGradient>
<linearGradient id="paint1_linear" x1="1285.34" y1="-231.742" x2="1566.9" y2="1213.42" gradientUnits="userSpaceOnUse">
<stop offset="0.173007" stop-color="#F54768"/>
<stop offset="0.498046" stop-color="#973F8D"/>
</linearGradient>
<linearGradient id="paint2_linear" x1="1317.52" y1="381.22" x2="1317.52" y2="827.073" gradientUnits="userSpaceOnUse">
<stop stop-color="#16C3D1"/>
<stop offset="1" stop-color="#154068"/>
</linearGradient>
<clipPath id="clip0">
<rect width="1701" height="1129" fill="white"/>
</clipPath>
</defs>
</svg>
