<svg width="2571" height="1320" viewBox="0 0 2571 1320" fill="none" xmlns="http://www.w3.org/2000/svg">
<g clip-path="url(#clip0)">
<rect width="2571" height="1320" fill="white"/>
<rect x="-11" width="2582" height="1320" fill="url(#paint0_linear)"/>
<g filter="url(#filter0_f)">
<circle cx="1357.81" cy="522.439" r="4.58453" fill="#F2F2F2" fill-opacity="0.5"/>
</g>
<g filter="url(#filter1_f)">
<circle cx="1879.94" cy="753.06" r="4.58453" fill="#F2F2F2" fill-opacity="0.5"/>
</g>
<g filter="url(#filter2_f)">
<circle cx="2014.94" cy="550.06" r="4.58453" fill="#F2F2F2" fill-opacity="0.5"/>
</g>
<g filter="url(#filter3_f)">
<circle cx="1745.94" cy="296.059" r="4.58453" fill="#F2F2F2" fill-opacity="0.5"/>
</g>
<g filter="url(#filter4_f)">
<circle cx="1542.58" cy="595.791" r="4.58453" fill="#F2F2F2" fill-opacity="0.5"/>
</g>
<g filter="url(#filter5_f)">
<circle cx="326.499" cy="372.983" r="4.58453" fill="#F2F2F2" fill-opacity="0.5"/>
</g>
<g filter="url(#filter6_f)">
<circle cx="1602.18" cy="819.516" r="4.58453" fill="#F2F2F2" fill-opacity="0.5"/>
</g>
<g filter="url(#filter7_f)">
<circle cx="2197.94" cy="745.06" r="4.58453" fill="#F2F2F2" fill-opacity="0.5"/>
</g>
<g filter="url(#filter8_f)">
<circle cx="950.588" cy="461.923" r="4.58453" fill="#F2F2F2" fill-opacity="0.5"/>
</g>
<g filter="url(#filter9_f)">
<circle r="4.58453" transform="matrix(-0.146596 0.989196 -0.989197 -0.14659 1215.75 766.958)" fill="#F2F2F2" fill-opacity="0.5"/>
</g>
<g filter="url(#filter10_f)">
<circle r="4.58453" transform="matrix(-0.146594 0.989197 -0.989197 -0.146593 453.296 878.821)" fill="#F2F2F2" fill-opacity="0.5"/>
</g>
<g filter="url(#filter11_f)">
<circle cx="548.654" cy="497.388" r="4.58453" transform="rotate(98.4296 548.654 497.388)" fill="#F2F2F2" fill-opacity="0.5"/>
</g>
<g filter="url(#filter12_f)">
<ellipse cx="925.993" cy="926.196" rx="4.58453" ry="4.58453" transform="rotate(98.4296 925.993 926.196)" fill="#F2F2F2" fill-opacity="0.5"/>
</g>
<g filter="url(#filter13_f)">
<circle r="4.58453" transform="matrix(-0.146595 0.989197 -0.989197 -0.146592 2078.72 987.933)" fill="#F2F2F2" fill-opacity="0.5"/>
</g>
<g filter="url(#filter14_f)">
<circle r="4.58453" transform="matrix(-0.146593 0.989197 -0.989197 -0.146594 290.445 995.268)" fill="#F2F2F2" fill-opacity="0.5"/>
</g>
<g filter="url(#filter15_f)">
<circle cx="783.361" cy="230.071" r="4.58453" transform="rotate(178.405 783.361 230.071)" fill="#F2F2F2" fill-opacity="0.5"/>
</g>
<g filter="url(#filter16_f)">
<circle cx="1137.32" cy="340.1" r="4.58453" transform="rotate(178.405 1137.32 340.1)" fill="#F2F2F2" fill-opacity="0.5"/>
</g>
<g filter="url(#filter17_f)">
<circle cx="335.397" cy="123.71" r="4.58453" transform="rotate(178.405 335.397 123.71)" fill="#F2F2F2" fill-opacity="0.5"/>
</g>
<g filter="url(#filter18_f)">
<circle cx="1386.36" cy="927.837" r="4.58453" transform="rotate(178.405 1386.36 927.837)" fill="#F2F2F2" fill-opacity="0.5"/>
</g>
<g filter="url(#filter19_f)">
<circle r="4.58453" transform="matrix(-0.999613 0.0278334 -0.0278344 -0.999613 1799 963.596)" fill="#F2F2F2" fill-opacity="0.5"/>
</g>
<path d="M176.274 233.628C175.648 233.052 174.681 233.058 174.063 233.643L116.843 287.777C114.245 290.235 114.269 294.375 116.897 296.802C119.496 299.203 123.577 298.942 125.849 296.23L176.419 235.855C176.974 235.193 176.91 234.213 176.274 233.628Z" fill="url(#paint1_linear)"/>
<path d="M168.274 699.628C167.648 699.052 166.681 699.058 166.063 699.643L108.843 753.777C106.245 756.235 106.269 760.375 108.897 762.802C111.496 765.203 115.577 764.942 117.849 762.23L168.419 701.855C168.974 701.193 168.91 700.213 168.274 699.628Z" fill="url(#paint2_linear)"/>
<path d="M561.031 65.0211C560.626 64.6448 560 64.6491 559.6 65.0311L522.576 100.368C520.894 101.973 520.91 104.676 522.611 106.26C524.292 107.827 526.933 107.657 528.403 105.887L561.125 66.4751C561.484 66.0429 561.442 65.4029 561.031 65.0211Z" fill="url(#paint3_linear)"/>
<path d="M741.775 106.5C741.775 116.768 733.658 125.07 723.671 125.07C713.683 125.07 705.566 116.768 705.566 106.5C705.566 96.2325 713.683 87.9302 723.671 87.9302C733.658 87.9302 741.775 96.2325 741.775 106.5Z" fill="#C9FFF8" fill-opacity="0.14" stroke="#0CFFE1"/>
<g filter="url(#filter20_f)">
<ellipse cx="723.67" cy="106.5" rx="20" ry="20.5" fill="#0CFFE1" fill-opacity="0.24"/>
</g>
<ellipse cx="723.67" cy="106.5" rx="12.093" ry="12.3953" fill="url(#paint4_linear)"/>
<path d="M2240.46 364.5C2240.46 374.767 2232.34 383.07 2222.35 383.07C2212.37 383.07 2204.25 374.767 2204.25 364.5C2204.25 354.232 2212.37 345.93 2222.35 345.93C2232.34 345.93 2240.46 354.232 2240.46 364.5Z" fill="#C9FFF8" fill-opacity="0.14" stroke="#0CFFE1"/>
<g filter="url(#filter21_f)">
<ellipse cx="2222.35" cy="364.5" rx="20" ry="20.5" fill="#0CFFE1" fill-opacity="0.24"/>
</g>
<ellipse cx="2222.35" cy="364.5" rx="12.093" ry="12.3953" fill="url(#paint5_linear)"/>
<path d="M110.706 627.5C110.706 637.745 102.195 646.07 91.6706 646.07C81.1465 646.07 72.6357 637.745 72.6357 627.5C72.6357 617.255 81.1465 608.93 91.6706 608.93C102.195 608.93 110.706 617.255 110.706 627.5Z" fill="#FF8360" fill-opacity="0.34" stroke="#FF8562"/>
<g filter="url(#filter22_f)">
<ellipse cx="91.6704" cy="627.5" rx="21" ry="20.5" fill="#FF8360" fill-opacity="0.34"/>
</g>
<ellipse cx="91.6703" cy="627.5" rx="12.6977" ry="12.3953" fill="url(#paint6_linear)"/>
<circle cx="1578.17" cy="487.5" r="15.7791" fill="#FF8360" fill-opacity="0.34" stroke="#FF8562"/>
<g filter="url(#filter23_f)">
<circle cx="1578.17" cy="487.5" r="17.5" fill="#FF8360" fill-opacity="0.34"/>
</g>
<circle cx="1578.17" cy="487.5" r="10.5814" fill="url(#paint7_linear)"/>
<circle cx="1993.85" cy="175.5" r="15.7791" fill="#FF8360" fill-opacity="0.34" stroke="#FF8562"/>
<g filter="url(#filter24_f)">
<circle cx="1993.85" cy="175.5" r="17.5" fill="#FF8360" fill-opacity="0.34"/>
</g>
<circle cx="1993.85" cy="175.5" r="10.5814" fill="url(#paint8_linear)"/>
<circle cx="2425.85" cy="699.5" r="15.7791" fill="#FF8360" fill-opacity="0.34" stroke="#FF8562"/>
<g filter="url(#filter25_f)">
<circle cx="2425.85" cy="699.5" r="17.5" fill="#FF8360" fill-opacity="0.34"/>
</g>
<circle cx="2425.85" cy="699.5" r="10.5814" fill="url(#paint9_linear)"/>
</g>
<defs>
<filter id="filter0_f" x="1351.23" y="515.854" width="13.1691" height="13.1691" filterUnits="userSpaceOnUse" color-interpolation-filters="sRGB">
<feFlood flood-opacity="0" result="BackgroundImageFix"/>
<feBlend mode="normal" in="SourceGraphic" in2="BackgroundImageFix" result="shape"/>
<feGaussianBlur stdDeviation="1" result="effect1_foregroundBlur"/>
</filter>
<filter id="filter1_f" x="1873.35" y="746.475" width="13.1691" height="13.1691" filterUnits="userSpaceOnUse" color-interpolation-filters="sRGB">
<feFlood flood-opacity="0" result="BackgroundImageFix"/>
<feBlend mode="normal" in="SourceGraphic" in2="BackgroundImageFix" result="shape"/>
<feGaussianBlur stdDeviation="1" result="effect1_foregroundBlur"/>
</filter>
<filter id="filter2_f" x="2008.35" y="543.475" width="13.1691" height="13.1691" filterUnits="userSpaceOnUse" color-interpolation-filters="sRGB">
<feFlood flood-opacity="0" result="BackgroundImageFix"/>
<feBlend mode="normal" in="SourceGraphic" in2="BackgroundImageFix" result="shape"/>
<feGaussianBlur stdDeviation="1" result="effect1_foregroundBlur"/>
</filter>
<filter id="filter3_f" x="1739.35" y="289.475" width="13.1691" height="13.1691" filterUnits="userSpaceOnUse" color-interpolation-filters="sRGB">
<feFlood flood-opacity="0" result="BackgroundImageFix"/>
<feBlend mode="normal" in="SourceGraphic" in2="BackgroundImageFix" result="shape"/>
<feGaussianBlur stdDeviation="1" result="effect1_foregroundBlur"/>
</filter>
<filter id="filter4_f" x="1536" y="589.207" width="13.1691" height="13.1691" filterUnits="userSpaceOnUse" color-interpolation-filters="sRGB">
<feFlood flood-opacity="0" result="BackgroundImageFix"/>
<feBlend mode="normal" in="SourceGraphic" in2="BackgroundImageFix" result="shape"/>
<feGaussianBlur stdDeviation="1" result="effect1_foregroundBlur"/>
</filter>
<filter id="filter5_f" x="319.914" y="366.398" width="13.1691" height="13.1691" filterUnits="userSpaceOnUse" color-interpolation-filters="sRGB">
<feFlood flood-opacity="0" result="BackgroundImageFix"/>
<feBlend mode="normal" in="SourceGraphic" in2="BackgroundImageFix" result="shape"/>
<feGaussianBlur stdDeviation="1" result="effect1_foregroundBlur"/>
</filter>
<filter id="filter6_f" x="1595.6" y="812.932" width="13.1691" height="13.1691" filterUnits="userSpaceOnUse" color-interpolation-filters="sRGB">
<feFlood flood-opacity="0" result="BackgroundImageFix"/>
<feBlend mode="normal" in="SourceGraphic" in2="BackgroundImageFix" result="shape"/>
<feGaussianBlur stdDeviation="1" result="effect1_foregroundBlur"/>
</filter>
<filter id="filter7_f" x="2191.35" y="738.475" width="13.1691" height="13.1691" filterUnits="userSpaceOnUse" color-interpolation-filters="sRGB">
<feFlood flood-opacity="0" result="BackgroundImageFix"/>
<feBlend mode="normal" in="SourceGraphic" in2="BackgroundImageFix" result="shape"/>
<feGaussianBlur stdDeviation="1" result="effect1_foregroundBlur"/>
</filter>
<filter id="filter8_f" x="944.003" y="455.338" width="13.1691" height="13.1691" filterUnits="userSpaceOnUse" color-interpolation-filters="sRGB">
<feFlood flood-opacity="0" result="BackgroundImageFix"/>
<feBlend mode="normal" in="SourceGraphic" in2="BackgroundImageFix" result="shape"/>
<feGaussianBlur stdDeviation="1" result="effect1_foregroundBlur"/>
</filter>
<filter id="filter9_f" x="1209.17" y="760.373" width="13.1703" height="13.1703" filterUnits="userSpaceOnUse" color-interpolation-filters="sRGB">
<feFlood flood-opacity="0" result="BackgroundImageFix"/>
<feBlend mode="normal" in="SourceGraphic" in2="BackgroundImageFix" result="shape"/>
<feGaussianBlur stdDeviation="1" result="effect1_foregroundBlur"/>
</filter>
<filter id="filter10_f" x="446.711" y="872.236" width="13.1703" height="13.1703" filterUnits="userSpaceOnUse" color-interpolation-filters="sRGB">
<feFlood flood-opacity="0" result="BackgroundImageFix"/>
<feBlend mode="normal" in="SourceGraphic" in2="BackgroundImageFix" result="shape"/>
<feGaussianBlur stdDeviation="1" result="effect1_foregroundBlur"/>
</filter>
<filter id="filter11_f" x="541.447" y="490.181" width="14.4141" height="14.4141" filterUnits="userSpaceOnUse" color-interpolation-filters="sRGB">
<feFlood flood-opacity="0" result="BackgroundImageFix"/>
<feBlend mode="normal" in="SourceGraphic" in2="BackgroundImageFix" result="shape"/>
<feGaussianBlur stdDeviation="1" result="effect1_foregroundBlur"/>
</filter>
<filter id="filter12_f" x="918.786" y="918.989" width="14.4141" height="14.4141" filterUnits="userSpaceOnUse" color-interpolation-filters="sRGB">
<feFlood flood-opacity="0" result="BackgroundImageFix"/>
<feBlend mode="normal" in="SourceGraphic" in2="BackgroundImageFix" result="shape"/>
<feGaussianBlur stdDeviation="1" result="effect1_foregroundBlur"/>
</filter>
<filter id="filter13_f" x="2072.13" y="981.348" width="13.1703" height="13.1703" filterUnits="userSpaceOnUse" color-interpolation-filters="sRGB">
<feFlood flood-opacity="0" result="BackgroundImageFix"/>
<feBlend mode="normal" in="SourceGraphic" in2="BackgroundImageFix" result="shape"/>
<feGaussianBlur stdDeviation="1" result="effect1_foregroundBlur"/>
</filter>
<filter id="filter14_f" x="283.86" y="988.683" width="13.1703" height="13.1703" filterUnits="userSpaceOnUse" color-interpolation-filters="sRGB">
<feFlood flood-opacity="0" result="BackgroundImageFix"/>
<feBlend mode="normal" in="SourceGraphic" in2="BackgroundImageFix" result="shape"/>
<feGaussianBlur stdDeviation="1" result="effect1_foregroundBlur"/>
</filter>
<filter id="filter15_f" x="776.65" y="223.361" width="13.4207" height="13.4207" filterUnits="userSpaceOnUse" color-interpolation-filters="sRGB">
<feFlood flood-opacity="0" result="BackgroundImageFix"/>
<feBlend mode="normal" in="SourceGraphic" in2="BackgroundImageFix" result="shape"/>
<feGaussianBlur stdDeviation="1" result="effect1_foregroundBlur"/>
</filter>
<filter id="filter16_f" x="1130.61" y="333.39" width="13.4207" height="13.4207" filterUnits="userSpaceOnUse" color-interpolation-filters="sRGB">
<feFlood flood-opacity="0" result="BackgroundImageFix"/>
<feBlend mode="normal" in="SourceGraphic" in2="BackgroundImageFix" result="shape"/>
<feGaussianBlur stdDeviation="1" result="effect1_foregroundBlur"/>
</filter>
<filter id="filter17_f" x="328.686" y="117" width="13.4207" height="13.4207" filterUnits="userSpaceOnUse" color-interpolation-filters="sRGB">
<feFlood flood-opacity="0" result="BackgroundImageFix"/>
<feBlend mode="normal" in="SourceGraphic" in2="BackgroundImageFix" result="shape"/>
<feGaussianBlur stdDeviation="1" result="effect1_foregroundBlur"/>
</filter>
<filter id="filter18_f" x="1379.65" y="921.127" width="13.4207" height="13.4207" filterUnits="userSpaceOnUse" color-interpolation-filters="sRGB">
<feFlood flood-opacity="0" result="BackgroundImageFix"/>
<feBlend mode="normal" in="SourceGraphic" in2="BackgroundImageFix" result="shape"/>
<feGaussianBlur stdDeviation="1" result="effect1_foregroundBlur"/>
</filter>
<filter id="filter19_f" x="1792.42" y="957.012" width="13.1691" height="13.1691" filterUnits="userSpaceOnUse" color-interpolation-filters="sRGB">
<feFlood flood-opacity="0" result="BackgroundImageFix"/>
<feBlend mode="normal" in="SourceGraphic" in2="BackgroundImageFix" result="shape"/>
<feGaussianBlur stdDeviation="1" result="effect1_foregroundBlur"/>
</filter>
<filter id="filter20_f" x="663.67" y="46" width="120" height="121" filterUnits="userSpaceOnUse" color-interpolation-filters="sRGB">
<feFlood flood-opacity="0" result="BackgroundImageFix"/>
<feBlend mode="normal" in="SourceGraphic" in2="BackgroundImageFix" result="shape"/>
<feGaussianBlur stdDeviation="20" result="effect1_foregroundBlur"/>
</filter>
<filter id="filter21_f" x="2162.35" y="304" width="120" height="121" filterUnits="userSpaceOnUse" color-interpolation-filters="sRGB">
<feFlood flood-opacity="0" result="BackgroundImageFix"/>
<feBlend mode="normal" in="SourceGraphic" in2="BackgroundImageFix" result="shape"/>
<feGaussianBlur stdDeviation="20" result="effect1_foregroundBlur"/>
</filter>
<filter id="filter22_f" x="30.6704" y="567" width="122" height="121" filterUnits="userSpaceOnUse" color-interpolation-filters="sRGB">
<feFlood flood-opacity="0" result="BackgroundImageFix"/>
<feBlend mode="normal" in="SourceGraphic" in2="BackgroundImageFix" result="shape"/>
<feGaussianBlur stdDeviation="20" result="effect1_foregroundBlur"/>
</filter>
<filter id="filter23_f" x="1520.67" y="430" width="115" height="115" filterUnits="userSpaceOnUse" color-interpolation-filters="sRGB">
<feFlood flood-opacity="0" result="BackgroundImageFix"/>
<feBlend mode="normal" in="SourceGraphic" in2="BackgroundImageFix" result="shape"/>
<feGaussianBlur stdDeviation="20" result="effect1_foregroundBlur"/>
</filter>
<filter id="filter24_f" x="1936.35" y="118" width="115" height="115" filterUnits="userSpaceOnUse" color-interpolation-filters="sRGB">
<feFlood flood-opacity="0" result="BackgroundImageFix"/>
<feBlend mode="normal" in="SourceGraphic" in2="BackgroundImageFix" result="shape"/>
<feGaussianBlur stdDeviation="20" result="effect1_foregroundBlur"/>
</filter>
<filter id="filter25_f" x="2368.35" y="642" width="115" height="115" filterUnits="userSpaceOnUse" color-interpolation-filters="sRGB">
<feFlood flood-opacity="0" result="BackgroundImageFix"/>
<feBlend mode="normal" in="SourceGraphic" in2="BackgroundImageFix" result="shape"/>
<feGaussianBlur stdDeviation="20" result="effect1_foregroundBlur"/>
</filter>
<linearGradient id="paint0_linear" x1="1280" y1="-142.5" x2="1280" y2="1072" gradientUnits="userSpaceOnUse">
<stop offset="0.12089" stop-color="#41436A"/>
<stop offset="0.821951" stop-color="#9E3F8A"/>
</linearGradient>
<linearGradient id="paint1_linear" x1="117.078" y1="295.963" x2="180.908" y2="229.176" gradientUnits="userSpaceOnUse">
<stop offset="0.109445" stop-color="white"/>
<stop offset="0.885569" stop-color="#C4C4C4" stop-opacity="0"/>
</linearGradient>
<linearGradient id="paint2_linear" x1="109.078" y1="761.963" x2="172.908" y2="695.176" gradientUnits="userSpaceOnUse">
<stop offset="0.109445" stop-color="white"/>
<stop offset="0.885569" stop-color="#C4C4C4" stop-opacity="0"/>
</linearGradient>
<linearGradient id="paint3_linear" x1="522.728" y1="105.712" x2="564.41" y2="62.4814" gradientUnits="userSpaceOnUse">
<stop offset="0.109445" stop-color="white"/>
<stop offset="0.885569" stop-color="#C4C4C4" stop-opacity="0"/>
</linearGradient>
<linearGradient id="paint4_linear" x1="734.368" y1="87.6686" x2="717.206" y2="119.739" gradientUnits="userSpaceOnUse">
<stop offset="0.110095" stop-color="#E5F2F1"/>
<stop offset="0.866478" stop-color="#18C7B1"/>
</linearGradient>
<linearGradient id="paint5_linear" x1="2233.05" y1="345.669" x2="2215.89" y2="377.739" gradientUnits="userSpaceOnUse">
<stop offset="0.110095" stop-color="#E5F2F1"/>
<stop offset="0.866478" stop-color="#18C7B1"/>
</linearGradient>
<linearGradient id="paint6_linear" x1="102.903" y1="608.669" x2="86.2132" y2="641.417" gradientUnits="userSpaceOnUse">
<stop stop-color="#FDD1C5"/>
<stop offset="0.77967" stop-color="#FF8562"/>
</linearGradient>
<linearGradient id="paint7_linear" x1="1587.53" y1="471.424" x2="1573.08" y2="499.099" gradientUnits="userSpaceOnUse">
<stop stop-color="#FDD1C5"/>
<stop offset="0.77967" stop-color="#FF8562"/>
</linearGradient>
<linearGradient id="paint8_linear" x1="2003.21" y1="159.424" x2="1988.77" y2="187.099" gradientUnits="userSpaceOnUse">
<stop stop-color="#FDD1C5"/>
<stop offset="0.77967" stop-color="#FF8562"/>
</linearGradient>
<linearGradient id="paint9_linear" x1="2435.21" y1="683.424" x2="2420.77" y2="711.099" gradientUnits="userSpaceOnUse">
<stop stop-color="#FDD1C5"/>
<stop offset="0.77967" stop-color="#FF8562"/>
</linearGradient>
<clipPath id="clip0">
<rect width="2571" height="1320" fill="white"/>
</clipPath>
</defs>
</svg>
