<svg width="1739" height="1024" viewBox="0 0 1739 1024" fill="none" xmlns="http://www.w3.org/2000/svg">
<g clip-path="url(#clip0)">
<rect width="1739" height="1024" fill="white"/>
<rect x="-11" width="1750" height="1024" fill="url(#paint0_linear)"/>
<g filter="url(#filter0_f)">
<circle cx="908.459" cy="445.964" r="4.58453" fill="#F2F2F2" fill-opacity="0.5"/>
</g>
<g filter="url(#filter1_f)">
<circle cx="1291.58" cy="676.585" r="4.58453" fill="#F2F2F2" fill-opacity="0.5"/>
</g>
<g filter="url(#filter2_f)">
<circle cx="1357.58" cy="473.585" r="4.58453" fill="#F2F2F2" fill-opacity="0.5"/>
</g>
<g filter="url(#filter3_f)">
<circle cx="1157.58" cy="219.585" r="4.58453" fill="#F2F2F2" fill-opacity="0.5"/>
</g>
<g filter="url(#filter4_f)">
<circle cx="1023.23" cy="519.316" r="4.58453" fill="#F2F2F2" fill-opacity="0.5"/>
</g>
<g filter="url(#filter5_f)">
<circle cx="224.146" cy="296.508" r="4.58453" fill="#F2F2F2" fill-opacity="0.5"/>
</g>
<g filter="url(#filter6_f)">
<circle cx="1082.83" cy="743.041" r="4.58453" fill="#F2F2F2" fill-opacity="0.5"/>
</g>
<g filter="url(#filter7_f)">
<circle cx="1470.58" cy="668.585" r="4.58453" fill="#F2F2F2" fill-opacity="0.5"/>
</g>
<g filter="url(#filter8_f)">
<circle cx="640.236" cy="385.448" r="4.58453" fill="#F2F2F2" fill-opacity="0.5"/>
</g>
<g filter="url(#filter9_f)">
<circle r="4.58453" transform="matrix(-0.146595 0.989197 -0.989197 -0.146592 836.403 690.483)" fill="#F2F2F2" fill-opacity="0.5"/>
</g>
<g filter="url(#filter10_f)">
<circle cx="280.944" cy="802.346" r="4.58453" transform="rotate(98.4296 280.944 802.346)" fill="#F2F2F2" fill-opacity="0.5"/>
</g>
<g filter="url(#filter11_f)">
<circle cx="376.302" cy="420.913" r="4.58453" transform="rotate(98.4296 376.302 420.913)" fill="#F2F2F2" fill-opacity="0.5"/>
</g>
<g filter="url(#filter12_f)">
<circle r="4.58453" transform="matrix(-0.146595 0.989197 -0.989197 -0.146592 615.64 849.721)" fill="#F2F2F2" fill-opacity="0.5"/>
</g>
<g filter="url(#filter13_f)">
<circle r="4.58453" transform="matrix(-0.146595 0.989197 -0.989197 -0.146592 1421.36 911.458)" fill="#F2F2F2" fill-opacity="0.5"/>
</g>
<g filter="url(#filter14_f)">
<circle cx="188.093" cy="918.793" r="4.58453" transform="rotate(98.4296 188.093 918.793)" fill="#F2F2F2" fill-opacity="0.5"/>
</g>
<g filter="url(#filter15_f)">
<circle cx="542.009" cy="153.596" r="4.58453" transform="rotate(178.405 542.009 153.596)" fill="#F2F2F2" fill-opacity="0.5"/>
</g>
<g filter="url(#filter16_f)">
<circle cx="757.969" cy="263.625" r="4.58453" transform="rotate(178.405 757.969 263.625)" fill="#F2F2F2" fill-opacity="0.5"/>
</g>
<g filter="url(#filter17_f)">
<circle cx="233.044" cy="47.2354" r="4.58453" transform="rotate(178.405 233.044 47.2354)" fill="#F2F2F2" fill-opacity="0.5"/>
</g>
<g filter="url(#filter18_f)">
<circle cx="937.009" cy="851.362" r="4.58453" transform="rotate(178.405 937.009 851.362)" fill="#F2F2F2" fill-opacity="0.5"/>
</g>
<g filter="url(#filter19_f)">
<circle cx="1210.65" cy="887.122" r="4.58453" transform="rotate(178.405 1210.65 887.122)" fill="#F2F2F2" fill-opacity="0.5"/>
</g>
<path d="M142.921 299.628C142.295 299.052 141.328 299.058 140.71 299.643L83.4905 353.777C80.892 356.235 80.9168 360.375 83.5445 362.802V362.802C86.1432 365.203 90.2247 364.942 92.4959 362.23L143.066 301.855C143.621 301.193 143.557 300.213 142.921 299.628V299.628Z" fill="url(#paint1_linear)"/>
<path d="M134.921 765.628C134.295 765.052 133.328 765.058 132.71 765.643L75.4905 819.777C72.892 822.235 72.9168 826.375 75.5445 828.802V828.802C78.1432 831.203 82.2247 830.942 84.4959 828.23L135.066 767.855C135.621 767.193 135.557 766.213 134.921 765.628V765.628Z" fill="url(#paint2_linear)"/>
<path d="M388.679 69.0211C388.273 68.6448 387.648 68.6491 387.248 69.0311L350.224 104.368C348.542 105.973 348.558 108.676 350.258 110.26V110.26C351.94 111.827 354.581 111.657 356.05 109.887L388.773 70.4751C389.131 70.0429 389.09 69.4029 388.679 69.0211V69.0211Z" fill="url(#paint3_linear)"/>
<path d="M500.423 172.5C500.423 182.767 492.305 191.07 482.318 191.07C472.331 191.07 464.213 182.767 464.213 172.5C464.213 162.232 472.331 153.93 482.318 153.93C492.305 153.93 500.423 162.232 500.423 172.5Z" fill="#C9FFF8" fill-opacity="0.14" stroke="#0CFFE1"/>
<g filter="url(#filter20_f)">
<ellipse cx="482.318" cy="172.5" rx="20" ry="20.5" fill="#0CFFE1" fill-opacity="0.24"/>
</g>
<ellipse cx="482.318" cy="172.5" rx="12.093" ry="12.3953" fill="url(#paint4_linear)"/>
<path d="M1513.1 430.5C1513.1 440.767 1504.99 449.07 1495 449.07C1485.01 449.07 1476.9 440.767 1476.9 430.5C1476.9 420.232 1485.01 411.93 1495 411.93C1504.99 411.93 1513.1 420.232 1513.1 430.5Z" fill="#C9FFF8" fill-opacity="0.14" stroke="#0CFFE1"/>
<g filter="url(#filter21_f)">
<ellipse cx="1495" cy="430.5" rx="20" ry="20.5" fill="#0CFFE1" fill-opacity="0.24"/>
</g>
<ellipse cx="1495" cy="430.5" rx="12.093" ry="12.3953" fill="url(#paint5_linear)"/>
<path d="M77.3527 693.5C77.3527 703.744 68.8419 712.07 58.3178 712.07C47.7937 712.07 39.283 703.744 39.283 693.5C39.283 683.255 47.7937 674.93 58.3178 674.93C68.8419 674.93 77.3527 683.255 77.3527 693.5Z" fill="#FF8360" fill-opacity="0.34" stroke="#FF8562"/>
<g filter="url(#filter22_f)">
<ellipse cx="58.3179" cy="693.5" rx="21" ry="20.5" fill="#FF8360" fill-opacity="0.34"/>
</g>
<ellipse cx="58.3179" cy="693.5" rx="12.6977" ry="12.3953" fill="url(#paint6_linear)"/>
<circle cx="1058.82" cy="553.5" r="15.7791" fill="#FF8360" fill-opacity="0.34" stroke="#FF8562"/>
<g filter="url(#filter23_f)">
<circle cx="1058.82" cy="553.5" r="17.5" fill="#FF8360" fill-opacity="0.34"/>
</g>
<circle cx="1058.82" cy="553.5" r="10.5814" fill="url(#paint7_linear)"/>
<circle cx="1336.5" cy="241.5" r="15.7791" fill="#FF8360" fill-opacity="0.34" stroke="#FF8562"/>
<g filter="url(#filter24_f)">
<circle cx="1336.5" cy="241.5" r="17.5" fill="#FF8360" fill-opacity="0.34"/>
</g>
<circle cx="1336.5" cy="241.5" r="10.5814" fill="url(#paint8_linear)"/>
<circle cx="1629.5" cy="765.5" r="15.7791" fill="#FF8360" fill-opacity="0.34" stroke="#FF8562"/>
<g filter="url(#filter25_f)">
<circle cx="1629.5" cy="765.5" r="17.5" fill="#FF8360" fill-opacity="0.34"/>
</g>
<circle cx="1629.5" cy="765.5" r="10.5814" fill="url(#paint9_linear)"/>
</g>
<defs>
<filter id="filter0_f" x="901.875" y="439.379" width="13.1691" height="13.1691" filterUnits="userSpaceOnUse" color-interpolation-filters="sRGB">
<feFlood flood-opacity="0" result="BackgroundImageFix"/>
<feBlend mode="normal" in="SourceGraphic" in2="BackgroundImageFix" result="shape"/>
<feGaussianBlur stdDeviation="1" result="effect1_foregroundBlur"/>
</filter>
<filter id="filter1_f" x="1285" y="670" width="13.1691" height="13.1691" filterUnits="userSpaceOnUse" color-interpolation-filters="sRGB">
<feFlood flood-opacity="0" result="BackgroundImageFix"/>
<feBlend mode="normal" in="SourceGraphic" in2="BackgroundImageFix" result="shape"/>
<feGaussianBlur stdDeviation="1" result="effect1_foregroundBlur"/>
</filter>
<filter id="filter2_f" x="1351" y="467" width="13.1691" height="13.1691" filterUnits="userSpaceOnUse" color-interpolation-filters="sRGB">
<feFlood flood-opacity="0" result="BackgroundImageFix"/>
<feBlend mode="normal" in="SourceGraphic" in2="BackgroundImageFix" result="shape"/>
<feGaussianBlur stdDeviation="1" result="effect1_foregroundBlur"/>
</filter>
<filter id="filter3_f" x="1151" y="213" width="13.1691" height="13.1691" filterUnits="userSpaceOnUse" color-interpolation-filters="sRGB">
<feFlood flood-opacity="0" result="BackgroundImageFix"/>
<feBlend mode="normal" in="SourceGraphic" in2="BackgroundImageFix" result="shape"/>
<feGaussianBlur stdDeviation="1" result="effect1_foregroundBlur"/>
</filter>
<filter id="filter4_f" x="1016.65" y="512.732" width="13.1691" height="13.1691" filterUnits="userSpaceOnUse" color-interpolation-filters="sRGB">
<feFlood flood-opacity="0" result="BackgroundImageFix"/>
<feBlend mode="normal" in="SourceGraphic" in2="BackgroundImageFix" result="shape"/>
<feGaussianBlur stdDeviation="1" result="effect1_foregroundBlur"/>
</filter>
<filter id="filter5_f" x="217.562" y="289.923" width="13.1691" height="13.1691" filterUnits="userSpaceOnUse" color-interpolation-filters="sRGB">
<feFlood flood-opacity="0" result="BackgroundImageFix"/>
<feBlend mode="normal" in="SourceGraphic" in2="BackgroundImageFix" result="shape"/>
<feGaussianBlur stdDeviation="1" result="effect1_foregroundBlur"/>
</filter>
<filter id="filter6_f" x="1076.25" y="736.457" width="13.1691" height="13.1691" filterUnits="userSpaceOnUse" color-interpolation-filters="sRGB">
<feFlood flood-opacity="0" result="BackgroundImageFix"/>
<feBlend mode="normal" in="SourceGraphic" in2="BackgroundImageFix" result="shape"/>
<feGaussianBlur stdDeviation="1" result="effect1_foregroundBlur"/>
</filter>
<filter id="filter7_f" x="1464" y="662" width="13.1691" height="13.1691" filterUnits="userSpaceOnUse" color-interpolation-filters="sRGB">
<feFlood flood-opacity="0" result="BackgroundImageFix"/>
<feBlend mode="normal" in="SourceGraphic" in2="BackgroundImageFix" result="shape"/>
<feGaussianBlur stdDeviation="1" result="effect1_foregroundBlur"/>
</filter>
<filter id="filter8_f" x="633.651" y="378.863" width="13.1691" height="13.1691" filterUnits="userSpaceOnUse" color-interpolation-filters="sRGB">
<feFlood flood-opacity="0" result="BackgroundImageFix"/>
<feBlend mode="normal" in="SourceGraphic" in2="BackgroundImageFix" result="shape"/>
<feGaussianBlur stdDeviation="1" result="effect1_foregroundBlur"/>
</filter>
<filter id="filter9_f" x="829.817" y="683.898" width="13.1703" height="13.1703" filterUnits="userSpaceOnUse" color-interpolation-filters="sRGB">
<feFlood flood-opacity="0" result="BackgroundImageFix"/>
<feBlend mode="normal" in="SourceGraphic" in2="BackgroundImageFix" result="shape"/>
<feGaussianBlur stdDeviation="1" result="effect1_foregroundBlur"/>
</filter>
<filter id="filter10_f" x="273.736" y="795.139" width="14.4141" height="14.4141" filterUnits="userSpaceOnUse" color-interpolation-filters="sRGB">
<feFlood flood-opacity="0" result="BackgroundImageFix"/>
<feBlend mode="normal" in="SourceGraphic" in2="BackgroundImageFix" result="shape"/>
<feGaussianBlur stdDeviation="1" result="effect1_foregroundBlur"/>
</filter>
<filter id="filter11_f" x="369.095" y="413.706" width="14.4141" height="14.4141" filterUnits="userSpaceOnUse" color-interpolation-filters="sRGB">
<feFlood flood-opacity="0" result="BackgroundImageFix"/>
<feBlend mode="normal" in="SourceGraphic" in2="BackgroundImageFix" result="shape"/>
<feGaussianBlur stdDeviation="1" result="effect1_foregroundBlur"/>
</filter>
<filter id="filter12_f" x="609.055" y="843.136" width="13.1703" height="13.1703" filterUnits="userSpaceOnUse" color-interpolation-filters="sRGB">
<feFlood flood-opacity="0" result="BackgroundImageFix"/>
<feBlend mode="normal" in="SourceGraphic" in2="BackgroundImageFix" result="shape"/>
<feGaussianBlur stdDeviation="1" result="effect1_foregroundBlur"/>
</filter>
<filter id="filter13_f" x="1414.78" y="904.873" width="13.1703" height="13.1703" filterUnits="userSpaceOnUse" color-interpolation-filters="sRGB">
<feFlood flood-opacity="0" result="BackgroundImageFix"/>
<feBlend mode="normal" in="SourceGraphic" in2="BackgroundImageFix" result="shape"/>
<feGaussianBlur stdDeviation="1" result="effect1_foregroundBlur"/>
</filter>
<filter id="filter14_f" x="180.886" y="911.586" width="14.4141" height="14.4141" filterUnits="userSpaceOnUse" color-interpolation-filters="sRGB">
<feFlood flood-opacity="0" result="BackgroundImageFix"/>
<feBlend mode="normal" in="SourceGraphic" in2="BackgroundImageFix" result="shape"/>
<feGaussianBlur stdDeviation="1" result="effect1_foregroundBlur"/>
</filter>
<filter id="filter15_f" x="535.298" y="146.886" width="13.4207" height="13.4207" filterUnits="userSpaceOnUse" color-interpolation-filters="sRGB">
<feFlood flood-opacity="0" result="BackgroundImageFix"/>
<feBlend mode="normal" in="SourceGraphic" in2="BackgroundImageFix" result="shape"/>
<feGaussianBlur stdDeviation="1" result="effect1_foregroundBlur"/>
</filter>
<filter id="filter16_f" x="751.258" y="256.915" width="13.4207" height="13.4207" filterUnits="userSpaceOnUse" color-interpolation-filters="sRGB">
<feFlood flood-opacity="0" result="BackgroundImageFix"/>
<feBlend mode="normal" in="SourceGraphic" in2="BackgroundImageFix" result="shape"/>
<feGaussianBlur stdDeviation="1" result="effect1_foregroundBlur"/>
</filter>
<filter id="filter17_f" x="226.334" y="40.525" width="13.4207" height="13.4207" filterUnits="userSpaceOnUse" color-interpolation-filters="sRGB">
<feFlood flood-opacity="0" result="BackgroundImageFix"/>
<feBlend mode="normal" in="SourceGraphic" in2="BackgroundImageFix" result="shape"/>
<feGaussianBlur stdDeviation="1" result="effect1_foregroundBlur"/>
</filter>
<filter id="filter18_f" x="930.299" y="844.652" width="13.4207" height="13.4207" filterUnits="userSpaceOnUse" color-interpolation-filters="sRGB">
<feFlood flood-opacity="0" result="BackgroundImageFix"/>
<feBlend mode="normal" in="SourceGraphic" in2="BackgroundImageFix" result="shape"/>
<feGaussianBlur stdDeviation="1" result="effect1_foregroundBlur"/>
</filter>
<filter id="filter19_f" x="1203.94" y="880.411" width="13.4207" height="13.4207" filterUnits="userSpaceOnUse" color-interpolation-filters="sRGB">
<feFlood flood-opacity="0" result="BackgroundImageFix"/>
<feBlend mode="normal" in="SourceGraphic" in2="BackgroundImageFix" result="shape"/>
<feGaussianBlur stdDeviation="1" result="effect1_foregroundBlur"/>
</filter>
<filter id="filter20_f" x="422.318" y="112" width="120" height="121" filterUnits="userSpaceOnUse" color-interpolation-filters="sRGB">
<feFlood flood-opacity="0" result="BackgroundImageFix"/>
<feBlend mode="normal" in="SourceGraphic" in2="BackgroundImageFix" result="shape"/>
<feGaussianBlur stdDeviation="20" result="effect1_foregroundBlur"/>
</filter>
<filter id="filter21_f" x="1435" y="370" width="120" height="121" filterUnits="userSpaceOnUse" color-interpolation-filters="sRGB">
<feFlood flood-opacity="0" result="BackgroundImageFix"/>
<feBlend mode="normal" in="SourceGraphic" in2="BackgroundImageFix" result="shape"/>
<feGaussianBlur stdDeviation="20" result="effect1_foregroundBlur"/>
</filter>
<filter id="filter22_f" x="-2.68213" y="633" width="122" height="121" filterUnits="userSpaceOnUse" color-interpolation-filters="sRGB">
<feFlood flood-opacity="0" result="BackgroundImageFix"/>
<feBlend mode="normal" in="SourceGraphic" in2="BackgroundImageFix" result="shape"/>
<feGaussianBlur stdDeviation="20" result="effect1_foregroundBlur"/>
</filter>
<filter id="filter23_f" x="1001.32" y="496" width="115" height="115" filterUnits="userSpaceOnUse" color-interpolation-filters="sRGB">
<feFlood flood-opacity="0" result="BackgroundImageFix"/>
<feBlend mode="normal" in="SourceGraphic" in2="BackgroundImageFix" result="shape"/>
<feGaussianBlur stdDeviation="20" result="effect1_foregroundBlur"/>
</filter>
<filter id="filter24_f" x="1279" y="184" width="115" height="115" filterUnits="userSpaceOnUse" color-interpolation-filters="sRGB">
<feFlood flood-opacity="0" result="BackgroundImageFix"/>
<feBlend mode="normal" in="SourceGraphic" in2="BackgroundImageFix" result="shape"/>
<feGaussianBlur stdDeviation="20" result="effect1_foregroundBlur"/>
</filter>
<filter id="filter25_f" x="1572" y="708" width="115" height="115" filterUnits="userSpaceOnUse" color-interpolation-filters="sRGB">
<feFlood flood-opacity="0" result="BackgroundImageFix"/>
<feBlend mode="normal" in="SourceGraphic" in2="BackgroundImageFix" result="shape"/>
<feGaussianBlur stdDeviation="20" result="effect1_foregroundBlur"/>
</filter>
<linearGradient id="paint0_linear" x1="864" y1="0" x2="864" y2="1522.25" gradientUnits="userSpaceOnUse">
<stop offset="0.189882" stop-color="#41436A"/>
<stop offset="1" stop-color="#9E3F8A"/>
</linearGradient>
<linearGradient id="paint1_linear" x1="83.7253" y1="361.963" x2="147.555" y2="295.176" gradientUnits="userSpaceOnUse">
<stop offset="0.109445" stop-color="white"/>
<stop offset="0.885569" stop-color="#C4C4C4" stop-opacity="0"/>
</linearGradient>
<linearGradient id="paint2_linear" x1="75.7253" y1="827.963" x2="139.555" y2="761.176" gradientUnits="userSpaceOnUse">
<stop offset="0.109445" stop-color="white"/>
<stop offset="0.885569" stop-color="#C4C4C4" stop-opacity="0"/>
</linearGradient>
<linearGradient id="paint3_linear" x1="350.375" y1="109.712" x2="392.057" y2="66.4814" gradientUnits="userSpaceOnUse">
<stop offset="0.109445" stop-color="white"/>
<stop offset="0.885569" stop-color="#C4C4C4" stop-opacity="0"/>
</linearGradient>
<linearGradient id="paint4_linear" x1="493.016" y1="153.669" x2="475.854" y2="185.739" gradientUnits="userSpaceOnUse">
<stop offset="0.110095" stop-color="#E5F2F1"/>
<stop offset="0.866478" stop-color="#18C7B1"/>
</linearGradient>
<linearGradient id="paint5_linear" x1="1505.7" y1="411.669" x2="1488.54" y2="443.739" gradientUnits="userSpaceOnUse">
<stop offset="0.110095" stop-color="#E5F2F1"/>
<stop offset="0.866478" stop-color="#18C7B1"/>
</linearGradient>
<linearGradient id="paint6_linear" x1="69.5505" y1="674.669" x2="52.8608" y2="707.417" gradientUnits="userSpaceOnUse">
<stop stop-color="#FDD1C5"/>
<stop offset="0.77967" stop-color="#FF8562"/>
</linearGradient>
<linearGradient id="paint7_linear" x1="1068.18" y1="537.424" x2="1053.73" y2="565.099" gradientUnits="userSpaceOnUse">
<stop stop-color="#FDD1C5"/>
<stop offset="0.77967" stop-color="#FF8562"/>
</linearGradient>
<linearGradient id="paint8_linear" x1="1345.86" y1="225.424" x2="1331.41" y2="253.099" gradientUnits="userSpaceOnUse">
<stop stop-color="#FDD1C5"/>
<stop offset="0.77967" stop-color="#FF8562"/>
</linearGradient>
<linearGradient id="paint9_linear" x1="1638.86" y1="749.424" x2="1624.41" y2="777.099" gradientUnits="userSpaceOnUse">
<stop stop-color="#FDD1C5"/>
<stop offset="0.77967" stop-color="#FF8562"/>
</linearGradient>
<clipPath id="clip0">
<rect width="1739" height="1024" fill="white"/>
</clipPath>
</defs>
</svg>
