<svg width="2197" height="1129" viewBox="0 0 2197 1129" fill="none" xmlns="http://www.w3.org/2000/svg">
<g clip-path="url(#clip0)">
<rect y="-0.393066" width="2197" height="1129" fill="url(#paint0_linear)"/>
<g filter="url(#filter0_f)">
<circle cx="1049.77" cy="466.594" r="5.49539" fill="#F2F2F2" fill-opacity="0.5"/>
</g>
<g filter="url(#filter1_f)">
<circle cx="1158.57" cy="554.521" r="5.49539" fill="#F2F2F2" fill-opacity="0.5"/>
</g>
<g filter="url(#filter2_f)">
<circle cx="379.328" cy="287.445" r="5.49539" fill="#F2F2F2" fill-opacity="0.5"/>
</g>
<g filter="url(#filter3_f)">
<circle cx="1230.01" cy="822.696" r="5.49539" fill="#F2F2F2" fill-opacity="0.5"/>
</g>
<g filter="url(#filter4_f)">
<circle cx="788.185" cy="394.055" r="5.49539" fill="#F2F2F2" fill-opacity="0.5"/>
</g>
<g filter="url(#filter5_f)">
<circle cx="2010.01" cy="957.529" r="5.49539" transform="rotate(98.4296 2010.01 957.529)" fill="#F2F2F2" fill-opacity="0.5"/>
</g>
<g filter="url(#filter6_f)">
<circle cx="1341.77" cy="162.896" r="5.49539" transform="rotate(98.4296 1341.77 162.896)" fill="#F2F2F2" fill-opacity="0.5"/>
</g>
<g filter="url(#filter7_f)">
<circle cx="1735.24" cy="242.029" r="5.49539" transform="rotate(98.4296 1735.24 242.029)" fill="#F2F2F2" fill-opacity="0.5"/>
</g>
<g filter="url(#filter8_f)">
<circle cx="1946.26" cy="132.122" r="5.49539" transform="rotate(98.4296 1946.26 132.122)" fill="#F2F2F2" fill-opacity="0.5"/>
</g>
<g filter="url(#filter9_f)">
<circle cx="1917.68" cy="625.607" r="5.49539" transform="rotate(98.4296 1917.68 625.607)" fill="#F2F2F2" fill-opacity="0.5"/>
</g>
<g filter="url(#filter10_f)">
<circle cx="2015.5" cy="750.902" r="5.49539" transform="rotate(98.4296 2015.5 750.902)" fill="#F2F2F2" fill-opacity="0.5"/>
</g>
<g filter="url(#filter11_f)">
<circle cx="1611.04" cy="873.999" r="5.49539" transform="rotate(98.4296 1611.04 873.999)" fill="#F2F2F2" fill-opacity="0.5"/>
</g>
<g filter="url(#filter12_f)">
<circle cx="843.885" cy="769.587" r="5.49539" transform="rotate(98.4296 843.885 769.587)" fill="#F2F2F2" fill-opacity="0.5"/>
</g>
<g filter="url(#filter13_f)">
<circle cx="1147.23" cy="299.181" r="5.49539" transform="rotate(98.4296 1147.23 299.181)" fill="#F2F2F2" fill-opacity="0.5"/>
</g>
<g filter="url(#filter14_f)">
<circle cx="417.443" cy="893.783" r="5.49539" transform="rotate(98.4296 417.443 893.783)" fill="#F2F2F2" fill-opacity="0.5"/>
</g>
<g filter="url(#filter15_f)">
<circle cx="47.0543" cy="757.497" r="5.49539" transform="rotate(98.4296 47.0543 757.497)" fill="#F2F2F2" fill-opacity="0.5"/>
</g>
<g filter="url(#filter16_f)">
<circle cx="531.748" cy="436.566" r="5.49539" transform="rotate(98.4296 531.748 436.566)" fill="#F2F2F2" fill-opacity="0.5"/>
</g>
<g filter="url(#filter17_f)">
<circle cx="758.704" cy="950.571" r="5.49539" transform="rotate(98.4296 758.704 950.571)" fill="#F2F2F2" fill-opacity="0.5"/>
</g>
<g filter="url(#filter18_f)">
<circle cx="8.58652" cy="488.223" r="5.49539" transform="rotate(98.4296 8.58652 488.223)" fill="#F2F2F2" fill-opacity="0.5"/>
</g>
<g filter="url(#filter19_f)">
<circle cx="1575.87" cy="1024.57" r="5.49539" transform="rotate(98.4296 1575.87 1024.57)" fill="#F2F2F2" fill-opacity="0.5"/>
</g>
<g filter="url(#filter20_f)">
<circle cx="336.111" cy="1033.37" r="5.49539" transform="rotate(98.4296 336.111 1033.37)" fill="#F2F2F2" fill-opacity="0.5"/>
</g>
<g filter="url(#filter21_f)">
<circle cx="700.41" cy="116.139" r="5.49539" transform="rotate(178.405 700.41 116.139)" fill="#F2F2F2" fill-opacity="0.5"/>
</g>
<g filter="url(#filter22_f)">
<circle cx="46.4583" cy="34.8075" r="5.49539" transform="rotate(178.405 46.4583 34.8075)" fill="#F2F2F2" fill-opacity="0.5"/>
</g>
<g filter="url(#filter23_f)">
<circle cx="899.343" cy="248.029" r="5.49539" transform="rotate(178.405 899.343 248.029)" fill="#F2F2F2" fill-opacity="0.5"/>
</g>
<g filter="url(#filter24_f)">
<circle cx="1083.99" cy="952.537" r="5.49539" transform="rotate(178.405 1083.99 952.537)" fill="#F2F2F2" fill-opacity="0.5"/>
</g>
<g filter="url(#filter25_f)">
<circle cx="1353.26" cy="995.401" r="5.49539" transform="rotate(178.405 1353.26 995.401)" fill="#F2F2F2" fill-opacity="0.5"/>
</g>
<path d="M138.442 325.607C138.442 340.751 126.372 353.014 111.5 353.014C96.6283 353.014 84.5581 340.751 84.5581 325.607C84.5581 310.463 96.6283 298.2 111.5 298.2C126.372 298.2 138.442 310.463 138.442 325.607Z" fill="#C9FFF8" fill-opacity="0.14" stroke="#0CFFE1"/>
<g filter="url(#filter26_f)">
<ellipse cx="111.5" cy="325.607" rx="29.5" ry="30" fill="#0CFFE1" fill-opacity="0.24"/>
</g>
<ellipse cx="111.5" cy="325.607" rx="17.8372" ry="18.1395" fill="url(#paint1_linear)"/>
<circle cx="1903.5" cy="278.107" r="39.0349" fill="#FF8360" fill-opacity="0.34" stroke="#FF8562"/>
<g filter="url(#filter27_f)">
<circle cx="1903.5" cy="278.107" r="42.5" fill="#FF8360" fill-opacity="0.34"/>
</g>
<circle cx="1903.5" cy="278.107" r="25.6977" fill="url(#paint2_linear)"/>
<path d="M912.662 160.649C911.842 159.896 910.577 159.905 909.767 160.669L834.877 231.343C831.476 234.553 831.509 239.958 834.948 243.127V243.127C838.349 246.261 843.691 245.92 846.664 242.38L912.851 163.557C913.577 162.693 913.494 161.413 912.662 160.649V160.649Z" fill="url(#paint3_linear)"/>
<path d="M1739.6 775.184C1738.31 773.991 1736.32 774.005 1735.05 775.216L1617.25 887.242C1611.9 892.329 1611.95 900.897 1617.36 905.92V905.92C1622.71 910.888 1631.11 910.348 1635.79 904.737L1739.9 779.794C1741.04 778.424 1740.91 776.395 1739.6 775.184V775.184Z" fill="url(#paint4_linear)"/>
<g filter="url(#filter28_f)">
<circle cx="82" cy="751.607" r="159" fill="#58F0FF" fill-opacity="0.24"/>
</g>
<circle cx="82" cy="751.607" r="147.882" fill="#43E2C6" fill-opacity="0.57" stroke="#43E2C6" stroke-width="2"/>
<mask id="mask0" mask-type="alpha" maskUnits="userSpaceOnUse" x="-37" y="631" width="238" height="238">
<ellipse cx="81.9999" cy="750.162" rx="118.527" ry="118.527" fill="#41436A"/>
</mask>
<g mask="url(#mask0)">
<ellipse cx="81.9999" cy="750.162" rx="118.527" ry="118.527" fill="#0CFFE1"/>
<path fill-rule="evenodd" clip-rule="evenodd" d="M144.738 641.005L19.8524 601.28L15.7952 614.935L13.8733 621.403L11.9514 627.871L8.10773 640.808L6.18587 647.276L4.26401 653.744L0.420303 666.681L-1.50156 673.149L-1.7151 673.868L-3.63695 680.336L-9.19374 678.569L-13.1035 691.727L-14.9554 697.96L-16.8074 704.193L-20.5113 716.659L-22.3633 722.892L-24.2153 729.125L-27.9192 741.591L-29.7712 747.824L-29.977 748.517L-31.829 754.75L-35.8862 768.405L-37.8081 774.873L-39.73 781.342L-43.5737 794.278L-45.4955 800.746L-47.4174 807.215L-51.2611 820.151L-53.183 826.619L-53.3965 827.338L-55.3184 833.806L-49.1596 835.765L-47.791 836.201L93.8604 881.259C97.2617 882.341 100.88 880.323 101.941 876.75L102.155 876.032C103.216 872.459 101.319 868.686 97.9176 867.604L58.2279 854.979C54.8265 853.897 52.9295 850.124 53.991 846.552C55.0524 842.98 58.6702 840.961 62.0716 842.043L131.186 864.028C134.588 865.11 138.206 863.091 139.267 859.519C140.329 855.946 138.432 852.173 135.03 851.091L100.131 839.99C96.7292 838.908 94.8323 835.135 95.8937 831.563C96.9551 827.99 100.573 825.971 103.974 827.053L124.503 833.584C127.905 834.666 131.523 832.647 132.584 829.074C133.646 825.502 131.749 821.729 128.347 820.647L88.9996 808.131C85.4093 806.989 83.407 803.006 84.5273 799.235C85.6461 795.47 89.4557 793.34 93.0416 794.471L93.0569 794.476L117.35 802.203C120.751 803.285 124.338 801.372 125.36 797.929L125.566 797.237C126.589 793.794 124.661 790.126 121.259 789.045L81.5697 776.419C78.1683 775.337 76.2401 771.67 77.2629 768.227C78.2858 764.785 81.8723 762.871 85.2737 763.953L154.389 785.938C157.79 787.02 161.376 785.107 162.399 781.665C163.422 778.222 161.494 774.554 158.093 773.472L123.193 762.371C119.792 761.289 117.863 757.621 118.886 754.179C119.909 750.736 123.495 748.823 126.897 749.905L147.426 756.435C150.827 757.517 154.414 755.604 155.437 752.161C156.46 748.719 154.531 745.051 151.13 743.969L111.782 731.453C108.192 730.311 106.157 726.439 107.236 722.806C108.316 719.172 112.102 717.152 115.692 718.294L145.542 727.789C148.943 728.871 152.561 726.852 153.622 723.28L153.836 722.561C154.897 718.989 153 715.216 149.599 714.134L109.909 701.509C106.508 700.427 104.611 696.654 105.672 693.082C106.734 689.509 110.352 687.49 113.753 688.572L182.868 710.558C186.269 711.639 189.887 709.621 190.948 706.048C192.01 702.476 190.113 698.703 186.712 697.621L151.812 686.52C148.411 685.438 146.514 681.665 147.575 678.092C148.636 674.52 152.254 672.501 155.656 673.583L176.185 680.113C179.586 681.195 183.204 679.177 184.265 675.604C185.327 672.032 183.43 668.259 180.029 667.177L140.681 654.661C137.091 653.519 135.088 649.536 136.209 645.765C137.329 641.994 141.148 639.863 144.738 641.005Z" fill="#0DD9D6"/>
<path fill-rule="evenodd" clip-rule="evenodd" d="M70.2848 571.193L-69.863 525.579L-74.4161 541.258L-76.5728 548.685L-78.7296 556.112L-83.043 570.967L-85.1997 578.394L-87.3565 585.821L-91.6699 600.675L-93.8266 608.102L-94.0663 608.927L-96.223 616.354L-102.459 614.325L-106.846 629.434L-108.925 636.591L-111.003 643.748L-115.16 658.062L-117.238 665.219L-119.316 672.376L-123.473 686.69L-125.551 693.847L-125.782 694.642L-127.86 701.799L-132.413 717.479L-134.57 724.906L-136.727 732.333L-141.04 747.187L-143.197 754.614L-145.354 762.041L-149.667 776.896L-151.824 784.323L-152.063 785.148L-154.22 792.575L-147.309 794.824L-145.773 795.324L13.1892 847.062C17.0063 848.305 21.0662 845.987 22.2573 841.885L22.497 841.06C23.6881 836.958 21.5594 832.625 17.7423 831.383L-26.7978 816.886C-30.6149 815.644 -32.7436 811.312 -31.5525 807.21C-30.3614 803.108 -26.3015 800.79 -22.4844 802.032L55.0769 827.276C58.8939 828.519 62.9539 826.201 64.145 822.099C65.3361 817.997 63.2074 813.665 59.3903 812.422L20.2257 799.675C16.4087 798.433 14.2799 794.1 15.4711 789.999C16.6622 785.897 20.7221 783.579 24.5392 784.821L47.5772 792.319C51.3942 793.562 55.4542 791.244 56.6453 787.142C57.8364 783.04 55.7077 778.707 51.8906 777.465L7.73446 763.093C3.70534 761.782 1.45833 757.209 2.71563 752.879C3.97091 748.556 8.24462 746.11 12.2681 747.408L12.2875 747.414L39.5492 756.287C43.3663 757.529 47.3911 755.332 48.5389 751.379L48.7698 750.584C49.9176 746.631 47.7538 742.42 43.9367 741.178L-0.603433 726.681C-4.42048 725.439 -6.58434 721.227 -5.43653 717.275C-4.28872 713.322 -0.263909 711.125 3.55317 712.367L81.1144 737.611C84.9315 738.854 88.9563 736.656 90.1041 732.704C91.2519 728.751 89.0881 724.54 85.271 723.297L46.1064 710.55C42.2894 709.308 40.1255 705.096 41.2733 701.144C42.4211 697.191 46.4459 694.994 50.263 696.236L73.301 703.734C77.1181 704.977 81.1429 702.78 82.2907 698.827C83.4385 694.874 81.2747 690.663 77.4576 689.42L33.3014 675.049C29.2723 673.737 26.9883 669.292 28.1998 665.12C29.4114 660.947 33.6598 658.628 37.689 659.939L71.1864 670.842C75.0035 672.084 79.0634 669.766 80.2546 665.664L80.4942 664.839C81.6853 660.737 79.5566 656.405 75.7395 655.162L31.1994 640.666C27.3823 639.423 25.2536 635.091 26.4447 630.989C27.6358 626.887 31.6958 624.569 35.5128 625.812L113.074 651.056C116.891 652.298 120.951 649.98 122.142 645.878C123.333 641.776 121.205 637.444 117.388 636.202L78.2229 623.455C74.4059 622.212 72.2771 617.88 73.4683 613.778C74.6594 609.676 78.7193 607.358 82.5364 608.6L105.574 616.099C109.391 617.341 113.451 615.023 114.643 610.921C115.834 606.819 113.705 602.487 109.888 601.245L65.7317 586.873C61.7026 585.561 59.4555 580.988 60.7129 576.659C61.9701 572.329 66.2556 569.882 70.2848 571.193Z" fill="#16C3D1"/>
<path fill-rule="evenodd" clip-rule="evenodd" d="M200.121 760.043C200.39 756.785 200.527 753.489 200.527 750.162C200.527 684.701 147.461 631.634 81.9998 631.634C56.53 631.634 32.9365 639.668 13.6151 653.339C-29.7597 674.433 -59.6548 718.924 -59.6548 770.398C-59.6548 842.245 -1.4111 900.489 70.4361 900.489C142.283 900.489 200.527 842.245 200.527 770.398C200.527 766.913 200.39 763.459 200.121 760.043ZM81.9998 868.689C144.133 868.689 195.1 820.881 200.121 760.043C194.844 693.037 138.798 640.307 70.4361 640.307C50.0626 640.307 30.783 644.99 13.6151 653.339C-16.7222 674.805 -36.5275 710.171 -36.5275 750.162C-36.5275 815.622 16.539 868.689 81.9998 868.689Z" fill="#92FFEC" fill-opacity="0.86"/>
</g>
<path d="M290.161 417.978C289.572 417.433 288.662 417.44 288.08 417.992L234.227 469.118C231.781 471.44 231.804 475.35 234.277 477.643V477.643C236.723 479.91 240.565 479.663 242.702 477.102L290.298 420.082C290.82 419.456 290.76 418.53 290.161 417.978V417.978Z" fill="url(#paint5_linear)"/>
</g>
<defs>
<filter id="filter0_f" x="1042.27" y="459.099" width="14.9908" height="14.9908" filterUnits="userSpaceOnUse" color-interpolation-filters="sRGB">
<feFlood flood-opacity="0" result="BackgroundImageFix"/>
<feBlend mode="normal" in="SourceGraphic" in2="BackgroundImageFix" result="shape"/>
<feGaussianBlur stdDeviation="1" result="effect1_foregroundBlur"/>
</filter>
<filter id="filter1_f" x="1151.08" y="547.025" width="14.9908" height="14.9908" filterUnits="userSpaceOnUse" color-interpolation-filters="sRGB">
<feFlood flood-opacity="0" result="BackgroundImageFix"/>
<feBlend mode="normal" in="SourceGraphic" in2="BackgroundImageFix" result="shape"/>
<feGaussianBlur stdDeviation="1" result="effect1_foregroundBlur"/>
</filter>
<filter id="filter2_f" x="371.833" y="279.949" width="14.9908" height="14.9908" filterUnits="userSpaceOnUse" color-interpolation-filters="sRGB">
<feFlood flood-opacity="0" result="BackgroundImageFix"/>
<feBlend mode="normal" in="SourceGraphic" in2="BackgroundImageFix" result="shape"/>
<feGaussianBlur stdDeviation="1" result="effect1_foregroundBlur"/>
</filter>
<filter id="filter3_f" x="1222.52" y="815.2" width="14.9908" height="14.9908" filterUnits="userSpaceOnUse" color-interpolation-filters="sRGB">
<feFlood flood-opacity="0" result="BackgroundImageFix"/>
<feBlend mode="normal" in="SourceGraphic" in2="BackgroundImageFix" result="shape"/>
<feGaussianBlur stdDeviation="1" result="effect1_foregroundBlur"/>
</filter>
<filter id="filter4_f" x="780.69" y="386.56" width="14.9908" height="14.9908" filterUnits="userSpaceOnUse" color-interpolation-filters="sRGB">
<feFlood flood-opacity="0" result="BackgroundImageFix"/>
<feBlend mode="normal" in="SourceGraphic" in2="BackgroundImageFix" result="shape"/>
<feGaussianBlur stdDeviation="1" result="effect1_foregroundBlur"/>
</filter>
<filter id="filter5_f" x="2001.77" y="949.288" width="16.4832" height="16.4832" filterUnits="userSpaceOnUse" color-interpolation-filters="sRGB">
<feFlood flood-opacity="0" result="BackgroundImageFix"/>
<feBlend mode="normal" in="SourceGraphic" in2="BackgroundImageFix" result="shape"/>
<feGaussianBlur stdDeviation="1" result="effect1_foregroundBlur"/>
</filter>
<filter id="filter6_f" x="1333.53" y="154.654" width="16.4832" height="16.4832" filterUnits="userSpaceOnUse" color-interpolation-filters="sRGB">
<feFlood flood-opacity="0" result="BackgroundImageFix"/>
<feBlend mode="normal" in="SourceGraphic" in2="BackgroundImageFix" result="shape"/>
<feGaussianBlur stdDeviation="1" result="effect1_foregroundBlur"/>
</filter>
<filter id="filter7_f" x="1727" y="233.788" width="16.4832" height="16.4832" filterUnits="userSpaceOnUse" color-interpolation-filters="sRGB">
<feFlood flood-opacity="0" result="BackgroundImageFix"/>
<feBlend mode="normal" in="SourceGraphic" in2="BackgroundImageFix" result="shape"/>
<feGaussianBlur stdDeviation="1" result="effect1_foregroundBlur"/>
</filter>
<filter id="filter8_f" x="1938.02" y="123.88" width="16.4832" height="16.4832" filterUnits="userSpaceOnUse" color-interpolation-filters="sRGB">
<feFlood flood-opacity="0" result="BackgroundImageFix"/>
<feBlend mode="normal" in="SourceGraphic" in2="BackgroundImageFix" result="shape"/>
<feGaussianBlur stdDeviation="1" result="effect1_foregroundBlur"/>
</filter>
<filter id="filter9_f" x="1909.44" y="617.366" width="16.4832" height="16.4832" filterUnits="userSpaceOnUse" color-interpolation-filters="sRGB">
<feFlood flood-opacity="0" result="BackgroundImageFix"/>
<feBlend mode="normal" in="SourceGraphic" in2="BackgroundImageFix" result="shape"/>
<feGaussianBlur stdDeviation="1" result="effect1_foregroundBlur"/>
</filter>
<filter id="filter10_f" x="2007.26" y="742.661" width="16.4832" height="16.4832" filterUnits="userSpaceOnUse" color-interpolation-filters="sRGB">
<feFlood flood-opacity="0" result="BackgroundImageFix"/>
<feBlend mode="normal" in="SourceGraphic" in2="BackgroundImageFix" result="shape"/>
<feGaussianBlur stdDeviation="1" result="effect1_foregroundBlur"/>
</filter>
<filter id="filter11_f" x="1602.8" y="865.758" width="16.4832" height="16.4832" filterUnits="userSpaceOnUse" color-interpolation-filters="sRGB">
<feFlood flood-opacity="0" result="BackgroundImageFix"/>
<feBlend mode="normal" in="SourceGraphic" in2="BackgroundImageFix" result="shape"/>
<feGaussianBlur stdDeviation="1" result="effect1_foregroundBlur"/>
</filter>
<filter id="filter12_f" x="835.644" y="761.345" width="16.4832" height="16.4832" filterUnits="userSpaceOnUse" color-interpolation-filters="sRGB">
<feFlood flood-opacity="0" result="BackgroundImageFix"/>
<feBlend mode="normal" in="SourceGraphic" in2="BackgroundImageFix" result="shape"/>
<feGaussianBlur stdDeviation="1" result="effect1_foregroundBlur"/>
</filter>
<filter id="filter13_f" x="1138.99" y="290.94" width="16.4832" height="16.4832" filterUnits="userSpaceOnUse" color-interpolation-filters="sRGB">
<feFlood flood-opacity="0" result="BackgroundImageFix"/>
<feBlend mode="normal" in="SourceGraphic" in2="BackgroundImageFix" result="shape"/>
<feGaussianBlur stdDeviation="1" result="effect1_foregroundBlur"/>
</filter>
<filter id="filter14_f" x="409.202" y="885.541" width="16.4832" height="16.4832" filterUnits="userSpaceOnUse" color-interpolation-filters="sRGB">
<feFlood flood-opacity="0" result="BackgroundImageFix"/>
<feBlend mode="normal" in="SourceGraphic" in2="BackgroundImageFix" result="shape"/>
<feGaussianBlur stdDeviation="1" result="effect1_foregroundBlur"/>
</filter>
<filter id="filter15_f" x="38.8125" y="749.255" width="16.4832" height="16.4832" filterUnits="userSpaceOnUse" color-interpolation-filters="sRGB">
<feFlood flood-opacity="0" result="BackgroundImageFix"/>
<feBlend mode="normal" in="SourceGraphic" in2="BackgroundImageFix" result="shape"/>
<feGaussianBlur stdDeviation="1" result="effect1_foregroundBlur"/>
</filter>
<filter id="filter16_f" x="523.506" y="428.325" width="16.4832" height="16.4832" filterUnits="userSpaceOnUse" color-interpolation-filters="sRGB">
<feFlood flood-opacity="0" result="BackgroundImageFix"/>
<feBlend mode="normal" in="SourceGraphic" in2="BackgroundImageFix" result="shape"/>
<feGaussianBlur stdDeviation="1" result="effect1_foregroundBlur"/>
</filter>
<filter id="filter17_f" x="750.462" y="942.329" width="16.4832" height="16.4832" filterUnits="userSpaceOnUse" color-interpolation-filters="sRGB">
<feFlood flood-opacity="0" result="BackgroundImageFix"/>
<feBlend mode="normal" in="SourceGraphic" in2="BackgroundImageFix" result="shape"/>
<feGaussianBlur stdDeviation="1" result="effect1_foregroundBlur"/>
</filter>
<filter id="filter18_f" x="0.344727" y="479.981" width="16.4832" height="16.4832" filterUnits="userSpaceOnUse" color-interpolation-filters="sRGB">
<feFlood flood-opacity="0" result="BackgroundImageFix"/>
<feBlend mode="normal" in="SourceGraphic" in2="BackgroundImageFix" result="shape"/>
<feGaussianBlur stdDeviation="1" result="effect1_foregroundBlur"/>
</filter>
<filter id="filter19_f" x="1567.63" y="1016.33" width="16.4832" height="16.4832" filterUnits="userSpaceOnUse" color-interpolation-filters="sRGB">
<feFlood flood-opacity="0" result="BackgroundImageFix"/>
<feBlend mode="normal" in="SourceGraphic" in2="BackgroundImageFix" result="shape"/>
<feGaussianBlur stdDeviation="1" result="effect1_foregroundBlur"/>
</filter>
<filter id="filter20_f" x="327.87" y="1025.12" width="16.4832" height="16.4832" filterUnits="userSpaceOnUse" color-interpolation-filters="sRGB">
<feFlood flood-opacity="0" result="BackgroundImageFix"/>
<feBlend mode="normal" in="SourceGraphic" in2="BackgroundImageFix" result="shape"/>
<feGaussianBlur stdDeviation="1" result="effect1_foregroundBlur"/>
</filter>
<filter id="filter21_f" x="692.764" y="108.493" width="15.2924" height="15.2924" filterUnits="userSpaceOnUse" color-interpolation-filters="sRGB">
<feFlood flood-opacity="0" result="BackgroundImageFix"/>
<feBlend mode="normal" in="SourceGraphic" in2="BackgroundImageFix" result="shape"/>
<feGaussianBlur stdDeviation="1" result="effect1_foregroundBlur"/>
</filter>
<filter id="filter22_f" x="38.812" y="27.1613" width="15.2924" height="15.2924" filterUnits="userSpaceOnUse" color-interpolation-filters="sRGB">
<feFlood flood-opacity="0" result="BackgroundImageFix"/>
<feBlend mode="normal" in="SourceGraphic" in2="BackgroundImageFix" result="shape"/>
<feGaussianBlur stdDeviation="1" result="effect1_foregroundBlur"/>
</filter>
<filter id="filter23_f" x="891.697" y="240.382" width="15.2924" height="15.2924" filterUnits="userSpaceOnUse" color-interpolation-filters="sRGB">
<feFlood flood-opacity="0" result="BackgroundImageFix"/>
<feBlend mode="normal" in="SourceGraphic" in2="BackgroundImageFix" result="shape"/>
<feGaussianBlur stdDeviation="1" result="effect1_foregroundBlur"/>
</filter>
<filter id="filter24_f" x="1076.34" y="944.891" width="15.2924" height="15.2924" filterUnits="userSpaceOnUse" color-interpolation-filters="sRGB">
<feFlood flood-opacity="0" result="BackgroundImageFix"/>
<feBlend mode="normal" in="SourceGraphic" in2="BackgroundImageFix" result="shape"/>
<feGaussianBlur stdDeviation="1" result="effect1_foregroundBlur"/>
</filter>
<filter id="filter25_f" x="1345.62" y="987.755" width="15.2924" height="15.2924" filterUnits="userSpaceOnUse" color-interpolation-filters="sRGB">
<feFlood flood-opacity="0" result="BackgroundImageFix"/>
<feBlend mode="normal" in="SourceGraphic" in2="BackgroundImageFix" result="shape"/>
<feGaussianBlur stdDeviation="1" result="effect1_foregroundBlur"/>
</filter>
<filter id="filter26_f" x="42" y="255.607" width="139" height="140" filterUnits="userSpaceOnUse" color-interpolation-filters="sRGB">
<feFlood flood-opacity="0" result="BackgroundImageFix"/>
<feBlend mode="normal" in="SourceGraphic" in2="BackgroundImageFix" result="shape"/>
<feGaussianBlur stdDeviation="20" result="effect1_foregroundBlur"/>
</filter>
<filter id="filter27_f" x="1821" y="195.607" width="165" height="165" filterUnits="userSpaceOnUse" color-interpolation-filters="sRGB">
<feFlood flood-opacity="0" result="BackgroundImageFix"/>
<feBlend mode="normal" in="SourceGraphic" in2="BackgroundImageFix" result="shape"/>
<feGaussianBlur stdDeviation="20" result="effect1_foregroundBlur"/>
</filter>
<filter id="filter28_f" x="-127" y="542.607" width="418" height="418" filterUnits="userSpaceOnUse" color-interpolation-filters="sRGB">
<feFlood flood-opacity="0" result="BackgroundImageFix"/>
<feBlend mode="normal" in="SourceGraphic" in2="BackgroundImageFix" result="shape"/>
<feGaussianBlur stdDeviation="25" result="effect1_foregroundBlur"/>
</filter>
<linearGradient id="paint0_linear" x1="1098" y1="-147" x2="1098.5" y2="1179.7" gradientUnits="userSpaceOnUse">
<stop offset="0.108291" stop-color="#604275"/>
<stop offset="1" stop-color="#973F8D"/>
</linearGradient>
<linearGradient id="paint1_linear" x1="127.279" y1="298.049" x2="102.275" y2="345.146" gradientUnits="userSpaceOnUse">
<stop offset="0.110095" stop-color="#E5F2F1"/>
<stop offset="0.866478" stop-color="#18C7B1"/>
</linearGradient>
<linearGradient id="paint2_linear" x1="1926.23" y1="239.066" x2="1891.15" y2="306.276" gradientUnits="userSpaceOnUse">
<stop stop-color="#FDD1C5"/>
<stop offset="0.77967" stop-color="#FF8562"/>
</linearGradient>
<linearGradient id="paint3_linear" x1="835.184" y1="242.03" x2="918.509" y2="154.629" gradientUnits="userSpaceOnUse">
<stop offset="0.109445" stop-color="white"/>
<stop offset="0.885569" stop-color="#C4C4C4" stop-opacity="0"/>
</linearGradient>
<linearGradient id="paint4_linear" x1="1617.73" y1="904.182" x2="1749.85" y2="766.65" gradientUnits="userSpaceOnUse">
<stop offset="0.109445" stop-color="white"/>
<stop offset="0.885569" stop-color="#C4C4C4" stop-opacity="0"/>
</linearGradient>
<linearGradient id="paint5_linear" x1="234.447" y1="476.849" x2="294.741" y2="413.982" gradientUnits="userSpaceOnUse">
<stop offset="0.109445" stop-color="white"/>
<stop offset="0.885569" stop-color="#C4C4C4" stop-opacity="0"/>
</linearGradient>
<clipPath id="clip0">
<rect width="2197" height="1129" fill="white"/>
</clipPath>
</defs>
</svg>
