<svg width="130" height="156" viewBox="0 0 130 156" fill="none" xmlns="http://www.w3.org/2000/svg">
<path d="M118.449 62.8933C82.6555 71.8979 47.2056 71.8286 11.3435 62.8933C11.3435 70.3048 11.2748 77.924 11.3435 85.5432C11.4809 93.3703 11.1374 101.267 12.1679 109.024C16.6335 143.034 52.7704 164.091 84.3043 151.346C105.602 142.757 118.586 123.432 118.586 100.297C118.586 88.7295 118.586 77.2313 118.586 65.6639C118.586 64.5557 118.518 63.5167 118.449 62.8933ZM39.7859 103.76C33.4653 103.829 25.7708 96.4872 25.7021 90.0455C25.7021 89.0065 26.8013 87.3441 27.6944 87.0671C28.5189 86.79 30.1677 87.829 30.786 88.7987C31.8165 90.2533 32.2287 92.1928 33.1218 93.7166C36.4882 99.3964 42.053 99.6042 45.6255 94.0629C46.7247 92.3313 47.2743 90.2533 48.4422 88.5909C48.9918 87.7597 50.6407 86.7207 51.259 86.9978C52.2208 87.4134 53.32 88.868 53.32 89.907C53.32 96.2794 45.969 103.622 39.7859 103.76ZM71.2511 117.752C67.6099 118.999 63.8313 119.899 59.9841 120.522C57.1673 121.007 56.0681 119.206 56.9612 115.674C58.3352 109.856 59.8466 104.106 61.2894 98.3574C61.5642 97.2492 61.839 96.1409 62.1825 95.0326C62.7321 93.0932 63.9 91.6386 65.8237 92.6776C66.7855 93.2317 67.6786 95.3097 67.4725 96.4872C66.5794 101.197 65.2053 105.838 64.0374 110.479C63.7626 111.449 63.5565 112.488 63.2817 113.942C65.8924 113.388 67.9534 112.626 70.0831 112.557C71.1137 112.488 73.106 113.665 73.106 114.289C73.106 115.535 72.2129 117.475 71.2511 117.752ZM90.5561 103.76C84.1669 103.829 76.5411 96.418 76.5411 89.907C76.5411 88.868 77.709 87.4134 78.6708 86.9285C79.2891 86.6515 80.938 87.6212 81.5563 88.4524C82.7242 90.2533 83.4112 92.4006 84.5104 94.2707C87.5333 99.1193 92.7546 99.3271 95.9835 94.6863C97.3576 92.7469 98.1133 90.3226 99.4186 88.3831C99.9682 87.5519 101.548 86.7207 102.373 86.9978C103.266 87.2749 104.365 88.7295 104.365 89.6992C104.709 95.9331 97.0141 103.691 90.5561 103.76Z" fill="#FF8D6C"/>
<path d="M84.8542 54.1658C84.9229 56.9364 83.6176 58.114 80.8695 58.114C70.2208 58.0447 59.5721 58.114 48.9234 58.114C46.3815 58.114 45.0761 56.9364 45.1448 54.3736C45.2136 52.2264 45.1448 50.0791 45.1448 47.447C33.3282 48.9709 21.7177 49.0401 10.4507 55.5511C13.1987 56.8672 14.985 58.0447 16.9086 58.5296C22.8169 59.9149 28.7252 61.7158 34.6335 62.0621C48.786 62.9626 62.9385 63.586 77.091 63.4474C89.3198 63.3089 101.48 61.9236 113.228 58.1832C115.083 57.5598 116.8 56.4516 119.411 55.2048C108.007 49.3865 96.5334 48.9016 84.7168 47.5163C84.8542 50.0791 84.8542 52.0878 84.8542 54.1658Z" fill="#FF8D6C"/>
<path d="M72.6252 17.7319C67.4039 17.7319 62.6636 17.7319 57.4423 17.7319C55.9995 21.2645 54.282 25.2819 52.4271 29.5764C61.0147 29.5764 69.0528 29.5764 77.5717 29.5764C75.7855 25.2126 74.068 21.1952 72.6252 17.7319Z" fill="#FF8D6C"/>
<path d="M56.3431 35.3948C54.4882 35.3948 52.908 35.3948 51.0531 35.3948C51.0531 41.2824 51.0531 46.8236 51.0531 52.3649C52.9767 52.3649 54.6256 52.3649 56.3431 52.3649C56.3431 46.5466 56.3431 41.0053 56.3431 35.3948Z" fill="#FF8D6C"/>
<path d="M73.6559 52.2956C75.5795 52.2956 77.2284 52.2956 78.9459 52.2956C78.9459 46.5466 78.9459 41.0053 78.9459 35.3948C77.091 35.3948 75.5108 35.3948 73.6559 35.3948C73.6559 41.2131 73.6559 46.7544 73.6559 52.2956Z" fill="#FF8D6C"/>
<path d="M67.6099 52.3651C67.6099 46.6853 67.6099 41.144 67.6099 35.5334C65.755 35.5334 64.1748 35.5334 62.526 35.5334C62.526 41.2825 62.526 46.8238 62.526 52.3651C64.3122 52.3651 65.8924 52.3651 67.6099 52.3651Z" fill="#FF8D6C"/>
<path d="M5.36667 99.6735C5.36667 92.7469 5.36667 86.2359 5.36667 79.5864C-1.22866 82.2185 -2.32788 95.3098 5.36667 99.6735Z" fill="#FF8D6C"/>
<path d="M124.357 79.1709C124.357 86.236 124.357 92.8163 124.357 100.089C129.441 96.5566 130.54 92.1236 129.785 86.9979C129.304 83.6039 127.792 80.8333 124.357 79.1709Z" fill="#FF8D6C"/>
<path d="M64.9995 0C63.2132 4.22522 61.7018 7.61924 59.9156 11.8445C63.5568 11.8445 66.6483 11.8445 70.1521 11.8445C68.2971 7.61924 66.7857 4.15595 64.9995 0Z" fill="#FF8D6C"/>
</svg>
